<svg viewBox="0 0 1024 768" xmlns="http://www.w3.org/2000/svg" fill-rule="evenodd" clip-rule="evenodd"
    stroke-linecap="round" stroke-linejoin="round" stroke-miterlimit="1.5">
    <path d="M893.563 247.435l-260.829-82.544" fill="none" stroke="#000" stroke-width="4.06"
        transform="matrix(-.99765 .03118 -.03118 .909 1051.498 103.998)" />
    <path
        d="M681.508 456.989l75.235-84.502M874.77 456.989l-75.234-84.502M296.803 456.989l73.6-84.502M489.202 456.989l-73.6-84.502M778.44 327.708l-242.243-53.4"
        fill="none" stroke="#000" stroke-width="4.0037217" />
    <path d="M657.183 225.056l-66.371-51.781" fill="none" stroke="#000" stroke-width="4.62"
        transform="matrix(-.87817 -.01635 .01635 .88637 966.568 138.968)" />
    <g transform="matrix(.29853 0 0 .6597 325.309 132.39)">
        <path
            d="M731.429 185.017c0-23.045-41.346-41.755-92.273-41.755H369.294c-50.927 0-92.273 18.71-92.273 41.755s41.346 41.755 92.273 41.755h269.862c50.927 0 92.273-18.71 92.273-41.755z"
            fill="#fff" />
        <clipPath id="prefix__a">
            <path
                d="M731.429 185.017c0-23.045-41.346-41.755-92.273-41.755H369.294c-50.927 0-92.273 18.71-92.273 41.755s41.346 41.755 92.273 41.755h269.862c50.927 0 92.273-18.71 92.273-41.755z" />
        </clipPath>
        <g clip-path="url(#prefix__a)">
            <path
                d="M423.848 205.784c-7.194 0-12.9-.842-16.993-2.526-4.093-1.628-6.202-3.873-6.202-6.736 0-2.862 2.109-5.164 6.202-6.791 4.094-1.628 9.675-2.47 16.745-2.47h21.087v-3.087c0-1.852-1.24-3.312-3.721-4.378-2.605-1.067-6.078-1.572-10.544-1.572-3.969 0-7.318.393-10.047 1.179-2.728.786-4.465 1.796-5.085 3.087h-11.164c.373-1.74 1.861-3.255 4.218-4.546 2.356-1.291 5.457-2.358 9.303-3.087 3.845-.73 8.062-1.067 12.775-1.067 7.815 0 14.017.898 18.606 2.75 4.59 1.853 6.822 4.322 6.822 7.466v21.216h-10.915v-5.893h-.124c-.496 1.964-2.605 3.536-6.326 4.715-3.845 1.178-8.683 1.74-14.637 1.74zm2.73-3.986c5.333 0 9.674-.617 13.023-1.796 3.35-1.178 5.086-2.75 5.086-4.602v-4.378h-20.839c-3.72 0-6.698.449-8.806 1.403-2.109.954-3.225 2.189-3.225 3.817 0 1.74 1.364 3.087 3.969 4.097 2.48.954 6.202 1.46 10.791 1.46zM579.144 205.784c-8.31 0-14.885-1.067-19.722-3.144-4.962-2.076-7.443-4.995-7.443-8.644v-8.419c0-3.648 2.481-6.567 7.443-8.644 4.837-2.076 11.411-3.143 19.722-3.143 7.814 0 14.14.954 18.978 2.863 4.837 1.908 7.318 4.49 7.566 7.802h-11.164c-.248-1.965-1.736-3.537-4.34-4.603-2.73-1.01-6.45-1.572-11.04-1.572-4.838 0-8.807.618-11.66 1.853-2.853 1.29-4.341 3.087-4.341 5.388v8.475c0 2.302 1.488 4.098 4.341 5.389 2.853 1.29 6.822 1.908 11.66 1.908 4.59 0 8.31-.561 11.04-1.628 2.604-1.066 4.092-2.581 4.34-4.546h11.164c-.248 3.312-2.729 5.894-7.566 7.802-4.838 1.908-11.164 2.863-18.978 2.863z"
                fill-rule="nonzero" />
        </g>
        <path
            d="M731.429 185.017c0-23.045-41.346-41.755-92.273-41.755H369.294c-50.927 0-92.273 18.71-92.273 41.755s41.346 41.755 92.273 41.755h269.862c50.927 0 92.273-18.71 92.273-41.755z"
            fill="none" stroke="#000" stroke-width="7.81" />
    </g>
    <path d="M115.268 524.044L90.62 571.098" fill="none" stroke="#000" stroke-width="7.65" stroke-linecap="square"
        transform="matrix(-.60422 -.0495 -.15353 .57862 301.193 308.918)" />
    <path d="M115.268 524.044L90.62 571.098" fill="none" stroke="#000" stroke-width="7.51" stroke-linecap="square"
        transform="matrix(.61233 -.07958 .1329 .65514 -75.972 268.315)" />
    <path d="M115.268 524.044L90.62 571.098" fill="none" stroke="#000" stroke-width="7.91" stroke-linecap="square"
        transform="matrix(.58122 -.17177 .2541 .49043 -129.362 370.86)" />
    <path
        d="M251.016 546.22c5.099-10.719 37.248-18.715 75.247-18.715 38 0 70.149 7.996 75.247 18.715l53.906 113.323c2.941 6.182-3.645 12.424-18.065 17.122-14.419 4.698-35.266 7.393-57.182 7.393H272.357c-21.915 0-42.762-2.695-57.182-7.393-14.419-4.698-21.005-10.94-18.065-17.122l53.906-113.323z"
        fill="none" stroke="#bababa" stroke-width="2.94" transform="matrix(.52677 0 0 1.85058 -62.422 -661.428)" />
    <circle cx="154.775" cy="556.848" r="2.753" transform="matrix(.63603 0 0 .74555 -14.509 211.185)" />
    <circle cx="154.775" cy="556.848" r="2.753" transform="matrix(.63603 0 0 .74555 10.148 211.185)" />
    <circle cx="154.775" cy="556.848" r="2.753" transform="matrix(.63603 0 0 .74555 -2.18 211.185)" />
    <g>
        <path
            d="M97.517 559.064v13.263c0 .626.042 1.029.125 1.252.083.202.208.358.396.448.166.112.5.156.978.156v.403h-4.559v-.403c.437 0 .729-.044.875-.134.166-.09.27-.246.374-.47.084-.223.125-.626.125-1.252v-9.081c0-1.14-.02-1.834-.062-2.08-.063-.268-.125-.447-.23-.537a.63.63 0 00-.416-.134c-.166 0-.395.045-.666.157l-.166-.38 2.768-1.208h.458zM101.656 568.346c0 1.498.333 2.661 1.02 3.489.666.85 1.478 1.275 2.394 1.275.603 0 1.124-.18 1.581-.537.458-.358.833-.984 1.125-1.857l.333.224c-.146 1.007-.562 1.901-1.25 2.729-.686.805-1.54 1.23-2.58 1.23-1.104 0-2.061-.47-2.873-1.41-.79-.938-1.186-2.191-1.186-3.779 0-1.7.416-3.042 1.228-4.004.812-.961 1.831-1.431 3.08-1.431 1.041 0 1.895.38 2.56 1.118.667.738 1.02 1.722 1.02 2.953h-6.452zm0-.627h4.309c-.021-.648-.104-1.096-.209-1.364a2.22 2.22 0 00-.749-.962 1.871 1.871 0 00-1.061-.335c-.562 0-1.062.223-1.5.693-.457.47-.707 1.118-.79 1.968zM115.349 564.297v3.4h-.333c-.25-1.074-.583-1.812-.979-2.192-.416-.38-.916-.581-1.54-.581-.479 0-.874.134-1.166.402-.291.269-.437.582-.437.895 0 .425.125.76.333 1.051.208.313.646.626 1.29.962l1.479.76c1.374.738 2.06 1.678 2.06 2.863 0 .917-.312 1.633-.957 2.192-.645.56-1.353.85-2.144.85-.583 0-1.228-.112-1.957-.336-.229-.067-.416-.111-.562-.111-.145 0-.27.09-.354.29h-.333v-3.578h.333c.188 1.029.542 1.79 1.083 2.304.541.514 1.145.782 1.81.782.459 0 .833-.156 1.125-.447a1.4 1.4 0 00.458-1.074c0-.492-.167-.917-.5-1.252-.333-.336-.978-.783-1.956-1.297-1-.537-1.645-1.007-1.936-1.432-.312-.402-.458-.94-.458-1.565 0-.828.25-1.521.79-2.058.521-.56 1.208-.828 2.04-.828.355 0 .792.067 1.333.246.333.112.562.157.687.157a.42.42 0 00.25-.067 1.72 1.72 0 00.208-.336h.333zM123.45 564.297v3.4h-.334c-.25-1.074-.583-1.812-.978-2.192-.416-.38-.916-.581-1.54-.581-.48 0-.875.134-1.166.402-.292.269-.437.582-.437.895 0 .425.125.76.333 1.051.208.313.645.626 1.29.962l1.478.76c1.374.738 2.06 1.678 2.06 2.863 0 .917-.311 1.633-.957 2.192-.645.56-1.353.85-2.144.85-.582 0-1.228-.112-1.956-.336-.23-.067-.416-.111-.562-.111-.146 0-.27.09-.354.29h-.333v-3.578h.333c.187 1.029.541 1.79 1.082 2.304.542.514 1.145.782 1.811.782.458 0 .833-.156 1.124-.447a1.4 1.4 0 00.458-1.074c0-.492-.166-.917-.5-1.252-.332-.336-.978-.783-1.956-1.297-1-.537-1.644-1.007-1.936-1.432-.312-.402-.458-.94-.458-1.565 0-.828.25-1.521.791-2.058.52-.56 1.208-.828 2.04-.828.354 0 .791.067 1.332.246.333.112.562.157.687.157a.42.42 0 00.25-.067 1.72 1.72 0 00.208-.336h.333zM85.864 584.617v3.288h2.186v.76h-2.186v6.487c0 .649.084 1.073.27 1.32a.798.798 0 00.667.335c.208 0 .437-.09.645-.224a1.42 1.42 0 00.479-.67h.395c-.229.715-.562 1.252-.999 1.61-.437.358-.874.537-1.332.537-.312 0-.624-.09-.916-.269-.312-.179-.52-.447-.666-.805-.145-.336-.208-.872-.208-1.588v-6.732h-1.478v-.358c.375-.157.75-.425 1.145-.828.375-.38.729-.827 1.04-1.342.146-.29.375-.783.646-1.52h.312zM91.689 582.38v7.314c.75-.894 1.332-1.453 1.79-1.722a2.636 2.636 0 011.311-.358c.52 0 .979.157 1.353.47.396.313.666.805.854 1.454.125.47.187 1.32.187 2.572v3.534c0 .626.063 1.074.146 1.297a.852.852 0 00.354.425c.145.09.458.134.895.134v.403h-4.58v-.403h.209c.437 0 .728-.067.915-.2.167-.135.271-.359.354-.627.021-.112.021-.47.021-1.03v-3.533c0-1.096-.042-1.812-.146-2.147-.104-.358-.27-.604-.52-.783-.229-.179-.5-.246-.833-.246-.333 0-.666.09-1.02.268-.374.202-.79.582-1.29 1.163v5.279c0 .693.02 1.118.104 1.275.063.179.187.313.396.425.187.112.52.156.999.156v.403h-4.621v-.403c.416 0 .75-.067.978-.2.146-.068.25-.202.333-.404.083-.223.125-.626.125-1.252v-9.059c0-1.14-.042-1.834-.083-2.102-.063-.268-.125-.447-.23-.537-.103-.09-.249-.134-.436-.134-.125 0-.375.045-.687.157l-.146-.38 2.79-1.208h.478zM104.636 596.471c-.958.783-1.561 1.253-1.811 1.365-.354.179-.75.268-1.166.268-.645 0-1.165-.223-1.582-.693-.416-.492-.624-1.096-.624-1.879 0-.492.104-.917.291-1.275.292-.492.77-.962 1.457-1.387.687-.447 1.832-.961 3.435-1.588v-.402c0-1.007-.146-1.678-.458-2.058-.291-.358-.708-.559-1.27-.559-.437 0-.77.134-1.02.38-.27.246-.395.537-.395.85l.02.626c0 .336-.083.604-.228.783a.818.818 0 01-.625.269.818.818 0 01-.624-.269c-.146-.201-.23-.447-.23-.783 0-.626.292-1.207.896-1.722.583-.537 1.436-.783 2.498-.783.832 0 1.52.135 2.04.448.395.223.686.559.874 1.05.125.314.187.963.187 1.924v3.4c0 .94.02 1.521.063 1.745.02.223.083.358.166.425.063.09.167.112.27.112a.544.544 0 00.271-.068c.146-.089.417-.357.833-.805v.626c-.77 1.074-1.478 1.633-2.186 1.633-.333 0-.583-.134-.79-.38-.188-.246-.292-.671-.292-1.253zm0-.715v-3.825c-1.02.447-1.686.76-1.998.94-.52.313-.916.648-1.145 1.006a2.018 2.018 0 00-.333 1.14c0 .537.146.962.437 1.298.291.358.624.537.999.537.52 0 1.186-.38 2.04-1.096zM111.314 589.717c1.082-1.41 2.123-2.103 3.122-2.103.5 0 .937.135 1.312.403.353.268.645.716.874 1.342.146.447.208 1.118.208 2.013v4.272c0 .626.062 1.051.146 1.297a.973.973 0 00.354.425c.166.09.478.134.936.134v.403h-4.62v-.403h.207c.438 0 .729-.067.896-.2.187-.135.29-.359.374-.627.021-.112.042-.448.042-1.03v-4.092c0-.917-.125-1.566-.333-1.99-.23-.403-.604-.605-1.124-.605-.791 0-1.603.47-2.394 1.41v5.278c0 .67.02 1.096.104 1.252.104.224.23.358.396.47.166.09.5.134.999.134v.403h-4.6v-.403h.208c.479 0 .79-.111.957-.38.167-.246.25-.76.25-1.476v-3.713c0-1.208-.02-1.946-.083-2.192-.042-.268-.125-.447-.23-.537a.642.642 0 00-.415-.156c-.188 0-.417.067-.687.179l-.146-.403 2.81-1.208h.437v2.103zM128.799 598.127c-1.208 0-2.165-.336-2.852-1.007-.687-.649-1.04-1.543-1.04-2.684 0-1.14.353-2.058 1.04-2.706.687-.649 1.624-.984 2.81-.984h3.539v-1.23c0-.739-.209-1.32-.625-1.745-.437-.425-1.02-.626-1.77-.626-.665 0-1.227.156-1.685.47-.458.312-.75.715-.854 1.23h-1.873a3.43 3.43 0 01.708-1.812c.395-.515.916-.94 1.56-1.23.646-.291 1.354-.425 2.145-.425 1.311 0 2.352.358 3.122 1.096.77.738 1.145 1.722 1.145 2.974v8.455h-1.832v-2.349h-.02a2.6 2.6 0 01-1.062 1.88c-.645.469-1.457.693-2.456.693zm.458-1.588c.895 0 1.623-.246 2.185-.716s.854-1.096.854-1.834v-1.745h-3.497c-.625 0-1.124.18-1.478.56-.354.38-.541.872-.541 1.52 0 .694.229 1.23.666 1.633.416.38 1.04.582 1.81.582z"
            fill="#b12e1e" fill-rule="nonzero" />
    </g>
    <g transform="matrix(.66808 0 0 .66808 479.424 252.65)">
        <circle cx="447.581" cy="153.572" r="41.223" fill="none" />
        <clipPath id="prefix__b">
            <circle cx="447.581" cy="153.572" r="41.223" />
        </clipPath>
        <g clip-path="url(#prefix__b)">
            <path
                d="M446.501 171.844c-3.048 0-5.487-.998-7.316-3.048-1.884-2.051-2.827-4.767-2.827-8.259v-8.923c0-3.492.943-6.263 2.772-8.314 1.829-2.05 4.323-3.049 7.371-3.049 2.273 0 4.157.555 5.654 1.719 1.496 1.164 2.328 2.715 2.605 4.655h.166l-.11-6.928v-8.868h4.987v40.46h-4.988v-5.819h-.055c-.277 1.995-1.109 3.547-2.605 4.656-1.497 1.164-3.381 1.718-5.654 1.718zm1.663-4.323c2.05 0 3.714-.665 4.878-1.94 1.163-1.275 1.773-3.104 1.773-5.376v-8.314c0-2.273-.61-4.102-1.773-5.377-1.164-1.274-2.827-1.94-4.878-1.94-2.106 0-3.769.61-4.988 1.885-1.22 1.275-1.83 3.048-1.83 5.432v8.314c0 2.383.61 4.157 1.83 5.431 1.22 1.275 2.882 1.885 4.988 1.885z"
                fill-rule="nonzero" />
        </g>
        <circle cx="447.581" cy="153.572" r="41.223" fill="none" stroke="#000" stroke-width="5.99" />
    </g>
    <g transform="matrix(-.66808 0 0 .66808 692.15 252.65)">
        <circle cx="447.581" cy="153.572" r="41.223" fill="none" />
        <clipPath id="prefix__c">
            <circle cx="447.581" cy="153.572" r="41.223" />
        </clipPath>
        <g clip-path="url(#prefix__c)">
            <path
                d="M445.116 172.06c2.273 0 4.157-.555 5.654-1.719 1.496-1.108 2.328-2.66 2.605-4.655h.055v5.82h4.989v-40.461h-4.989v8.868l.111 6.928h-.166c-.277-1.94-1.109-3.492-2.605-4.656-1.497-1.164-3.381-1.718-5.654-1.718-3.048 0-5.542.998-7.371 3.048-1.83 2.051-2.771 4.823-2.771 8.314v8.924c0 3.492.942 6.208 2.77 8.258 1.83 2.051 4.324 3.049 7.372 3.049zm1.663-4.324c-2.106 0-3.769-.61-4.988-1.884-1.22-1.275-1.83-3.048-1.83-5.432v-8.314c0-2.383.61-4.156 1.83-5.431 1.22-1.275 2.882-1.885 4.988-1.885 2.051 0 3.658.665 4.822 1.94 1.22 1.275 1.83 3.104 1.83 5.376v8.314c0 2.273-.61 4.102-1.83 5.377-1.164 1.274-2.771 1.94-4.822 1.94z"
                fill-rule="nonzero" />
        </g>
        <circle cx="447.581" cy="153.572" r="41.223" fill="none" stroke="#000" stroke-width="5.99" />
    </g>
    <g>
        <path d="M115.268 524.044L90.62 571.098" fill="none" stroke="#000" stroke-width="6.61" stroke-linecap="square"
            transform="matrix(.73269 -.05072 .18651 .59775 58.648 298.538)" />
        <path d="M115.268 524.044L90.62 571.098" fill="none" stroke="#000" stroke-width="6.61" stroke-linecap="square"
            transform="matrix(-.73285 -.05122 -.18621 .5987 535.073 297.882)" />
        <path d="M115.268 524.044L90.62 571.098" fill="none" stroke="#000" stroke-width="6.64" stroke-linecap="square"
            transform="matrix(.70495 -.17773 .3082 .50746 6.87 362.298)" />
        <circle cx="154.775" cy="556.848" r="2.753" transform="matrix(.77143 0 0 .77143 145.017 193.851)" />
        <circle cx="154.775" cy="556.848" r="2.753" transform="matrix(.77143 0 0 .77143 174.923 193.851)" />
        <circle cx="154.775" cy="556.848" r="2.753" transform="matrix(.77143 0 0 .77143 159.97 193.851)" />
        <g>
            <path
                d="M555.714 453.788c7.067-9.596 19.239-15.397 32.308-15.397 13.07 0 25.242 5.801 32.309 15.397l39.074 53.059c7.598 10.317 8.136 23.432 1.404 34.197-6.733 10.765-19.662 17.462-33.712 17.462h-78.149c-14.05 0-26.979-6.697-33.712-17.462-6.732-10.765-6.194-23.88 1.404-34.197l39.074-53.059z"
                fill="#fff" stroke="#c1c1c1" stroke-width="3.57"
                transform="matrix(1.04143 0 0 1.19302 -315.58 -61.854)" />
        </g>
        <g>
            <path
                d="M261.895 565.45c.995-1.389 2.083-2.083 3.24-2.083 1.064 0 1.99.44 2.777 1.342.787.926 1.18 2.153 1.18 3.726 0 1.852-.601 3.333-1.828 4.444-1.041.972-2.199 1.458-3.495 1.458a5.64 5.64 0 01-1.828-.324 8.969 8.969 0 01-1.92-.995v-10.716c0-1.18-.024-1.897-.07-2.175-.07-.278-.162-.463-.278-.555a.712.712 0 00-.44-.14 2.38 2.38 0 00-.81.163l-.138-.394 3.1-1.25h.51v7.499zm0 .717v6.203c.37.37.787.648 1.18.856a3.08 3.08 0 001.273.278c.671 0 1.32-.37 1.92-1.134.58-.741.88-1.852.88-3.287 0-1.319-.3-2.337-.88-3.055-.6-.717-1.272-1.064-2.036-1.064-.393 0-.787.092-1.18.3-.3.163-.694.464-1.157.903zM272.355 567.556c0 1.55.37 2.754 1.134 3.61.741.88 1.644 1.32 2.662 1.32.671 0 1.25-.186 1.759-.556.509-.37.925-1.018 1.25-1.921l.37.231c-.162 1.042-.625 1.968-1.389 2.824-.764.833-1.712 1.273-2.87 1.273-1.226 0-2.29-.486-3.193-1.458-.88-.972-1.32-2.268-1.32-3.911 0-1.76.463-3.148 1.366-4.143.903-.995 2.037-1.481 3.425-1.481 1.157 0 2.106.393 2.847 1.157.74.764 1.134 1.782 1.134 3.055h-7.175zm0-.648h4.791c-.023-.671-.116-1.134-.231-1.412a2.329 2.329 0 00-.834-.995 2.19 2.19 0 00-1.18-.347c-.625 0-1.18.231-1.666.717-.51.486-.787 1.157-.88 2.037zM283.9 560.266v3.402h2.43v.787h-2.43v6.711c0 .671.093 1.111.301 1.366a.91.91 0 00.741.347c.231 0 .486-.093.717-.232.232-.162.417-.393.533-.694h.44c-.255.74-.625 1.296-1.111 1.666-.486.37-.972.556-1.482.556-.347 0-.694-.093-1.018-.278-.347-.185-.578-.463-.74-.833-.162-.347-.232-.903-.232-1.643v-6.966h-1.643v-.37c.417-.163.833-.44 1.273-.857.416-.393.81-.856 1.157-1.388.162-.301.417-.81.717-1.574h.348zM286.743 563.668h4.351v.416c-.393.024-.671.093-.787.209a.663.663 0 00-.185.486c0 .231.07.509.185.856l2.222 5.948 2.222-4.837-.579-1.528c-.185-.462-.416-.763-.717-.948-.162-.093-.486-.162-.926-.186v-.416h4.93v.416c-.556.024-.926.116-1.158.278-.162.139-.231.324-.231.579 0 .162.023.324.092.463l2.361 5.947 2.175-5.716c.14-.417.232-.74.232-.972 0-.139-.093-.278-.232-.393-.138-.116-.44-.186-.856-.186v-.416h3.263v.416c-.648.093-1.134.533-1.458 1.32l-3.448 8.933h-.463l-2.592-6.62-3.008 6.62h-.417l-3.333-8.702c-.208-.555-.44-.926-.648-1.11-.208-.21-.532-.348-.995-.44v-.417zM305.77 567.556c0 1.55.37 2.754 1.135 3.61.74.88 1.643 1.32 2.661 1.32.671 0 1.25-.186 1.759-.556.509-.37.926-1.018 1.25-1.921l.37.231c-.162 1.042-.625 1.968-1.389 2.824-.763.833-1.712 1.273-2.87 1.273-1.226 0-2.29-.486-3.193-1.458-.88-.972-1.32-2.268-1.32-3.911 0-1.76.464-3.148 1.366-4.143.903-.995 2.037-1.481 3.425-1.481 1.157 0 2.106.393 2.847 1.157.74.764 1.134 1.782 1.134 3.055h-7.174zm0-.648h4.791c-.023-.671-.116-1.134-.231-1.412a2.329 2.329 0 00-.833-.995 2.19 2.19 0 00-1.18-.347c-.626 0-1.181.231-1.667.717-.51.486-.787 1.157-.88 2.037zM316.042 567.556c0 1.55.37 2.754 1.134 3.61.74.88 1.643 1.32 2.662 1.32.67 0 1.25-.186 1.758-.556.51-.37.926-1.018 1.25-1.921l.37.231c-.162 1.042-.624 1.968-1.388 2.824-.764.833-1.713 1.273-2.87 1.273-1.226 0-2.291-.486-3.194-1.458-.879-.972-1.319-2.268-1.319-3.911 0-1.76.463-3.148 1.366-4.143.902-.995 2.036-1.481 3.425-1.481 1.157 0 2.106.393 2.846 1.157.741.764 1.134 1.782 1.134 3.055h-7.174zm0-.648h4.79c-.022-.671-.115-1.134-.23-1.412a2.329 2.329 0 00-.834-.995 2.19 2.19 0 00-1.18-.347c-.625 0-1.18.231-1.666.717-.51.486-.787 1.157-.88 2.037zM327.61 565.542c1.204-1.458 2.361-2.175 3.472-2.175.555 0 1.041.139 1.458.417.393.277.717.74.972 1.388.162.463.231 1.157.231 2.083v4.42c0 .648.07 1.088.162 1.343.093.185.209.324.394.44.185.092.532.138 1.041.138v.417h-5.137v-.417h.231c.486 0 .81-.07.995-.208.208-.139.324-.37.417-.648.023-.116.046-.463.046-1.065v-4.235c0-.949-.139-1.62-.37-2.06-.255-.416-.671-.624-1.25-.624-.88 0-1.782.486-2.661 1.458v5.461c0 .695.023 1.134.115 1.296.116.232.255.37.44.486.185.093.555.14 1.11.14v.416h-5.114v-.417h.232c.532 0 .88-.116 1.064-.393.185-.255.278-.787.278-1.528v-3.841c0-1.25-.023-2.014-.093-2.268-.046-.278-.138-.463-.254-.556a.745.745 0 00-.463-.162c-.208 0-.463.07-.764.185l-.162-.416 3.125-1.25h.486v2.175zM266.335 598.37c-1.342 0-2.407-.347-3.17-1.04-.764-.672-1.158-1.598-1.158-2.778s.394-2.13 1.158-2.8c.763-.671 1.805-1.019 3.124-1.019h3.934v-1.272c0-.764-.231-1.366-.694-1.806-.486-.44-1.134-.648-1.967-.648-.74 0-1.366.162-1.875.486-.509.324-.833.741-.949 1.273h-2.083c.07-.717.348-1.342.787-1.874a4.463 4.463 0 011.736-1.273c.717-.3 1.504-.44 2.384-.44 1.458 0 2.615.37 3.471 1.134.856.764 1.273 1.782 1.273 3.078v8.748h-2.037v-2.43h-.023c-.092.81-.486 1.458-1.18 1.944-.717.486-1.62.718-2.73.718zm.51-1.643c.994 0 1.804-.254 2.43-.74.624-.486.948-1.134.948-1.898v-1.805h-3.888c-.694 0-1.25.185-1.643.579-.393.393-.602.902-.602 1.573 0 .718.255 1.273.74 1.69.464.393 1.158.601 2.014.601zM286.77 596.658c-1.064.81-1.735 1.296-2.013 1.412a3.03 3.03 0 01-1.296.277c-.718 0-1.296-.23-1.759-.717-.463-.51-.694-1.134-.694-1.944 0-.51.115-.949.324-1.32.324-.508.856-.994 1.62-1.434.763-.463 2.036-.995 3.818-1.643v-.417c0-1.041-.162-1.735-.509-2.129-.324-.37-.787-.578-1.412-.578-.486 0-.856.138-1.134.393-.3.255-.44.555-.44.88l.024.647c0 .348-.093.625-.255.81a.942.942 0 01-.694.278.942.942 0 01-.694-.278c-.162-.208-.255-.462-.255-.81 0-.648.324-1.25.995-1.782.648-.555 1.597-.81 2.777-.81.926 0 1.69.14 2.268.463.44.232.764.579.972 1.088.14.324.209.995.209 1.99v3.518c0 .972.023 1.574.07 1.805.022.232.092.37.184.44.07.092.185.116.301.116a.64.64 0 00.301-.07c.162-.092.463-.37.926-.833v.648c-.857 1.11-1.643 1.69-2.43 1.69-.37 0-.648-.14-.88-.394-.208-.255-.324-.694-.324-1.296zm0-.74v-3.958c-1.134.463-1.874.787-2.221.972-.579.324-1.019.671-1.273 1.041-.255.348-.37.764-.37 1.18 0 .556.161.996.485 1.343.324.37.695.555 1.111.555.579 0 1.32-.393 2.268-1.134zM294.195 589.669c1.204-1.458 2.36-2.176 3.472-2.176.555 0 1.041.14 1.458.417.393.278.717.74.972 1.389.162.462.231 1.157.231 2.082v4.42c0 .649.07 1.088.162 1.343.093.185.208.324.394.44.185.092.532.139 1.041.139v.416h-5.138v-.416h.232c.486 0 .81-.07.995-.209.208-.139.324-.37.416-.648.024-.115.047-.463.047-1.064v-4.235c0-.95-.14-1.62-.37-2.06-.255-.417-.672-.625-1.25-.625-.88 0-1.782.486-2.662 1.458v5.462c0 .694.023 1.134.116 1.296.116.231.255.37.44.486.185.092.555.139 1.11.139v.416h-5.114v-.416h.231c.533 0 .88-.116 1.065-.394.185-.254.278-.787.278-1.527v-3.842c0-1.25-.023-2.013-.093-2.268-.046-.278-.139-.463-.254-.555a.745.745 0 00-.463-.162c-.209 0-.463.07-.764.185l-.162-.417 3.124-1.25h.486v2.176zM310.048 596.982c-.509.51-.995.903-1.481 1.134a3.537 3.537 0 01-1.55.347c-1.135 0-2.13-.486-2.963-1.435-.856-.925-1.273-2.152-1.273-3.633 0-1.481.463-2.847 1.412-4.073.926-1.227 2.13-1.852 3.61-1.852.903 0 1.643.301 2.245.88v-1.921c0-1.18-.023-1.898-.07-2.176-.069-.277-.161-.462-.277-.555a.712.712 0 00-.44-.139c-.208 0-.463.046-.787.162l-.162-.393 3.102-1.25h.509v11.965c0 1.203.023 1.944.07 2.222.069.254.161.44.277.555a.73.73 0 00.44.162c.208 0 .462-.07.81-.208l.115.393-3.055 1.296h-.532v-1.48zm0-.787v-5.346a3.866 3.866 0 00-.393-1.388 2.452 2.452 0 00-.903-.972c-.37-.209-.74-.324-1.088-.324-.67 0-1.272.3-1.782.902-.694.787-1.018 1.921-1.018 3.425 0 1.528.324 2.685.995 3.495.648.81 1.389 1.226 2.199 1.226.694 0 1.342-.347 1.99-1.018zM327.058 598.37c-.949 0-1.736-.23-2.36-.717-.625-.463-.972-1.11-1.088-1.944h-.023v2.43h-2.083v-16.894h2.083v3.703l-.047 2.893h.07c.116-.81.463-1.458 1.088-1.944.624-.486 1.411-.718 2.36-.718 1.273 0 2.314.417 3.078 1.273.764.856 1.157 2.013 1.157 3.471v3.726c0 1.458-.393 2.592-1.157 3.449-.764.856-1.805 1.273-3.078 1.273zm-.694-1.805c.88 0 1.574-.254 2.083-.786.509-.533.763-1.273.763-2.268v-3.472c0-.995-.254-1.736-.763-2.268-.51-.532-1.204-.787-2.083-.787-.856 0-1.528.278-2.014.81-.509.533-.763 1.296-.763 2.245v3.472c0 .948.254 1.712.763 2.244.486.533 1.158.81 2.014.81z"
                fill="#b12e1e" fill-rule="nonzero" />
        </g>
    </g>
    <g>
        <path
            d="M555.714 453.788c7.067-9.596 19.239-15.397 32.308-15.397 13.07 0 25.242 5.801 32.309 15.397l39.074 53.059c7.598 10.317 8.136 23.432 1.404 34.197-6.733 10.765-19.662 17.462-33.712 17.462h-78.149c-14.05 0-26.979-6.697-33.712-17.462-6.732-10.765-6.194-23.88 1.404-34.197l39.074-53.059z"
            fill="#fff" stroke="#c1c1c1" stroke-width="3.57" transform="matrix(1.04143 0 0 1.19302 -122.925 -61.854)" />
        <path d="M115.268 524.044L90.62 571.098" fill="none" stroke="#000" stroke-width="6.61" stroke-linecap="square"
            transform="matrix(.73269 -.05072 .18651 .59775 251.304 298.538)" />
        <path d="M115.268 524.044L90.62 571.098" fill="none" stroke="#000" stroke-width="6.61" stroke-linecap="square"
            transform="matrix(-.73285 -.05122 -.18621 .5987 727.729 297.882)" />
        <path d="M115.268 524.044L90.62 571.098" fill="none" stroke="#000" stroke-width="6.64" stroke-linecap="square"
            transform="matrix(.70495 -.17773 .3082 .50746 199.526 362.298)" />
        <circle cx="154.775" cy="556.848" r="2.753" transform="matrix(.77143 0 0 .77143 337.673 193.851)" />
        <circle cx="154.775" cy="556.848" r="2.753" transform="matrix(.77143 0 0 .77143 367.58 193.851)" />
        <circle cx="154.775" cy="556.848" r="2.753" transform="matrix(.77143 0 0 .77143 352.626 193.851)" />
        <g>
            <path
                d="M454.55 565.45c.996-1.389 2.084-2.083 3.24-2.083 1.065 0 1.991.44 2.778 1.342.787.926 1.18 2.153 1.18 3.726 0 1.852-.601 3.333-1.828 4.444-1.041.972-2.199 1.458-3.495 1.458a5.64 5.64 0 01-1.828-.324 8.969 8.969 0 01-1.92-.995v-10.716c0-1.18-.024-1.897-.07-2.175-.07-.278-.162-.463-.278-.555a.712.712 0 00-.44-.14 2.38 2.38 0 00-.81.163l-.138-.394 3.1-1.25h.51v7.499zm0 .717v6.203c.371.37.788.648 1.181.856a3.08 3.08 0 001.273.278c.671 0 1.32-.37 1.92-1.134.58-.741.88-1.852.88-3.287 0-1.319-.3-2.337-.88-3.055-.6-.717-1.272-1.064-2.036-1.064-.393 0-.787.092-1.18.3-.3.163-.694.464-1.157.903zM465.011 567.556c0 1.55.37 2.754 1.134 3.61.741.88 1.644 1.32 2.662 1.32.671 0 1.25-.186 1.759-.556.509-.37.925-1.018 1.25-1.921l.37.231c-.162 1.042-.625 1.968-1.389 2.824-.764.833-1.712 1.273-2.87 1.273-1.226 0-2.29-.486-3.193-1.458-.88-.972-1.32-2.268-1.32-3.911 0-1.76.463-3.148 1.366-4.143.903-.995 2.037-1.481 3.425-1.481 1.157 0 2.106.393 2.847 1.157.74.764 1.134 1.782 1.134 3.055h-7.175zm0-.648h4.791c-.023-.671-.116-1.134-.231-1.412a2.329 2.329 0 00-.834-.995 2.19 2.19 0 00-1.18-.347c-.625 0-1.18.231-1.666.717-.51.486-.787 1.157-.88 2.037zM476.557 560.266v3.402h2.43v.787h-2.43v6.711c0 .671.092 1.111.3 1.366a.91.91 0 00.741.347c.231 0 .486-.093.717-.232.232-.162.417-.393.533-.694h.44c-.255.74-.625 1.296-1.111 1.666-.486.37-.972.556-1.482.556-.347 0-.694-.093-1.018-.278-.347-.185-.578-.463-.74-.833-.162-.347-.232-.903-.232-1.643v-6.966h-1.643v-.37c.417-.163.833-.44 1.273-.857.416-.393.81-.856 1.157-1.388.162-.301.417-.81.717-1.574h.348zM479.4 563.668h4.35v.416c-.393.024-.67.093-.787.209a.663.663 0 00-.185.486c0 .231.07.509.185.856l2.222 5.948 2.222-4.837-.579-1.528c-.185-.462-.416-.763-.717-.948-.162-.093-.486-.162-.926-.186v-.416h4.93v.416c-.556.024-.926.116-1.158.278-.162.139-.231.324-.231.579 0 .162.023.324.092.463l2.361 5.947 2.175-5.716c.14-.417.232-.74.232-.972 0-.139-.093-.278-.232-.393-.138-.116-.44-.186-.856-.186v-.416h3.263v.416c-.648.093-1.134.533-1.458 1.32l-3.448 8.933h-.463l-2.592-6.62-3.008 6.62h-.417l-3.333-8.702c-.208-.555-.44-.926-.648-1.11-.208-.21-.532-.348-.995-.44v-.417zM498.427 567.556c0 1.55.37 2.754 1.134 3.61.74.88 1.643 1.32 2.661 1.32.671 0 1.25-.186 1.759-.556.51-.37.926-1.018 1.25-1.921l.37.231c-.162 1.042-.625 1.968-1.389 2.824-.763.833-1.712 1.273-2.87 1.273-1.226 0-2.29-.486-3.193-1.458-.88-.972-1.32-2.268-1.32-3.911 0-1.76.464-3.148 1.366-4.143.903-.995 2.037-1.481 3.425-1.481 1.157 0 2.106.393 2.847 1.157.74.764 1.134 1.782 1.134 3.055h-7.174zm0-.648h4.79c-.023-.671-.116-1.134-.231-1.412a2.329 2.329 0 00-.833-.995 2.19 2.19 0 00-1.18-.347c-.626 0-1.18.231-1.667.717-.51.486-.787 1.157-.88 2.037zM508.698 567.556c0 1.55.37 2.754 1.134 3.61.74.88 1.643 1.32 2.662 1.32.67 0 1.25-.186 1.758-.556.51-.37.926-1.018 1.25-1.921l.37.231c-.162 1.042-.624 1.968-1.388 2.824-.764.833-1.713 1.273-2.87 1.273-1.226 0-2.29-.486-3.194-1.458-.879-.972-1.319-2.268-1.319-3.911 0-1.76.463-3.148 1.366-4.143.902-.995 2.036-1.481 3.425-1.481 1.157 0 2.106.393 2.846 1.157.741.764 1.134 1.782 1.134 3.055h-7.174zm0-.648h4.79c-.022-.671-.115-1.134-.23-1.412a2.329 2.329 0 00-.834-.995 2.19 2.19 0 00-1.18-.347c-.625 0-1.18.231-1.666.717-.51.486-.787 1.157-.88 2.037zM520.267 565.542c1.203-1.458 2.36-2.175 3.471-2.175.555 0 1.041.139 1.458.417.393.277.717.74.972 1.388.162.463.231 1.157.231 2.083v4.42c0 .648.07 1.088.162 1.343.093.185.209.324.394.44.185.092.532.138 1.041.138v.417h-5.137v-.417h.231c.486 0 .81-.07.995-.208.208-.139.324-.37.417-.648.023-.116.046-.463.046-1.065v-4.235c0-.949-.139-1.62-.37-2.06-.255-.416-.671-.624-1.25-.624-.88 0-1.782.486-2.661 1.458v5.461c0 .695.023 1.134.115 1.296.116.232.255.37.44.486.185.093.555.14 1.11.14v.416h-5.114v-.417h.232c.532 0 .88-.116 1.064-.393.185-.255.278-.787.278-1.528v-3.841c0-1.25-.023-2.014-.093-2.268-.046-.278-.138-.463-.254-.556a.745.745 0 00-.463-.162c-.208 0-.463.07-.764.185l-.162-.416 3.125-1.25h.486v2.175zM460.843 598.37c-.95 0-1.736-.23-2.36-.717-.626-.463-.973-1.11-1.089-1.944h-.023v2.43h-2.083v-16.894h2.083v3.703l-.046 2.893h.07c.115-.81.462-1.458 1.087-1.944s1.412-.718 2.36-.718c1.273 0 2.315.417 3.079 1.273.763.856 1.157 2.013 1.157 3.471v3.726c0 1.458-.394 2.592-1.157 3.449-.764.856-1.806 1.273-3.078 1.273zm-.695-1.805c.88 0 1.574-.254 2.083-.786.51-.533.764-1.273.764-2.268v-3.472c0-.995-.255-1.736-.764-2.268-.509-.532-1.203-.787-2.083-.787-.856 0-1.527.278-2.013.81-.51.533-.764 1.296-.764 2.245v3.472c0 .948.255 1.712.764 2.244.486.533 1.157.81 2.013.81zM479.426 596.658c-1.064.81-1.735 1.296-2.013 1.412a3.03 3.03 0 01-1.296.277c-.718 0-1.296-.23-1.759-.717-.463-.51-.694-1.134-.694-1.944 0-.51.115-.949.324-1.32.324-.508.856-.994 1.62-1.434.763-.463 2.036-.995 3.818-1.643v-.417c0-1.041-.162-1.735-.509-2.129-.324-.37-.787-.578-1.412-.578-.486 0-.856.138-1.134.393-.3.255-.44.555-.44.88l.024.647c0 .348-.093.625-.255.81a.942.942 0 01-.694.278.942.942 0 01-.694-.278c-.162-.208-.255-.462-.255-.81 0-.648.324-1.25.995-1.782.648-.555 1.597-.81 2.777-.81.926 0 1.69.14 2.268.463.44.232.764.579.972 1.088.14.324.209.995.209 1.99v3.518c0 .972.023 1.574.07 1.805.022.232.092.37.184.44.07.092.185.116.301.116a.64.64 0 00.301-.07c.162-.092.463-.37.926-.833v.648c-.857 1.11-1.643 1.69-2.43 1.69-.37 0-.648-.14-.88-.394-.208-.255-.324-.694-.324-1.296zm0-.74v-3.958c-1.134.463-1.874.787-2.221.972-.579.324-1.019.671-1.273 1.041-.255.348-.37.764-.37 1.18 0 .556.161.996.485 1.343.324.37.695.555 1.111.555.579 0 1.32-.393 2.268-1.134zM486.851 589.669c1.204-1.458 2.36-2.176 3.472-2.176.555 0 1.041.14 1.458.417.393.278.717.74.972 1.389.162.462.231 1.157.231 2.082v4.42c0 .649.07 1.088.162 1.343.093.185.208.324.394.44.185.092.532.139 1.041.139v.416h-5.138v-.416h.232c.486 0 .81-.07.995-.209.208-.139.324-.37.416-.648.024-.115.047-.463.047-1.064v-4.235c0-.95-.14-1.62-.37-2.06-.255-.417-.672-.625-1.25-.625-.88 0-1.782.486-2.662 1.458v5.462c0 .694.023 1.134.116 1.296.116.231.255.37.44.486.185.092.555.139 1.11.139v.416h-5.114v-.416h.231c.533 0 .88-.116 1.065-.394.185-.254.278-.787.278-1.527v-3.842c0-1.25-.023-2.013-.093-2.268-.046-.278-.139-.463-.254-.555a.745.745 0 00-.463-.162c-.209 0-.463.07-.764.185l-.162-.417 3.124-1.25h.486v2.176zM502.704 596.982c-.509.51-.995.903-1.48 1.134a3.537 3.537 0 01-1.552.347c-1.134 0-2.129-.486-2.962-1.435-.856-.925-1.273-2.152-1.273-3.633 0-1.481.463-2.847 1.412-4.073.926-1.227 2.13-1.852 3.61-1.852.903 0 1.643.301 2.245.88v-1.921c0-1.18-.023-1.898-.07-2.176-.069-.277-.161-.462-.277-.555a.712.712 0 00-.44-.139c-.208 0-.463.046-.787.162l-.162-.393 3.102-1.25h.509v11.965c0 1.203.023 1.944.07 2.222.069.254.161.44.277.555a.73.73 0 00.44.162c.208 0 .462-.07.81-.208l.115.393-3.055 1.296h-.532v-1.48zm0-.787v-5.346a3.866 3.866 0 00-.393-1.388 2.452 2.452 0 00-.903-.972c-.37-.209-.74-.324-1.088-.324-.67 0-1.272.3-1.782.902-.694.787-1.018 1.921-1.018 3.425 0 1.528.324 2.685.995 3.495.648.81 1.389 1.226 2.199 1.226.694 0 1.342-.347 1.99-1.018zM519.066 598.37c-1.55 0-2.777-.44-3.68-1.295-.925-.857-1.388-2.06-1.388-3.564v-3.472c0-1.504.463-2.708 1.388-3.564.903-.856 2.13-1.296 3.68-1.296 1.458 0 2.639.394 3.541 1.18.903.787 1.366 1.852 1.412 3.217h-2.083c-.046-.81-.324-1.458-.81-1.897-.51-.417-1.203-.648-2.06-.648-.902 0-1.643.254-2.175.763-.532.533-.81 1.273-.81 2.222v3.495c0 .948.278 1.69.81 2.221.532.533 1.273.787 2.175.787.857 0 1.55-.231 2.06-.67.486-.44.764-1.066.81-1.876h2.083c-.046 1.366-.51 2.43-1.412 3.217-.902.787-2.083 1.18-3.54 1.18z"
                fill="#b12e1e" fill-rule="nonzero" />
        </g>
    </g>
    <g>
        <path
            d="M555.714 453.788c7.067-9.596 19.239-15.397 32.308-15.397 13.07 0 25.242 5.801 32.309 15.397l39.074 53.059c7.598 10.317 8.136 23.432 1.404 34.197-6.733 10.765-19.662 17.462-33.712 17.462h-78.149c-14.05 0-26.979-6.697-33.712-17.462-6.732-10.765-6.194-23.88 1.404-34.197l39.074-53.059z"
            fill="#fff" stroke="#c1c1c1" stroke-width="3.57" transform="matrix(1.04143 0 0 1.19302 69.732 -61.854)" />
        <path d="M115.268 524.044L90.62 571.098" fill="none" stroke="#000" stroke-width="6.61" stroke-linecap="square"
            transform="matrix(.73269 -.05072 .18651 .59775 443.96 298.538)" />
        <path d="M115.268 524.044L90.62 571.098" fill="none" stroke="#000" stroke-width="6.61" stroke-linecap="square"
            transform="matrix(-.73285 -.05122 -.18621 .5987 920.386 297.882)" />
        <path d="M115.268 524.044L90.62 571.098" fill="none" stroke="#000" stroke-width="6.64" stroke-linecap="square"
            transform="matrix(.70495 -.17773 .3082 .50746 392.183 362.298)" />
        <circle cx="154.775" cy="556.848" r="2.753" transform="matrix(.77143 0 0 .77143 530.33 193.851)" />
        <circle cx="154.775" cy="556.848" r="2.753" transform="matrix(.77143 0 0 .77143 560.236 193.851)" />
        <circle cx="154.775" cy="556.848" r="2.753" transform="matrix(.77143 0 0 .77143 545.283 193.851)" />
        <g>
            <path
                d="M647.208 565.45c.995-1.389 2.083-2.083 3.24-2.083 1.064 0 1.99.44 2.777 1.342.787.926 1.18 2.153 1.18 3.726 0 1.852-.602 3.333-1.828 4.444-1.042.972-2.199 1.458-3.495 1.458a5.64 5.64 0 01-1.828-.324 8.969 8.969 0 01-1.92-.995v-10.716c0-1.18-.024-1.897-.07-2.175-.07-.278-.162-.463-.278-.555a.712.712 0 00-.44-.14 2.38 2.38 0 00-.81.163l-.139-.394 3.102-1.25h.509v7.499zm0 .717v6.203c.37.37.787.648 1.18.856a3.08 3.08 0 001.273.278c.671 0 1.32-.37 1.92-1.134.58-.741.88-1.852.88-3.287 0-1.319-.3-2.337-.88-3.055-.6-.717-1.272-1.064-2.036-1.064-.393 0-.787.092-1.18.3-.3.163-.694.464-1.157.903zM657.668 567.556c0 1.55.37 2.754 1.134 3.61.74.88 1.643 1.32 2.662 1.32.67 0 1.25-.186 1.759-.556.509-.37.925-1.018 1.25-1.921l.37.231c-.162 1.042-.625 1.968-1.389 2.824-.764.833-1.713 1.273-2.87 1.273-1.226 0-2.29-.486-3.193-1.458-.88-.972-1.32-2.268-1.32-3.911 0-1.76.463-3.148 1.366-4.143.902-.995 2.036-1.481 3.425-1.481 1.157 0 2.106.393 2.847 1.157.74.764 1.134 1.782 1.134 3.055h-7.175zm0-.648h4.79c-.022-.671-.115-1.134-.23-1.412a2.329 2.329 0 00-.834-.995 2.19 2.19 0 00-1.18-.347c-.625 0-1.18.231-1.666.717-.51.486-.787 1.157-.88 2.037zM669.214 560.266v3.402h2.43v.787h-2.43v6.711c0 .671.092 1.111.3 1.366a.91.91 0 00.741.347c.231 0 .486-.093.717-.232.232-.162.417-.393.533-.694h.44c-.255.74-.625 1.296-1.111 1.666-.486.37-.972.556-1.482.556-.347 0-.694-.093-1.018-.278-.347-.185-.578-.463-.74-.833-.162-.347-.232-.903-.232-1.643v-6.966h-1.643v-.37c.417-.163.833-.44 1.273-.857.416-.393.81-.856 1.157-1.388.162-.301.417-.81.717-1.574h.348zM672.056 563.668h4.351v.416c-.393.024-.671.093-.787.209a.663.663 0 00-.185.486c0 .231.07.509.185.856l2.222 5.948 2.222-4.837-.579-1.528c-.185-.462-.416-.763-.717-.948-.162-.093-.486-.162-.926-.186v-.416h4.93v.416c-.556.024-.926.116-1.158.278-.162.139-.231.324-.231.579 0 .162.023.324.092.463l2.361 5.947 2.175-5.716c.14-.417.232-.74.232-.972 0-.139-.093-.278-.232-.393-.138-.116-.44-.186-.856-.186v-.416h3.263v.416c-.648.093-1.134.533-1.458 1.32l-3.448 8.933h-.463l-2.592-6.62-3.008 6.62h-.417l-3.333-8.702c-.208-.555-.44-.926-.648-1.11-.208-.21-.532-.348-.995-.44v-.417zM691.084 567.556c0 1.55.37 2.754 1.134 3.61.74.88 1.643 1.32 2.661 1.32.671 0 1.25-.186 1.759-.556.509-.37.926-1.018 1.25-1.921l.37.231c-.162 1.042-.625 1.968-1.389 2.824-.763.833-1.712 1.273-2.87 1.273-1.226 0-2.29-.486-3.193-1.458-.88-.972-1.32-2.268-1.32-3.911 0-1.76.464-3.148 1.366-4.143.903-.995 2.037-1.481 3.425-1.481 1.157 0 2.106.393 2.847 1.157.74.764 1.134 1.782 1.134 3.055h-7.174zm0-.648h4.79c-.023-.671-.116-1.134-.231-1.412a2.329 2.329 0 00-.833-.995 2.19 2.19 0 00-1.18-.347c-.626 0-1.181.231-1.667.717-.51.486-.787 1.157-.88 2.037zM701.355 567.556c0 1.55.37 2.754 1.134 3.61.74.88 1.643 1.32 2.662 1.32.67 0 1.25-.186 1.758-.556.51-.37.926-1.018 1.25-1.921l.37.231c-.162 1.042-.624 1.968-1.388 2.824-.764.833-1.713 1.273-2.87 1.273-1.226 0-2.291-.486-3.194-1.458-.879-.972-1.319-2.268-1.319-3.911 0-1.76.463-3.148 1.366-4.143.902-.995 2.036-1.481 3.425-1.481 1.157 0 2.106.393 2.846 1.157.741.764 1.134 1.782 1.134 3.055h-7.174zm0-.648h4.79c-.022-.671-.115-1.134-.23-1.412a2.329 2.329 0 00-.834-.995 2.19 2.19 0 00-1.18-.347c-.625 0-1.18.231-1.666.717-.51.486-.787 1.157-.88 2.037zM712.923 565.542c1.204-1.458 2.361-2.175 3.472-2.175.555 0 1.041.139 1.458.417.393.277.717.74.972 1.388.162.463.231 1.157.231 2.083v4.42c0 .648.07 1.088.162 1.343.093.185.209.324.394.44.185.092.532.138 1.041.138v.417h-5.138v-.417h.232c.486 0 .81-.07.995-.208.208-.139.324-.37.417-.648.023-.116.046-.463.046-1.065v-4.235c0-.949-.139-1.62-.37-2.06-.255-.416-.672-.624-1.25-.624-.88 0-1.782.486-2.662 1.458v5.461c0 .695.024 1.134.116 1.296.116.232.255.37.44.486.185.093.555.14 1.11.14v.416h-5.114v-.417h.232c.532 0 .88-.116 1.064-.393.185-.255.278-.787.278-1.528v-3.841c0-1.25-.023-2.014-.093-2.268-.046-.278-.139-.463-.254-.556a.745.745 0 00-.463-.162c-.208 0-.463.07-.764.185l-.162-.416 3.124-1.25h.486v2.175zM652.852 598.37c-1.551 0-2.778-.44-3.68-1.295-.926-.857-1.389-2.06-1.389-3.564v-3.472c0-1.504.463-2.708 1.389-3.564.902-.856 2.129-1.296 3.68-1.296 1.458 0 2.638.394 3.54 1.18.903.787 1.366 1.852 1.412 3.217h-2.083c-.046-.81-.324-1.458-.81-1.897-.509-.417-1.203-.648-2.06-.648-.902 0-1.643.254-2.175.763-.532.533-.81 1.273-.81 2.222v3.495c0 .948.278 1.69.81 2.221.532.533 1.273.787 2.176.787.856 0 1.55-.231 2.06-.67.485-.44.763-1.066.81-1.876h2.082c-.046 1.366-.509 2.43-1.412 3.217-.902.787-2.082 1.18-3.54 1.18zM672.083 596.658c-1.064.81-1.735 1.296-2.013 1.412a3.03 3.03 0 01-1.296.277c-.718 0-1.296-.23-1.759-.717-.463-.51-.694-1.134-.694-1.944 0-.51.115-.949.324-1.32.324-.508.856-.994 1.62-1.434.763-.463 2.036-.995 3.818-1.643v-.417c0-1.041-.162-1.735-.509-2.129-.324-.37-.787-.578-1.412-.578-.486 0-.856.138-1.134.393-.3.255-.44.555-.44.88l.024.647c0 .348-.093.625-.255.81a.942.942 0 01-.694.278.942.942 0 01-.694-.278c-.162-.208-.255-.462-.255-.81 0-.648.324-1.25.995-1.782.648-.555 1.597-.81 2.777-.81.926 0 1.69.14 2.268.463.44.232.764.579.972 1.088.14.324.209.995.209 1.99v3.518c0 .972.023 1.574.07 1.805.022.232.092.37.184.44.07.092.185.116.301.116a.64.64 0 00.301-.07c.162-.092.463-.37.926-.833v.648c-.857 1.11-1.643 1.69-2.43 1.69-.37 0-.648-.14-.88-.394-.208-.255-.324-.694-.324-1.296zm0-.74v-3.958c-1.134.463-1.874.787-2.221.972-.579.324-1.019.671-1.273 1.041-.255.348-.37.764-.37 1.18 0 .556.161.996.485 1.343.324.37.695.555 1.111.555.579 0 1.32-.393 2.268-1.134zM679.508 589.669c1.204-1.458 2.36-2.176 3.472-2.176.555 0 1.041.14 1.458.417.393.278.717.74.972 1.389.162.462.231 1.157.231 2.082v4.42c0 .649.07 1.088.162 1.343.093.185.208.324.394.44.185.092.532.139 1.041.139v.416H682.1v-.416h.232c.486 0 .81-.07.995-.209.208-.139.324-.37.416-.648.024-.115.047-.463.047-1.064v-4.235c0-.95-.14-1.62-.37-2.06-.255-.417-.672-.625-1.25-.625-.88 0-1.782.486-2.662 1.458v5.462c0 .694.023 1.134.116 1.296.116.231.255.37.44.486.185.092.555.139 1.11.139v.416h-5.114v-.416h.231c.533 0 .88-.116 1.065-.394.185-.254.278-.787.278-1.527v-3.842c0-1.25-.023-2.013-.093-2.268-.046-.278-.139-.463-.254-.555a.745.745 0 00-.463-.162c-.209 0-.463.07-.764.185l-.162-.417 3.124-1.25h.486v2.176zM695.361 596.982c-.509.51-.995.903-1.481 1.134a3.537 3.537 0 01-1.55.347c-1.135 0-2.13-.486-2.963-1.435-.856-.925-1.273-2.152-1.273-3.633 0-1.481.463-2.847 1.412-4.073.926-1.227 2.13-1.852 3.61-1.852.903 0 1.643.301 2.245.88v-1.921c0-1.18-.023-1.898-.07-2.176-.069-.277-.161-.462-.277-.555a.712.712 0 00-.44-.139c-.208 0-.463.046-.787.162l-.162-.393 3.102-1.25h.509v11.965c0 1.203.023 1.944.07 2.222.069.254.161.44.277.555a.73.73 0 00.44.162c.208 0 .462-.07.81-.208l.115.393-3.055 1.296h-.532v-1.48zm0-.787v-5.346a3.866 3.866 0 00-.393-1.388 2.452 2.452 0 00-.903-.972c-.37-.209-.74-.324-1.088-.324-.67 0-1.272.3-1.782.902-.694.787-1.018 1.921-1.018 3.425 0 1.528.324 2.685.995 3.495.648.81 1.389 1.226 2.199 1.226.694 0 1.342-.347 1.99-1.018zM710.89 598.37c-1.273 0-2.291-.416-3.055-1.272-.787-.857-1.18-1.99-1.18-3.449v-3.726c0-1.458.393-2.615 1.157-3.47.764-.857 1.805-1.274 3.078-1.274.949 0 1.736.232 2.36.718.625.486.973 1.134 1.088 1.944h.07l-.047-2.893v-3.703h2.083v16.894h-2.083v-2.43h-.023c-.115.833-.463 1.481-1.087 1.944-.625.486-1.412.718-2.361.718zm.694-1.805c.857 0 1.55-.277 2.037-.81.486-.532.74-1.296.74-2.244v-3.472c0-.949-.254-1.712-.74-2.245-.486-.532-1.18-.81-2.037-.81-.88 0-1.573.255-2.083.787-.509.532-.763 1.273-.763 2.268v3.472c0 .995.254 1.735.763 2.268.51.532 1.204.786 2.083.786z"
                fill="#b12e1e" fill-rule="nonzero" />
        </g>
    </g>
    <g>
        <path
            d="M555.714 453.788c7.067-9.596 19.239-15.397 32.308-15.397 13.07 0 25.242 5.801 32.309 15.397l39.074 53.059c7.598 10.317 8.136 23.432 1.404 34.197-6.733 10.765-19.662 17.462-33.712 17.462h-78.149c-14.05 0-26.979-6.697-33.712-17.462-6.732-10.765-6.194-23.88 1.404-34.197l39.074-53.059z"
            fill="#fff" stroke="#c1c1c1" stroke-width="3.57" transform="matrix(1.04143 0 0 1.19302 262.388 -61.854)" />
        <path d="M115.268 524.044L90.62 571.098" fill="none" stroke="#000" stroke-width="6.61" stroke-linecap="square"
            transform="matrix(.73269 -.05072 .18651 .59775 636.617 298.538)" />
        <path d="M115.268 524.044L90.62 571.098" fill="none" stroke="#000" stroke-width="6.61" stroke-linecap="square"
            transform="matrix(-.73285 -.05122 -.18621 .5987 1113.042 297.882)" />
        <path d="M115.268 524.044L90.62 571.098" fill="none" stroke="#000" stroke-width="6.64" stroke-linecap="square"
            transform="matrix(.70495 -.17773 .3082 .50746 584.84 362.298)" />
        <circle cx="154.775" cy="556.848" r="2.753" transform="matrix(.77143 0 0 .77143 722.986 193.851)" />
        <circle cx="154.775" cy="556.848" r="2.753" transform="matrix(.77143 0 0 .77143 752.892 193.851)" />
        <circle cx="154.775" cy="556.848" r="2.753" transform="matrix(.77143 0 0 .77143 737.939 193.851)" />
        <g>
            <path
                d="M845.733 570.24c-.625-.3-1.11-.74-1.458-1.296a3.354 3.354 0 01-.509-1.828c0-1.041.394-1.92 1.157-2.661.764-.718 1.76-1.088 2.963-1.088.995 0 1.85.231 2.568.717h2.199c.324 0 .51 0 .555.024.047.023.093.046.116.092.046.07.07.185.07.37 0 .186-.024.324-.07.394 0 .046-.046.07-.116.092-.046.024-.231.047-.555.047h-1.342c.416.532.625 1.226.625 2.083 0 .948-.37 1.782-1.111 2.476-.74.671-1.736 1.018-2.963 1.018-.509 0-1.041-.07-1.573-.231-.347.3-.556.532-.671.763-.116.209-.186.394-.186.533s.07.254.186.37c.138.139.37.208.74.278.208.023.74.046 1.574.07 1.55.045 2.569.092 3.008.161.718.093 1.273.347 1.69.787.416.417.625.926.625 1.55 0 .857-.394 1.644-1.204 2.407-1.157 1.088-2.707 1.644-4.582 1.644-1.458 0-2.685-.324-3.703-.996-.555-.37-.833-.763-.833-1.157 0-.185.046-.37.116-.555.139-.278.393-.671.787-1.157.069-.07.44-.486 1.157-1.227-.394-.231-.671-.44-.833-.625a.912.912 0 01-.232-.625c0-.254.093-.578.324-.925.208-.347.694-.857 1.481-1.505zm1.967-6.34c-.555 0-1.018.23-1.411.67-.37.44-.556 1.111-.556 2.037 0 1.203.255 2.106.764 2.777.393.486.88.74 1.504.74.556 0 1.042-.208 1.412-.647.37-.417.532-1.088.532-2.014 0-1.203-.254-2.129-.763-2.823-.394-.486-.88-.74-1.482-.74zm-2.082 10.113c-.348.393-.625.74-.81 1.064-.162.347-.255.648-.255.926 0 .37.208.671.648.949.74.463 1.851.694 3.263.694 1.366 0 2.36-.231 3.009-.717.648-.463.949-.995.949-1.528 0-.393-.186-.67-.556-.833-.393-.162-1.18-.254-2.337-.3-1.69-.047-3.009-.116-3.911-.255zM857.56 563.367v2.314c.879-1.55 1.758-2.314 2.66-2.314.417 0 .764.116 1.042.37.255.255.394.533.394.88 0 .277-.093.532-.278.74a.962.962 0 01-.718.301c-.254 0-.555-.116-.88-.393-.323-.255-.578-.394-.716-.394-.14 0-.301.093-.44.232-.347.324-.694.833-1.065 1.527v4.976c0 .555.07.995.209 1.296.115.185.277.37.532.509.254.116.602.185 1.064.185v.417h-5.3v-.417c.533 0 .926-.07 1.18-.231.186-.14.325-.324.394-.579.047-.139.07-.509.07-1.11v-4.004c0-1.204-.046-1.921-.093-2.153a.962.962 0 00-.254-.509.889.889 0 00-.51-.162c-.23 0-.485.07-.786.185l-.116-.416 3.147-1.25h.463zM863.97 567.556c0 1.55.37 2.754 1.134 3.61.74.88 1.643 1.32 2.661 1.32.671 0 1.25-.186 1.76-.556.508-.37.925-1.018 1.249-1.921l.37.231c-.162 1.042-.625 1.968-1.388 2.824-.764.833-1.713 1.273-2.87 1.273-1.227 0-2.291-.486-3.194-1.458-.88-.972-1.32-2.268-1.32-3.911 0-1.76.464-3.148 1.366-4.143.903-.995 2.037-1.481 3.426-1.481 1.157 0 2.106.393 2.846 1.157.74.764 1.134 1.782 1.134 3.055h-7.174zm0-.648h4.79c-.023-.671-.115-1.134-.231-1.412a2.329 2.329 0 00-.833-.995 2.19 2.19 0 00-1.18-.347c-.625 0-1.18.231-1.667.717-.509.486-.787 1.157-.88 2.037zM878.384 572.532c-1.065.81-1.736 1.296-2.013 1.411a3.03 3.03 0 01-1.296.278c-.718 0-1.296-.231-1.76-.717-.462-.51-.694-1.134-.694-1.944 0-.51.116-.95.324-1.32.324-.509.857-.995 1.62-1.434.764-.463 2.037-.996 3.819-1.644v-.416c0-1.042-.162-1.736-.51-2.13-.323-.37-.786-.578-1.41-.578-.487 0-.857.139-1.135.394-.3.254-.44.555-.44.879l.024.648c0 .347-.093.625-.255.81a.942.942 0 01-.694.278.942.942 0 01-.695-.278c-.162-.208-.254-.463-.254-.81 0-.648.324-1.25.995-1.782.648-.555 1.597-.81 2.777-.81.926 0 1.69.139 2.268.463.44.231.764.578.972 1.088.139.324.208.995.208 1.99v3.518c0 .972.024 1.573.07 1.805.023.231.092.37.185.44.07.092.185.115.3.115a.64.64 0 00.302-.07c.162-.092.463-.37.925-.832v.648c-.856 1.11-1.643 1.689-2.43 1.689-.37 0-.648-.139-.88-.393-.207-.255-.323-.695-.323-1.296zm0-.741v-3.957c-1.134.462-1.875.786-2.222.972-.578.324-1.018.67-1.273 1.041-.254.347-.37.764-.37 1.18 0 .556.162.995.486 1.343.324.37.694.555 1.11.555.58 0 1.32-.393 2.269-1.134zM885.787 560.266v3.402h2.43v.787h-2.43v6.711c0 .671.092 1.111.3 1.366a.91.91 0 00.741.347c.231 0 .486-.093.717-.232.232-.162.417-.393.533-.694h.44c-.255.74-.625 1.296-1.111 1.666-.486.37-.972.556-1.482.556-.347 0-.694-.093-1.018-.278-.347-.185-.578-.463-.74-.833-.162-.347-.232-.903-.232-1.643v-6.966h-1.643v-.37c.417-.163.833-.44 1.273-.857.416-.393.81-.856 1.157-1.388.162-.301.417-.81.717-1.574h.348zM890.944 567.556c0 1.55.37 2.754 1.134 3.61.74.88 1.643 1.32 2.661 1.32.671 0 1.25-.186 1.759-.556.509-.37.926-1.018 1.25-1.921l.37.231c-.162 1.042-.625 1.968-1.389 2.824-.763.833-1.712 1.273-2.87 1.273-1.226 0-2.29-.486-3.193-1.458-.88-.972-1.32-2.268-1.32-3.911 0-1.76.464-3.148 1.366-4.143.903-.995 2.037-1.481 3.425-1.481 1.157 0 2.106.393 2.847 1.157.74.764 1.134 1.782 1.134 3.055h-7.174zm0-.648h4.79c-.023-.671-.116-1.134-.231-1.412a2.329 2.329 0 00-.833-.995 2.19 2.19 0 00-1.18-.347c-.626 0-1.181.231-1.667.717-.51.486-.787 1.157-.88 2.037zM902.511 563.367v2.314c.88-1.55 1.759-2.314 2.662-2.314.416 0 .763.116 1.041.37.255.255.393.533.393.88 0 .277-.092.532-.277.74a.962.962 0 01-.718.301c-.254 0-.555-.116-.88-.393-.323-.255-.578-.394-.717-.394-.138 0-.3.093-.44.232-.346.324-.694.833-1.064 1.527v4.976c0 .555.07.995.208 1.296.116.185.278.37.533.509.254.116.601.185 1.064.185v.417h-5.3v-.417c.533 0 .926-.07 1.18-.231.186-.14.325-.324.394-.579.047-.139.07-.509.07-1.11v-4.004c0-1.204-.047-1.921-.093-2.153a.962.962 0 00-.254-.509.889.889 0 00-.51-.162c-.231 0-.486.07-.786.185l-.116-.416 3.147-1.25h.463zM848.321 584.392v3.402h2.43v.787h-2.43v6.712c0 .67.093 1.11.301 1.365a.91.91 0 00.74.347c.232 0 .487-.092.718-.231.232-.162.417-.394.533-.695h.44c-.255.741-.626 1.296-1.112 1.667-.486.37-.972.555-1.48.555-.348 0-.695-.092-1.02-.278-.346-.185-.578-.462-.74-.833-.162-.347-.231-.902-.231-1.643v-6.966h-1.643v-.37c.416-.162.833-.44 1.273-.856.416-.394.81-.857 1.157-1.389.162-.3.416-.81.717-1.574h.347zM854.798 582.078v7.568c.833-.926 1.48-1.505 1.99-1.782a3.1 3.1 0 011.458-.37c.578 0 1.088.161 1.504.485.44.324.74.834.949 1.505.139.486.208 1.365.208 2.661v3.657c0 .648.07 1.11.162 1.342.07.185.209.324.394.44.162.092.509.139.995.139v.416h-5.092v-.416h.232c.486 0 .81-.07 1.018-.209.185-.139.3-.37.394-.648.023-.115.023-.486.023-1.064v-3.657c0-1.134-.047-1.874-.162-2.222-.116-.37-.301-.624-.579-.81-.254-.185-.555-.254-.926-.254-.37 0-.74.092-1.134.278-.416.208-.88.601-1.434 1.203v5.462c0 .717.023 1.157.115 1.319.07.185.209.324.44.44.208.115.579.162 1.11.162v.416h-5.137v-.416c.463 0 .833-.07 1.088-.209.162-.07.278-.208.37-.416.093-.232.139-.648.139-1.296v-9.373c0-1.18-.046-1.898-.093-2.176-.07-.277-.138-.462-.254-.555-.116-.093-.278-.139-.486-.139-.14 0-.417.046-.764.162l-.162-.393 3.101-1.25h.533zM869.192 596.658c-1.064.81-1.735 1.296-2.013 1.412a3.03 3.03 0 01-1.296.277c-.717 0-1.296-.23-1.759-.717-.463-.51-.694-1.134-.694-1.944 0-.51.116-.949.324-1.32.324-.508.856-.994 1.62-1.434.764-.463 2.036-.995 3.818-1.643v-.417c0-1.041-.162-1.735-.509-2.129-.324-.37-.787-.578-1.411-.578-.486 0-.857.138-1.134.393-.301.255-.44.555-.44.88l.023.647c0 .348-.093.625-.255.81a.942.942 0 01-.694.278.942.942 0 01-.694-.278c-.162-.208-.255-.462-.255-.81 0-.648.324-1.25.995-1.782.648-.555 1.597-.81 2.778-.81.925 0 1.689.14 2.268.463.44.232.763.579.972 1.088.138.324.208.995.208 1.99v3.518c0 .972.023 1.574.07 1.805.022.232.092.37.184.44.07.092.186.116.301.116a.64.64 0 00.301-.07c.162-.092.463-.37.926-.833v.648c-.856 1.11-1.643 1.69-2.43 1.69-.37 0-.648-.14-.88-.394-.208-.255-.324-.694-.324-1.296zm0-.74v-3.958c-1.134.463-1.874.787-2.221.972-.579.324-1.019.671-1.273 1.041-.255.348-.37.764-.37 1.18 0 .556.162.996.486 1.343.324.37.694.555 1.11.555.579 0 1.32-.393 2.268-1.134zM876.618 589.669c1.204-1.458 2.36-2.176 3.472-2.176.555 0 1.041.14 1.458.417.393.278.717.74.972 1.389.162.462.231 1.157.231 2.082v4.42c0 .649.07 1.088.162 1.343.093.185.208.324.393.44.186.092.533.139 1.042.139v.416h-5.138v-.416h.232c.486 0 .81-.07.995-.209.208-.139.324-.37.416-.648.023-.115.047-.463.047-1.064v-4.235c0-.95-.14-1.62-.37-2.06-.255-.417-.672-.625-1.25-.625-.88 0-1.782.486-2.662 1.458v5.462c0 .694.023 1.134.116 1.296.116.231.254.37.44.486.185.092.555.139 1.11.139v.416h-5.114v-.416h.231c.533 0 .88-.116 1.065-.394.185-.254.278-.787.278-1.527v-3.842c0-1.25-.024-2.013-.093-2.268-.046-.278-.139-.463-.255-.555a.745.745 0 00-.462-.162c-.209 0-.463.07-.764.185l-.162-.417 3.124-1.25h.486v2.176zM896.428 598.37c-1.272 0-2.29-.416-3.054-1.272-.787-.857-1.18-1.99-1.18-3.449v-3.726c0-1.458.393-2.615 1.156-3.47.764-.857 1.806-1.274 3.078-1.274.95 0 1.736.232 2.361.718.625.486.972 1.134 1.088 1.944h.07l-.047-2.893v-3.703h2.083v16.894H899.9v-2.43h-.023c-.116.833-.463 1.481-1.088 1.944-.625.486-1.412.718-2.36.718zm.695-1.805c.856 0 1.55-.277 2.036-.81.486-.532.74-1.296.74-2.244v-3.472c0-.949-.254-1.712-.74-2.245-.486-.532-1.18-.81-2.036-.81-.88 0-1.574.255-2.083.787-.51.532-.764 1.273-.764 2.268v3.472c0 .995.255 1.735.764 2.268.509.532 1.203.786 2.083.786z"
                fill="#b12e1e" fill-rule="nonzero" />
        </g>
    </g>
</svg>