<svg viewBox="0 0 1024 768" xmlns="http://www.w3.org/2000/svg" fill-rule="evenodd" clip-rule="evenodd"
    stroke-linecap="round" stroke-linejoin="round" stroke-miterlimit="1.5">
    <path
        d="M756.922 377.174L567.58 227.684M909.922 377.174L580.89 218.81M193.568 334.907l263.98-108.998M552.586 336.338L517.444 229.46M283.322 449.86l-68.713-73.092M103.813 449.86l68.584-73.092M462.832 449.86l70.156-70.23M642.341 449.86l-71.434-69.157"
        fill="none" stroke="#000" stroke-width="4" />
    <path d="M115.268 524.044L90.62 571.098" fill="none" stroke="#000" stroke-width="7.62" stroke-linecap="square"
        transform="matrix(-.62084 -.04733 -.15775 .5533 994.996 296.875)" />
    <path d="M115.268 524.044L90.62 571.098" fill="none" stroke="#000" stroke-width="7.61" stroke-linecap="square"
        transform="matrix(.62133 -.04902 .15662 .55721 593.176 293.669)" />
    <path d="M115.268 524.044L90.62 571.098" fill="none" stroke="#000" stroke-width="7.76" stroke-linecap="square"
        transform="matrix(.5972 -.16425 .2611 .46897 549.52 355.715)" />
    <circle cx="154.775" cy="556.848" r="2.753" transform="matrix(.65353 0 0 .71292 667.812 201.079)" />
    <circle cx="154.775" cy="556.848" r="2.753" transform="matrix(.65353 0 0 .71292 693.148 201.079)" />
    <circle cx="154.775" cy="556.848" r="2.753" transform="matrix(.65353 0 0 .71292 680.48 201.079)" />
    <path
        d="M253.54 540.914c6.356-13.362 36.978-23.081 72.723-23.081 35.746 0 66.367 9.719 72.724 23.081l52.362 110.079c3.894 8.187-1.97 16.608-16.011 22.992-14.041 6.384-34.813 10.073-56.712 10.073H273.901c-21.9 0-42.671-3.689-56.712-10.073-14.041-6.384-19.906-14.805-16.012-22.992l52.363-110.079z"
        fill="none" stroke="#bababa" stroke-width="3.71" transform="matrix(.54126 0 0 1.42483 619.69 -393.539)" />
    <path
        d="M764.025 543.709c.92-1.283 1.924-1.925 2.994-1.925.984 0 1.84.406 2.566 1.24.728.856 1.091 1.99 1.091 3.444 0 1.71-.556 3.08-1.69 4.106-.962.899-2.031 1.348-3.229 1.348a5.213 5.213 0 01-1.69-.3 8.288 8.288 0 01-1.775-.92V540.8c0-1.09-.021-1.754-.064-2.01-.064-.257-.15-.428-.257-.514a.658.658 0 00-.406-.128c-.214 0-.45.043-.749.15l-.128-.364 2.866-1.155h.47v6.93zm0 .663v5.732c.342.342.727.599 1.09.791.385.171.77.257 1.177.257.62 0 1.219-.342 1.775-1.048.535-.685.813-1.711.813-3.037 0-1.22-.278-2.16-.813-2.823-.556-.663-1.176-.984-1.882-.984-.364 0-.727.085-1.091.278-.278.15-.642.428-1.07.834zM773.692 545.655c0 1.433.342 2.545 1.048 3.337.684.812 1.518 1.219 2.46 1.219.62 0 1.154-.171 1.625-.514.47-.342.855-.94 1.155-1.775l.342.214c-.15.963-.578 1.818-1.283 2.61-.706.77-1.583 1.176-2.652 1.176-1.134 0-2.118-.45-2.952-1.348-.813-.898-1.219-2.096-1.219-3.614 0-1.626.428-2.909 1.262-3.829.834-.92 1.882-1.368 3.165-1.368 1.07 0 1.946.363 2.63 1.069.685.706 1.049 1.647 1.049 2.823h-6.63zm0-.599h4.427c-.021-.62-.107-1.048-.214-1.304a2.152 2.152 0 00-.77-.92 2.024 2.024 0 00-1.09-.32c-.578 0-1.091.213-1.54.662-.471.45-.728 1.07-.813 1.882zM784.361 538.918v3.144h2.246v.727h-2.246v6.203c0 .62.086 1.026.278 1.261.171.214.407.321.685.321.214 0 .449-.085.663-.214.214-.15.385-.363.492-.641h.406c-.235.684-.577 1.197-1.027 1.54-.449.342-.898.513-1.368.513a1.89 1.89 0 01-.941-.257c-.321-.17-.535-.427-.685-.77-.15-.32-.214-.834-.214-1.518v-6.438h-1.518v-.342c.385-.15.77-.406 1.176-.791a7.096 7.096 0 001.07-1.284c.15-.278.384-.748.662-1.454h.321zM786.988 542.062h4.021v.385c-.363.021-.62.086-.727.193a.613.613 0 00-.171.449c0 .214.064.47.171.791l2.053 5.497 2.053-4.47-.534-1.412c-.171-.428-.385-.706-.663-.877-.15-.085-.45-.15-.856-.171v-.385h4.556v.385c-.514.021-.856.107-1.07.257-.15.128-.213.3-.213.534 0 .15.02.3.085.428l2.182 5.497 2.01-5.283c.128-.385.214-.684.214-.898 0-.129-.086-.257-.214-.364-.128-.107-.406-.171-.791-.171v-.385h3.015v.385c-.599.086-1.048.492-1.347 1.22l-3.187 8.255h-.428l-2.395-6.117-2.78 6.117h-.385l-3.08-8.042c-.193-.513-.406-.856-.599-1.027-.192-.192-.492-.32-.92-.406v-.385zM804.572 545.655c0 1.433.343 2.545 1.048 3.337.685.812 1.519 1.219 2.46 1.219.62 0 1.155-.171 1.625-.514.471-.342.856-.94 1.155-1.775l.343.214c-.15.963-.578 1.818-1.284 2.61-.705.77-1.582 1.176-2.652 1.176-1.133 0-2.117-.45-2.951-1.348-.813-.898-1.22-2.096-1.22-3.614 0-1.626.428-2.909 1.263-3.829.834-.92 1.882-1.368 3.165-1.368 1.07 0 1.946.363 2.63 1.069.685.706 1.049 1.647 1.049 2.823h-6.63zm0-.599H809c-.022-.62-.107-1.048-.214-1.304a2.152 2.152 0 00-.77-.92 2.024 2.024 0 00-1.09-.32c-.578 0-1.092.213-1.54.662-.471.45-.728 1.07-.814 1.882zM814.065 545.655c0 1.433.342 2.545 1.048 3.337.684.812 1.518 1.219 2.46 1.219.62 0 1.154-.171 1.625-.514.47-.342.855-.94 1.155-1.775l.342.214c-.15.963-.577 1.818-1.283 2.61-.706.77-1.583 1.176-2.652 1.176-1.134 0-2.118-.45-2.952-1.348-.812-.898-1.219-2.096-1.219-3.614 0-1.626.428-2.909 1.262-3.829.834-.92 1.882-1.368 3.165-1.368 1.07 0 1.947.363 2.631 1.069.685.706 1.048 1.647 1.048 2.823h-6.63zm0-.599h4.427c-.021-.62-.107-1.048-.214-1.304a2.152 2.152 0 00-.77-.92 2.024 2.024 0 00-1.09-.32c-.578 0-1.091.213-1.54.662-.47.45-.727 1.07-.813 1.882zM824.756 543.794c1.112-1.347 2.181-2.01 3.208-2.01.513 0 .962.128 1.347.385.364.257.663.684.899 1.283.15.428.214 1.07.214 1.925v4.085c0 .599.064 1.005.15 1.24a.95.95 0 00.363.407c.171.086.492.128.962.128v.385h-4.748v-.385h.214c.45 0 .749-.064.92-.192.192-.129.3-.342.385-.599.021-.107.043-.428.043-.984v-3.914c0-.877-.129-1.497-.343-1.903-.235-.385-.62-.578-1.155-.578-.812 0-1.646.45-2.46 1.348v5.047c0 .642.022 1.048.108 1.198.107.214.235.342.406.449.171.086.513.128 1.027.128v.385h-4.727v-.385h.214c.492 0 .813-.107.984-.363.17-.236.256-.727.256-1.412v-3.55c0-1.155-.02-1.86-.085-2.096-.043-.257-.128-.428-.235-.513a.689.689 0 00-.428-.15c-.193 0-.428.064-.706.17l-.15-.384 2.888-1.155h.449v2.01zM768.47 574.133c-1.176 0-2.117-.385-2.823-1.177-.727-.791-1.09-1.839-1.09-3.186v-3.444c0-1.347.363-2.417 1.069-3.208.706-.791 1.668-1.176 2.844-1.176.877 0 1.604.214 2.182.663.577.449.898 1.048 1.005 1.796h.064l-.043-2.673v-3.422h1.925v15.613h-1.925v-2.246h-.02c-.108.77-.429 1.369-1.006 1.797-.578.449-1.305.663-2.182.663zm.642-1.669c.791 0 1.433-.256 1.882-.748.45-.492.684-1.198.684-2.075v-3.208c0-.877-.235-1.583-.684-2.074-.45-.492-1.09-.749-1.882-.749-.813 0-1.454.235-1.925.727-.47.492-.706 1.176-.706 2.096v3.208c0 .92.236 1.604.706 2.096s1.112.727 1.925.727zM787.013 572.55c-.984.749-1.604 1.198-1.86 1.305a2.8 2.8 0 01-1.198.256c-.663 0-1.198-.214-1.626-.663-.427-.47-.641-1.048-.641-1.796 0-.47.107-.877.3-1.22.299-.47.79-.919 1.496-1.325.706-.428 1.882-.92 3.53-1.519v-.385c0-.962-.15-1.604-.471-1.968-.3-.342-.727-.534-1.305-.534-.449 0-.791.128-1.048.363-.278.236-.406.514-.406.813l.021.599c0 .32-.085.577-.235.748a.87.87 0 01-.642.257.87.87 0 01-.641-.257c-.15-.192-.236-.427-.236-.748 0-.599.3-1.155.92-1.647.599-.513 1.476-.748 2.567-.748.855 0 1.56.128 2.096.427.406.214.705.535.898 1.005.128.3.192.92.192 1.84v3.25c0 .899.022 1.455.064 1.669.022.214.086.342.172.406.064.086.17.107.278.107a.592.592 0 00.278-.064c.15-.085.427-.342.855-.77v.599c-.791 1.027-1.518 1.561-2.246 1.561-.342 0-.598-.128-.812-.363-.193-.236-.3-.642-.3-1.198zm0-.684v-3.658c-1.048.428-1.732.728-2.053.899-.535.299-.94.62-1.176.962-.235.32-.342.706-.342 1.09 0 .514.15.92.449 1.241.3.342.641.514 1.026.514.535 0 1.22-.364 2.096-1.048zM793.875 566.091c1.112-1.347 2.182-2.01 3.208-2.01.514 0 .963.128 1.348.385.363.256.663.684.898 1.283.15.428.214 1.07.214 1.925v4.085c0 .599.064 1.005.15 1.24a.95.95 0 00.363.406c.171.086.492.129.963.129v.385h-4.748v-.385h.213c.45 0 .749-.064.92-.193.193-.128.3-.342.385-.599.021-.106.043-.427.043-.983v-3.914c0-.877-.128-1.497-.342-1.904-.236-.385-.62-.577-1.155-.577-.813 0-1.647.449-2.46 1.347v5.048c0 .641.022 1.048.107 1.197.107.214.235.343.406.45.172.085.514.128 1.027.128v.385h-4.727v-.385h.214c.492 0 .813-.107.984-.364.171-.235.257-.727.257-1.411v-3.55c0-1.156-.022-1.861-.086-2.097-.043-.256-.128-.427-.235-.513a.689.689 0 00-.428-.15c-.192 0-.428.064-.706.171l-.15-.385 2.888-1.154h.45v2.01zM808.526 572.85c-.47.47-.92.834-1.37 1.047-.448.214-.919.321-1.432.321-1.048 0-1.968-.449-2.738-1.326-.791-.855-1.176-1.989-1.176-3.358 0-1.368.428-2.63 1.305-3.764.855-1.133 1.967-1.71 3.336-1.71.834 0 1.519.277 2.075.812v-1.775c0-1.091-.022-1.754-.065-2.01-.064-.257-.15-.428-.256-.514a.658.658 0 00-.407-.128 2.19 2.19 0 00-.727.15l-.15-.364 2.866-1.155h.471v11.057c0 1.112.021 1.797.064 2.053.064.236.15.407.257.514.107.085.256.15.406.15.193 0 .428-.065.749-.193l.107.364-2.823 1.197h-.492v-1.369zm0-.728v-4.94a3.573 3.573 0 00-.364-1.284 2.266 2.266 0 00-.834-.898c-.342-.192-.684-.3-1.005-.3-.62 0-1.177.279-1.647.835-.642.727-.941 1.775-.941 3.165 0 1.412.3 2.481.92 3.23.598.748 1.283 1.133 2.031 1.133.642 0 1.24-.32 1.84-.94zM823.561 574.133c-.92 0-1.732-.193-2.417-.556a3.699 3.699 0 01-1.604-1.583c-.385-.663-.577-1.454-.577-2.353v-3.208c0-.92.192-1.71.577-2.374a3.77 3.77 0 011.604-1.561c.685-.364 1.497-.556 2.417-.556.92 0 1.732.192 2.417.556.706.363 1.24.898 1.625 1.561.364.663.556 1.454.556 2.374v2.075h-7.314v1.133c0 .92.235 1.626.706 2.118.47.492 1.133.748 2.01.748.749 0 1.347-.128 1.797-.406.449-.257.727-.642.834-1.176h1.925c-.129.983-.6 1.753-1.433 2.33-.856.578-1.882.878-3.123.878zm-2.716-7.08h5.432v-.62c0-.92-.235-1.647-.684-2.139-.47-.492-1.155-.748-2.032-.748s-1.54.256-2.01.748c-.47.492-.706 1.22-.706 2.14v.62z"
        fill="#b12e1e" fill-rule="nonzero" />
    <g>
        <path d="M115.268 524.044L90.62 571.098" fill="none" stroke="#000" stroke-width="7.62" stroke-linecap="square"
            transform="matrix(-.62084 -.04733 -.15775 .5533 1147.996 296.875)" />
        <path d="M115.268 524.044L90.62 571.098" fill="none" stroke="#000" stroke-width="7.61" stroke-linecap="square"
            transform="matrix(.62133 -.04902 .15662 .55721 746.176 293.669)" />
        <path d="M115.268 524.044L90.62 571.098" fill="none" stroke="#000" stroke-width="7.76" stroke-linecap="square"
            transform="matrix(.5972 -.16425 .2611 .46897 702.52 355.715)" />
        <circle cx="154.775" cy="556.848" r="2.753" transform="matrix(.65353 0 0 .71292 820.812 201.079)" />
        <circle cx="154.775" cy="556.848" r="2.753" transform="matrix(.65353 0 0 .71292 846.148 201.079)" />
        <circle cx="154.775" cy="556.848" r="2.753" transform="matrix(.65353 0 0 .71292 833.48 201.079)" />
        <g>
            <path
                d="M253.54 540.914c6.356-13.362 36.978-23.081 72.723-23.081 35.746 0 66.367 9.719 72.724 23.081l52.362 110.079c3.894 8.187-1.97 16.608-16.011 22.992-14.041 6.384-34.813 10.073-56.712 10.073H273.901c-21.9 0-42.671-3.689-56.712-10.073-14.041-6.384-19.906-14.805-16.012-22.992l52.363-110.079z"
                fill="none" stroke="#bababa" stroke-width="3.71"
                transform="matrix(.54126 0 0 1.42483 772.69 -393.539)" />
        </g>
        <g>
            <path
                d="M922.908 548.136a3.192 3.192 0 01-1.347-1.198 3.1 3.1 0 01-.47-1.69c0-.962.363-1.774 1.069-2.459.706-.663 1.625-1.005 2.737-1.005.92 0 1.711.214 2.374.663h2.032c.3 0 .47 0 .513.021.043.022.086.043.107.086.043.064.065.171.065.342s-.022.3-.065.364c0 .043-.042.064-.107.085-.042.022-.213.043-.513.043h-1.24c.385.492.577 1.134.577 1.925 0 .877-.342 1.647-1.026 2.288-.685.62-1.605.941-2.738.941-.47 0-.962-.064-1.454-.213-.321.278-.514.492-.62.705-.108.193-.172.364-.172.492 0 .129.064.236.171.343.129.128.343.192.685.256.192.022.684.043 1.454.064 1.433.043 2.374.086 2.78.15.664.086 1.177.32 1.562.727.385.385.577.856.577 1.433 0 .792-.363 1.519-1.112 2.224-1.07 1.006-2.502 1.519-4.235 1.519-1.347 0-2.48-.3-3.422-.92-.513-.342-.77-.705-.77-1.069 0-.171.043-.342.107-.513.129-.257.364-.62.728-1.07.064-.064.406-.449 1.069-1.133-.364-.214-.62-.407-.77-.578a.843.843 0 01-.214-.577c0-.235.086-.535.3-.856.192-.32.641-.791 1.368-1.39zm1.818-5.86c-.513 0-.94.214-1.304.62-.343.407-.514 1.027-.514 1.882 0 1.112.236 1.947.706 2.567.364.449.813.684 1.39.684.514 0 .963-.192 1.305-.599.342-.385.492-1.005.492-1.86 0-1.113-.235-1.968-.706-2.61-.364-.449-.813-.684-1.369-.684zm-1.925 9.346c-.32.364-.577.685-.748.984-.15.32-.235.599-.235.856 0 .342.192.62.598.877.685.427 1.711.641 3.016.641 1.262 0 2.182-.214 2.78-.663.6-.428.877-.92.877-1.411 0-.364-.17-.62-.513-.77-.364-.15-1.09-.236-2.16-.278-1.561-.043-2.78-.107-3.615-.236zM933.837 541.784v2.139c.813-1.433 1.626-2.139 2.46-2.139.385 0 .706.107.962.342.236.235.364.492.364.813 0 .257-.086.492-.257.684a.89.89 0 01-.663.278c-.235 0-.513-.107-.812-.363-.3-.235-.535-.364-.663-.364-.129 0-.279.086-.407.214-.32.3-.641.77-.984 1.412v4.598c0 .513.064.92.193 1.198.107.17.256.342.492.47.235.107.556.171.984.171v.385h-4.898v-.385c.492 0 .855-.064 1.09-.214.172-.128.3-.299.364-.534.043-.129.064-.47.064-1.027v-3.7c0-1.112-.042-1.775-.085-1.989a.889.889 0 00-.235-.47.822.822 0 00-.471-.15c-.214 0-.45.064-.727.17l-.107-.384 2.909-1.155h.427zM939.762 545.655c0 1.433.342 2.545 1.048 3.337.684.812 1.518 1.219 2.46 1.219.62 0 1.154-.171 1.625-.514.47-.342.855-.94 1.155-1.775l.342.214c-.15.963-.578 1.818-1.283 2.61-.706.77-1.583 1.176-2.653 1.176-1.133 0-2.117-.45-2.951-1.348-.813-.898-1.22-2.096-1.22-3.614 0-1.626.429-2.909 1.263-3.829.834-.92 1.882-1.368 3.165-1.368 1.07 0 1.946.363 2.63 1.069.685.706 1.049 1.647 1.049 2.823h-6.63zm0-.599h4.427c-.022-.62-.107-1.048-.214-1.304a2.152 2.152 0 00-.77-.92 2.024 2.024 0 00-1.09-.32c-.578 0-1.091.213-1.54.662-.471.45-.728 1.07-.813 1.882zM953.083 550.253c-.984.749-1.605 1.198-1.861 1.305a2.8 2.8 0 01-1.198.257c-.663 0-1.198-.214-1.625-.663-.428-.47-.642-1.048-.642-1.797 0-.47.107-.877.3-1.219.299-.47.79-.92 1.497-1.326.705-.428 1.882-.92 3.529-1.518v-.385c0-.963-.15-1.604-.471-1.968-.3-.342-.727-.535-1.305-.535-.449 0-.791.129-1.048.364-.278.235-.406.513-.406.813l.021.598c0 .321-.085.578-.235.749a.87.87 0 01-.641.257.87.87 0 01-.642-.257c-.15-.192-.235-.428-.235-.749 0-.598.299-1.155.92-1.646.598-.514 1.475-.749 2.566-.749.855 0 1.561.128 2.096.428.406.214.706.534.898 1.005.128.3.193.92.193 1.84v3.25c0 .898.02 1.455.064 1.668.021.214.085.343.17.407.065.085.172.107.279.107a.592.592 0 00.278-.064c.15-.086.428-.343.855-.77v.598c-.791 1.027-1.518 1.562-2.245 1.562-.343 0-.6-.129-.813-.364-.193-.235-.3-.641-.3-1.198zm0-.684v-3.657c-1.048.428-1.733.727-2.054.898-.534.3-.94.62-1.176.963-.235.32-.342.705-.342 1.09 0 .514.15.92.449 1.24.3.343.642.514 1.027.514.534 0 1.219-.364 2.096-1.048zM959.924 538.918v3.144h2.245v.727h-2.245v6.203c0 .62.085 1.026.278 1.261.17.214.406.321.684.321.214 0 .45-.085.663-.214.214-.15.385-.363.492-.641h.406c-.235.684-.577 1.197-1.026 1.54-.45.342-.898.513-1.369.513a1.89 1.89 0 01-.941-.257c-.32-.17-.535-.427-.684-.77-.15-.32-.214-.834-.214-1.518v-6.438h-1.519v-.342c.385-.15.77-.406 1.176-.791a7.096 7.096 0 001.07-1.284c.15-.278.385-.748.663-1.454h.32zM964.69 545.655c0 1.433.342 2.545 1.048 3.337.684.812 1.518 1.219 2.46 1.219.62 0 1.154-.171 1.625-.514.47-.342.855-.94 1.154-1.775l.343.214c-.15.963-.578 1.818-1.284 2.61-.705.77-1.582 1.176-2.652 1.176-1.133 0-2.117-.45-2.951-1.348-.813-.898-1.22-2.096-1.22-3.614 0-1.626.429-2.909 1.263-3.829.834-.92 1.882-1.368 3.165-1.368 1.07 0 1.946.363 2.63 1.069.685.706 1.049 1.647 1.049 2.823h-6.63zm0-.599h4.427c-.022-.62-.107-1.048-.214-1.304a2.152 2.152 0 00-.77-.92 2.024 2.024 0 00-1.09-.32c-.578 0-1.092.213-1.54.662-.471.45-.728 1.07-.813 1.882zM975.38 541.784v2.139c.812-1.433 1.625-2.139 2.46-2.139.384 0 .705.107.962.342.235.235.363.492.363.813 0 .257-.085.492-.256.684a.89.89 0 01-.663.278c-.236 0-.514-.107-.813-.363-.3-.235-.535-.364-.663-.364s-.278.086-.406.214c-.321.3-.642.77-.984 1.412v4.598c0 .513.064.92.192 1.198.107.17.257.342.492.47.235.107.556.171.984.171v.385h-4.898v-.385c.492 0 .856-.064 1.091-.214.171-.128.3-.299.364-.534.042-.129.064-.47.064-1.027v-3.7c0-1.112-.043-1.775-.086-1.989a.889.889 0 00-.235-.47.822.822 0 00-.47-.15c-.214 0-.45.064-.728.17l-.107-.384 2.909-1.155h.428zM925.3 561.215v3.144h2.246v.727H925.3v6.202c0 .62.086 1.027.278 1.262.171.214.407.32.685.32.213 0 .449-.085.663-.213.213-.15.385-.364.491-.642h.407c-.235.685-.578 1.198-1.027 1.54-.449.342-.898.514-1.369.514a1.89 1.89 0 01-.94-.257c-.321-.171-.535-.428-.685-.77-.15-.32-.214-.834-.214-1.519v-6.437h-1.518v-.342c.385-.15.77-.407 1.176-.792a7.096 7.096 0 001.07-1.283c.149-.278.384-.749.662-1.454h.321zM931.285 559.076v6.994c.77-.856 1.369-1.39 1.84-1.647.449-.236.898-.342 1.347-.342.535 0 1.005.15 1.39.449.406.3.684.77.877 1.39.128.449.192 1.262.192 2.46v3.379c0 .599.065 1.026.15 1.24.064.171.193.3.364.406.15.086.47.129.92.129v.385h-4.706v-.385h.214c.45 0 .749-.064.941-.193.171-.128.278-.342.364-.599.021-.106.021-.449.021-.983v-3.38c0-1.048-.043-1.732-.15-2.053-.107-.342-.278-.577-.534-.748-.236-.171-.514-.236-.856-.236-.342 0-.684.086-1.048.257-.385.193-.813.556-1.326 1.112v5.048c0 .663.021 1.069.107 1.219.064.17.192.3.406.406.193.107.535.15 1.027.15v.385h-4.748v-.385c.428 0 .77-.064 1.005-.193.15-.064.257-.192.342-.385.086-.214.129-.598.129-1.197v-8.662c0-1.091-.043-1.754-.086-2.01-.064-.257-.128-.428-.235-.514-.107-.086-.257-.128-.45-.128-.128 0-.384.042-.705.15l-.15-.364 2.866-1.155h.492zM944.588 572.55c-.984.749-1.604 1.198-1.86 1.305a2.8 2.8 0 01-1.198.256c-.663 0-1.198-.214-1.626-.663-.428-.47-.641-1.048-.641-1.796 0-.47.107-.877.299-1.22.3-.47.791-.919 1.497-1.325.706-.428 1.882-.92 3.53-1.519v-.385c0-.962-.15-1.604-.471-1.968-.3-.342-.728-.534-1.305-.534-.45 0-.791.128-1.048.363-.278.236-.406.514-.406.813l.021.599c0 .32-.086.577-.235.748a.87.87 0 01-.642.257.87.87 0 01-.642-.257c-.15-.192-.235-.427-.235-.748 0-.599.3-1.155.92-1.647.599-.513 1.476-.748 2.566-.748.856 0 1.562.128 2.096.427.407.214.706.535.899 1.005.128.3.192.92.192 1.84v3.25c0 .899.022 1.455.064 1.669.022.214.086.342.171.406.065.086.171.107.278.107a.592.592 0 00.278-.064c.15-.085.428-.342.856-.77v.599c-.791 1.027-1.519 1.561-2.246 1.561-.342 0-.599-.128-.812-.363-.193-.236-.3-.642-.3-1.198zm0-.684v-3.658c-1.048.428-1.732.728-2.053.899-.535.299-.941.62-1.176.962-.236.32-.343.706-.343 1.09 0 .514.15.92.45 1.241.299.342.641.514 1.026.514.535 0 1.22-.364 2.096-1.048zM951.45 566.091c1.113-1.347 2.182-2.01 3.209-2.01.513 0 .962.128 1.347.385.364.256.663.684.898 1.283.15.428.214 1.07.214 1.925v4.085c0 .599.065 1.005.15 1.24a.95.95 0 00.364.406c.17.086.492.129.962.129v.385h-4.748v-.385h.214c.45 0 .748-.064.92-.193.192-.128.299-.342.385-.599.021-.106.042-.427.042-.983v-3.914c0-.877-.128-1.497-.342-1.904-.235-.385-.62-.577-1.155-.577-.813 0-1.647.449-2.46 1.347v5.048c0 .641.022 1.048.108 1.197.107.214.235.343.406.45.171.085.513.128 1.027.128v.385h-4.727v-.385h.214c.492 0 .813-.107.984-.364.17-.235.256-.727.256-1.411v-3.55c0-1.156-.021-1.861-.085-2.097-.043-.256-.129-.427-.236-.513a.689.689 0 00-.427-.15c-.193 0-.428.064-.706.171l-.15-.385 2.888-1.154h.449v2.01zM970.443 574.133c-.92 0-1.733-.193-2.417-.556a3.699 3.699 0 01-1.604-1.583c-.385-.663-.578-1.454-.578-2.353v-3.208c0-.92.193-1.71.578-2.374a3.77 3.77 0 011.604-1.561c.684-.364 1.497-.556 2.417-.556.92 0 1.732.192 2.417.556.705.363 1.24.898 1.625 1.561.364.663.556 1.454.556 2.374v2.075h-7.314v1.133c0 .92.235 1.626.705 2.118s1.134.748 2.01.748c.75 0 1.348-.128 1.797-.406.45-.257.727-.642.834-1.176h1.925c-.128.983-.599 1.753-1.433 2.33-.855.578-1.882.878-3.122.878zm-2.716-7.08h5.432v-.62c0-.92-.235-1.647-.684-2.139-.47-.492-1.155-.748-2.032-.748s-1.54.256-2.01.748c-.471.492-.706 1.22-.706 2.14v.62z"
                fill="#b12e1e" fill-rule="nonzero" />
        </g>
    </g>
    <g transform="matrix(.31589 0 0 .6107 352.148 89.744)">
        <path
            d="M731.429 185.017c0-23.045-36.172-41.755-80.726-41.755H357.747c-44.554 0-80.726 18.71-80.726 41.755s36.172 41.755 80.726 41.755h292.956c44.554 0 80.726-18.71 80.726-41.755z"
            fill="#fff" />
        <clipPath id="prefix__a">
            <path
                d="M731.429 185.017c0-23.045-36.172-41.755-80.726-41.755H357.747c-44.554 0-80.726 18.71-80.726 41.755s36.172 41.755 80.726 41.755h292.956c44.554 0 80.726-18.71 80.726-41.755z" />
        </clipPath>
        <g clip-path="url(#prefix__a)">
            <path
                d="M378.4 205.784c-4.45 0-8.14-.562-11.07-1.74-2.93-1.123-4.557-2.695-5.1-4.715h-.108v5.893h-9.767v-40.974h9.767v8.98l-.217 7.017h.325c.543-1.965 2.17-3.536 5.1-4.715 2.93-1.179 6.62-1.74 11.07-1.74 5.968 0 10.85 1.01 14.432 3.087 3.58 2.077 5.426 4.883 5.426 8.42v9.036c0 3.536-1.845 6.287-5.426 8.363-3.581 2.077-8.464 3.088-14.433 3.088zm-3.256-4.379c4.123 0 7.379-.617 9.766-1.908 2.387-1.29 3.581-3.087 3.581-5.5v-8.42c0-2.413-1.194-4.21-3.58-5.5-2.388-1.291-5.644-1.909-9.767-1.909-4.015 0-7.162.674-9.441 1.965-2.387 1.29-3.581 3.143-3.581 5.444v8.42c0 2.3 1.194 4.153 3.58 5.444 2.28 1.29 5.427 1.964 9.442 1.964zM501.673 205.784c-5.969 0-10.743-1.01-14.324-3.088-3.69-2.076-5.535-4.827-5.535-8.363v-9.036c0-3.537 1.845-6.343 5.426-8.42 3.581-2.077 8.464-3.087 14.433-3.087 4.449 0 8.139.561 11.068 1.74 2.93 1.179 4.558 2.75 5.1 4.715h.326l-.217-7.016v-8.98h9.767v40.973h-9.767v-5.893h-.108c-.543 2.02-2.17 3.592-5.1 4.715-2.93 1.178-6.62 1.74-11.07 1.74zm3.255-4.379c4.015 0 7.27-.673 9.55-1.964 2.278-1.291 3.472-3.143 3.472-5.445v-8.419c0-2.301-1.194-4.153-3.472-5.444-2.28-1.291-5.535-1.965-9.55-1.965-4.123 0-7.379.618-9.766 1.909-2.387 1.29-3.581 3.087-3.581 5.5v8.42c0 2.413 1.194 4.21 3.58 5.5 2.388 1.291 5.644 1.908 9.767 1.908zM635.364 205.784c-4.666 0-8.79-.506-12.262-1.46-3.581-.954-6.294-2.357-8.139-4.153-1.953-1.74-2.93-3.817-2.93-6.175v-8.419c0-2.413.977-4.49 2.93-6.23 1.845-1.74 4.558-3.143 8.139-4.098 3.472-.954 7.596-1.459 12.262-1.459s8.79.505 12.262 1.46c3.581.954 6.294 2.357 8.247 4.097 1.845 1.74 2.822 3.817 2.822 6.23v5.445h-37.113v2.974c0 2.414 1.194 4.266 3.581 5.557 2.388 1.291 5.752 1.965 10.201 1.965 3.798 0 6.836-.337 9.115-1.067 2.28-.673 3.69-1.684 4.232-3.087h9.767c-.651 2.582-3.039 4.603-7.27 6.118-4.341 1.516-9.55 2.302-15.844 2.302zm-13.782-18.58h27.563v-1.627c0-2.413-1.193-4.322-3.472-5.613-2.387-1.29-5.86-1.964-10.309-1.964-4.45 0-7.813.673-10.2 1.964-2.388 1.291-3.582 3.2-3.582 5.613v1.628z"
                fill-rule="nonzero" />
        </g>
        <path
            d="M731.429 185.017c0-23.045-36.172-41.755-80.726-41.755H357.747c-44.554 0-80.726 18.71-80.726 41.755s36.172 41.755 80.726 41.755h292.956c44.554 0 80.726-18.71 80.726-41.755z"
            fill="none" stroke="#000" stroke-width="8.23" />
    </g>
    <g>
        <path d="M115.268 524.044L90.62 571.098" fill="none" stroke="#000" stroke-width="7.15" stroke-linecap="square"
            transform="matrix(.67711 -.04687 .17237 .5524 63.231 295.052)" />
        <path d="M115.268 524.044L90.62 571.098" fill="none" stroke="#000" stroke-width="7.15" stroke-linecap="square"
            transform="matrix(-.67726 -.04733 -.17209 .5533 503.521 294.446)" />
        <path d="M115.268 524.044L90.62 571.098" fill="none" stroke="#000" stroke-width="7.18" stroke-linecap="square"
            transform="matrix(.65148 -.16425 .28483 .46897 15.38 353.976)" />
        <circle cx="154.775" cy="556.848" r="2.753" transform="matrix(.71292 0 0 .71292 143.05 198.305)" />
        <circle cx="154.775" cy="556.848" r="2.753" transform="matrix(.71292 0 0 .71292 170.687 198.305)" />
        <circle cx="154.775" cy="556.848" r="2.753" transform="matrix(.71292 0 0 .71292 156.868 198.305)" />
        <g>
            <path
                d="M553.062 457.389c7.647-10.384 20.819-16.661 34.96-16.661 14.142 0 27.314 6.277 34.961 16.661l33.3 45.219c8.221 11.163 8.804 25.355 1.519 37.003-7.286 11.649-21.276 18.895-36.479 18.895h-66.601c-15.203 0-29.193-7.246-36.479-18.895-7.285-11.648-6.702-25.84 1.519-37.003l33.3-45.219z"
                fill="#fff" stroke="#c1c1c1" stroke-width="3.87"
                transform="matrix(.96244 0 0 1.10253 -282.613 -36.06)" />
        </g>
        <g>
            <path
                d="M251.063 543.666c.92-1.284 1.924-1.925 2.994-1.925.984 0 1.84.406 2.566 1.24.728.856 1.091 1.99 1.091 3.444 0 1.71-.556 3.08-1.69 4.106-.962.898-2.031 1.347-3.229 1.347a5.213 5.213 0 01-1.69-.299 8.288 8.288 0 01-1.775-.92v-9.902c0-1.09-.021-1.754-.064-2.01-.064-.257-.15-.428-.257-.514a.658.658 0 00-.406-.128c-.214 0-.45.043-.749.15l-.128-.364 2.866-1.155h.47v6.93zm0 .663v5.732c.342.342.727.598 1.09.79.385.172.77.258 1.177.258.62 0 1.219-.343 1.775-1.048.535-.685.813-1.711.813-3.037 0-1.22-.278-2.16-.813-2.824-.556-.663-1.176-.983-1.882-.983-.364 0-.727.085-1.091.278-.278.15-.642.427-1.07.834zM260.73 545.612c0 1.433.342 2.545 1.048 3.336.684.813 1.518 1.22 2.46 1.22.62 0 1.154-.172 1.625-.514.47-.342.855-.94 1.155-1.775l.342.214c-.15.962-.578 1.818-1.283 2.61-.706.77-1.583 1.175-2.652 1.175-1.134 0-2.118-.449-2.952-1.347-.813-.898-1.219-2.096-1.219-3.614 0-1.626.428-2.91 1.262-3.829.834-.92 1.882-1.369 3.165-1.369 1.07 0 1.946.364 2.63 1.07.685.706 1.049 1.647 1.049 2.823h-6.63zm0-.599h4.427c-.021-.62-.107-1.048-.214-1.305a2.152 2.152 0 00-.77-.92 2.024 2.024 0 00-1.09-.32c-.578 0-1.091.214-1.54.663-.471.45-.728 1.07-.813 1.882zM271.4 538.875v3.144h2.245v.727h-2.246v6.202c0 .62.086 1.027.278 1.262.171.214.407.321.685.321.214 0 .449-.085.663-.214.214-.15.385-.363.492-.641h.406c-.235.684-.577 1.197-1.027 1.54-.449.342-.898.513-1.368.513a1.89 1.89 0 01-.941-.257c-.321-.171-.535-.428-.685-.77-.15-.32-.214-.834-.214-1.518v-6.438h-1.518v-.342c.385-.15.77-.407 1.176-.792a7.096 7.096 0 001.07-1.283c.15-.278.384-.748.662-1.454h.321zM274.026 542.019h4.021v.385c-.363.021-.62.085-.727.192a.613.613 0 00-.171.45c0 .213.064.47.171.79l2.053 5.497 2.053-4.47-.534-1.411c-.171-.428-.385-.706-.663-.877-.15-.086-.45-.15-.856-.171v-.385h4.556v.385c-.513.021-.856.107-1.07.256-.15.129-.213.3-.213.535 0 .15.02.3.085.428l2.182 5.497 2.01-5.283c.128-.385.214-.685.214-.898 0-.129-.086-.257-.214-.364-.128-.107-.406-.171-.791-.171v-.385h3.015v.385c-.598.085-1.048.492-1.347 1.219l-3.187 8.255h-.428l-2.395-6.116-2.78 6.116h-.385l-3.08-8.041c-.193-.514-.406-.856-.599-1.027-.192-.192-.492-.32-.92-.406v-.385zM291.61 545.612c0 1.433.343 2.545 1.048 3.336.685.813 1.519 1.22 2.46 1.22.62 0 1.155-.172 1.626-.514.47-.342.855-.94 1.154-1.775l.343.214c-.15.962-.578 1.818-1.284 2.61-.705.77-1.582 1.175-2.652 1.175-1.133 0-2.117-.449-2.951-1.347-.813-.898-1.22-2.096-1.22-3.614 0-1.626.429-2.91 1.263-3.829.834-.92 1.882-1.369 3.165-1.369 1.07 0 1.946.364 2.63 1.07.685.706 1.049 1.647 1.049 2.823h-6.63zm0-.599h4.428c-.022-.62-.107-1.048-.214-1.305a2.152 2.152 0 00-.77-.92 2.024 2.024 0 00-1.09-.32c-.578 0-1.092.214-1.54.663-.471.45-.728 1.07-.813 1.882zM301.103 545.612c0 1.433.342 2.545 1.048 3.336.684.813 1.519 1.22 2.46 1.22.62 0 1.154-.172 1.625-.514.47-.342.856-.94 1.155-1.775l.342.214c-.15.962-.577 1.818-1.283 2.61-.706.77-1.583 1.175-2.652 1.175-1.134 0-2.118-.449-2.952-1.347-.812-.898-1.219-2.096-1.219-3.614 0-1.626.428-2.91 1.262-3.829.834-.92 1.882-1.369 3.165-1.369 1.07 0 1.947.364 2.631 1.07.685.706 1.048 1.647 1.048 2.823h-6.63zm0-.599h4.427c-.021-.62-.107-1.048-.214-1.305a2.152 2.152 0 00-.77-.92 2.024 2.024 0 00-1.09-.32c-.578 0-1.091.214-1.54.663-.47.45-.727 1.07-.813 1.882zM311.794 543.751c1.112-1.347 2.181-2.01 3.208-2.01.513 0 .962.128 1.347.385.364.256.663.684.899 1.283.15.428.214 1.07.214 1.925v4.085c0 .599.064 1.005.15 1.24a.95.95 0 00.363.407c.171.085.492.128.962.128v.385h-4.748v-.385h.214c.45 0 .749-.064.92-.192.192-.129.3-.343.385-.6.021-.106.043-.427.043-.983v-3.914c0-.877-.129-1.497-.343-1.903-.235-.385-.62-.578-1.155-.578-.812 0-1.646.45-2.46 1.347v5.048c0 .642.022 1.048.108 1.198.107.214.235.342.406.449.171.085.514.128 1.027.128v.385h-4.727v-.385h.214c.492 0 .813-.107.984-.363.171-.236.257-.728.257-1.412v-3.55c0-1.155-.022-1.861-.086-2.096-.043-.257-.128-.428-.235-.514a.689.689 0 00-.428-.15c-.193 0-.428.065-.706.172l-.15-.385 2.888-1.155h.449v2.01zM255.166 574.09c-1.24 0-2.224-.321-2.93-.963-.706-.62-1.07-1.476-1.07-2.566 0-1.091.364-1.968 1.07-2.588.706-.62 1.668-.941 2.887-.941h3.636v-1.177c0-.706-.214-1.262-.641-1.668-.45-.406-1.048-.599-1.818-.599-.685 0-1.262.15-1.733.45-.47.299-.77.684-.877 1.176h-1.924c.064-.663.32-1.24.727-1.733a4.125 4.125 0 011.604-1.176c.663-.278 1.39-.406 2.203-.406 1.347 0 2.416.342 3.208 1.048.791.705 1.176 1.646 1.176 2.844v8.085h-1.882v-2.246h-.021c-.086.748-.45 1.347-1.091 1.796-.663.45-1.497.663-2.524.663zm.47-1.52c.92 0 1.669-.234 2.246-.683.578-.45.877-1.048.877-1.754v-1.668h-3.593c-.641 0-1.155.17-1.518.534-.364.364-.556.834-.556 1.455 0 .663.235 1.176.684 1.56.428.364 1.07.557 1.86.557zM274.051 572.507c-.983.748-1.604 1.197-1.86 1.304a2.8 2.8 0 01-1.198.257c-.663 0-1.198-.214-1.626-.663-.427-.47-.641-1.048-.641-1.796 0-.471.107-.877.3-1.22.299-.47.79-.92 1.496-1.326.706-.427 1.882-.92 3.53-1.518v-.385c0-.963-.15-1.604-.471-1.968-.3-.342-.727-.534-1.305-.534-.449 0-.791.128-1.048.363-.278.235-.406.513-.406.813l.021.599c0 .32-.085.577-.235.748a.87.87 0 01-.642.257.87.87 0 01-.641-.257c-.15-.192-.236-.427-.236-.748 0-.6.3-1.155.92-1.647.599-.513 1.476-.749 2.567-.749.855 0 1.56.129 2.096.428.406.214.705.535.898 1.005.128.3.192.92.192 1.84v3.25c0 .899.022 1.455.064 1.669.022.214.086.342.172.406.064.086.17.107.278.107a.592.592 0 00.278-.064c.15-.086.427-.342.855-.77v.599c-.791 1.026-1.518 1.561-2.246 1.561-.342 0-.598-.128-.812-.364-.193-.235-.3-.641-.3-1.197zm0-.685v-3.657c-1.048.428-1.732.727-2.053.898-.535.3-.94.62-1.176.963-.235.32-.342.706-.342 1.09 0 .514.15.92.449 1.241.3.342.641.513 1.026.513.535 0 1.22-.363 2.096-1.048zM280.913 566.048c1.112-1.348 2.182-2.01 3.208-2.01.514 0 .963.128 1.348.384.363.257.663.685.898 1.284.15.427.214 1.069.214 1.924v4.085c0 .6.064 1.006.15 1.24a.95.95 0 00.363.407c.171.086.492.129.963.129v.385h-4.748v-.385h.213c.45 0 .749-.065.92-.193.193-.128.3-.342.385-.599.021-.107.043-.427.043-.984v-3.913c0-.877-.128-1.498-.342-1.904-.236-.385-.62-.577-1.155-.577-.813 0-1.647.449-2.46 1.347v5.047c0 .642.022 1.048.107 1.198.107.214.235.342.406.45.172.085.514.128 1.027.128v.385h-4.727v-.385h.214c.492 0 .813-.107.984-.364.171-.235.257-.727.257-1.412v-3.55c0-1.155-.022-1.86-.086-2.096-.043-.257-.128-.428-.235-.513a.689.689 0 00-.428-.15c-.192 0-.428.064-.706.171l-.15-.385 2.888-1.155h.45v2.01zM295.564 572.806c-.47.47-.92.834-1.37 1.048-.448.214-.919.321-1.432.321-1.048 0-1.968-.45-2.738-1.326-.791-.856-1.176-1.99-1.176-3.358 0-1.369.428-2.63 1.305-3.764.855-1.134 1.967-1.711 3.336-1.711.834 0 1.519.278 2.075.813v-1.776c0-1.09-.022-1.753-.065-2.01-.064-.257-.15-.428-.256-.513a.658.658 0 00-.407-.129 2.19 2.19 0 00-.727.15l-.15-.363 2.866-1.155h.471v11.057c0 1.112.021 1.797.064 2.053.064.235.15.407.257.513.107.086.256.15.406.15.193 0 .428-.064.749-.192l.107.363-2.823 1.198h-.492v-1.369zm0-.727v-4.94a3.573 3.573 0 00-.364-1.284 2.266 2.266 0 00-.834-.898c-.342-.193-.684-.3-1.005-.3-.62 0-1.177.279-1.647.835-.642.727-.941 1.775-.941 3.165 0 1.412.3 2.481.92 3.23.598.748 1.283 1.133 2.031 1.133.642 0 1.24-.32 1.84-.941zM311.283 574.09c-.876 0-1.604-.214-2.181-.664-.578-.427-.898-1.026-1.005-1.796h-.022v2.246h-1.925v-15.613h1.925v3.422l-.042 2.673h.064c.107-.748.427-1.347 1.005-1.796.577-.45 1.305-.663 2.181-.663 1.177 0 2.14.385 2.845 1.176.706.791 1.07 1.86 1.07 3.208v3.443c0 1.348-.364 2.396-1.07 3.187-.706.791-1.668 1.176-2.845 1.176zm-.641-1.669c.813 0 1.454-.235 1.925-.727.47-.492.706-1.176.706-2.096v-3.208c0-.92-.236-1.604-.706-2.096s-1.112-.727-1.925-.727c-.791 0-1.412.256-1.86.748-.471.492-.707 1.198-.707 2.075v3.208c0 .877.236 1.583.706 2.075.45.492 1.07.748 1.86.748z"
                fill="#b12e1e" fill-rule="nonzero" />
        </g>
    </g>
    <g>
        <path d="M115.268 524.044L90.62 571.098" fill="none" stroke="#000" stroke-width="7.15" stroke-linecap="square"
            transform="matrix(.67711 -.04687 .17237 .5524 -116.279 295.052)" />
        <path d="M115.268 524.044L90.62 571.098" fill="none" stroke="#000" stroke-width="7.15" stroke-linecap="square"
            transform="matrix(-.67726 -.04733 -.17209 .5533 324.011 294.446)" />
        <path d="M115.268 524.044L90.62 571.098" fill="none" stroke="#000" stroke-width="7.18" stroke-linecap="square"
            transform="matrix(.65148 -.16425 .28483 .46897 -164.13 353.976)" />
        <circle cx="154.775" cy="556.848" r="2.753" transform="matrix(.71292 0 0 .71292 -36.46 198.305)" />
        <circle cx="154.775" cy="556.848" r="2.753" transform="matrix(.71292 0 0 .71292 -8.823 198.305)" />
        <circle cx="154.775" cy="556.848" r="2.753" transform="matrix(.71292 0 0 .71292 -22.642 198.305)" />
        <g>
            <path
                d="M553.062 457.389c7.647-10.384 20.819-16.661 34.96-16.661 14.142 0 27.314 6.277 34.961 16.661l33.3 45.219c8.221 11.163 8.804 25.355 1.519 37.003-7.286 11.649-21.276 18.895-36.479 18.895h-66.601c-15.203 0-29.193-7.246-36.479-18.895-7.285-11.648-6.702-25.84 1.519-37.003l33.3-45.219z"
                fill="#fff" stroke="#c1c1c1" stroke-width="3.87"
                transform="matrix(.96244 0 0 1.10253 -462.123 -36.06)" />
        </g>
        <g>
            <path
                d="M92.587 536.736v12.683c0 .599.043.984.128 1.198a.796.796 0 00.406.427c.172.107.514.15 1.006.15v.385h-4.684v-.385c.449 0 .748-.043.898-.128.171-.086.278-.235.385-.45.086-.213.128-.598.128-1.197v-8.683c0-1.091-.021-1.754-.064-1.99-.064-.256-.128-.427-.235-.513a.679.679 0 00-.428-.128c-.17 0-.406.043-.684.15l-.171-.364 2.844-1.155h.47zM96.839 545.612c0 1.433.342 2.545 1.048 3.336.684.813 1.518 1.22 2.46 1.22.62 0 1.154-.172 1.625-.514.47-.342.855-.94 1.155-1.775l.342.214c-.15.962-.578 1.818-1.283 2.61-.706.77-1.583 1.175-2.653 1.175-1.133 0-2.117-.449-2.951-1.347-.813-.898-1.22-2.096-1.22-3.614 0-1.626.429-2.91 1.263-3.829.834-.92 1.882-1.369 3.165-1.369 1.07 0 1.946.364 2.63 1.07.685.706 1.049 1.647 1.049 2.823h-6.63zm0-.599h4.427c-.022-.62-.107-1.048-.214-1.305a2.152 2.152 0 00-.77-.92 2.024 2.024 0 00-1.09-.32c-.578 0-1.091.214-1.54.663-.471.45-.728 1.07-.813 1.882zM110.909 541.74v3.252h-.342c-.257-1.027-.6-1.733-1.006-2.096-.427-.364-.94-.556-1.582-.556-.492 0-.899.128-1.198.385-.3.256-.45.556-.45.855 0 .406.13.727.343 1.005.214.3.663.6 1.326.92l1.519.727c1.411.706 2.117 1.604 2.117 2.738 0 .877-.32 1.561-.984 2.096-.663.534-1.39.812-2.203.812-.599 0-1.262-.106-2.01-.32-.235-.064-.428-.107-.578-.107-.15 0-.278.085-.363.278h-.342v-3.422h.342c.192.984.556 1.71 1.112 2.203.556.492 1.176.748 1.86.748.471 0 .856-.15 1.156-.427.32-.279.47-.62.47-1.027 0-.47-.171-.877-.513-1.198-.342-.32-1.005-.748-2.01-1.24-1.027-.514-1.69-.963-1.99-1.37-.32-.384-.47-.897-.47-1.496 0-.792.256-1.455.813-1.968.534-.535 1.24-.791 2.095-.791.364 0 .813.064 1.37.235.341.107.577.15.705.15a.456.456 0 00.257-.064c.064-.065.128-.171.214-.321h.342zM119.232 541.74v3.252h-.342c-.257-1.027-.599-1.733-1.005-2.096-.428-.364-.941-.556-1.583-.556-.492 0-.898.128-1.198.385-.3.256-.449.556-.449.855 0 .406.129.727.342 1.005.214.3.663.6 1.326.92l1.519.727c1.412.706 2.117 1.604 2.117 2.738 0 .877-.32 1.561-.984 2.096-.663.534-1.39.812-2.202.812-.6 0-1.262-.106-2.01-.32-.236-.064-.429-.107-.578-.107-.15 0-.278.085-.364.278h-.342v-3.422h.342c.193.984.556 1.71 1.112 2.203.556.492 1.177.748 1.86.748.471 0 .856-.15 1.156-.427.32-.279.47-.62.47-1.027 0-.47-.17-.877-.513-1.198-.342-.32-1.005-.748-2.01-1.24-1.027-.514-1.69-.963-1.99-1.37-.32-.384-.47-.897-.47-1.496 0-.792.257-1.455.813-1.968.535-.535 1.24-.791 2.096-.791.363 0 .813.064 1.369.235.342.107.577.15.705.15a.456.456 0 00.257-.064c.064-.065.128-.171.214-.321h.342zM80.613 561.171v3.144h2.245v.728h-2.245v6.202c0 .62.085 1.027.278 1.262.17.214.406.32.684.32.214 0 .45-.085.663-.213.214-.15.385-.364.492-.642h.406c-.235.684-.577 1.198-1.026 1.54-.45.342-.899.513-1.369.513a1.89 1.89 0 01-.941-.256c-.32-.171-.535-.428-.684-.77-.15-.321-.214-.834-.214-1.519v-6.437h-1.519v-.343c.385-.15.77-.406 1.176-.791a7.096 7.096 0 001.07-1.283c.15-.278.385-.749.663-1.455h.32zM86.598 559.033v6.993c.77-.855 1.368-1.39 1.839-1.646.449-.236.898-.343 1.347-.343.535 0 1.006.15 1.39.45.407.299.685.77.877 1.39.129.449.193 1.262.193 2.46v3.378c0 .6.064 1.027.15 1.24.064.172.192.3.363.407.15.086.47.129.92.129v.385h-4.705v-.385h.213c.45 0 .749-.065.942-.193.17-.128.278-.342.363-.599.022-.107.022-.449.022-.984v-3.379c0-1.048-.043-1.732-.15-2.053-.107-.342-.278-.577-.535-.749-.235-.17-.513-.235-.855-.235-.343 0-.685.086-1.048.257-.385.192-.813.556-1.326 1.112v5.047c0 .663.021 1.07.107 1.22.064.17.192.299.406.406.192.107.535.15 1.026.15v.385H83.39v-.385c.428 0 .77-.065 1.006-.193.15-.064.256-.192.342-.385.085-.214.128-.599.128-1.198v-8.662c0-1.09-.043-1.753-.085-2.01-.065-.257-.129-.428-.236-.513-.107-.086-.256-.129-.449-.129-.128 0-.385.043-.706.15l-.15-.363 2.867-1.155h.492zM99.9 572.507c-.983.748-1.603 1.197-1.86 1.304a2.8 2.8 0 01-1.198.257c-.663 0-1.197-.214-1.625-.663-.428-.47-.642-1.048-.642-1.796 0-.471.107-.877.3-1.22.299-.47.79-.92 1.497-1.326.705-.427 1.882-.92 3.529-1.518v-.385c0-.963-.15-1.604-.47-1.968-.3-.342-.728-.534-1.306-.534-.449 0-.79.128-1.048.363-.278.235-.406.513-.406.813l.022.599c0 .32-.086.577-.236.748a.87.87 0 01-.641.257.87.87 0 01-.642-.257c-.15-.192-.235-.427-.235-.748 0-.6.3-1.155.92-1.647.598-.513 1.475-.749 2.566-.749.855 0 1.561.129 2.096.428.406.214.706.535.898 1.005.128.3.193.92.193 1.84v3.25c0 .899.021 1.455.064 1.669.021.214.085.342.17.406.065.086.172.107.279.107a.592.592 0 00.278-.064c.15-.086.428-.342.855-.77v.599c-.79 1.026-1.518 1.561-2.245 1.561-.342 0-.6-.128-.813-.364-.192-.235-.3-.641-.3-1.197zm0-.685v-3.657c-1.047.428-1.732.727-2.053.898-.534.3-.94.62-1.176.963-.235.32-.342.706-.342 1.09 0 .514.15.92.45 1.241.298.342.64.513 1.026.513.534 0 1.219-.363 2.096-1.048zM106.763 566.048c1.112-1.348 2.182-2.01 3.208-2.01.514 0 .963.128 1.348.384.363.257.663.685.898 1.284.15.427.214 1.069.214 1.924v4.085c0 .6.064 1.006.15 1.24a.95.95 0 00.363.407c.171.086.492.129.963.129v.385h-4.748v-.385h.213c.45 0 .749-.065.92-.193.193-.128.3-.342.385-.599.021-.107.043-.427.043-.984v-3.913c0-.877-.128-1.498-.342-1.904-.236-.385-.62-.577-1.155-.577-.813 0-1.647.449-2.46 1.347v5.047c0 .642.022 1.048.107 1.198.107.214.235.342.406.45.172.085.514.128 1.027.128v.385h-4.727v-.385h.214c.492 0 .813-.107.984-.364.171-.235.257-.727.257-1.412v-3.55c0-1.155-.022-1.86-.086-2.096-.043-.257-.128-.428-.235-.513a.689.689 0 00-.428-.15c-.192 0-.428.064-.706.171l-.15-.385 2.888-1.155h.45v2.01zM124.729 574.09c-1.24 0-2.225-.321-2.93-.963-.706-.62-1.07-1.476-1.07-2.566 0-1.091.364-1.968 1.07-2.588.705-.62 1.668-.941 2.887-.941h3.636v-1.177c0-.706-.214-1.262-.642-1.668-.449-.406-1.048-.599-1.818-.599-.684 0-1.262.15-1.732.45-.47.299-.77.684-.877 1.176h-1.925c.064-.663.32-1.24.727-1.733a4.125 4.125 0 011.604-1.176c.663-.278 1.39-.406 2.203-.406 1.348 0 2.417.342 3.208 1.048.792.705 1.177 1.646 1.177 2.844v8.085h-1.882v-2.246h-.022c-.085.748-.449 1.347-1.09 1.796-.664.45-1.498.663-2.524.663zm.47-1.52c.92 0 1.668-.234 2.246-.683.577-.45.877-1.048.877-1.754v-1.668h-3.593c-.642 0-1.155.17-1.519.534-.363.364-.556.834-.556 1.455 0 .663.235 1.176.685 1.56.427.364 1.069.557 1.86.557z"
                fill="#b12e1e" fill-rule="nonzero" />
        </g>
    </g>
    <g>
        <path d="M115.268 524.044L90.62 571.098" fill="none" stroke="#000" stroke-width="7.15" stroke-linecap="square"
            transform="matrix(.67711 -.04687 .17237 .5524 242.74 295.052)" />
        <path d="M115.268 524.044L90.62 571.098" fill="none" stroke="#000" stroke-width="7.15" stroke-linecap="square"
            transform="matrix(-.67726 -.04733 -.17209 .5533 683.03 294.446)" />
        <path d="M115.268 524.044L90.62 571.098" fill="none" stroke="#000" stroke-width="7.18" stroke-linecap="square"
            transform="matrix(.65148 -.16425 .28483 .46897 194.89 353.975)" />
        <circle cx="154.775" cy="556.848" r="2.753" transform="matrix(.71292 0 0 .71292 322.558 198.306)" />
        <circle cx="154.775" cy="556.848" r="2.753" transform="matrix(.71292 0 0 .71292 350.196 198.306)" />
        <circle cx="154.775" cy="556.848" r="2.753" transform="matrix(.71292 0 0 .71292 336.377 198.306)" />
        <g>
            <path
                d="M553.062 457.389c7.647-10.384 20.819-16.661 34.96-16.661 14.142 0 27.314 6.277 34.961 16.661l33.3 45.219c8.221 11.163 8.804 25.355 1.519 37.003-7.286 11.649-21.276 18.895-36.479 18.895h-66.601c-15.203 0-29.193-7.246-36.479-18.895-7.285-11.648-6.702-25.84 1.519-37.003l33.3-45.219z"
                fill="#fff" stroke="#c1c1c1" stroke-width="3.87"
                transform="matrix(.96244 0 0 1.10253 -103.104 -36.059)" />
        </g>
        <g>
            <path
                d="M430.572 545.17c.92-1.283 1.925-1.924 2.994-1.924.984 0 1.84.406 2.566 1.24.728.856 1.091 1.99 1.091 3.444 0 1.71-.556 3.08-1.69 4.106-.962.898-2.031 1.347-3.229 1.347a5.213 5.213 0 01-1.69-.299 8.288 8.288 0 01-1.775-.92v-9.902c0-1.09-.021-1.754-.064-2.01-.064-.257-.15-.428-.257-.514a.658.658 0 00-.406-.128c-.214 0-.449.043-.748.15l-.129-.364 2.866-1.155h.47v6.93zm0 .664v5.731c.342.343.727.6 1.09.792.385.17.77.256 1.177.256.62 0 1.219-.342 1.775-1.048.535-.684.813-1.71.813-3.037 0-1.219-.278-2.16-.813-2.823-.556-.663-1.176-.984-1.882-.984-.364 0-.727.086-1.09.278-.279.15-.643.428-1.07.835zM440.239 547.117c0 1.433.342 2.545 1.048 3.336.684.813 1.518 1.22 2.46 1.22.62 0 1.154-.172 1.625-.514.47-.342.855-.941 1.155-1.775l.342.214c-.15.962-.577 1.818-1.283 2.61-.706.769-1.583 1.175-2.652 1.175-1.134 0-2.118-.449-2.952-1.347-.813-.898-1.219-2.096-1.219-3.615 0-1.625.428-2.908 1.262-3.828.834-.92 1.882-1.369 3.165-1.369 1.07 0 1.947.364 2.631 1.07.684.705 1.048 1.647 1.048 2.823h-6.63zm0-.599h4.427c-.021-.62-.107-1.048-.214-1.305a2.152 2.152 0 00-.77-.92 2.024 2.024 0 00-1.09-.32c-.578 0-1.091.214-1.54.663-.47.449-.728 1.07-.813 1.882zM450.908 540.38v3.144h2.246v.727h-2.246v6.202c0 .62.086 1.027.278 1.262.172.214.407.321.685.321.214 0 .449-.086.663-.214.214-.15.385-.363.492-.642h.406c-.235.685-.577 1.198-1.026 1.54-.45.343-.899.514-1.37.514a1.89 1.89 0 01-.94-.257c-.321-.171-.535-.428-.685-.77-.15-.32-.214-.834-.214-1.518v-6.438h-1.518v-.342c.385-.15.77-.407 1.176-.792a7.096 7.096 0 001.07-1.283c.15-.278.385-.748.663-1.454h.32zM453.535 543.524h4.021v.385c-.363.021-.62.085-.727.192a.613.613 0 00-.17.45c0 .213.063.47.17.79l2.053 5.497 2.054-4.47-.535-1.411c-.171-.428-.385-.706-.663-.877-.15-.086-.45-.15-.856-.171v-.385h4.556v.385c-.513.021-.856.107-1.07.256-.15.129-.213.3-.213.535 0 .15.021.3.085.428l2.182 5.496 2.01-5.282c.128-.385.214-.685.214-.899 0-.128-.086-.256-.214-.363-.128-.107-.406-.171-.791-.171v-.385h3.015v.385c-.598.085-1.048.492-1.347 1.219l-3.187 8.255h-.427l-2.396-6.116-2.78 6.116h-.385l-3.08-8.041c-.192-.514-.406-.856-.599-1.027-.192-.192-.492-.32-.92-.406v-.385zM471.12 547.117c0 1.433.342 2.545 1.048 3.336.684.813 1.518 1.22 2.46 1.22.62 0 1.154-.172 1.625-.514.47-.342.855-.941 1.155-1.775l.342.214c-.15.962-.578 1.818-1.284 2.61-.705.769-1.582 1.175-2.652 1.175-1.133 0-2.117-.449-2.951-1.347-.813-.898-1.22-2.096-1.22-3.615 0-1.625.429-2.908 1.263-3.828.834-.92 1.882-1.369 3.165-1.369 1.07 0 1.946.364 2.63 1.07.685.705 1.049 1.647 1.049 2.823h-6.63zm0-.599h4.427c-.022-.62-.107-1.048-.214-1.305a2.152 2.152 0 00-.77-.92 2.024 2.024 0 00-1.09-.32c-.578 0-1.092.214-1.54.663-.471.449-.728 1.07-.813 1.882zM480.612 547.117c0 1.433.342 2.545 1.048 3.336.685.813 1.519 1.22 2.46 1.22.62 0 1.155-.172 1.625-.514s.856-.941 1.155-1.775l.342.214c-.15.962-.577 1.818-1.283 2.61-.706.769-1.583 1.175-2.652 1.175-1.134 0-2.117-.449-2.952-1.347-.812-.898-1.219-2.096-1.219-3.615 0-1.625.428-2.908 1.262-3.828.834-.92 1.882-1.369 3.166-1.369 1.069 0 1.946.364 2.63 1.07.685.705 1.048 1.647 1.048 2.823h-6.63zm0-.599h4.427c-.021-.62-.107-1.048-.214-1.305a2.152 2.152 0 00-.77-.92 2.024 2.024 0 00-1.09-.32c-.578 0-1.091.214-1.54.663-.47.449-.727 1.07-.813 1.882zM491.303 545.256c1.112-1.347 2.182-2.01 3.208-2.01.513 0 .963.128 1.348.385.363.256.663.684.898 1.283.15.428.214 1.07.214 1.925v4.085c0 .599.064 1.005.15 1.24a.95.95 0 00.363.407c.171.085.492.128.962.128v.385h-4.748v-.385h.214c.45 0 .749-.064.92-.193.192-.128.3-.342.385-.598.021-.107.043-.428.043-.984v-3.914c0-.877-.129-1.497-.342-1.904-.236-.385-.62-.577-1.155-.577-.813 0-1.647.45-2.46 1.347v5.048c0 .641.021 1.048.107 1.198.107.213.235.342.406.449.171.085.514.128 1.027.128v.385h-4.727v-.385h.214c.492 0 .813-.107.984-.364.171-.235.257-.727.257-1.411v-3.55c0-1.155-.022-1.861-.086-2.096-.043-.257-.128-.428-.235-.514a.689.689 0 00-.428-.15c-.192 0-.428.065-.706.172l-.15-.385 2.888-1.155h.449v2.01zM436.386 575.594c-.877 0-1.604-.214-2.181-.663-.578-.427-.899-1.026-1.006-1.796h-.02v2.245h-1.926v-15.612h1.925v3.422l-.043 2.673h.064c.107-.749.428-1.347 1.006-1.797.577-.449 1.304-.663 2.181-.663 1.177 0 2.139.385 2.845 1.177.706.791 1.07 1.86 1.07 3.208v3.443c0 1.348-.364 2.396-1.07 3.187-.706.791-1.668 1.176-2.845 1.176zm-.641-1.668c.812 0 1.454-.235 1.924-.727.471-.492.706-1.176.706-2.096v-3.208c0-.92-.235-1.604-.706-2.096-.47-.492-1.112-.727-1.924-.727-.792 0-1.412.256-1.861.748-.47.492-.706 1.198-.706 2.075v3.208c0 .877.235 1.583.706 2.075.449.491 1.07.748 1.86.748zM453.56 574.012c-.983.748-1.604 1.197-1.86 1.304a2.8 2.8 0 01-1.198.257c-.663 0-1.198-.214-1.625-.663-.428-.47-.642-1.048-.642-1.797 0-.47.107-.877.3-1.219.299-.47.79-.92 1.496-1.326.706-.427 1.883-.92 3.53-1.518v-.385c0-.963-.15-1.604-.471-1.968-.3-.342-.727-.535-1.305-.535-.449 0-.791.129-1.048.364-.278.235-.406.513-.406.813l.021.599c0 .32-.085.577-.235.748a.87.87 0 01-.642.257.87.87 0 01-.641-.257c-.15-.192-.235-.428-.235-.748 0-.6.299-1.155.92-1.647.598-.514 1.475-.749 2.566-.749.855 0 1.561.129 2.096.428.406.214.705.535.898 1.005.128.3.192.92.192 1.84v3.25c0 .899.022 1.455.065 1.669.021.214.085.342.17.406.065.086.172.107.279.107a.592.592 0 00.278-.064c.15-.086.428-.342.855-.77v.599c-.791 1.026-1.518 1.561-2.245 1.561-.343 0-.6-.128-.813-.364-.193-.235-.3-.641-.3-1.197zm0-.685v-3.657c-1.048.428-1.732.727-2.053.898-.534.3-.94.62-1.176.963-.235.32-.342.705-.342 1.09 0 .514.15.92.449 1.241.3.342.641.513 1.026.513.535 0 1.22-.363 2.096-1.048zM460.422 567.553c1.112-1.348 2.182-2.01 3.208-2.01.514 0 .963.128 1.348.384.363.257.663.685.898 1.283.15.428.214 1.07.214 1.925v4.085c0 .6.064 1.006.15 1.24a.95.95 0 00.363.407c.171.086.492.128.963.128v.385h-4.748v-.385h.214c.449 0 .748-.064.92-.192.192-.128.299-.342.384-.599.022-.107.043-.428.043-.984v-3.914c0-.876-.128-1.497-.342-1.903-.235-.385-.62-.578-1.155-.578-.813 0-1.647.45-2.46 1.348v5.047c0 .642.022 1.048.107 1.198.107.214.235.342.407.45.17.085.513.127 1.026.127v.385h-4.726v-.385h.213c.492 0 .813-.106.984-.363.171-.235.257-.727.257-1.412v-3.55c0-1.155-.022-1.86-.086-2.096-.042-.257-.128-.428-.235-.513a.689.689 0 00-.428-.15c-.192 0-.427.064-.705.171l-.15-.385 2.887-1.155h.45v2.01zM475.073 574.311c-.47.47-.92.834-1.37 1.048-.448.214-.919.32-1.432.32-1.048 0-1.968-.448-2.738-1.325-.791-.856-1.176-1.99-1.176-3.358 0-1.369.428-2.63 1.305-3.764.855-1.134 1.967-1.711 3.336-1.711.834 0 1.519.278 2.075.813v-1.776c0-1.09-.022-1.753-.064-2.01-.065-.257-.15-.428-.257-.513a.658.658 0 00-.406-.129 2.19 2.19 0 00-.728.15l-.15-.364 2.867-1.154h.47v11.057c0 1.112.022 1.796.064 2.053.064.235.15.406.257.513.107.086.257.15.406.15.193 0 .428-.064.749-.192l.107.363-2.823 1.198h-.492v-1.369zm0-.727v-4.94a3.573 3.573 0 00-.364-1.284 2.266 2.266 0 00-.834-.898c-.342-.193-.684-.3-1.005-.3-.62 0-1.176.278-1.647.835-.642.727-.941 1.775-.941 3.165 0 1.411.3 2.48.92 3.23.598.748 1.283 1.133 2.031 1.133.642 0 1.24-.32 1.84-.941zM490.194 575.594c-1.433 0-2.567-.406-3.4-1.197-.856-.792-1.284-1.904-1.284-3.294v-3.208c0-1.39.428-2.503 1.283-3.294.834-.791 1.968-1.198 3.4-1.198 1.348 0 2.439.364 3.273 1.091.834.727 1.262 1.711 1.305 2.973h-1.925c-.043-.748-.3-1.347-.749-1.754-.47-.385-1.112-.599-1.903-.599-.834 0-1.519.236-2.01.706-.493.492-.75 1.177-.75 2.053v3.23c0 .877.257 1.561.75 2.053.491.492 1.176.727 2.01.727.791 0 1.433-.214 1.903-.62.45-.406.706-.984.749-1.732h1.925c-.043 1.262-.47 2.245-1.305 2.973-.834.727-1.925 1.09-3.272 1.09z"
                fill="#b12e1e" fill-rule="nonzero" />
        </g>
    </g>
    <g>
        <path d="M115.268 524.044L90.62 571.098" fill="none" stroke="#000" stroke-width="7.15" stroke-linecap="square"
            transform="matrix(.67711 -.04687 .17237 .5524 422.25 295.052)" />
        <path d="M115.268 524.044L90.62 571.098" fill="none" stroke="#000" stroke-width="7.15" stroke-linecap="square"
            transform="matrix(-.67726 -.04733 -.17209 .5533 862.539 294.446)" />
        <path d="M115.268 524.044L90.62 571.098" fill="none" stroke="#000" stroke-width="7.18" stroke-linecap="square"
            transform="matrix(.65148 -.16425 .28483 .46897 374.399 353.975)" />
        <circle cx="154.775" cy="556.848" r="2.753" transform="matrix(.71292 0 0 .71292 502.067 198.306)" />
        <circle cx="154.775" cy="556.848" r="2.753" transform="matrix(.71292 0 0 .71292 529.705 198.306)" />
        <circle cx="154.775" cy="556.848" r="2.753" transform="matrix(.71292 0 0 .71292 515.886 198.306)" />
        <g>
            <path
                d="M553.062 457.389c7.647-10.384 20.819-16.661 34.96-16.661 14.142 0 27.314 6.277 34.961 16.661l33.3 45.219c8.221 11.163 8.804 25.355 1.519 37.003-7.286 11.649-21.276 18.895-36.479 18.895h-66.601c-15.203 0-29.193-7.246-36.479-18.895-7.285-11.648-6.702-25.84 1.519-37.003l33.3-45.219z"
                fill="#fff" stroke="#c1c1c1" stroke-width="3.87"
                transform="matrix(.96244 0 0 1.10253 76.405 -36.059)" />
        </g>
        <g>
            <path
                d="M610.08 545.17c.92-1.283 1.925-1.924 2.995-1.924.984 0 1.84.406 2.566 1.24.728.856 1.091 1.99 1.091 3.444 0 1.71-.556 3.08-1.69 4.106-.962.898-2.031 1.347-3.229 1.347a5.213 5.213 0 01-1.69-.299 8.288 8.288 0 01-1.775-.92v-9.902c0-1.09-.021-1.754-.064-2.01-.064-.257-.15-.428-.257-.514a.658.658 0 00-.406-.128c-.214 0-.45.043-.749.15l-.128-.364 2.866-1.155h.47v6.93zm0 .664v5.731c.343.343.728.6 1.091.792.385.17.77.256 1.177.256.62 0 1.219-.342 1.775-1.048.535-.684.813-1.71.813-3.037 0-1.219-.278-2.16-.813-2.823-.556-.663-1.176-.984-1.882-.984-.364 0-.727.086-1.091.278-.278.15-.642.428-1.07.835zM619.748 547.117c0 1.433.342 2.545 1.048 3.336.684.813 1.518 1.22 2.46 1.22.62 0 1.154-.172 1.625-.514.47-.342.855-.941 1.155-1.775l.342.214c-.15.962-.578 1.818-1.283 2.61-.706.769-1.583 1.175-2.652 1.175-1.134 0-2.118-.449-2.952-1.347-.813-.898-1.219-2.096-1.219-3.615 0-1.625.428-2.908 1.262-3.828.834-.92 1.882-1.369 3.165-1.369 1.07 0 1.946.364 2.63 1.07.685.705 1.049 1.647 1.049 2.823h-6.63zm0-.599h4.427c-.021-.62-.107-1.048-.214-1.305a2.152 2.152 0 00-.77-.92 2.024 2.024 0 00-1.09-.32c-.578 0-1.091.214-1.54.663-.471.449-.728 1.07-.813 1.882zM630.417 540.38v3.144h2.246v.727h-2.246v6.202c0 .62.086 1.027.278 1.262.171.214.407.321.685.321.214 0 .449-.086.663-.214.214-.15.385-.363.492-.642h.406c-.235.685-.577 1.198-1.027 1.54-.449.343-.898.514-1.368.514a1.89 1.89 0 01-.941-.257c-.321-.171-.535-.428-.685-.77-.15-.32-.214-.834-.214-1.518v-6.438h-1.518v-.342c.385-.15.77-.407 1.176-.792a7.096 7.096 0 001.07-1.283c.15-.278.384-.748.662-1.454h.321zM633.044 543.524h4.021v.385c-.363.021-.62.085-.727.192a.613.613 0 00-.171.45c0 .213.064.47.171.79l2.053 5.497 2.053-4.47-.534-1.411c-.171-.428-.385-.706-.663-.877-.15-.086-.45-.15-.856-.171v-.385h4.556v.385c-.513.021-.856.107-1.07.256-.15.129-.213.3-.213.535 0 .15.021.3.085.428l2.182 5.496 2.01-5.282c.128-.385.214-.685.214-.899 0-.128-.086-.256-.214-.363-.128-.107-.406-.171-.791-.171v-.385h3.015v.385c-.598.085-1.048.492-1.347 1.219l-3.187 8.255h-.428l-2.395-6.116-2.78 6.116h-.385l-3.08-8.041c-.193-.514-.406-.856-.599-1.027-.192-.192-.492-.32-.92-.406v-.385zM650.629 547.117c0 1.433.342 2.545 1.048 3.336.684.813 1.518 1.22 2.46 1.22.62 0 1.154-.172 1.625-.514.47-.342.855-.941 1.154-1.775l.343.214c-.15.962-.578 1.818-1.284 2.61-.705.769-1.582 1.175-2.652 1.175-1.133 0-2.117-.449-2.951-1.347-.813-.898-1.22-2.096-1.22-3.615 0-1.625.429-2.908 1.263-3.828.834-.92 1.882-1.369 3.165-1.369 1.07 0 1.946.364 2.63 1.07.685.705 1.049 1.647 1.049 2.823h-6.63zm0-.599h4.427c-.022-.62-.107-1.048-.214-1.305a2.152 2.152 0 00-.77-.92 2.024 2.024 0 00-1.09-.32c-.578 0-1.092.214-1.54.663-.471.449-.728 1.07-.813 1.882zM660.121 547.117c0 1.433.342 2.545 1.048 3.336.684.813 1.519 1.22 2.46 1.22.62 0 1.154-.172 1.625-.514.47-.342.856-.941 1.155-1.775l.342.214c-.15.962-.577 1.818-1.283 2.61-.706.769-1.583 1.175-2.652 1.175-1.134 0-2.118-.449-2.952-1.347-.812-.898-1.219-2.096-1.219-3.615 0-1.625.428-2.908 1.262-3.828.834-.92 1.882-1.369 3.165-1.369 1.07 0 1.947.364 2.631 1.07.685.705 1.048 1.647 1.048 2.823h-6.63zm0-.599h4.427c-.021-.62-.107-1.048-.214-1.305a2.152 2.152 0 00-.77-.92 2.024 2.024 0 00-1.09-.32c-.578 0-1.091.214-1.54.663-.47.449-.727 1.07-.813 1.882zM670.812 545.256c1.112-1.347 2.181-2.01 3.208-2.01.513 0 .963.128 1.347.385.364.256.663.684.899 1.283.15.428.214 1.07.214 1.925v4.085c0 .599.064 1.005.15 1.24a.95.95 0 00.363.407c.171.085.492.128.962.128v.385h-4.748v-.385h.214c.45 0 .749-.064.92-.193.192-.128.3-.342.385-.598.021-.107.043-.428.043-.984v-3.914c0-.877-.129-1.497-.343-1.904-.235-.385-.62-.577-1.154-.577-.813 0-1.647.45-2.46 1.347v5.048c0 .641.021 1.048.107 1.198.107.213.235.342.406.449.171.085.514.128 1.027.128v.385h-4.727v-.385h.214c.492 0 .813-.107.984-.364.171-.235.257-.727.257-1.411v-3.55c0-1.155-.022-1.861-.086-2.096-.043-.257-.128-.428-.235-.514a.689.689 0 00-.428-.15c-.193 0-.428.065-.706.172l-.15-.385 2.888-1.155h.449v2.01zM615.296 575.594c-1.433 0-2.566-.406-3.4-1.197-.856-.792-1.284-1.904-1.284-3.294v-3.208c0-1.39.428-2.503 1.284-3.294.834-.791 1.967-1.198 3.4-1.198 1.348 0 2.438.364 3.273 1.091.834.727 1.261 1.711 1.304 2.973h-1.925c-.042-.748-.3-1.347-.748-1.754-.47-.385-1.112-.599-1.904-.599-.834 0-1.518.236-2.01.706-.492.492-.749 1.177-.749 2.053v3.23c0 .877.257 1.561.749 2.053s1.176.727 2.01.727c.792 0 1.433-.214 1.904-.62.449-.406.706-.984.748-1.732h1.925c-.043 1.262-.47 2.245-1.304 2.973-.835.727-1.925 1.09-3.273 1.09zM633.07 574.012c-.984.748-1.605 1.197-1.861 1.304a2.8 2.8 0 01-1.198.257c-.663 0-1.198-.214-1.626-.663-.427-.47-.641-1.048-.641-1.797 0-.47.107-.877.3-1.219.299-.47.79-.92 1.496-1.326.706-.427 1.882-.92 3.53-1.518v-.385c0-.963-.15-1.604-.471-1.968-.3-.342-.727-.535-1.305-.535-.449 0-.791.129-1.048.364-.278.235-.406.513-.406.813l.021.599c0 .32-.085.577-.235.748a.87.87 0 01-.642.257.87.87 0 01-.641-.257c-.15-.192-.236-.428-.236-.748 0-.6.3-1.155.92-1.647.599-.514 1.476-.749 2.567-.749.855 0 1.56.129 2.096.428.406.214.705.535.898 1.005.128.3.192.92.192 1.84v3.25c0 .899.022 1.455.065 1.669.02.214.085.342.17.406.065.086.172.107.279.107a.592.592 0 00.278-.064c.15-.086.427-.342.855-.77v.599c-.791 1.026-1.518 1.561-2.246 1.561-.342 0-.598-.128-.812-.364-.193-.235-.3-.641-.3-1.197zm0-.685v-3.657c-1.049.428-1.733.727-2.054.898-.535.3-.94.62-1.176.963-.235.32-.342.705-.342 1.09 0 .514.15.92.449 1.241.3.342.641.513 1.026.513.535 0 1.22-.363 2.096-1.048zM639.931 567.553c1.112-1.348 2.182-2.01 3.208-2.01.514 0 .963.128 1.348.384.363.257.663.685.898 1.283.15.428.214 1.07.214 1.925v4.085c0 .6.064 1.006.15 1.24a.95.95 0 00.363.407c.171.086.492.128.963.128v.385h-4.748v-.385h.213c.45 0 .749-.064.92-.192.193-.128.3-.342.385-.599.021-.107.043-.428.043-.984v-3.914c0-.876-.128-1.497-.342-1.903-.236-.385-.62-.578-1.155-.578-.813 0-1.647.45-2.46 1.348v5.047c0 .642.022 1.048.107 1.198.107.214.235.342.406.45.172.085.514.127 1.027.127v.385h-4.727v-.385h.214c.492 0 .813-.106.984-.363.171-.235.257-.727.257-1.412v-3.55c0-1.155-.022-1.86-.086-2.096-.043-.257-.128-.428-.235-.513a.689.689 0 00-.428-.15c-.192 0-.428.064-.706.171l-.15-.385 2.888-1.155h.45v2.01zM654.582 574.311c-.47.47-.92.834-1.37 1.048-.448.214-.919.32-1.432.32-1.048 0-1.968-.448-2.738-1.325-.791-.856-1.176-1.99-1.176-3.358 0-1.369.428-2.63 1.305-3.764.855-1.134 1.967-1.711 3.336-1.711.834 0 1.519.278 2.075.813v-1.776c0-1.09-.022-1.753-.065-2.01-.064-.257-.15-.428-.256-.513a.658.658 0 00-.407-.129 2.19 2.19 0 00-.727.15l-.15-.364 2.867-1.154h.47v11.057c0 1.112.021 1.796.064 2.053.064.235.15.406.257.513.107.086.256.15.406.15.193 0 .428-.064.749-.192l.107.363-2.823 1.198h-.492v-1.369zm0-.727v-4.94a3.573 3.573 0 00-.364-1.284 2.266 2.266 0 00-.834-.898c-.342-.193-.684-.3-1.005-.3-.62 0-1.177.278-1.647.835-.642.727-.941 1.775-.941 3.165 0 1.411.3 2.48.92 3.23.598.748 1.283 1.133 2.031 1.133.642 0 1.24-.32 1.84-.941zM668.933 575.594c-1.177 0-2.118-.385-2.823-1.176-.728-.791-1.091-1.84-1.091-3.187v-3.443c0-1.348.363-2.417 1.07-3.208.705-.792 1.667-1.177 2.844-1.177.877 0 1.604.214 2.181.663.578.45.898 1.048 1.005 1.797h.065l-.043-2.673v-3.422h1.925v15.612h-1.925v-2.245h-.022c-.107.77-.427 1.369-1.005 1.796-.577.45-1.304.663-2.181.663zm.641-1.668c.792 0 1.433-.257 1.882-.748.45-.492.685-1.198.685-2.075v-3.208c0-.877-.235-1.583-.685-2.075-.449-.492-1.09-.748-1.882-.748-.812 0-1.454.235-1.925.727-.47.492-.705 1.176-.705 2.096v3.208c0 .92.235 1.604.705 2.096.471.492 1.113.727 1.925.727z"
                fill="#b12e1e" fill-rule="nonzero" />
        </g>
    </g>
    <g transform="matrix(-.6186 0 0 .6186 470.438 265.409)">
        <circle cx="447.581" cy="153.572" r="41.223" fill="none" />
        <clipPath id="prefix__b">
            <circle cx="447.581" cy="153.572" r="41.223" />
        </clipPath>
        <g clip-path="url(#prefix__b)">
            <path
                d="M449.55 169.368c3.215 0 5.765-.831 7.594-2.494 1.829-1.607 2.771-3.824 2.771-6.651s-.942-5.1-2.771-6.707c-1.83-1.607-4.323-2.438-7.483-2.438h-9.422v-3.049c0-1.829.554-3.27 1.663-4.323 1.164-1.053 2.716-1.552 4.711-1.552 1.774 0 3.27.388 4.49 1.164 1.219.776 1.995 1.774 2.272 3.048h4.988c-.166-1.718-.831-3.214-1.884-4.489s-2.439-2.328-4.157-3.048c-1.718-.721-3.603-1.054-5.709-1.054-3.492 0-6.263.887-8.314 2.716-2.05 1.83-3.048 4.268-3.048 7.372v20.95h4.877v-5.819h.056c.221 1.94 1.164 3.492 2.826 4.656 1.718 1.164 3.88 1.718 6.54 1.718zm-1.219-3.935c-2.383 0-4.323-.61-5.82-1.774-1.496-1.164-2.272-2.716-2.272-4.545v-4.323h9.312c1.662 0 2.993.444 3.935 1.386.942.942 1.44 2.161 1.44 3.769 0 1.718-.609 3.048-1.773 4.046-1.108.942-2.771 1.44-4.822 1.44z"
                fill-rule="nonzero" />
        </g>
        <circle cx="447.581" cy="153.572" r="41.223" fill="none" stroke="#000" stroke-width="6.47" />
    </g>
    <g transform="matrix(-.6186 0 0 .6186 829.456 266.84)">
        <circle cx="447.581" cy="153.572" r="41.223" fill="none" />
        <clipPath id="prefix__c">
            <circle cx="447.581" cy="153.572" r="41.223" />
        </clipPath>
        <g clip-path="url(#prefix__c)">
            <path
                d="M446.668 169.368c3.714 0 6.651-1.053 8.813-3.104 2.217-2.05 3.326-4.933 3.326-8.535v-8.314c0-3.603-1.109-6.485-3.326-8.536-2.162-2.05-5.1-3.104-8.813-3.104-3.491 0-6.318.943-8.48 2.827-2.161 1.885-3.27 4.434-3.38 7.704h4.988c.11-1.94.776-3.491 1.94-4.545 1.219-.997 2.882-1.551 4.932-1.551 2.162 0 3.936.61 5.21 1.829 1.275 1.274 1.94 3.048 1.94 5.32v8.37c0 2.272-.665 4.046-1.94 5.32-1.274 1.275-3.048 1.885-5.21 1.885-2.05 0-3.713-.554-4.932-1.607-1.164-1.053-1.83-2.55-1.94-4.49h-4.989c.111 3.27 1.22 5.82 3.381 7.704 2.162 1.885 4.989 2.827 8.48 2.827z"
                fill-rule="nonzero" />
        </g>
        <circle cx="447.581" cy="153.572" r="41.223" fill="none" stroke="#000" stroke-width="6.47" />
    </g>
</svg>