<svg viewBox="0 0 1024 768" xmlns="http://www.w3.org/2000/svg" fill-rule="evenodd" clip-rule="evenodd"
    stroke-linecap="round" stroke-linejoin="round" stroke-miterlimit="1.5">
    <path
        d="M289.163 459.139l46.203-84.226M148.592 476.841L304.476 360.94M462.16 459.139l-63.176-84.594M602.731 476.841l-168.812-109.65"
        fill="none" stroke="#000" stroke-width="3.9994380000000005" />
    <path d="M369.67 325.652l152.553-44.6" fill="none" stroke="#000" stroke-width="3.9986892000000003" />
    <g transform="matrix(.25522 0 0 .564 415.03 154.03)">
        <path
            d="M731.429 185.017c0-23.045-41.346-41.755-92.273-41.755H369.294c-50.927 0-92.273 18.71-92.273 41.755s41.346 41.755 92.273 41.755h269.862c50.927 0 92.273-18.71 92.273-41.755z"
            fill="#fff" />
        <clipPath id="prefix__a">
            <path
                d="M731.429 185.017c0-23.045-41.346-41.755-92.273-41.755H369.294c-50.927 0-92.273 18.71-92.273 41.755s41.346 41.755 92.273 41.755h269.862c50.927 0 92.273-18.71 92.273-41.755z" />
        </clipPath>
        <g clip-path="url(#prefix__a)">
            <path
                d="M425.833 205.784c-6.822 0-12.28-1.01-16.373-3.088-4.217-2.076-6.326-4.827-6.326-8.363v-9.036c0-3.537 2.109-6.343 6.202-8.42s9.675-3.087 16.497-3.087c5.086 0 9.303.561 12.652 1.74 3.349 1.179 5.21 2.75 5.83 4.715h.372l-.248-7.016v-8.98h11.163v40.973H444.44v-5.893h-.124c-.62 2.02-2.481 3.592-5.83 4.715-3.35 1.178-7.566 1.74-12.652 1.74zm3.721-4.379c4.59 0 8.31-.673 10.916-1.964 2.604-1.291 3.969-3.143 3.969-5.445v-8.419c0-2.301-1.365-4.153-3.97-5.444-2.604-1.291-6.325-1.965-10.915-1.965-4.713 0-8.434.618-11.163 1.909-2.729 1.29-4.093 3.087-4.093 5.5v8.42c0 2.413 1.364 4.21 4.093 5.5 2.729 1.291 6.45 1.908 11.163 1.908zM578.648 205.784c-5.334 0-10.047-.506-14.017-1.46-4.093-.954-7.194-2.357-9.303-4.153-2.232-1.74-3.349-3.817-3.349-6.175v-8.419c0-2.413 1.117-4.49 3.35-6.23 2.108-1.74 5.21-3.143 9.302-4.098 3.97-.954 8.683-1.459 14.017-1.459 5.333 0 10.047.505 14.016 1.46 4.093.954 7.194 2.357 9.427 4.097 2.108 1.74 3.225 3.817 3.225 6.23v5.445h-42.421v2.974c0 2.414 1.364 4.266 4.093 5.557 2.729 1.291 6.574 1.965 11.66 1.965 4.34 0 7.814-.337 10.419-1.067 2.605-.673 4.217-1.684 4.837-3.087h11.164c-.745 2.582-3.473 4.603-8.31 6.118-4.962 1.516-10.916 2.302-18.11 2.302zm-15.753-18.58H594.4v-1.627c0-2.413-1.364-4.322-3.969-5.613-2.729-1.29-6.698-1.964-11.783-1.964-5.086 0-8.931.673-11.66 1.964-2.729 1.291-4.093 3.2-4.093 5.613v1.628z"
                fill-rule="nonzero" />
        </g>
        <path
            d="M731.429 185.017c0-23.045-41.346-41.755-92.273-41.755H369.294c-50.927 0-92.273 18.71-92.273 41.755s41.346 41.755 92.273 41.755h269.862c50.927 0 92.273-18.71 92.273-41.755z"
            fill="none" stroke="#000" stroke-width="9.14" />
    </g>
    <path d="M115.268 524.044L90.62 571.098" fill="none" stroke="#000" stroke-width="7.9" stroke-linecap="square"
        transform="matrix(-.59832 -.04562 -.15203 .53323 980.515 307.786)" />
    <path d="M115.268 524.044L90.62 571.098" fill="none" stroke="#000" stroke-width="7.99" stroke-linecap="square"
        transform="matrix(.59049 -.01858 .16949 .47295 583.43 338.68)" />
    <path d="M115.268 524.044L90.62 571.098" fill="none" stroke="#000" stroke-width="8.08" stroke-linecap="square"
        transform="matrix(.57449 -.14697 .25376 .42906 550.078 376.54)" />
    <circle cx="154.775" cy="556.848" r="2.753" transform="matrix(.62982 0 0 .68706 665.201 215.465)" />
    <circle cx="154.775" cy="556.848" r="2.753" transform="matrix(.62982 0 0 .68706 689.618 215.465)" />
    <circle cx="154.775" cy="556.848" r="2.753" transform="matrix(.62982 0 0 .68706 677.41 215.465)" />
    <path
        d="M250.689 546.906c6.328-13.301 38.238-23.022 75.574-23.022 37.337 0 69.247 9.721 75.574 23.022l49.82 104.734c3.832 8.056-2.366 16.311-16.936 22.561s-36.028 9.857-58.638 9.857h-99.64c-22.61 0-44.067-3.607-58.638-9.857-14.57-6.25-20.767-14.505-16.936-22.561l49.82-104.734z"
        fill="none" stroke="#bababa" stroke-width="3.69" transform="matrix(.52163 0 0 1.44298 615.348 -402.423)" />
    <path
        d="M754.446 549.927c.886-1.237 1.855-1.855 2.886-1.855.948 0 1.772.391 2.473 1.195.7.825 1.051 1.917 1.051 3.319 0 1.649-.536 2.968-1.628 3.957-.928.866-1.958 1.299-3.113 1.299a5.024 5.024 0 01-1.628-.289 7.988 7.988 0 01-1.71-.886v-9.543c0-1.052-.021-1.69-.062-1.938-.062-.247-.145-.412-.248-.495a.634.634 0 00-.391-.123c-.207 0-.433.041-.722.144l-.123-.35 2.761-1.113h.454v6.678zm0 .639v5.524c.33.33.7.577 1.051.762.371.165.742.248 1.134.248.598 0 1.175-.33 1.71-1.01.516-.66.784-1.65.784-2.927 0-1.175-.268-2.082-.783-2.72-.536-.64-1.134-.949-1.814-.949-.35 0-.701.082-1.051.268-.268.144-.619.412-1.031.804zM763.762 551.802c0 1.381.33 2.453 1.01 3.216.66.783 1.464 1.175 2.37 1.175a2.58 2.58 0 001.567-.495c.454-.33.825-.907 1.113-1.71l.33.205c-.144.928-.556 1.752-1.237 2.515-.68.742-1.525 1.134-2.556 1.134-1.092 0-2.04-.433-2.844-1.299-.783-.866-1.175-2.02-1.175-3.483 0-1.567.412-2.803 1.216-3.69.804-.886 1.814-1.319 3.05-1.319 1.031 0 1.876.35 2.536 1.03.66.68 1.01 1.588 1.01 2.721h-6.39zm0-.577h4.267c-.02-.597-.103-1.01-.206-1.257a2.074 2.074 0 00-.742-.886 1.95 1.95 0 00-1.051-.31c-.557 0-1.051.207-1.484.64-.454.432-.701 1.03-.784 1.813zM774.045 545.31v3.03h2.164v.7h-2.164v5.978c0 .598.082.99.268 1.216.165.206.391.31.66.31.206 0 .432-.083.638-.207.207-.144.371-.35.474-.618h.392c-.227.66-.556 1.154-.99 1.484-.432.33-.865.494-1.318.494a1.82 1.82 0 01-.907-.247c-.31-.165-.516-.412-.66-.742-.144-.31-.206-.804-.206-1.463v-6.204h-1.463v-.33c.37-.145.742-.392 1.133-.763.371-.35.722-.763 1.03-1.237.145-.268.372-.721.64-1.401h.309zM776.577 548.34h3.875v.37c-.35.021-.598.083-.701.186a.59.59 0 00-.165.433c0 .206.062.454.165.763l1.979 5.297 1.978-4.308-.515-1.36c-.165-.413-.371-.68-.639-.845-.144-.083-.433-.145-.824-.165v-.371h4.39v.37c-.495.021-.825.104-1.03.248-.145.124-.207.289-.207.515 0 .145.02.289.083.413l2.102 5.297 1.938-5.091c.123-.371.206-.66.206-.866 0-.124-.083-.247-.206-.35-.124-.103-.392-.165-.763-.165v-.371h2.906v.37c-.577.083-1.01.475-1.298 1.176l-3.072 7.956h-.412l-2.308-5.895-2.68 5.895h-.37l-2.969-7.75c-.185-.495-.391-.825-.577-.99-.186-.185-.474-.309-.886-.391v-.371zM793.523 551.802c0 1.381.33 2.453 1.01 3.216.66.783 1.463 1.175 2.37 1.175a2.58 2.58 0 001.567-.495c.453-.33.824-.907 1.113-1.71l.33.205c-.145.928-.557 1.752-1.237 2.515-.68.742-1.525 1.134-2.556 1.134-1.092 0-2.04-.433-2.844-1.299-.784-.866-1.175-2.02-1.175-3.483 0-1.567.412-2.803 1.216-3.69.804-.886 1.814-1.319 3.05-1.319 1.03 0 1.876.35 2.536 1.03.66.68 1.01 1.588 1.01 2.721h-6.39zm0-.577h4.267c-.021-.597-.104-1.01-.207-1.257a2.074 2.074 0 00-.742-.886 1.95 1.95 0 00-1.05-.31c-.557 0-1.052.207-1.485.64-.453.432-.7 1.03-.783 1.813zM802.671 551.802c0 1.381.33 2.453 1.01 3.216.66.783 1.463 1.175 2.37 1.175a2.58 2.58 0 001.567-.495c.453-.33.824-.907 1.113-1.71l.33.205c-.145.928-.557 1.752-1.237 2.515-.68.742-1.525 1.134-2.556 1.134-1.092 0-2.04-.433-2.844-1.299-.784-.866-1.175-2.02-1.175-3.483 0-1.567.412-2.803 1.216-3.69.804-.886 1.814-1.319 3.05-1.319 1.031 0 1.876.35 2.536 1.03.66.68 1.01 1.588 1.01 2.721h-6.39zm0-.577h4.267c-.02-.597-.103-1.01-.206-1.257a2.074 2.074 0 00-.742-.886 1.95 1.95 0 00-1.052-.31c-.556 0-1.05.207-1.484.64-.453.432-.7 1.03-.783 1.813zM812.974 550.01c1.072-1.3 2.103-1.938 3.092-1.938.495 0 .927.123 1.298.37.35.248.64.66.866 1.237.144.413.206 1.031.206 1.856v3.936c0 .577.062.97.145 1.196a.916.916 0 00.35.391c.165.083.474.124.927.124v.371h-4.575v-.37h.206c.433 0 .721-.063.886-.186.186-.124.289-.33.371-.577.02-.104.041-.413.041-.949V551.7c0-.845-.123-1.442-.33-1.834-.226-.371-.597-.557-1.113-.557-.783 0-1.587.433-2.37 1.299v4.864c0 .619.02 1.01.103 1.155.103.206.227.33.392.432.165.083.495.124.99.124v.371h-4.556v-.37h.206c.474 0 .783-.104.948-.351.165-.227.248-.701.248-1.36v-3.422c0-1.113-.021-1.793-.083-2.02-.041-.247-.124-.412-.227-.495a.664.664 0 00-.412-.144c-.185 0-.412.062-.68.165l-.144-.371 2.782-1.113h.433v1.937zM758.73 579.247c-1.133 0-2.04-.371-2.72-1.134-.701-.762-1.052-1.772-1.052-3.07v-3.32c0-1.298.35-2.328 1.031-3.091.68-.763 1.608-1.134 2.741-1.134.846 0 1.546.206 2.103.64.556.432.866 1.01.969 1.73h.061l-.04-2.576v-3.298h1.854v15.047h-1.855v-2.164h-.02c-.103.742-.413 1.319-.97 1.731-.556.433-1.256.639-2.102.639zm.619-1.608c.762 0 1.38-.247 1.814-.721.432-.474.66-1.154.66-2v-3.091c0-.845-.228-1.526-.66-2-.433-.474-1.052-.721-1.814-.721-.783 0-1.402.227-1.855.7-.454.475-.68 1.134-.68 2.02v3.092c0 .887.226 1.546.68 2.02.453.475 1.072.701 1.855.701zM776.6 577.722c-.947.721-1.545 1.154-1.792 1.257-.35.165-.742.247-1.155.247-.639 0-1.154-.206-1.566-.639-.412-.453-.619-1.01-.619-1.731 0-.453.103-.845.289-1.175.289-.453.763-.886 1.443-1.278.68-.412 1.814-.886 3.4-1.463v-.371c0-.928-.144-1.546-.453-1.897-.288-.33-.7-.515-1.257-.515-.433 0-.763.124-1.01.35-.268.227-.392.495-.392.784l.021.577c0 .31-.082.556-.227.721a.839.839 0 01-.618.248.839.839 0 01-.618-.248c-.145-.185-.227-.412-.227-.721 0-.577.288-1.113.886-1.587.577-.495 1.422-.722 2.474-.722.824 0 1.504.124 2.02.413.391.206.68.515.865.968.124.289.186.887.186 1.773v3.133c0 .866.02 1.402.062 1.608.02.206.082.33.164.391.062.083.165.103.268.103a.57.57 0 00.268-.061c.145-.083.413-.33.825-.742v.577c-.763.989-1.464 1.504-2.164 1.504-.33 0-.578-.123-.784-.35-.185-.227-.288-.618-.288-1.154zm0-.66v-3.524c-1.01.412-1.669.7-1.978.865-.515.289-.907.598-1.134.928-.226.309-.33.68-.33 1.05 0 .496.145.887.433 1.196.289.33.619.495.99.495.515 0 1.175-.35 2.02-1.01zM783.214 571.497c1.071-1.299 2.102-1.938 3.091-1.938.495 0 .928.124 1.299.371.35.248.639.66.866 1.237.144.412.206 1.03.206 1.855v3.937c0 .577.062.969.144 1.196a.916.916 0 00.35.391c.165.083.474.124.928.124v.37h-4.576v-.37h.206c.433 0 .722-.062.887-.186.185-.123.288-.33.37-.577.021-.103.042-.412.042-.948v-3.772c0-.845-.124-1.443-.33-1.834-.227-.371-.598-.557-1.113-.557-.783 0-1.587.433-2.37 1.299v4.864c0 .618.02 1.01.103 1.154.103.206.226.33.391.433.165.083.495.124.99.124v.37h-4.555v-.37h.206c.474 0 .783-.103.948-.35.165-.227.247-.701.247-1.361v-3.421c0-1.114-.02-1.794-.082-2.02-.042-.248-.124-.413-.227-.495a.664.664 0 00-.412-.144c-.186 0-.413.061-.68.164l-.145-.37 2.783-1.114h.433v1.938zM797.333 578.01c-.454.454-.887.804-1.32 1.01a3.15 3.15 0 01-1.38.31c-1.01 0-1.897-.433-2.639-1.279-.762-.824-1.133-1.916-1.133-3.236 0-1.319.412-2.535 1.257-3.627.824-1.093 1.896-1.65 3.215-1.65.804 0 1.464.269 2 .784v-1.71c0-1.052-.021-1.69-.062-1.938-.062-.248-.144-.412-.248-.495a.634.634 0 00-.391-.124 2.11 2.11 0 00-.7.145l-.145-.35 2.762-1.114h.453v10.657c0 1.071.02 1.73.062 1.978.062.227.144.392.247.495a.65.65 0 00.392.144c.185 0 .412-.062.721-.185l.103.35-2.72 1.154h-.474v-1.319zm0-.7v-4.762a3.443 3.443 0 00-.35-1.237 2.184 2.184 0 00-.805-.865c-.33-.186-.66-.289-.968-.289-.598 0-1.134.268-1.587.804-.619.7-.907 1.71-.907 3.05 0 1.36.288 2.392.886 3.113.577.721 1.237 1.092 1.958 1.092.618 0 1.196-.309 1.773-.907zM811.823 579.247c-.887 0-1.67-.186-2.33-.536a3.565 3.565 0 01-1.545-1.525c-.371-.64-.557-1.402-.557-2.268v-3.091c0-.887.186-1.65.557-2.288a3.633 3.633 0 011.546-1.505c.66-.35 1.442-.536 2.329-.536.886 0 1.67.186 2.329.536.68.35 1.195.866 1.566 1.505.35.639.536 1.401.536 2.288v2h-7.049v1.091c0 .887.227 1.567.68 2.041.454.474 1.093.721 1.938.721.721 0 1.298-.123 1.731-.391.433-.248.7-.619.804-1.134h1.855c-.124.948-.577 1.69-1.381 2.247-.825.556-1.814.845-3.01.845zm-2.618-6.823h5.235v-.597c0-.887-.226-1.587-.66-2.061-.453-.474-1.112-.722-1.957-.722s-1.484.248-1.938.722c-.453.474-.68 1.174-.68 2.06v.598z"
        fill="#b12e1e" fill-rule="nonzero" />
    <g>
        <path d="M759.534 338.108l-163.073-104.57" fill="none" stroke="#000" stroke-width="4.21"
            transform="matrix(.9542 -.0061 -.0061 .9598 24.865 58.559)" />
    </g>
    <g>
        <path d="M115.268 524.044L90.62 571.098" fill="none" stroke="#000" stroke-width="7.9" stroke-linecap="square"
            transform="matrix(-.59832 -.04562 -.15203 .53323 1130.856 307.786)" />
        <path d="M115.268 524.044L90.62 571.098" fill="none" stroke="#000" stroke-width="7.99" stroke-linecap="square"
            transform="matrix(.59049 -.01858 .16949 .47295 733.77 338.68)" />
        <path d="M115.268 524.044L90.62 571.098" fill="none" stroke="#000" stroke-width="8.08" stroke-linecap="square"
            transform="matrix(.57449 -.14697 .25376 .42906 700.42 376.54)" />
        <circle cx="154.775" cy="556.848" r="2.753" transform="matrix(.62982 0 0 .68706 815.542 215.465)" />
        <circle cx="154.775" cy="556.848" r="2.753" transform="matrix(.62982 0 0 .68706 839.959 215.465)" />
        <circle cx="154.775" cy="556.848" r="2.753" transform="matrix(.62982 0 0 .68706 827.75 215.465)" />
        <g>
            <path
                d="M250.689 546.906c6.328-13.301 38.238-23.022 75.574-23.022 37.337 0 69.247 9.721 75.574 23.022l49.82 104.734c3.832 8.056-2.366 16.311-16.936 22.561s-36.028 9.857-58.638 9.857h-99.64c-22.61 0-44.067-3.607-58.638-9.857-14.57-6.25-20.767-14.505-16.936-22.561l49.82-104.734z"
                fill="none" stroke="#bababa" stroke-width="3.69"
                transform="matrix(.52163 0 0 1.44298 765.69 -402.423)" />
        </g>
        <g>
            <path
                d="M910.457 554.193a3.076 3.076 0 01-1.298-1.154 2.987 2.987 0 01-.454-1.628c0-.928.35-1.71 1.03-2.37.68-.64 1.567-.97 2.64-.97.885 0 1.648.207 2.287.64h1.958c.289 0 .454 0 .495.02.041.021.082.042.103.083.041.062.062.165.062.33 0 .164-.021.288-.062.35 0 .041-.041.062-.103.082-.041.021-.206.042-.495.042h-1.195c.37.474.556 1.092.556 1.855 0 .845-.33 1.587-.99 2.205-.659.598-1.545.907-2.638.907-.453 0-.927-.062-1.401-.206-.31.268-.495.474-.598.68-.103.186-.165.35-.165.474s.062.227.165.33c.124.124.33.185.66.247.185.02.66.042 1.401.062 1.381.041 2.288.083 2.68.144.639.083 1.133.31 1.504.701.371.371.557.825.557 1.381 0 .763-.35 1.464-1.072 2.144-1.03.969-2.411 1.463-4.081 1.463-1.298 0-2.39-.288-3.298-.886-.495-.33-.742-.68-.742-1.03 0-.166.041-.33.103-.495.124-.248.35-.598.701-1.03.062-.063.392-.434 1.03-1.093-.35-.206-.597-.392-.741-.557a.813.813 0 01-.207-.556c0-.227.083-.516.289-.825.186-.309.618-.762 1.32-1.34zm1.752-5.647c-.495 0-.907.206-1.257.598-.33.391-.495.989-.495 1.813 0 1.072.227 1.876.68 2.474.35.433.784.66 1.34.66.495 0 .928-.186 1.257-.578.33-.37.474-.968.474-1.793 0-1.072-.226-1.896-.68-2.515-.35-.432-.783-.66-1.319-.66zm-1.855 9.007c-.31.35-.556.66-.721.948-.145.31-.227.577-.227.825 0 .33.185.597.577.845.66.412 1.649.618 2.906.618 1.216 0 2.103-.206 2.68-.639.577-.412.845-.886.845-1.36 0-.35-.165-.598-.495-.742-.35-.144-1.05-.227-2.082-.268-1.504-.041-2.679-.103-3.483-.227zM920.99 548.072v2.06c.783-1.38 1.566-2.06 2.37-2.06.371 0 .68.103.928.33.226.226.35.474.35.783a.972.972 0 01-.247.66.857.857 0 01-.64.267c-.226 0-.494-.103-.783-.35-.288-.227-.515-.35-.639-.35-.123 0-.267.082-.391.206-.31.288-.618.742-.948 1.36v4.432c0 .494.062.886.185 1.154.103.165.248.33.474.453.227.103.536.165.948.165v.371h-4.72v-.37c.474 0 .825-.063 1.052-.207a.93.93 0 00.35-.515c.041-.124.062-.454.062-.99v-3.565c0-1.072-.041-1.711-.083-1.917a.857.857 0 00-.226-.454.792.792 0 00-.454-.144c-.206 0-.433.062-.7.165l-.104-.371 2.803-1.113h.413zM926.7 551.802c0 1.381.329 2.453 1.01 3.216.659.783 1.463 1.175 2.37 1.175a2.58 2.58 0 001.566-.495c.453-.33.824-.907 1.113-1.71l.33.205c-.145.928-.557 1.752-1.237 2.515-.68.742-1.525 1.134-2.556 1.134-1.092 0-2.04-.433-2.844-1.299-.783-.866-1.175-2.02-1.175-3.483 0-1.567.412-2.803 1.216-3.69.804-.886 1.814-1.319 3.05-1.319 1.031 0 1.876.35 2.536 1.03.66.68 1.01 1.588 1.01 2.721h-6.39zm0-.577h4.266c-.02-.597-.103-1.01-.206-1.257a2.074 2.074 0 00-.742-.886 1.95 1.95 0 00-1.052-.31c-.556 0-1.05.207-1.484.64-.453.432-.7 1.03-.783 1.813zM939.537 556.234c-.948.721-1.546 1.154-1.793 1.257-.35.165-.742.248-1.155.248-.639 0-1.154-.206-1.566-.64-.412-.453-.619-1.01-.619-1.73 0-.454.104-.846.29-1.176.288-.453.762-.886 1.442-1.277.68-.413 1.814-.887 3.4-1.464v-.37c0-.928-.143-1.547-.453-1.897-.288-.33-.7-.515-1.257-.515-.433 0-.763.123-1.01.35-.268.227-.392.495-.392.783l.021.577c0 .31-.082.557-.227.722a.839.839 0 01-.618.247.839.839 0 01-.618-.247c-.145-.186-.227-.413-.227-.722 0-.577.288-1.113.886-1.587.577-.495 1.422-.721 2.474-.721.824 0 1.504.123 2.02.412.391.206.68.515.865.969.124.288.186.886.186 1.772v3.133c0 .866.02 1.402.062 1.608.02.206.082.33.164.392.062.082.165.103.268.103a.57.57 0 00.268-.062c.145-.083.413-.33.825-.742v.577c-.763.99-1.464 1.505-2.164 1.505-.33 0-.578-.124-.784-.35-.185-.227-.288-.62-.288-1.155zm0-.66v-3.524c-1.01.412-1.67.7-1.979.866-.515.288-.907.597-1.134.927-.226.31-.33.68-.33 1.051 0 .495.145.887.433 1.196.29.33.619.494.99.494.515 0 1.175-.35 2.02-1.01zM946.13 545.31v3.03h2.164v.7h-2.164v5.978c0 .598.082.99.268 1.216.165.206.391.31.66.31.205 0 .432-.083.638-.207.206-.144.371-.35.474-.618h.392c-.227.66-.557 1.154-.99 1.484-.432.33-.865.494-1.319.494a1.82 1.82 0 01-.906-.247c-.31-.165-.516-.412-.66-.742-.144-.31-.206-.804-.206-1.463v-6.204h-1.464v-.33c.371-.145.742-.392 1.134-.763.371-.35.721-.763 1.03-1.237.145-.268.372-.721.64-1.401h.309zM950.723 551.802c0 1.381.33 2.453 1.01 3.216.66.783 1.463 1.175 2.37 1.175a2.58 2.58 0 001.567-.495c.453-.33.824-.907 1.113-1.71l.33.205c-.145.928-.557 1.752-1.237 2.515-.68.742-1.526 1.134-2.556 1.134-1.093 0-2.04-.433-2.845-1.299-.783-.866-1.174-2.02-1.174-3.483 0-1.567.412-2.803 1.216-3.69.803-.886 1.813-1.319 3.05-1.319 1.03 0 1.876.35 2.535 1.03.66.68 1.01 1.588 1.01 2.721h-6.39zm0-.577h4.266c-.02-.597-.103-1.01-.206-1.257a2.074 2.074 0 00-.742-.886 1.95 1.95 0 00-1.051-.31c-.556 0-1.051.207-1.484.64-.453.432-.7 1.03-.783 1.813zM961.025 548.072v2.06c.783-1.38 1.567-2.06 2.37-2.06.371 0 .68.103.928.33.227.226.35.474.35.783a.972.972 0 01-.247.66.857.857 0 01-.639.267c-.227 0-.495-.103-.783-.35-.289-.227-.515-.35-.64-.35-.123 0-.267.082-.39.206-.31.288-.62.742-.949 1.36v4.432c0 .494.062.886.186 1.154.103.165.247.33.474.453.226.103.536.165.948.165v.371h-4.72v-.37c.474 0 .824-.063 1.051-.207a.93.93 0 00.35-.515c.042-.124.062-.454.062-.99v-3.565c0-1.072-.041-1.711-.082-1.917a.857.857 0 00-.227-.454.792.792 0 00-.453-.144c-.207 0-.433.062-.701.165l-.103-.371 2.803-1.113h.412zM912.762 566.797v3.03h2.164v.701h-2.164v5.978c0 .597.083.989.268 1.216.165.206.392.309.66.309.206 0 .433-.083.639-.206.206-.145.37-.35.474-.619h.391c-.226.66-.556 1.155-.989 1.484-.433.33-.866.495-1.32.495a1.82 1.82 0 01-.906-.247c-.31-.165-.515-.412-.66-.742-.144-.31-.206-.804-.206-1.464v-6.204h-1.463v-.33c.37-.144.742-.391 1.134-.762.37-.35.72-.763 1.03-1.237.144-.268.371-.721.64-1.402h.308zM918.53 564.736v6.74c.742-.824 1.32-1.34 1.773-1.587.433-.226.865-.33 1.298-.33.515 0 .969.145 1.34.433.392.289.66.742.845 1.34.124.433.186 1.216.186 2.37v3.257c0 .577.061.99.144 1.196.062.164.185.288.35.391.145.083.454.124.887.124v.37h-4.535v-.37h.206c.433 0 .721-.062.907-.186.165-.123.268-.33.35-.577.021-.103.021-.433.021-.948v-3.257c0-1.01-.041-1.67-.144-1.978-.103-.33-.268-.557-.516-.722-.226-.165-.494-.226-.824-.226-.33 0-.66.082-1.01.247-.371.185-.783.536-1.278 1.072v4.864c0 .639.02 1.03.103 1.175.062.165.186.288.392.392.185.103.515.144.99.144v.37h-4.577v-.37c.413 0 .742-.062.97-.186.143-.062.246-.185.329-.37.082-.207.124-.578.124-1.155v-8.348c0-1.05-.042-1.69-.083-1.937-.062-.248-.124-.412-.227-.495-.103-.082-.247-.124-.432-.124-.124 0-.372.042-.68.145l-.145-.35 2.762-1.114h.474zM931.35 577.722c-.948.721-1.545 1.154-1.793 1.257-.35.165-.742.247-1.154.247-.639 0-1.154-.206-1.566-.639-.413-.453-.619-1.01-.619-1.731 0-.453.103-.845.289-1.175.288-.453.762-.886 1.443-1.278.68-.412 1.813-.886 3.4-1.463v-.371c0-.928-.144-1.546-.453-1.897-.288-.33-.7-.515-1.257-.515-.433 0-.763.124-1.01.35-.268.227-.392.495-.392.784l.02.577c0 .31-.082.556-.226.721a.839.839 0 01-.618.248.839.839 0 01-.619-.248c-.144-.185-.226-.412-.226-.721 0-.577.288-1.113.886-1.587.577-.495 1.422-.722 2.473-.722.825 0 1.505.124 2.02.413.392.206.68.515.866.968.124.289.185.887.185 1.773v3.133c0 .866.021 1.402.062 1.608.02.206.083.33.165.391.062.083.165.103.268.103a.57.57 0 00.268-.061c.144-.083.412-.33.825-.742v.577c-.763.989-1.464 1.504-2.165 1.504-.33 0-.577-.123-.783-.35-.185-.227-.288-.618-.288-1.154zm0-.66v-3.524c-1.01.412-1.669.7-1.978.865-.515.289-.907.598-1.134.928-.227.309-.33.68-.33 1.05 0 .496.145.887.433 1.196.289.33.619.495.99.495.515 0 1.174-.35 2.02-1.01zM937.964 571.497c1.072-1.299 2.103-1.938 3.092-1.938.495 0 .927.124 1.298.371.35.248.64.66.866 1.237.144.412.206 1.03.206 1.855v3.937c0 .577.062.969.144 1.196a.916.916 0 00.35.391c.166.083.475.124.928.124v.37h-4.575v-.37h.206c.433 0 .721-.062.886-.186.186-.123.289-.33.371-.577.02-.103.041-.412.041-.948v-3.772c0-.845-.123-1.443-.33-1.834-.226-.371-.597-.557-1.113-.557-.783 0-1.587.433-2.37 1.299v4.864c0 .618.02 1.01.103 1.154.103.206.227.33.392.433.165.083.494.124.99.124v.37h-4.556v-.37h.206c.474 0 .783-.103.948-.35.165-.227.248-.701.248-1.361v-3.421c0-1.114-.021-1.794-.083-2.02-.041-.248-.124-.413-.227-.495a.664.664 0 00-.412-.144c-.185 0-.412.061-.68.164l-.144-.37 2.782-1.114h.433v1.938zM956.267 579.247c-.886 0-1.67-.186-2.329-.536a3.565 3.565 0 01-1.546-1.525c-.37-.64-.556-1.402-.556-2.268v-3.091c0-.887.185-1.65.556-2.288a3.633 3.633 0 011.546-1.505c.66-.35 1.443-.536 2.33-.536.886 0 1.669.186 2.328.536.68.35 1.196.866 1.567 1.505.35.639.536 1.401.536 2.288v2h-7.05v1.091c0 .887.227 1.567.68 2.041.454.474 1.093.721 1.938.721.722 0 1.299-.123 1.732-.391.433-.248.7-.619.804-1.134h1.855c-.124.948-.578 1.69-1.381 2.247-.825.556-1.814.845-3.01.845zm-2.617-6.823h5.235v-.597c0-.887-.227-1.587-.66-2.061-.453-.474-1.113-.722-1.958-.722s-1.484.248-1.937.722c-.454.474-.68 1.174-.68 2.06v.598z"
                fill="#b12e1e" fill-rule="nonzero" />
        </g>
    </g>
    <path d="M897.886 378.438L601.408 268.92" fill="none" stroke="#000" stroke-width="3.9994380000000005" />
    <g transform="matrix(.3039 0 0 .58755 217.123 240.91)">
        <path
            d="M731.429 185.017c0-23.045-36.172-41.755-80.726-41.755H357.747c-44.554 0-80.726 18.71-80.726 41.755s36.172 41.755 80.726 41.755h292.956c44.554 0 80.726-18.71 80.726-41.755z"
            fill="#fff" />
        <clipPath id="prefix__b">
            <path
                d="M731.429 185.017c0-23.045-36.172-41.755-80.726-41.755H357.747c-44.554 0-80.726 18.71-80.726 41.755s36.172 41.755 80.726 41.755h292.956c44.554 0 80.726-18.71 80.726-41.755z" />
        </clipPath>
        <g clip-path="url(#prefix__b)">
            <path
                d="M369.718 205.784c-6.294 0-11.286-.842-14.867-2.526-3.58-1.628-5.425-3.873-5.425-6.736 0-2.862 1.844-5.164 5.425-6.791 3.581-1.628 8.465-2.47 14.65-2.47h18.448v-3.087c0-1.852-1.086-3.312-3.256-4.378-2.279-1.067-5.317-1.572-9.224-1.572-3.472 0-6.402.393-8.79 1.179-2.387.786-3.906 1.796-4.449 3.087h-9.766c.326-1.74 1.628-3.255 3.69-4.546 2.061-1.291 4.774-2.358 8.138-3.087 3.364-.73 7.054-1.067 11.177-1.067 6.837 0 12.263.898 16.278 2.75 4.015 1.853 5.968 4.322 5.968 7.466v21.216h-9.55v-5.893h-.108c-.434 1.964-2.279 3.536-5.534 4.715-3.364 1.178-7.596 1.74-12.805 1.74zm2.387-3.986c4.666 0 8.465-.617 11.394-1.796 2.93-1.178 4.45-2.75 4.45-4.602v-4.378h-18.231c-3.256 0-5.86.449-7.705 1.403-1.844.954-2.821 2.189-2.821 3.817 0 1.74 1.194 3.087 3.472 4.097 2.17.954 5.426 1.46 9.441 1.46zM508.618 205.784c-4.45 0-8.139-.562-11.069-1.74-2.93-1.123-4.557-2.695-5.1-4.715h-.108v5.893h-9.767v-40.974h9.767v8.98l-.218 7.017h.326c.543-1.965 2.17-3.536 5.1-4.715 2.93-1.179 6.62-1.74 11.069-1.74 5.968 0 10.851 1.01 14.432 3.087 3.581 2.077 5.426 4.883 5.426 8.42v9.036c0 3.536-1.845 6.287-5.426 8.363-3.58 2.077-8.464 3.088-14.432 3.088zm-3.256-4.379c4.124 0 7.38-.617 9.767-1.908 2.387-1.29 3.58-3.087 3.58-5.5v-8.42c0-2.413-1.193-4.21-3.58-5.5-2.388-1.291-5.643-1.909-9.767-1.909-4.015 0-7.162.674-9.44 1.965-2.388 1.29-3.581 3.143-3.581 5.444v8.42c0 2.3 1.193 4.153 3.58 5.444 2.28 1.29 5.426 1.964 9.441 1.964zM635.798 205.784c-7.27 0-13.022-1.067-17.254-3.144-4.34-2.076-6.51-4.995-6.51-8.644v-8.419c0-3.648 2.17-6.567 6.51-8.644 4.232-2.076 9.983-3.143 17.254-3.143 6.836 0 12.37.954 16.603 2.863 4.232 1.908 6.402 4.49 6.62 7.802h-9.767c-.217-1.965-1.52-3.537-3.798-4.603-2.387-1.01-5.643-1.572-9.658-1.572-4.232 0-7.705.618-10.2 1.853-2.496 1.29-3.798 3.087-3.798 5.388v8.475c0 2.302 1.302 4.098 3.798 5.389 2.495 1.29 5.968 1.908 10.2 1.908 4.015 0 7.27-.561 9.658-1.628 2.279-1.066 3.58-2.581 3.798-4.546h9.766c-.217 3.312-2.387 5.894-6.62 7.802-4.231 1.908-9.766 2.863-16.602 2.863z"
                fill-rule="nonzero" />
        </g>
        <path
            d="M731.429 185.017c0-23.045-36.172-41.755-80.726-41.755H357.747c-44.554 0-80.726 18.71-80.726 41.755s36.172 41.755 80.726 41.755h292.956c44.554 0 80.726-18.71 80.726-41.755z"
            fill="none" stroke="#000" stroke-width="8.55" />
    </g>
    <g>
        <path d="M115.268 524.044L90.62 571.098" fill="none" stroke="#000" stroke-width="7.42" stroke-linecap="square"
            transform="matrix(.65255 -.04517 .16611 .53237 77.056 309.947)" />
        <path d="M115.268 524.044L90.62 571.098" fill="none" stroke="#000" stroke-width="7.42" stroke-linecap="square"
            transform="matrix(-.6527 -.04562 -.16584 .53323 501.373 309.363)" />
        <path d="M115.268 524.044L90.62 571.098" fill="none" stroke="#000" stroke-width="7.45" stroke-linecap="square"
            transform="matrix(.62785 -.15829 .2745 .45196 30.94 366.733)" />
        <circle cx="154.775" cy="556.848" r="2.753" transform="matrix(.68706 0 0 .68706 153.978 216.71)" />
        <circle cx="154.775" cy="556.848" r="2.753" transform="matrix(.68706 0 0 .68706 180.613 216.71)" />
        <circle cx="154.775" cy="556.848" r="2.753" transform="matrix(.68706 0 0 .68706 167.296 216.71)" />
        <g>
            <path
                d="M551.746 459.176c7.935-10.775 21.602-17.288 36.276-17.288 14.675 0 28.342 6.513 36.277 17.288l30.435 41.327c8.53 11.584 9.135 26.31 1.575 38.397-7.559 12.087-22.076 19.606-37.852 19.606h-60.869c-15.776 0-30.293-7.519-37.852-19.606-7.56-12.087-6.955-26.813 1.575-38.397l30.435-41.327z"
                fill="#fff" stroke="#c1c1c1" stroke-width="4.01"
                transform="matrix(.92753 0 0 1.06254 -256.243 -9.153)" />
        </g>
        <g>
            <path
                d="M258.073 549.542c.886-1.237 1.855-1.855 2.886-1.855.948 0 1.772.391 2.473 1.195.701.824 1.051 1.917 1.051 3.318 0 1.65-.535 2.969-1.628 3.958-.927.866-1.958 1.298-3.112 1.298a5.024 5.024 0 01-1.629-.288 7.988 7.988 0 01-1.71-.886v-9.544c0-1.05-.021-1.69-.062-1.937-.062-.247-.144-.412-.248-.495a.634.634 0 00-.391-.123c-.206 0-.433.04-.722.144l-.123-.35 2.762-1.114h.453v6.679zm0 .639v5.523c.33.33.701.578 1.051.763.371.165.742.247 1.134.247.598 0 1.175-.33 1.71-1.01.516-.66.784-1.648.784-2.926 0-1.175-.268-2.082-.783-2.721-.536-.64-1.134-.948-1.814-.948-.35 0-.7.082-1.051.268-.268.144-.619.412-1.03.804zM267.39 551.417c0 1.381.33 2.453 1.01 3.216.66.783 1.463 1.175 2.37 1.175a2.58 2.58 0 001.566-.495c.454-.33.825-.907 1.114-1.71l.33.205c-.145.928-.557 1.752-1.237 2.515-.68.742-1.526 1.133-2.556 1.133-1.093 0-2.04-.432-2.845-1.298-.783-.866-1.175-2.02-1.175-3.483 0-1.567.413-2.804 1.217-3.69.803-.886 1.813-1.32 3.05-1.32 1.03 0 1.876.351 2.535 1.031.66.68 1.01 1.588 1.01 2.721h-6.39zm0-.577h4.266c-.02-.598-.103-1.01-.206-1.257a2.074 2.074 0 00-.742-.887 1.95 1.95 0 00-1.051-.309c-.557 0-1.051.206-1.484.64-.454.432-.7 1.03-.783 1.813zM277.672 544.925v3.03h2.164v.7h-2.164v5.978c0 .597.083.989.268 1.216.165.206.392.309.66.309.206 0 .433-.083.639-.206.206-.144.37-.35.474-.619h.391c-.226.66-.556 1.155-.989 1.484-.433.33-.866.495-1.32.495a1.82 1.82 0 01-.906-.247c-.31-.165-.515-.412-.66-.742-.144-.31-.206-.804-.206-1.464v-6.204h-1.463v-.33c.37-.144.742-.391 1.133-.762.371-.35.722-.763 1.031-1.237.144-.268.371-.721.639-1.401h.31zM280.204 547.954h3.875v.371c-.35.021-.598.083-.7.186a.59.59 0 00-.166.433c0 .206.062.453.165.762l1.979 5.298 1.979-4.308-.516-1.36c-.165-.413-.37-.68-.639-.846-.144-.082-.433-.144-.824-.165v-.37h4.39v.37c-.495.021-.824.104-1.03.248-.145.123-.207.288-.207.515 0 .144.021.289.083.412l2.102 5.298 1.938-5.092c.123-.37.206-.66.206-.865 0-.124-.083-.248-.206-.35-.124-.104-.392-.166-.763-.166v-.37h2.906v.37c-.577.083-1.01.475-1.298 1.175l-3.071 7.956h-.412l-2.309-5.894-2.68 5.894h-.37l-2.969-7.75c-.185-.494-.391-.824-.577-.989-.185-.185-.474-.31-.886-.392v-.37zM297.15 551.417c0 1.381.33 2.453 1.01 3.216.66.783 1.464 1.175 2.37 1.175a2.58 2.58 0 001.567-.495c.453-.33.824-.907 1.113-1.71l.33.205c-.144.928-.557 1.752-1.237 2.515-.68.742-1.525 1.133-2.556 1.133-1.092 0-2.04-.432-2.844-1.298-.783-.866-1.175-2.02-1.175-3.483 0-1.567.412-2.804 1.216-3.69.804-.886 1.814-1.32 3.05-1.32 1.031 0 1.876.351 2.536 1.031.66.68 1.01 1.588 1.01 2.721h-6.39zm0-.577h4.267c-.02-.598-.103-1.01-.206-1.257a2.074 2.074 0 00-.742-.887 1.95 1.95 0 00-1.052-.309c-.556 0-1.05.206-1.484.64-.453.432-.7 1.03-.783 1.813zM306.298 551.417c0 1.381.33 2.453 1.01 3.216.66.783 1.464 1.175 2.37 1.175a2.58 2.58 0 001.567-.495c.454-.33.825-.907 1.113-1.71l.33.205c-.144.928-.557 1.752-1.237 2.515-.68.742-1.525 1.133-2.556 1.133-1.092 0-2.04-.432-2.844-1.298-.783-.866-1.175-2.02-1.175-3.483 0-1.567.412-2.804 1.216-3.69.804-.886 1.814-1.32 3.05-1.32 1.031 0 1.876.351 2.536 1.031.66.68 1.01 1.588 1.01 2.721h-6.39zm0-.577h4.267c-.02-.598-.103-1.01-.206-1.257a2.074 2.074 0 00-.742-.887 1.95 1.95 0 00-1.051-.309c-.557 0-1.052.206-1.484.64-.454.432-.701 1.03-.784 1.813zM316.601 549.624c1.072-1.299 2.103-1.937 3.092-1.937.495 0 .928.123 1.299.37.35.248.639.66.865 1.237.145.412.207 1.03.207 1.855v3.937c0 .577.061.969.144 1.196a.916.916 0 00.35.391c.165.083.474.124.928.124v.37h-4.576v-.37h.206c.433 0 .721-.062.886-.186.186-.123.289-.33.371-.577.021-.103.042-.412.042-.948v-3.772c0-.845-.124-1.443-.33-1.834-.227-.371-.598-.557-1.113-.557-.783 0-1.587.433-2.37 1.299v4.864c0 .618.02 1.01.103 1.154.103.206.226.33.391.433.165.083.495.124.99.124v.37h-4.556v-.37h.206c.474 0 .784-.103.949-.35.164-.227.247-.701.247-1.36v-3.422c0-1.113-.02-1.794-.083-2.02-.04-.248-.123-.413-.226-.495a.664.664 0 00-.413-.144c-.185 0-.412.061-.68.165l-.144-.371 2.783-1.113h.432v1.937zM262.028 578.862c-1.196 0-2.144-.31-2.824-.928-.68-.598-1.03-1.422-1.03-2.473s.35-1.897 1.03-2.494c.68-.598 1.608-.907 2.783-.907h3.504v-1.134c0-.68-.206-1.216-.619-1.608-.433-.391-1.01-.577-1.752-.577-.66 0-1.216.145-1.67.433-.453.289-.741.66-.844 1.134h-1.855a3.04 3.04 0 01.7-1.67 3.975 3.975 0 011.546-1.133c.64-.268 1.34-.392 2.123-.392 1.299 0 2.33.33 3.092 1.01.763.68 1.134 1.587 1.134 2.741v7.792h-1.814v-2.165h-.02c-.083.722-.434 1.299-1.052 1.732-.639.433-1.443.639-2.432.639zm.453-1.464c.887 0 1.608-.226 2.165-.66.556-.432.845-1.01.845-1.69v-1.607h-3.463c-.618 0-1.113.165-1.464.515-.35.35-.535.804-.535 1.402 0 .639.226 1.133.66 1.504.411.35 1.03.536 1.792.536zM280.228 577.336c-.948.722-1.546 1.155-1.793 1.258-.35.165-.742.247-1.154.247-.64 0-1.155-.206-1.567-.639-.412-.453-.618-1.01-.618-1.731 0-.454.103-.845.288-1.175.289-.454.763-.886 1.443-1.278.68-.412 1.814-.886 3.401-1.463v-.371c0-.928-.144-1.546-.453-1.897-.289-.33-.701-.515-1.258-.515-.433 0-.762.124-1.01.35-.268.227-.391.495-.391.784l.02.577c0 .309-.082.556-.226.721a.839.839 0 01-.619.247.839.839 0 01-.618-.247c-.144-.185-.227-.412-.227-.721 0-.577.289-1.113.886-1.587.578-.495 1.423-.722 2.474-.722.824 0 1.504.124 2.02.412.391.207.68.516.865.97.124.288.186.885.186 1.772v3.133c0 .865.02 1.401.062 1.607.02.207.082.33.165.392.061.083.165.103.268.103a.57.57 0 00.268-.062c.144-.082.412-.33.824-.742v.577c-.763.99-1.463 1.505-2.164 1.505-.33 0-.577-.124-.783-.35-.186-.227-.289-.619-.289-1.155zm0-.66v-3.524c-1.01.412-1.67.701-1.979.866-.515.289-.907.598-1.133.927-.227.31-.33.68-.33 1.052 0 .494.144.886.433 1.195.288.33.618.495.99.495.514 0 1.174-.35 2.019-1.01zM286.84 571.112c1.073-1.299 2.103-1.938 3.093-1.938.494 0 .927.124 1.298.371.35.248.64.66.866 1.237.144.412.206 1.03.206 1.855v3.937c0 .577.062.969.144 1.195a.916.916 0 00.35.392c.166.082.475.124.928.124v.37h-4.576v-.37h.207c.432 0 .72-.062.886-.186.185-.124.288-.33.37-.577.021-.103.042-.412.042-.948v-3.772c0-.845-.124-1.443-.33-1.835-.226-.37-.597-.556-1.113-.556-.783 0-1.587.433-2.37 1.298v4.865c0 .618.02 1.01.103 1.154.103.206.227.33.392.433.164.082.494.124.989.124v.37h-4.555v-.37h.206c.474 0 .783-.103.948-.35.165-.228.247-.702.247-1.361v-3.422c0-1.113-.02-1.793-.082-2.02-.041-.247-.124-.412-.227-.494a.664.664 0 00-.412-.145c-.186 0-.412.062-.68.165l-.145-.37 2.783-1.114h.433v1.938zM300.96 577.625c-.454.453-.886.804-1.32 1.01a3.15 3.15 0 01-1.38.31c-1.01 0-1.896-.434-2.639-1.279-.762-.824-1.133-1.917-1.133-3.236 0-1.319.412-2.535 1.257-3.627.825-1.093 1.896-1.65 3.216-1.65.803 0 1.463.269 1.999.784v-1.71c0-1.052-.02-1.691-.062-1.938-.062-.248-.144-.413-.247-.495a.634.634 0 00-.392-.124 2.11 2.11 0 00-.7.144l-.145-.35 2.762-1.113h.453v10.656c0 1.072.021 1.732.062 1.979.062.227.145.392.248.495a.65.65 0 00.391.144c.186 0 .412-.062.722-.186l.103.35-2.721 1.155h-.474v-1.319zm0-.7v-4.762a3.443 3.443 0 00-.35-1.237 2.184 2.184 0 00-.804-.865c-.33-.186-.66-.29-.97-.29-.597 0-1.133.269-1.586.805-.619.7-.907 1.71-.907 3.05 0 1.36.288 2.391.886 3.113.577.721 1.237 1.092 1.958 1.092.619 0 1.196-.31 1.773-.907zM316.11 578.862c-.846 0-1.546-.206-2.103-.64-.556-.412-.866-.989-.969-1.73h-.02v2.164h-1.855v-15.047h1.855v3.298l-.041 2.576h.061c.103-.721.413-1.298.97-1.731.556-.433 1.256-.639 2.102-.639 1.133 0 2.06.371 2.74 1.134.681.762 1.031 1.793 1.031 3.091v3.319c0 1.298-.35 2.308-1.03 3.071-.68.763-1.608 1.134-2.741 1.134zm-.619-1.608c.783 0 1.402-.227 1.855-.7.454-.475.68-1.134.68-2.02v-3.093c0-.886-.226-1.545-.68-2.02-.453-.474-1.072-.7-1.855-.7-.762 0-1.36.247-1.793.721-.454.474-.68 1.154-.68 2v3.091c0 .845.226 1.526.68 2 .433.474 1.03.721 1.793.721z"
                fill="#b12e1e" fill-rule="nonzero" />
        </g>
    </g>
    <g>
        <path d="M115.268 524.044L90.62 571.098" fill="none" stroke="#000" stroke-width="7.42" stroke-linecap="square"
            transform="matrix(.65255 -.04517 .16611 .53237 -95.942 309.947)" />
        <path d="M115.268 524.044L90.62 571.098" fill="none" stroke="#000" stroke-width="7.42" stroke-linecap="square"
            transform="matrix(-.6527 -.04562 -.16584 .53323 328.376 309.363)" />
        <path d="M115.268 524.044L90.62 571.098" fill="none" stroke="#000" stroke-width="7.45" stroke-linecap="square"
            transform="matrix(.62785 -.15829 .2745 .45196 -142.057 366.733)" />
        <circle cx="154.775" cy="556.848" r="2.753" transform="matrix(.68706 0 0 .68706 -19.02 216.71)" />
        <circle cx="154.775" cy="556.848" r="2.753" transform="matrix(.68706 0 0 .68706 7.616 216.71)" />
        <circle cx="154.775" cy="556.848" r="2.753" transform="matrix(.68706 0 0 .68706 -5.702 216.71)" />
        <g>
            <path
                d="M551.746 459.176c7.935-10.775 21.602-17.288 36.276-17.288 14.675 0 28.342 6.513 36.277 17.288l30.435 41.327c8.53 11.584 9.135 26.31 1.575 38.397-7.559 12.087-22.076 19.606-37.852 19.606h-60.869c-15.776 0-30.293-7.519-37.852-19.606-7.56-12.087-6.955-26.813 1.575-38.397l30.435-41.327z"
                fill="#fff" stroke="#c1c1c1" stroke-width="4.01"
                transform="matrix(.92753 0 0 1.06254 -429.24 -9.153)" />
        </g>
        <g>
            <path
                d="M105.347 542.863v12.223c0 .577.04.948.123 1.154.083.186.206.33.392.413.165.103.495.144.969.144v.37h-4.514v-.37c.432 0 .721-.041.865-.124.165-.082.268-.227.371-.433.083-.206.124-.577.124-1.154v-8.368c0-1.051-.02-1.69-.062-1.917-.062-.247-.123-.412-.227-.495a.654.654 0 00-.412-.123c-.165 0-.391.04-.66.144l-.164-.35 2.741-1.114h.454zM109.444 551.417c0 1.381.33 2.453 1.01 3.216.66.783 1.464 1.175 2.37 1.175a2.58 2.58 0 001.567-.495c.453-.33.824-.907 1.113-1.71l.33.205c-.144.928-.557 1.752-1.237 2.515-.68.742-1.525 1.133-2.556 1.133-1.092 0-2.04-.432-2.844-1.298-.783-.866-1.175-2.02-1.175-3.483 0-1.567.412-2.804 1.216-3.69.804-.886 1.814-1.32 3.05-1.32 1.031 0 1.876.351 2.536 1.031.66.68 1.01 1.588 1.01 2.721h-6.39zm0-.577h4.267c-.02-.598-.103-1.01-.206-1.257a2.074 2.074 0 00-.742-.887 1.95 1.95 0 00-1.052-.309c-.556 0-1.05.206-1.484.64-.453.432-.7 1.03-.783 1.813zM123.004 547.687v3.132h-.33c-.247-.989-.577-1.67-.969-2.02-.412-.35-.907-.535-1.525-.535-.474 0-.866.123-1.154.37-.289.248-.433.537-.433.825 0 .392.124.7.33.969.206.288.639.577 1.278.886l1.463.701c1.36.68 2.04 1.546 2.04 2.638 0 .845-.308 1.505-.947 2.02-.64.516-1.34.783-2.123.783-.578 0-1.217-.103-1.938-.309-.227-.062-.412-.103-.556-.103-.145 0-.268.083-.35.268h-.33v-3.298h.33c.185.948.535 1.65 1.071 2.123.536.474 1.134.722 1.793.722.454 0 .825-.145 1.113-.413a1.25 1.25 0 00.454-.989c0-.453-.165-.845-.495-1.154-.33-.31-.969-.722-1.938-1.196-.989-.494-1.628-.927-1.916-1.319-.31-.37-.454-.865-.454-1.443 0-.762.247-1.401.783-1.896.516-.515 1.196-.762 2.02-.762.35 0 .784.061 1.32.226.33.103.556.145.68.145a.44.44 0 00.247-.062c.062-.062.124-.165.206-.31h.33zM131.025 547.687v3.132h-.33c-.247-.989-.577-1.67-.968-2.02-.412-.35-.907-.535-1.526-.535-.474 0-.865.123-1.154.37-.288.248-.433.537-.433.825 0 .392.124.7.33.969.206.288.64.577 1.278.886l1.464.701c1.36.68 2.04 1.546 2.04 2.638 0 .845-.31 1.505-.948 2.02-.639.516-1.34.783-2.123.783-.577 0-1.216-.103-1.938-.309-.226-.062-.412-.103-.556-.103-.144 0-.268.083-.35.268h-.33v-3.298h.33c.185.948.535 1.65 1.071 2.123.536.474 1.134.722 1.794.722.453 0 .824-.145 1.113-.413a1.25 1.25 0 00.453-.989c0-.453-.165-.845-.495-1.154-.33-.31-.968-.722-1.937-1.196-.99-.494-1.628-.927-1.917-1.319-.31-.37-.453-.865-.453-1.443 0-.762.247-1.401.783-1.896.515-.515 1.195-.762 2.02-.762.35 0 .783.061 1.319.226.33.103.556.145.68.145a.44.44 0 00.247-.062c.062-.062.124-.165.207-.31h.33zM93.807 566.412v3.03h2.164v.701h-2.164v5.977c0 .598.082.99.268 1.216.165.207.391.31.66.31.205 0 .432-.083.638-.207.206-.144.371-.35.474-.618h.392c-.227.66-.557 1.154-.99 1.484-.432.33-.865.495-1.319.495a1.82 1.82 0 01-.906-.247c-.31-.165-.516-.413-.66-.743-.144-.309-.206-.803-.206-1.463v-6.204h-1.464v-.33c.371-.144.742-.391 1.134-.762.371-.35.721-.763 1.03-1.237.145-.268.372-.722.64-1.402h.309zM99.575 564.351v6.74c.742-.824 1.319-1.34 1.772-1.587.433-.227.866-.33 1.299-.33.515 0 .968.144 1.34.433.391.289.66.742.845 1.34.123.433.185 1.216.185 2.37v3.257c0 .577.062.99.144 1.195.062.165.186.289.35.392.145.082.454.124.887.124v.37h-4.534v-.37h.206c.432 0 .721-.062.907-.186.164-.124.267-.33.35-.577.02-.103.02-.433.02-.948v-3.257c0-1.01-.04-1.67-.144-1.979-.103-.33-.268-.556-.515-.721-.227-.165-.495-.227-.824-.227-.33 0-.66.083-1.01.248-.371.185-.784.536-1.278 1.071v4.865c0 .639.02 1.03.103 1.175.062.165.185.288.391.391.186.103.516.145.99.145v.37h-4.576v-.37c.412 0 .742-.062.969-.186.144-.062.247-.185.33-.37.082-.207.123-.578.123-1.155v-8.348c0-1.051-.041-1.69-.082-1.937-.062-.248-.124-.413-.227-.495-.103-.083-.247-.124-.433-.124-.124 0-.371.041-.68.144l-.144-.35 2.762-1.113h.474zM112.395 577.336c-.948.722-1.546 1.155-1.793 1.258-.35.165-.742.247-1.154.247-.64 0-1.155-.206-1.567-.639-.412-.453-.618-1.01-.618-1.731 0-.454.103-.845.288-1.175.289-.454.763-.886 1.443-1.278.68-.412 1.814-.886 3.401-1.463v-.371c0-.928-.144-1.546-.453-1.897-.289-.33-.701-.515-1.258-.515-.433 0-.762.124-1.01.35-.268.227-.391.495-.391.784l.02.577c0 .309-.082.556-.226.721a.839.839 0 01-.619.247.839.839 0 01-.618-.247c-.144-.185-.227-.412-.227-.721 0-.577.289-1.113.886-1.587.578-.495 1.423-.722 2.474-.722.824 0 1.505.124 2.02.412.391.207.68.516.866.97.123.288.185.885.185 1.772v3.133c0 .865.02 1.401.062 1.607.02.207.082.33.165.392.062.083.165.103.268.103a.57.57 0 00.268-.062c.144-.082.412-.33.824-.742v.577c-.763.99-1.463 1.505-2.164 1.505-.33 0-.577-.124-.783-.35-.186-.227-.289-.619-.289-1.155zm0-.66v-3.524c-1.01.412-1.67.701-1.979.866-.515.289-.907.598-1.133.927-.227.31-.33.68-.33 1.052 0 .494.144.886.433 1.195.288.33.618.495.99.495.514 0 1.174-.35 2.02-1.01zM119.009 571.112c1.071-1.299 2.102-1.938 3.091-1.938.495 0 .928.124 1.299.371.35.248.639.66.866 1.237.144.412.206 1.03.206 1.855v3.937c0 .577.062.969.144 1.195a.916.916 0 00.35.392c.165.082.475.124.928.124v.37h-4.576v-.37h.206c.433 0 .722-.062.887-.186.185-.124.288-.33.37-.577.021-.103.042-.412.042-.948v-3.772c0-.845-.124-1.443-.33-1.835-.227-.37-.598-.556-1.113-.556-.783 0-1.587.433-2.37 1.298v4.865c0 .618.02 1.01.103 1.154.103.206.226.33.391.433.165.082.495.124.99.124v.37h-4.555v-.37h.206c.474 0 .783-.103.948-.35.165-.228.247-.702.247-1.361v-3.422c0-1.113-.02-1.793-.082-2.02-.042-.247-.124-.412-.227-.494a.664.664 0 00-.412-.145c-.186 0-.413.062-.68.165l-.145-.37 2.783-1.114h.433v1.938zM136.323 578.862c-1.196 0-2.144-.31-2.824-.928-.68-.598-1.03-1.422-1.03-2.473s.35-1.897 1.03-2.494c.68-.598 1.607-.907 2.782-.907h3.504v-1.134c0-.68-.206-1.216-.618-1.608-.433-.391-1.01-.577-1.752-.577-.66 0-1.216.145-1.67.433-.453.289-.742.66-.845 1.134h-1.855a3.04 3.04 0 01.701-1.67 3.975 3.975 0 011.546-1.133c.639-.268 1.34-.392 2.123-.392 1.298 0 2.329.33 3.092 1.01.762.68 1.133 1.587 1.133 2.741v7.792h-1.814v-2.165h-.02c-.083.722-.433 1.299-1.051 1.732-.64.433-1.443.639-2.432.639zm.453-1.464c.886 0 1.608-.226 2.164-.66.557-.432.845-1.01.845-1.69v-1.607h-3.462c-.619 0-1.114.165-1.464.515-.35.35-.536.804-.536 1.402 0 .639.227 1.133.66 1.504.412.35 1.03.536 1.793.536z"
                fill="#b12e1e" fill-rule="nonzero" />
        </g>
    </g>
    <g>
        <path d="M115.268 524.044L90.62 571.098" fill="none" stroke="#000" stroke-width="7.42" stroke-linecap="square"
            transform="matrix(.65255 -.04517 .16611 .53237 250.053 309.947)" />
        <path d="M115.268 524.044L90.62 571.098" fill="none" stroke="#000" stroke-width="7.42" stroke-linecap="square"
            transform="matrix(-.6527 -.04562 -.16584 .53323 674.37 309.362)" />
        <path d="M115.268 524.044L90.62 571.098" fill="none" stroke="#000" stroke-width="7.45" stroke-linecap="square"
            transform="matrix(.62785 -.15829 .2745 .45196 203.938 366.732)" />
        <circle cx="154.775" cy="556.848" r="2.753" transform="matrix(.68706 0 0 .68706 326.975 216.71)" />
        <circle cx="154.775" cy="556.848" r="2.753" transform="matrix(.68706 0 0 .68706 353.61 216.71)" />
        <circle cx="154.775" cy="556.848" r="2.753" transform="matrix(.68706 0 0 .68706 340.293 216.71)" />
        <g>
            <path
                d="M551.746 459.176c7.935-10.775 21.602-17.288 36.276-17.288 14.675 0 28.342 6.513 36.277 17.288l30.435 41.327c8.53 11.584 9.135 26.31 1.575 38.397-7.559 12.087-22.076 19.606-37.852 19.606h-60.869c-15.776 0-30.293-7.519-37.852-19.606-7.56-12.087-6.955-26.813 1.575-38.397l30.435-41.327z"
                fill="#fff" stroke="#c1c1c1" stroke-width="4.01"
                transform="matrix(.92753 0 0 1.06254 -83.246 -9.153)" />
        </g>
        <g>
            <path
                d="M431.07 550.992c.887-1.237 1.855-1.855 2.886-1.855.948 0 1.773.391 2.473 1.195.701.825 1.052 1.917 1.052 3.319 0 1.649-.536 2.968-1.629 3.957-.927.866-1.958 1.299-3.112 1.299a5.024 5.024 0 01-1.628-.289 7.988 7.988 0 01-1.711-.886v-9.543c0-1.052-.02-1.69-.062-1.938-.062-.247-.144-.412-.247-.495a.634.634 0 00-.392-.123c-.206 0-.433.041-.721.144l-.124-.35 2.762-1.113h.453v6.678zm0 .639v5.524c.33.33.701.577 1.052.762.37.165.742.248 1.133.248.598 0 1.175-.33 1.71-1.01.516-.66.784-1.65.784-2.927 0-1.175-.268-2.082-.783-2.72-.536-.64-1.134-.949-1.814-.949-.35 0-.7.082-1.051.268-.268.144-.618.412-1.03.804zM440.387 552.868c0 1.38.33 2.452 1.01 3.215.66.783 1.463 1.175 2.37 1.175a2.58 2.58 0 001.567-.495c.453-.33.824-.907 1.113-1.71l.33.205c-.145.928-.557 1.752-1.237 2.515-.68.742-1.526 1.134-2.556 1.134-1.093 0-2.04-.433-2.845-1.299-.783-.865-1.174-2.02-1.174-3.483 0-1.567.412-2.803 1.216-3.69.804-.886 1.814-1.319 3.05-1.319 1.03 0 1.876.35 2.535 1.03.66.681 1.01 1.588 1.01 2.722h-6.39zm0-.578h4.266c-.02-.597-.103-1.01-.206-1.257a2.074 2.074 0 00-.742-.886 1.95 1.95 0 00-1.05-.31c-.557 0-1.052.207-1.485.64-.453.432-.7 1.03-.783 1.813zM450.67 546.375v3.03h2.164v.7h-2.165v5.978c0 .598.083.99.268 1.216.165.206.392.31.66.31.206 0 .433-.083.639-.207.206-.144.37-.35.474-.618h.391c-.226.66-.556 1.154-.989 1.484-.433.33-.866.494-1.319.494a1.82 1.82 0 01-.907-.247c-.31-.165-.515-.412-.66-.742-.144-.31-.206-.804-.206-1.463v-6.204h-1.463v-.33c.37-.145.742-.392 1.134-.763.37-.35.721-.762 1.03-1.237.144-.268.371-.721.64-1.401h.308zM453.201 549.405h3.875v.37c-.35.021-.598.083-.7.186a.59.59 0 00-.166.433c0 .206.062.454.165.763l1.979 5.297 1.979-4.308-.516-1.36c-.164-.412-.37-.68-.639-.845-.144-.083-.432-.145-.824-.165v-.371h4.39v.37c-.494.021-.824.104-1.03.248-.145.124-.206.289-.206.515 0 .145.02.289.082.413l2.102 5.297 1.938-5.091c.124-.371.206-.66.206-.866 0-.124-.082-.247-.206-.35-.124-.103-.392-.165-.763-.165v-.371h2.907v.37c-.578.083-1.01.475-1.299 1.176l-3.071 7.956h-.412l-2.309-5.895-2.68 5.895h-.37l-2.968-7.75c-.186-.495-.392-.825-.578-.99-.185-.185-.474-.309-.886-.391v-.371zM470.147 552.868c0 1.38.33 2.452 1.01 3.215.66.783 1.464 1.175 2.37 1.175a2.58 2.58 0 001.567-.495c.454-.33.825-.907 1.113-1.71l.33.205c-.144.928-.557 1.752-1.237 2.515-.68.742-1.525 1.134-2.556 1.134-1.092 0-2.04-.433-2.844-1.299-.783-.865-1.175-2.02-1.175-3.483 0-1.567.412-2.803 1.216-3.69.804-.886 1.814-1.319 3.05-1.319 1.031 0 1.876.35 2.536 1.03.66.681 1.01 1.588 1.01 2.722h-6.39zm0-.578h4.267c-.02-.597-.103-1.01-.206-1.257a2.074 2.074 0 00-.742-.886 1.95 1.95 0 00-1.051-.31c-.557 0-1.052.207-1.484.64-.454.432-.701 1.03-.784 1.813zM479.295 552.868c0 1.38.33 2.452 1.01 3.215.66.783 1.464 1.175 2.37 1.175a2.58 2.58 0 001.567-.495c.454-.33.825-.907 1.113-1.71l.33.205c-.144.928-.556 1.752-1.237 2.515-.68.742-1.525 1.134-2.555 1.134-1.093 0-2.041-.433-2.845-1.299-.783-.865-1.175-2.02-1.175-3.483 0-1.567.413-2.803 1.216-3.69.804-.886 1.814-1.319 3.05-1.319 1.031 0 1.877.35 2.536 1.03.66.681 1.01 1.588 1.01 2.722h-6.39zm0-.578h4.267c-.02-.597-.103-1.01-.206-1.257a2.074 2.074 0 00-.742-.886 1.95 1.95 0 00-1.051-.31c-.557 0-1.051.207-1.484.64-.454.432-.701 1.03-.784 1.813zM489.599 551.074c1.071-1.298 2.102-1.937 3.091-1.937.495 0 .928.123 1.299.37.35.248.639.66.866 1.238.144.412.206 1.03.206 1.855v3.936c0 .578.062.97.144 1.196a.916.916 0 00.35.392c.165.082.474.123.928.123v.371h-4.576v-.37h.206c.433 0 .722-.063.887-.186.185-.124.288-.33.37-.577.021-.104.042-.413.042-.949v-3.772c0-.845-.124-1.442-.33-1.834-.227-.371-.598-.556-1.113-.556-.783 0-1.587.432-2.37 1.298v4.864c0 .619.02 1.01.103 1.155.103.206.226.33.391.433.165.082.495.123.99.123v.371h-4.556v-.37h.207c.474 0 .783-.104.948-.351.165-.227.247-.701.247-1.36v-3.422c0-1.113-.02-1.793-.082-2.02-.042-.247-.124-.412-.227-.495a.664.664 0 00-.412-.144c-.186 0-.413.062-.68.165l-.145-.371 2.783-1.113h.433v1.937zM436.674 580.312c-.845 0-1.546-.206-2.102-.639-.557-.412-.866-.99-.97-1.731h-.02v2.164h-1.855v-15.047h1.855v3.298l-.041 2.577h.062c.103-.722.412-1.299.969-1.732.556-.433 1.257-.639 2.102-.639 1.134 0 2.061.371 2.741 1.134.68.763 1.03 1.793 1.03 3.092v3.318c0 1.299-.35 2.309-1.03 3.071-.68.763-1.607 1.134-2.741 1.134zm-.618-1.608c.783 0 1.401-.226 1.855-.7.453-.475.68-1.134.68-2.02v-3.092c0-.887-.227-1.546-.68-2.02-.454-.474-1.072-.701-1.855-.701-.763 0-1.36.247-1.794.721-.453.475-.68 1.155-.68 2v3.092c0 .845.227 1.525.68 1.999.433.474 1.031.721 1.794.721zM453.225 578.787c-.948.721-1.546 1.154-1.793 1.257-.35.165-.742.247-1.154.247-.64 0-1.155-.206-1.567-.639-.412-.453-.618-1.01-.618-1.731 0-.453.103-.845.288-1.175.289-.453.763-.886 1.443-1.278.68-.412 1.814-.886 3.401-1.463v-.371c0-.928-.144-1.546-.453-1.896-.289-.33-.701-.516-1.258-.516-.432 0-.762.124-1.01.35-.268.227-.391.495-.391.784l.02.577c0 .31-.082.557-.226.721a.839.839 0 01-.619.248.839.839 0 01-.618-.248c-.144-.185-.227-.412-.227-.721 0-.577.289-1.113.887-1.587.577-.495 1.422-.722 2.473-.722.824 0 1.505.124 2.02.413.391.206.68.515.866.968.123.289.185.887.185 1.773v3.133c0 .866.02 1.402.062 1.608.02.206.082.33.165.391.062.083.165.103.268.103a.57.57 0 00.268-.061c.144-.083.412-.33.824-.742v.577c-.762.99-1.463 1.504-2.164 1.504-.33 0-.577-.123-.783-.35-.186-.227-.289-.618-.289-1.154zm0-.66v-3.524c-1.01.412-1.67.7-1.979.865-.515.289-.907.598-1.133.928-.227.309-.33.68-.33 1.051 0 .495.144.886.433 1.195.288.33.618.495.99.495.514 0 1.174-.35 2.02-1.01zM459.838 572.562c1.072-1.299 2.102-1.938 3.092-1.938.494 0 .927.124 1.298.372.35.247.64.66.866 1.236.144.412.206 1.03.206 1.855v3.937c0 .577.062.969.144 1.196a.916.916 0 00.35.391c.166.083.475.124.928.124v.37h-4.575v-.37h.206c.433 0 .721-.062.886-.186.185-.123.289-.33.371-.577.02-.103.041-.412.041-.948v-3.772c0-.845-.123-1.443-.33-1.834-.226-.371-.597-.557-1.113-.557-.783 0-1.587.433-2.37 1.299v4.864c0 .618.02 1.01.103 1.154.103.206.227.33.392.433.165.083.494.124.99.124v.37h-4.556v-.37h.206c.474 0 .783-.103.948-.35.165-.227.248-.701.248-1.36v-3.422c0-1.113-.021-1.794-.083-2.02-.041-.248-.124-.413-.227-.495a.664.664 0 00-.412-.144c-.185 0-.412.061-.68.165l-.144-.371 2.782-1.114h.433v1.938zM473.957 579.075c-.453.454-.886.804-1.32 1.01a3.15 3.15 0 01-1.38.31c-1.01 0-1.896-.433-2.638-1.278-.763-.825-1.134-1.917-1.134-3.237 0-1.319.412-2.535 1.257-3.627.825-1.093 1.897-1.65 3.216-1.65.804 0 1.463.269 2 .784v-1.71c0-1.052-.022-1.69-.063-1.938-.062-.247-.144-.412-.247-.495a.634.634 0 00-.392-.123 2.11 2.11 0 00-.7.144l-.145-.35 2.762-1.114h.454v10.657c0 1.071.02 1.731.061 1.978.062.227.145.392.248.495a.65.65 0 00.391.144c.186 0 .413-.062.722-.185l.103.35-2.72 1.154h-.475v-1.319zm0-.7v-4.762a3.443 3.443 0 00-.35-1.237 2.184 2.184 0 00-.804-.865c-.33-.186-.66-.289-.969-.289-.598 0-1.134.268-1.587.804-.618.7-.907 1.71-.907 3.05 0 1.361.289 2.392.886 3.113.577.721 1.237 1.092 1.958 1.092.619 0 1.196-.309 1.773-.907zM488.53 580.312c-1.381 0-2.474-.392-3.278-1.154-.824-.763-1.236-1.835-1.236-3.174v-3.092c0-1.34.412-2.412 1.236-3.174.804-.763 1.897-1.155 3.278-1.155 1.298 0 2.35.35 3.153 1.052.804.7 1.216 1.648 1.257 2.865h-1.855c-.04-.722-.288-1.299-.721-1.69-.453-.372-1.072-.578-1.834-.578-.804 0-1.464.227-1.938.68-.474.475-.721 1.134-.721 1.98v3.112c0 .845.247 1.504.721 1.978s1.134.701 1.938.701c.762 0 1.38-.206 1.834-.598.433-.391.68-.948.721-1.67h1.855c-.04 1.217-.453 2.165-1.257 2.866-.804.7-1.855 1.051-3.153 1.051z"
                fill="#b12e1e" fill-rule="nonzero" />
        </g>
    </g>
    <g>
        <path d="M115.268 524.044L90.62 571.098" fill="none" stroke="#000" stroke-width="7.42" stroke-linecap="square"
            transform="matrix(.65255 -.04517 .16611 .53237 423.05 309.947)" />
        <path d="M115.268 524.044L90.62 571.098" fill="none" stroke="#000" stroke-width="7.42" stroke-linecap="square"
            transform="matrix(-.6527 -.04562 -.16584 .53323 847.368 309.362)" />
        <path d="M115.268 524.044L90.62 571.098" fill="none" stroke="#000" stroke-width="7.45" stroke-linecap="square"
            transform="matrix(.62785 -.15829 .2745 .45196 376.935 366.732)" />
        <circle cx="154.775" cy="556.848" r="2.753" transform="matrix(.68706 0 0 .68706 499.973 216.71)" />
        <circle cx="154.775" cy="556.848" r="2.753" transform="matrix(.68706 0 0 .68706 526.608 216.71)" />
        <circle cx="154.775" cy="556.848" r="2.753" transform="matrix(.68706 0 0 .68706 513.29 216.71)" />
        <g>
            <path
                d="M551.746 459.176c7.935-10.775 21.602-17.288 36.276-17.288 14.675 0 28.342 6.513 36.277 17.288l30.435 41.327c8.53 11.584 9.135 26.31 1.575 38.397-7.559 12.087-22.076 19.606-37.852 19.606h-60.869c-15.776 0-30.293-7.519-37.852-19.606-7.56-12.087-6.955-26.813 1.575-38.397l30.435-41.327z"
                fill="#fff" stroke="#c1c1c1" stroke-width="4.01" transform="matrix(.92753 0 0 1.06254 89.752 -9.153)" />
        </g>
        <g>
            <path
                d="M604.068 550.992c.886-1.237 1.855-1.855 2.885-1.855.949 0 1.773.391 2.474 1.195.7.825 1.051 1.917 1.051 3.319 0 1.649-.536 2.968-1.628 3.957-.928.866-1.958 1.299-3.113 1.299a5.024 5.024 0 01-1.628-.289 7.988 7.988 0 01-1.71-.886v-9.543c0-1.052-.021-1.69-.063-1.938-.061-.247-.144-.412-.247-.495a.634.634 0 00-.392-.123c-.206 0-.432.041-.721.144l-.124-.35 2.762-1.113h.454v6.678zm0 .639v5.524c.33.33.7.577 1.05.762.372.165.743.248 1.135.248.597 0 1.174-.33 1.71-1.01.516-.66.784-1.65.784-2.927 0-1.175-.268-2.082-.784-2.72-.536-.64-1.133-.949-1.813-.949-.35 0-.701.082-1.052.268-.268.144-.618.412-1.03.804zM613.384 552.868c0 1.38.33 2.452 1.01 3.215.66.783 1.464 1.175 2.37 1.175a2.58 2.58 0 001.567-.495c.453-.33.824-.907 1.113-1.71l.33.205c-.144.928-.557 1.752-1.237 2.515-.68.742-1.525 1.134-2.556 1.134-1.092 0-2.04-.433-2.844-1.299-.783-.865-1.175-2.02-1.175-3.483 0-1.567.412-2.803 1.216-3.69.804-.886 1.814-1.319 3.05-1.319 1.031 0 1.876.35 2.536 1.03.66.681 1.01 1.588 1.01 2.722h-6.39zm0-.578h4.267c-.02-.597-.103-1.01-.206-1.257a2.074 2.074 0 00-.742-.886 1.95 1.95 0 00-1.051-.31c-.557 0-1.052.207-1.485.64-.453.432-.7 1.03-.783 1.813zM623.667 546.375v3.03h2.164v.7h-2.164v5.978c0 .598.082.99.268 1.216.165.206.391.31.66.31.205 0 .432-.083.638-.207.206-.144.371-.35.474-.618h.392c-.227.66-.557 1.154-.99 1.484-.432.33-.865.494-1.319.494a1.82 1.82 0 01-.907-.247c-.309-.165-.515-.412-.66-.742-.143-.31-.205-.804-.205-1.463v-6.204h-1.464v-.33c.371-.145.742-.392 1.134-.763.371-.35.721-.762 1.03-1.237.145-.268.372-.721.64-1.401h.309zM626.199 549.405h3.875v.37c-.35.021-.598.083-.701.186a.59.59 0 00-.165.433c0 .206.062.454.165.763l1.978 5.297 1.98-4.308-.516-1.36c-.165-.412-.371-.68-.64-.845-.143-.083-.432-.145-.824-.165v-.371h4.39v.37c-.494.021-.824.104-1.03.248-.144.124-.206.289-.206.515 0 .145.02.289.082.413l2.103 5.297 1.937-5.091c.124-.371.206-.66.206-.866 0-.124-.082-.247-.206-.35-.123-.103-.391-.165-.762-.165v-.371h2.906v.37c-.577.083-1.01.475-1.299 1.176l-3.07 7.956h-.413l-2.308-5.895-2.68 5.895h-.371l-2.968-7.75c-.186-.495-.392-.825-.577-.99-.186-.185-.474-.309-.886-.391v-.371zM643.145 552.868c0 1.38.33 2.452 1.01 3.215.66.783 1.463 1.175 2.37 1.175a2.58 2.58 0 001.567-.495c.453-.33.824-.907 1.113-1.71l.33.205c-.145.928-.557 1.752-1.237 2.515-.68.742-1.526 1.134-2.556 1.134-1.093 0-2.04-.433-2.845-1.299-.783-.865-1.174-2.02-1.174-3.483 0-1.567.412-2.803 1.216-3.69.803-.886 1.813-1.319 3.05-1.319 1.03 0 1.876.35 2.535 1.03.66.681 1.01 1.588 1.01 2.722h-6.39zm0-.578h4.266c-.02-.597-.103-1.01-.206-1.257a2.074 2.074 0 00-.742-.886 1.95 1.95 0 00-1.051-.31c-.556 0-1.051.207-1.484.64-.453.432-.7 1.03-.783 1.813zM652.293 552.868c0 1.38.33 2.452 1.01 3.215.66.783 1.463 1.175 2.37 1.175a2.58 2.58 0 001.567-.495c.453-.33.824-.907 1.113-1.71l.33.205c-.145.928-.557 1.752-1.237 2.515-.68.742-1.525 1.134-2.556 1.134-1.092 0-2.04-.433-2.844-1.299-.784-.865-1.175-2.02-1.175-3.483 0-1.567.412-2.803 1.216-3.69.804-.886 1.814-1.319 3.05-1.319 1.03 0 1.876.35 2.536 1.03.66.681 1.01 1.588 1.01 2.722h-6.39zm0-.578h4.267c-.021-.597-.104-1.01-.207-1.257a2.074 2.074 0 00-.742-.886 1.95 1.95 0 00-1.05-.31c-.557 0-1.052.207-1.485.64-.453.432-.7 1.03-.783 1.813zM662.596 551.074c1.072-1.298 2.102-1.937 3.092-1.937.494 0 .927.123 1.298.37.35.248.64.66.866 1.238.144.412.206 1.03.206 1.855v3.936c0 .578.062.97.144 1.196a.916.916 0 00.35.392c.166.082.475.123.928.123v.371h-4.575v-.37h.206c.432 0 .721-.063.886-.186.185-.124.288-.33.37-.577.022-.104.042-.413.042-.949v-3.772c0-.845-.124-1.442-.33-1.834-.226-.371-.597-.556-1.113-.556-.783 0-1.587.432-2.37 1.298v4.864c0 .619.02 1.01.103 1.155.103.206.227.33.392.433.165.082.494.123.989.123v.371h-4.555v-.37h.206c.474 0 .783-.104.948-.351.165-.227.247-.701.247-1.36v-3.422c0-1.113-.02-1.793-.082-2.02-.041-.247-.124-.412-.227-.495a.664.664 0 00-.412-.144c-.185 0-.412.062-.68.165l-.144-.371 2.782-1.113h.433v1.937zM609.094 580.312c-1.38 0-2.473-.392-3.277-1.154-.824-.763-1.237-1.835-1.237-3.174v-3.092c0-1.34.413-2.412 1.237-3.174.804-.763 1.896-1.155 3.277-1.155 1.299 0 2.35.35 3.154 1.052.804.7 1.216 1.648 1.257 2.865h-1.855c-.041-.722-.288-1.299-.721-1.69-.454-.372-1.072-.578-1.835-.578-.804 0-1.463.227-1.937.68-.474.475-.722 1.134-.722 1.98v3.112c0 .845.248 1.504.722 1.978s1.133.701 1.937.701c.763 0 1.381-.206 1.835-.598.433-.391.68-.948.721-1.67h1.855c-.041 1.217-.453 2.165-1.257 2.866-.804.7-1.855 1.051-3.154 1.051zM626.223 578.787c-.949.721-1.546 1.154-1.794 1.257-.35.165-.742.247-1.154.247-.639 0-1.154-.206-1.566-.639-.413-.453-.619-1.01-.619-1.731 0-.453.103-.845.289-1.175.288-.453.762-.886 1.443-1.278.68-.412 1.813-.886 3.4-1.463v-.371c0-.928-.144-1.546-.453-1.896-.288-.33-.7-.516-1.257-.516-.433 0-.763.124-1.01.35-.268.227-.392.495-.392.784l.02.577c0 .31-.082.557-.226.721a.839.839 0 01-.618.248.839.839 0 01-.619-.248c-.144-.185-.226-.412-.226-.721 0-.577.288-1.113.886-1.587.577-.495 1.422-.722 2.473-.722.825 0 1.505.124 2.02.413.392.206.68.515.866.968.124.289.185.887.185 1.773v3.133c0 .866.021 1.402.062 1.608.02.206.083.33.165.391.062.083.165.103.268.103a.57.57 0 00.268-.061c.144-.083.412-.33.825-.742v.577c-.763.99-1.464 1.504-2.165 1.504-.33 0-.577-.123-.783-.35-.185-.227-.288-.618-.288-1.154zm0-.66v-3.524c-1.01.412-1.67.7-1.98.865-.514.289-.906.598-1.133.928-.227.309-.33.68-.33 1.051 0 .495.145.886.433 1.195.289.33.619.495.99.495.515 0 1.174-.35 2.02-1.01zM632.835 572.562c1.072-1.299 2.103-1.938 3.092-1.938.495 0 .928.124 1.299.372.35.247.639.66.865 1.236.145.412.207 1.03.207 1.855v3.937c0 .577.061.969.144 1.196a.916.916 0 00.35.391c.165.083.474.124.928.124v.37h-4.576v-.37h.206c.433 0 .722-.062.886-.186.186-.123.289-.33.371-.577.021-.103.042-.412.042-.948v-3.772c0-.845-.124-1.443-.33-1.834-.227-.371-.598-.557-1.113-.557-.783 0-1.587.433-2.37 1.299v4.864c0 .618.02 1.01.103 1.154.103.206.226.33.391.433.165.083.495.124.99.124v.37h-4.556v-.37h.206c.475 0 .784-.103.949-.35.164-.227.247-.701.247-1.36v-3.422c0-1.113-.02-1.794-.083-2.02-.04-.248-.123-.413-.226-.495a.664.664 0 00-.412-.144c-.186 0-.413.061-.68.165l-.145-.371 2.783-1.114h.432v1.938zM646.954 579.075c-.453.454-.886.804-1.319 1.01a3.15 3.15 0 01-1.38.31c-1.01 0-1.897-.433-2.639-1.278-.763-.825-1.134-1.917-1.134-3.237 0-1.319.413-2.535 1.258-3.627.824-1.093 1.896-1.65 3.215-1.65.804 0 1.464.269 2 .784v-1.71c0-1.052-.021-1.69-.062-1.938-.062-.247-.145-.412-.248-.495a.634.634 0 00-.391-.123 2.11 2.11 0 00-.701.144l-.144-.35 2.762-1.114h.453v10.657c0 1.071.02 1.731.062 1.978.062.227.144.392.247.495a.65.65 0 00.392.144c.185 0 .412-.062.721-.185l.103.35-2.72 1.154h-.475v-1.319zm0-.7v-4.762a3.443 3.443 0 00-.35-1.237 2.184 2.184 0 00-.804-.865c-.33-.186-.66-.289-.969-.289-.597 0-1.133.268-1.587.804-.618.7-.907 1.71-.907 3.05 0 1.361.289 2.392.887 3.113.577.721 1.236 1.092 1.958 1.092.618 0 1.195-.309 1.772-.907zM660.785 580.312c-1.134 0-2.04-.371-2.72-1.134-.702-.762-1.052-1.772-1.052-3.07v-3.32c0-1.298.35-2.328 1.03-3.091.68-.763 1.608-1.134 2.742-1.134.845 0 1.546.206 2.102.64.557.432.866 1.01.97 1.73h.06l-.04-2.576v-3.298h1.855v15.047h-1.855v-2.164h-.02c-.104.742-.413 1.319-.97 1.731-.556.433-1.257.639-2.102.639zm.618-1.608c.763 0 1.381-.247 1.814-.721.433-.474.66-1.154.66-2v-3.091c0-.845-.227-1.525-.66-2-.433-.474-1.051-.721-1.814-.721-.783 0-1.401.227-1.855.7-.453.475-.68 1.134-.68 2.02v3.093c0 .886.227 1.545.68 2.02.454.474 1.072.7 1.855.7z"
                fill="#b12e1e" fill-rule="nonzero" />
        </g>
    </g>
</svg>