<svg viewBox="0 0 1024 768" xmlns="http://www.w3.org/2000/svg" fill-rule="evenodd" clip-rule="evenodd"
    stroke-linecap="round" stroke-linejoin="round" stroke-miterlimit="1.5">
    <path
        d="M387.916 411.2L290.39 301.663M137.39 411.2l97.527-109.538M262.26 243.614L484.3 178.7M761.301 243.614L539.263 178.7M886.609 411.2l-95.407-109.538M637.203 411.2l95.407-109.538"
        fill="none" stroke="#000" stroke-width="4" />
    <g transform="matrix(.86603 0 0 .86603 124.383 22.788)">
        <circle cx="447.581" cy="153.572" r="41.223" fill="none" />
        <clipPath id="prefix__a">
            <circle cx="447.581" cy="153.572" r="41.223" />
        </clipPath>
        <g clip-path="url(#prefix__a)">
            <path
                d="M449.162 174.08c-2.273 0-4.157-.555-5.654-1.719-1.496-1.109-2.328-2.66-2.605-4.656h-.055v5.82h-4.989v-40.46h4.989v8.867l-.111 6.929h.166c.277-1.94 1.109-3.492 2.605-4.656 1.497-1.164 3.381-1.718 5.654-1.718 3.048 0 5.542.997 7.371 3.048 1.83 2.05 2.771 4.822 2.771 8.314v8.923c0 3.492-.942 6.208-2.77 8.259-1.83 2.05-4.324 3.048-7.372 3.048zm-1.663-4.324c2.106 0 3.769-.61 4.988-1.884 1.22-1.275 1.83-3.049 1.83-5.432v-8.314c0-2.383-.61-4.157-1.83-5.432-1.22-1.275-2.882-1.884-4.988-1.884-2.051 0-3.658.665-4.822 1.94-1.22 1.274-1.83 3.104-1.83 5.376v8.314c0 2.272.61 4.101 1.83 5.376 1.164 1.275 2.771 1.94 4.822 1.94z"
                fill-rule="nonzero" />
        </g>
        <circle cx="447.581" cy="153.572" r="41.223" fill="none" stroke="#000" stroke-width="4.62" />
    </g>
    <g transform="matrix(.86603 0 0 .86603 -125.357 146.317)">
        <circle cx="447.581" cy="153.572" r="41.223" fill="none" />
        <clipPath id="prefix__b">
            <circle cx="447.581" cy="153.572" r="41.223" />
        </clipPath>
        <g clip-path="url(#prefix__b)">
            <path
                d="M445.614 169.368c-3.214 0-5.764-.831-7.593-2.494-1.829-1.607-2.771-3.824-2.771-6.651s.942-5.1 2.771-6.707c1.83-1.607 4.323-2.438 7.483-2.438h9.422v-3.049c0-1.829-.554-3.27-1.663-4.323-1.164-1.053-2.716-1.552-4.711-1.552-1.774 0-3.27.388-4.49 1.164-1.219.776-1.995 1.774-2.272 3.048h-4.988c.166-1.718.831-3.214 1.884-4.489s2.439-2.328 4.157-3.048c1.718-.721 3.603-1.054 5.709-1.054 3.492 0 6.263.887 8.314 2.716 2.05 1.83 3.048 4.268 3.048 7.372v20.95h-4.877v-5.819h-.056c-.221 1.94-1.164 3.492-2.826 4.656-1.718 1.164-3.88 1.718-6.54 1.718zm1.22-3.935c2.383 0 4.323-.61 5.82-1.774 1.496-1.164 2.272-2.716 2.272-4.545v-4.323h-9.312c-1.662 0-2.993.444-3.935 1.386-.942.942-1.44 2.161-1.44 3.769 0 1.718.609 3.048 1.773 4.046 1.108.942 2.771 1.44 4.822 1.44z"
                fill-rule="nonzero" />
        </g>
        <circle cx="447.581" cy="153.572" r="41.223" fill="none" stroke="#000" stroke-width="4.62" />
    </g>
    <g transform="matrix(-.86603 0 0 .86603 1149.36 146.317)">
        <circle cx="447.581" cy="153.572" r="41.223" fill="none" />
        <clipPath id="prefix__c">
            <circle cx="447.581" cy="153.572" r="41.223" />
        </clipPath>
        <g clip-path="url(#prefix__c)">
            <path
                d="M446.668 169.368c3.714 0 6.651-1.053 8.813-3.104 2.217-2.05 3.326-4.933 3.326-8.535v-8.314c0-3.603-1.109-6.485-3.326-8.536-2.162-2.05-5.1-3.104-8.813-3.104-3.491 0-6.318.943-8.48 2.827-2.161 1.885-3.27 4.434-3.38 7.704h4.988c.11-1.94.776-3.491 1.94-4.545 1.219-.997 2.882-1.551 4.932-1.551 2.162 0 3.936.61 5.21 1.829 1.275 1.274 1.94 3.048 1.94 5.32v8.37c0 2.272-.665 4.046-1.94 5.32-1.274 1.275-3.048 1.885-5.21 1.885-2.05 0-3.713-.554-4.932-1.607-1.164-1.053-1.83-2.55-1.94-4.49h-4.989c.111 3.27 1.22 5.82 3.381 7.704 2.162 1.885 4.989 2.827 8.48 2.827z"
                fill-rule="nonzero" />
        </g>
        <circle cx="447.581" cy="153.572" r="41.223" fill="none" stroke="#000" stroke-width="4.62" />
    </g>
    <path
        d="M563.099 443.761c5.452-7.403 14.842-11.878 24.923-11.878 10.082 0 19.472 4.475 24.924 11.878l55.155 74.894c5.861 7.959 6.276 18.076 1.083 26.381-5.194 8.304-15.168 13.47-26.007 13.47H532.868c-10.839 0-20.813-5.166-26.007-13.47-5.193-8.305-4.778-18.422 1.083-26.381l55.155-74.894z"
        fill="#fff" stroke="#c1c1c1" stroke-width="2.76" transform="matrix(1.35 0 0 1.54651 -656.44 -256.71)" />
    <path d="M115.268 524.044L90.62 571.098" fill="none" stroke="#000" stroke-width="5.1" stroke-linecap="square"
        transform="matrix(.94978 -.06574 .24178 .77485 -171.328 210.464)" />
    <path d="M115.268 524.044L90.62 571.098" fill="none" stroke="#000" stroke-width="5.1" stroke-linecap="square"
        transform="matrix(-.94998 -.0664 -.24138 .7761 446.26 209.613)" />
    <path d="M115.268 524.044L90.62 571.098" fill="none" stroke="#000" stroke-width="5.12" stroke-linecap="square"
        transform="matrix(.91382 -.23039 .39952 .65782 -238.448 293.115)" />
    <circle cx="154.775" cy="556.848" r="2.753" transform="translate(-59.369 74.759)" />
    <circle cx="154.775" cy="556.848" r="2.753" transform="translate(-20.601 74.759)" />
    <circle cx="154.775" cy="556.848" r="2.753" transform="translate(-39.985 74.759)" />
    <g>
        <path
            d="M120.544 546.74v17.79c0 .84.06 1.38.18 1.68.12.27.3.48.57.6.24.15.72.21 1.41.21v.54h-6.57v-.54c.63 0 1.05-.06 1.26-.18.24-.12.39-.33.54-.63.12-.3.18-.84.18-1.68v-12.18c0-1.53-.03-2.46-.09-2.79-.09-.36-.18-.6-.33-.72-.15-.12-.36-.18-.6-.18s-.57.06-.96.21l-.24-.51 3.99-1.62h.66zM126.508 559.19c0 2.01.48 3.57 1.47 4.68.96 1.14 2.13 1.71 3.45 1.71.87 0 1.62-.24 2.28-.72.66-.48 1.2-1.32 1.62-2.49l.48.3c-.21 1.35-.81 2.55-1.8 3.66-.99 1.08-2.22 1.65-3.72 1.65-1.59 0-2.97-.63-4.14-1.89-1.14-1.26-1.71-2.94-1.71-5.07 0-2.28.6-4.08 1.77-5.37s2.64-1.92 4.44-1.92c1.5 0 2.73.51 3.69 1.5s1.47 2.31 1.47 3.96h-9.3zm0-.84h6.21c-.03-.87-.15-1.47-.3-1.83-.24-.54-.6-.96-1.08-1.29-.48-.3-.99-.45-1.53-.45-.81 0-1.53.3-2.16.93-.66.63-1.02 1.5-1.14 2.64zM146.244 553.76v4.56h-.48c-.36-1.44-.84-2.43-1.41-2.94-.6-.51-1.32-.78-2.22-.78-.69 0-1.26.18-1.68.54-.42.36-.63.78-.63 1.2 0 .57.18 1.02.48 1.41.3.42.93.84 1.86 1.29l2.13 1.02c1.98.99 2.97 2.25 2.97 3.84 0 1.23-.45 2.19-1.38 2.94-.93.75-1.95 1.14-3.09 1.14-.84 0-1.77-.15-2.82-.45-.33-.09-.6-.15-.81-.15-.21 0-.39.12-.51.39h-.48v-4.8h.48c.27 1.38.78 2.4 1.56 3.09s1.65 1.05 2.61 1.05c.66 0 1.2-.21 1.62-.6.45-.39.66-.87.66-1.44 0-.66-.24-1.23-.72-1.68-.48-.45-1.41-1.05-2.82-1.74-1.44-.72-2.37-1.35-2.79-1.92-.45-.54-.66-1.26-.66-2.1 0-1.11.36-2.04 1.14-2.76.75-.75 1.74-1.11 2.94-1.11.51 0 1.14.09 1.92.33.48.15.81.21.99.21.15 0 .27-.03.36-.09.09-.09.18-.24.3-.45h.48zM157.919 553.76v4.56h-.48c-.36-1.44-.84-2.43-1.41-2.94-.6-.51-1.32-.78-2.22-.78-.69 0-1.26.18-1.68.54-.42.36-.63.78-.63 1.2 0 .57.18 1.02.48 1.41.3.42.93.84 1.86 1.29l2.13 1.02c1.98.99 2.97 2.25 2.97 3.84 0 1.23-.45 2.19-1.38 2.94-.93.75-1.95 1.14-3.09 1.14-.84 0-1.77-.15-2.82-.45-.33-.09-.6-.15-.81-.15-.21 0-.39.12-.51.39h-.48v-4.8h.48c.27 1.38.78 2.4 1.56 3.09s1.65 1.05 2.61 1.05c.66 0 1.2-.21 1.62-.6.45-.39.66-.87.66-1.44 0-.66-.24-1.23-.72-1.68-.48-.45-1.41-1.05-2.82-1.74-1.44-.72-2.37-1.35-2.79-1.92-.45-.54-.66-1.26-.66-2.1 0-1.11.36-2.04 1.14-2.76.75-.75 1.74-1.11 2.94-1.11.51 0 1.14.09 1.92.33.48.15.81.21.99.21.15 0 .27-.03.36-.09.09-.09.18-.24.3-.45h.48zM103.748 581.016v4.41h3.15v1.02h-3.15v8.7c0 .87.12 1.44.39 1.77.24.3.57.45.96.45.3 0 .63-.12.93-.3.3-.21.54-.51.69-.9h.57c-.33.96-.81 1.68-1.44 2.16-.63.48-1.26.72-1.92.72-.45 0-.9-.12-1.32-.36-.45-.24-.75-.6-.96-1.08-.21-.45-.3-1.17-.3-2.13v-9.03h-2.13v-.48c.54-.21 1.08-.57 1.65-1.11.54-.51 1.05-1.11 1.5-1.8.21-.39.54-1.05.93-2.04h.45zM112.143 578.016v9.81c1.08-1.2 1.92-1.95 2.58-2.31a4.02 4.02 0 011.89-.48c.75 0 1.41.21 1.95.63.57.42.96 1.08 1.23 1.95.18.63.27 1.77.27 3.45v4.74c0 .84.09 1.44.21 1.74.09.24.27.42.51.57.21.12.66.18 1.29.18v.54h-6.6v-.54h.3c.63 0 1.05-.09 1.32-.27.24-.18.39-.48.51-.84.03-.15.03-.63.03-1.38v-4.74c0-1.47-.06-2.43-.21-2.88-.15-.48-.39-.81-.75-1.05-.33-.24-.72-.33-1.2-.33s-.96.12-1.47.36c-.54.27-1.14.78-1.86 1.56v7.08c0 .93.03 1.5.15 1.71.09.24.27.42.57.57.27.15.75.21 1.44.21v.54h-6.66v-.54c.6 0 1.08-.09 1.41-.27.21-.09.36-.27.48-.54.12-.3.18-.84.18-1.68v-12.15c0-1.53-.06-2.46-.12-2.82-.09-.36-.18-.6-.33-.72-.15-.12-.36-.18-.63-.18-.18 0-.54.06-.99.21l-.21-.51 4.02-1.62h.69zM130.803 596.916c-1.38 1.05-2.25 1.68-2.61 1.83-.51.24-1.08.36-1.68.36-.93 0-1.68-.3-2.28-.93-.6-.66-.9-1.47-.9-2.52 0-.66.15-1.23.42-1.71.42-.66 1.11-1.29 2.1-1.86.99-.6 2.64-1.29 4.95-2.13v-.54c0-1.35-.21-2.25-.66-2.76-.42-.48-1.02-.75-1.83-.75-.63 0-1.11.18-1.47.51-.39.33-.57.72-.57 1.14l.03.84c0 .45-.12.81-.33 1.05-.24.24-.54.36-.9.36s-.66-.12-.9-.36c-.21-.27-.33-.6-.33-1.05 0-.84.42-1.62 1.29-2.31.84-.72 2.07-1.05 3.6-1.05 1.2 0 2.19.18 2.94.6.57.3.99.75 1.26 1.41.18.42.27 1.29.27 2.58v4.56c0 1.26.03 2.04.09 2.34.03.3.12.48.24.57.09.12.24.15.39.15.15 0 .27-.03.39-.09.21-.12.6-.48 1.2-1.08v.84c-1.11 1.44-2.13 2.19-3.15 2.19-.48 0-.84-.18-1.14-.51-.27-.33-.42-.9-.42-1.68zm0-.96v-5.13c-1.47.6-2.43 1.02-2.88 1.26-.75.42-1.32.87-1.65 1.35-.33.45-.48.99-.48 1.53 0 .72.21 1.29.63 1.74.42.48.9.72 1.44.72.75 0 1.71-.51 2.94-1.47zM140.429 587.856c1.56-1.89 3.06-2.82 4.5-2.82.72 0 1.35.18 1.89.54.51.36.93.96 1.26 1.8.21.6.3 1.5.3 2.7v5.73c0 .84.09 1.41.21 1.74.12.24.27.42.51.57.24.12.69.18 1.35.18v.54h-6.66v-.54h.3c.63 0 1.05-.09 1.29-.27.27-.18.42-.48.54-.84.03-.15.06-.6.06-1.38v-5.49c0-1.23-.18-2.1-.48-2.67-.33-.54-.87-.81-1.62-.81-1.14 0-2.31.63-3.45 1.89v7.08c0 .9.03 1.47.15 1.68.15.3.33.48.57.63.24.12.72.18 1.44.18v.54h-6.63v-.54h.3c.69 0 1.14-.15 1.38-.51.24-.33.36-1.02.36-1.98v-4.98c0-1.62-.03-2.61-.12-2.94-.06-.36-.18-.6-.33-.72a.966.966 0 00-.6-.21c-.27 0-.6.09-.99.24l-.21-.54 4.05-1.62h.63v2.82zM165.629 599.136c-1.74 0-3.12-.45-4.11-1.35-.99-.87-1.5-2.07-1.5-3.6 0-1.53.51-2.76 1.5-3.63.99-.87 2.34-1.32 4.05-1.32h5.1v-1.65c0-.99-.3-1.77-.9-2.34-.63-.57-1.47-.84-2.55-.84-.96 0-1.77.21-2.43.63-.66.42-1.08.96-1.23 1.65h-2.7c.09-.93.45-1.74 1.02-2.43.57-.69 1.32-1.26 2.25-1.65.93-.39 1.95-.57 3.09-.57 1.89 0 3.39.48 4.5 1.47 1.11.99 1.65 2.31 1.65 3.99v11.34h-2.64v-3.15h-.03c-.12 1.05-.63 1.89-1.53 2.52-.93.63-2.1.93-3.54.93zm.66-2.13c1.29 0 2.34-.33 3.15-.96.81-.63 1.23-1.47 1.23-2.46v-2.34h-5.04c-.9 0-1.62.24-2.13.75-.51.51-.78 1.17-.78 2.04 0 .93.33 1.65.96 2.19.6.51 1.5.78 2.61.78z"
            fill="#b12e1e" fill-rule="nonzero" />
    </g>
    <g>
        <path
            d="M563.099 443.761c5.452-7.403 14.842-11.878 24.923-11.878 10.082 0 19.472 4.475 24.924 11.878l55.155 74.894c5.861 7.959 6.276 18.076 1.083 26.381-5.194 8.304-15.168 13.47-26.007 13.47H532.868c-10.839 0-20.813-5.166-26.007-13.47-5.193-8.305-4.778-18.422 1.083-26.381l55.155-74.894z"
            fill="#fff" stroke="#c1c1c1" stroke-width="2.76" transform="matrix(1.35 0 0 1.54651 -406.7 -256.71)" />
        <path d="M115.268 524.044L90.62 571.098" fill="none" stroke="#000" stroke-width="5.1" stroke-linecap="square"
            transform="matrix(.94978 -.06574 .24178 .77485 78.411 210.464)" />
        <path d="M115.268 524.044L90.62 571.098" fill="none" stroke="#000" stroke-width="5.1" stroke-linecap="square"
            transform="matrix(-.94998 -.0664 -.24138 .7761 695.999 209.613)" />
        <path d="M115.268 524.044L90.62 571.098" fill="none" stroke="#000" stroke-width="5.12" stroke-linecap="square"
            transform="matrix(.91382 -.23039 .39952 .65782 11.292 293.115)" />
        <circle cx="154.775" cy="556.848" r="2.753" transform="translate(190.37 74.759)" />
        <circle cx="154.775" cy="556.848" r="2.753" transform="translate(229.138 74.759)" />
        <circle cx="154.775" cy="556.848" r="2.753" transform="translate(209.755 74.759)" />
        <g>
            <path
                d="M341.88 556.46c1.29-1.8 2.7-2.7 4.2-2.7 1.38 0 2.58.57 3.6 1.74 1.02 1.2 1.53 2.79 1.53 4.83 0 2.4-.78 4.32-2.37 5.76-1.35 1.26-2.85 1.89-4.53 1.89-.78 0-1.59-.15-2.37-.42-.81-.3-1.65-.72-2.49-1.29v-13.89c0-1.53-.03-2.46-.09-2.82-.09-.36-.21-.6-.36-.72a.923.923 0 00-.57-.18c-.3 0-.63.06-1.05.21l-.18-.51 4.02-1.62h.66v9.72zm0 .93v8.04c.48.48 1.02.84 1.53 1.11.54.24 1.08.36 1.65.36.87 0 1.71-.48 2.49-1.47.75-.96 1.14-2.4 1.14-4.26 0-1.71-.39-3.03-1.14-3.96-.78-.93-1.65-1.38-2.64-1.38-.51 0-1.02.12-1.53.39-.39.21-.9.6-1.5 1.17zM355.44 559.19c0 2.01.48 3.57 1.47 4.68.96 1.14 2.13 1.71 3.45 1.71.87 0 1.62-.24 2.28-.72.66-.48 1.2-1.32 1.62-2.49l.48.3c-.21 1.35-.81 2.55-1.8 3.66-.99 1.08-2.22 1.65-3.72 1.65-1.59 0-2.97-.63-4.14-1.89-1.14-1.26-1.71-2.94-1.71-5.07 0-2.28.6-4.08 1.77-5.37s2.64-1.92 4.44-1.92c1.5 0 2.73.51 3.69 1.5s1.47 2.31 1.47 3.96h-9.3zm0-.84h6.21c-.03-.87-.15-1.47-.3-1.83-.24-.54-.6-.96-1.08-1.29-.48-.3-.99-.45-1.53-.45-.81 0-1.53.3-2.16.93-.66.63-1.02 1.5-1.14 2.64zM370.405 549.74v4.41h3.15v1.02h-3.15v8.7c0 .87.12 1.44.39 1.77.24.3.57.45.96.45.3 0 .63-.12.93-.3.3-.21.54-.51.69-.9h.57c-.33.96-.81 1.68-1.44 2.16-.63.48-1.26.72-1.92.72-.45 0-.9-.12-1.32-.36-.45-.24-.75-.6-.96-1.08-.21-.45-.3-1.17-.3-2.13v-9.03h-2.13v-.48c.54-.21 1.08-.57 1.65-1.11.54-.51 1.05-1.11 1.5-1.8.21-.39.54-1.05.93-2.04h.45zM374.09 554.15h5.64v.54c-.51.03-.87.12-1.02.27a.86.86 0 00-.24.63c0 .3.09.66.24 1.11l2.88 7.71 2.88-6.27-.75-1.98c-.24-.6-.54-.99-.93-1.23-.21-.12-.63-.21-1.2-.24v-.54h6.39v.54c-.72.03-1.2.15-1.5.36-.21.18-.3.42-.3.75 0 .21.03.42.12.6l3.06 7.71 2.82-7.41c.18-.54.3-.96.3-1.26 0-.18-.12-.36-.3-.51-.18-.15-.57-.24-1.11-.24v-.54h4.23v.54c-.84.12-1.47.69-1.89 1.71l-4.47 11.58h-.6l-3.36-8.58-3.9 8.58h-.54l-4.32-11.28c-.27-.72-.57-1.2-.84-1.44-.27-.27-.69-.45-1.29-.57v-.54zM398.755 559.19c0 2.01.48 3.57 1.47 4.68.96 1.14 2.13 1.71 3.45 1.71.87 0 1.62-.24 2.28-.72.66-.48 1.2-1.32 1.62-2.49l.48.3c-.21 1.35-.81 2.55-1.8 3.66-.99 1.08-2.22 1.65-3.72 1.65-1.59 0-2.97-.63-4.14-1.89-1.14-1.26-1.71-2.94-1.71-5.07 0-2.28.6-4.08 1.77-5.37s2.64-1.92 4.44-1.92c1.5 0 2.73.51 3.69 1.5s1.47 2.31 1.47 3.96h-9.3zm0-.84h6.21c-.03-.87-.15-1.47-.3-1.83-.24-.54-.6-.96-1.08-1.29-.48-.3-.99-.45-1.53-.45-.81 0-1.53.3-2.16.93-.66.63-1.02 1.5-1.14 2.64zM412.07 559.19c0 2.01.48 3.57 1.47 4.68.96 1.14 2.13 1.71 3.45 1.71.87 0 1.62-.24 2.28-.72.66-.48 1.2-1.32 1.62-2.49l.48.3c-.21 1.35-.81 2.55-1.8 3.66-.99 1.08-2.22 1.65-3.72 1.65-1.59 0-2.97-.63-4.14-1.89-1.14-1.26-1.71-2.94-1.71-5.07 0-2.28.6-4.08 1.77-5.37s2.64-1.92 4.44-1.92c1.5 0 2.73.51 3.69 1.5s1.47 2.31 1.47 3.96h-9.3zm0-.84h6.21c-.03-.87-.15-1.47-.3-1.83-.24-.54-.6-.96-1.08-1.29-.48-.3-.99-.45-1.53-.45-.81 0-1.53.3-2.16.93-.66.63-1.02 1.5-1.14 2.64zM427.066 556.58c1.56-1.89 3.06-2.82 4.5-2.82.72 0 1.35.18 1.89.54.51.36.93.96 1.26 1.8.21.6.3 1.5.3 2.7v5.73c0 .84.09 1.41.21 1.74.12.24.27.42.51.57.24.12.69.18 1.35.18v.54h-6.66v-.54h.3c.63 0 1.05-.09 1.29-.27.27-.18.42-.48.54-.84.03-.15.06-.6.06-1.38v-5.49c0-1.23-.18-2.1-.48-2.67-.33-.54-.87-.81-1.62-.81-1.14 0-2.31.63-3.45 1.89v7.08c0 .9.03 1.47.15 1.68.15.3.33.48.57.63.24.12.72.18 1.44.18v.54h-6.63v-.54h.3c.69 0 1.14-.15 1.38-.51.24-.33.36-1.02.36-1.98v-4.98c0-1.62-.03-2.61-.12-2.94-.06-.36-.18-.6-.33-.72a.966.966 0 00-.6-.21c-.27 0-.6.09-.99.24l-.21-.54 4.05-1.62h.63v2.82zM347.635 599.136c-1.74 0-3.12-.45-4.11-1.35-.99-.87-1.5-2.07-1.5-3.6 0-1.53.51-2.76 1.5-3.63.99-.87 2.34-1.32 4.05-1.32h5.1v-1.65c0-.99-.3-1.77-.9-2.34-.63-.57-1.47-.84-2.55-.84-.96 0-1.77.21-2.43.63-.66.42-1.08.96-1.23 1.65h-2.7c.09-.93.45-1.74 1.02-2.43.57-.69 1.32-1.26 2.25-1.65.93-.39 1.95-.57 3.09-.57 1.89 0 3.39.48 4.5 1.47 1.11.99 1.65 2.31 1.65 3.99v11.34h-2.64v-3.15h-.03c-.12 1.05-.63 1.89-1.53 2.52-.93.63-2.1.93-3.54.93zm.66-2.13c1.29 0 2.34-.33 3.15-.96.81-.63 1.23-1.47 1.23-2.46v-2.34h-5.04c-.9 0-1.62.24-2.13.75-.51.51-.78 1.17-.78 2.04 0 .93.33 1.65.96 2.19.6.51 1.5.78 2.61.78zM374.125 596.916c-1.38 1.05-2.25 1.68-2.61 1.83-.51.24-1.08.36-1.68.36-.93 0-1.68-.3-2.28-.93-.6-.66-.9-1.47-.9-2.52 0-.66.15-1.23.42-1.71.42-.66 1.11-1.29 2.1-1.86.99-.6 2.64-1.29 4.95-2.13v-.54c0-1.35-.21-2.25-.66-2.76-.42-.48-1.02-.75-1.83-.75-.63 0-1.11.18-1.47.51-.39.33-.57.72-.57 1.14l.03.84c0 .45-.12.81-.33 1.05-.24.24-.54.36-.9.36s-.66-.12-.9-.36c-.21-.27-.33-.6-.33-1.05 0-.84.42-1.62 1.29-2.31.84-.72 2.07-1.05 3.6-1.05 1.2 0 2.19.18 2.94.6.57.3.99.75 1.26 1.41.18.42.27 1.29.27 2.58v4.56c0 1.26.03 2.04.09 2.34.03.3.12.48.24.57.09.12.24.15.39.15.15 0 .27-.03.39-.09.21-.12.6-.48 1.2-1.08v.84c-1.11 1.44-2.13 2.19-3.15 2.19-.48 0-.84-.18-1.14-.51-.27-.33-.42-.9-.42-1.68zm0-.96v-5.13c-1.47.6-2.43 1.02-2.88 1.26-.75.42-1.32.87-1.65 1.35-.33.45-.48.99-.48 1.53 0 .72.21 1.29.63 1.74.42.48.9.72 1.44.72.75 0 1.71-.51 2.94-1.47zM383.75 587.856c1.56-1.89 3.06-2.82 4.5-2.82.72 0 1.35.18 1.89.54.51.36.93.96 1.26 1.8.21.6.3 1.5.3 2.7v5.73c0 .84.09 1.41.21 1.74.12.24.27.42.51.57.24.12.69.18 1.35.18v.54h-6.66v-.54h.3c.63 0 1.05-.09 1.29-.27.27-.18.42-.48.54-.84.03-.15.06-.6.06-1.38v-5.49c0-1.23-.18-2.1-.48-2.67-.33-.54-.87-.81-1.62-.81-1.14 0-2.31.63-3.45 1.89v7.08c0 .9.03 1.47.15 1.68.15.3.33.48.57.63.24.12.72.18 1.44.18v.54h-6.63v-.54h.3c.69 0 1.14-.15 1.38-.51.24-.33.36-1.02.36-1.98v-4.98c0-1.62-.03-2.61-.12-2.94-.06-.36-.18-.6-.33-.72a.966.966 0 00-.6-.21c-.27 0-.6.09-.99.24l-.21-.54 4.05-1.62h.63v2.82zM404.3 597.336c-.66.66-1.29 1.17-1.92 1.47-.63.3-1.29.45-2.01.45-1.47 0-2.76-.63-3.84-1.86-1.11-1.2-1.65-2.79-1.65-4.71s.6-3.69 1.83-5.28c1.2-1.59 2.76-2.4 4.68-2.4 1.17 0 2.13.39 2.91 1.14v-2.49c0-1.53-.03-2.46-.09-2.82-.09-.36-.21-.6-.36-.72a.923.923 0 00-.57-.18c-.27 0-.6.06-1.02.21l-.21-.51 4.02-1.62h.66v15.51c0 1.56.03 2.52.09 2.88.09.33.21.57.36.72.15.12.36.21.57.21.27 0 .6-.09 1.05-.27l.15.51-3.96 1.68h-.69v-1.92zm0-1.02v-6.93c-.06-.66-.24-1.26-.51-1.8-.3-.57-.69-.96-1.17-1.26-.48-.27-.96-.42-1.41-.42-.87 0-1.65.39-2.31 1.17-.9 1.02-1.32 2.49-1.32 4.44 0 1.98.42 3.48 1.29 4.53.84 1.05 1.8 1.59 2.85 1.59.9 0 1.74-.45 2.58-1.32zM426.35 599.136c-1.23 0-2.25-.3-3.06-.93-.81-.6-1.26-1.44-1.41-2.52h-.03v3.15h-2.7v-21.9h2.7v4.8l-.06 3.75h.09c.15-1.05.6-1.89 1.41-2.52.81-.63 1.83-.93 3.06-.93 1.65 0 3 .54 3.99 1.65.99 1.11 1.5 2.61 1.5 4.5v4.83c0 1.89-.51 3.36-1.5 4.47-.99 1.11-2.34 1.65-3.99 1.65zm-.9-2.34c1.14 0 2.04-.33 2.7-1.02.66-.69.99-1.65.99-2.94v-4.5c0-1.29-.33-2.25-.99-2.94-.66-.69-1.56-1.02-2.7-1.02-1.11 0-1.98.36-2.61 1.05-.66.69-.99 1.68-.99 2.91v4.5c0 1.23.33 2.22.99 2.91.63.69 1.5 1.05 2.61 1.05z"
                fill="#b12e1e" fill-rule="nonzero" />
        </g>
    </g>
    <g>
        <path
            d="M563.099 443.761c5.452-7.403 14.842-11.878 24.923-11.878 10.082 0 19.472 4.475 24.924 11.878l55.155 74.894c5.861 7.959 6.276 18.076 1.083 26.381-5.194 8.304-15.168 13.47-26.007 13.47H532.868c-10.839 0-20.813-5.166-26.007-13.47-5.193-8.305-4.778-18.422 1.083-26.381l55.155-74.894z"
            fill="#fff" stroke="#c1c1c1" stroke-width="2.76" transform="matrix(1.35 0 0 1.54651 -156.961 -256.71)" />
        <path d="M115.268 524.044L90.62 571.098" fill="none" stroke="#000" stroke-width="5.1" stroke-linecap="square"
            transform="matrix(.94978 -.06574 .24178 .77485 328.15 210.464)" />
        <path d="M115.268 524.044L90.62 571.098" fill="none" stroke="#000" stroke-width="5.1" stroke-linecap="square"
            transform="matrix(-.94998 -.0664 -.24138 .7761 945.738 209.613)" />
        <path d="M115.268 524.044L90.62 571.098" fill="none" stroke="#000" stroke-width="5.12" stroke-linecap="square"
            transform="matrix(.91382 -.23039 .39952 .65782 261.031 293.115)" />
        <circle cx="154.775" cy="556.848" r="2.753" transform="translate(440.11 74.759)" />
        <circle cx="154.775" cy="556.848" r="2.753" transform="translate(478.877 74.759)" />
        <circle cx="154.775" cy="556.848" r="2.753" transform="translate(459.494 74.759)" />
        <g>
            <path
                d="M591.618 556.46c1.29-1.8 2.7-2.7 4.2-2.7 1.38 0 2.58.57 3.6 1.74 1.02 1.2 1.53 2.79 1.53 4.83 0 2.4-.78 4.32-2.37 5.76-1.35 1.26-2.85 1.89-4.53 1.89-.78 0-1.59-.15-2.37-.42-.81-.3-1.65-.72-2.49-1.29v-13.89c0-1.53-.03-2.46-.09-2.82-.09-.36-.21-.6-.36-.72a.923.923 0 00-.57-.18c-.3 0-.63.06-1.05.21l-.18-.51 4.02-1.62h.66v9.72zm0 .93v8.04c.48.48 1.02.84 1.53 1.11.54.24 1.08.36 1.65.36.87 0 1.71-.48 2.49-1.47.75-.96 1.14-2.4 1.14-4.26 0-1.71-.39-3.03-1.14-3.96-.78-.93-1.65-1.38-2.64-1.38-.51 0-1.02.12-1.53.39-.39.21-.9.6-1.5 1.17zM605.178 559.19c0 2.01.48 3.57 1.47 4.68.96 1.14 2.13 1.71 3.45 1.71.87 0 1.62-.24 2.28-.72.66-.48 1.2-1.32 1.62-2.49l.48.3c-.21 1.35-.81 2.55-1.8 3.66-.99 1.08-2.22 1.65-3.72 1.65-1.59 0-2.97-.63-4.14-1.89-1.14-1.26-1.71-2.94-1.71-5.07 0-2.28.6-4.08 1.77-5.37s2.64-1.92 4.44-1.92c1.5 0 2.73.51 3.69 1.5s1.47 2.31 1.47 3.96h-9.3zm0-.84h6.21c-.03-.87-.15-1.47-.3-1.83-.24-.54-.6-.96-1.08-1.29-.48-.3-.99-.45-1.53-.45-.81 0-1.53.3-2.16.93-.66.63-1.02 1.5-1.14 2.64zM620.144 549.74v4.41h3.15v1.02h-3.15v8.7c0 .87.12 1.44.39 1.77.24.3.57.45.96.45.3 0 .63-.12.93-.3.3-.21.54-.51.69-.9h.57c-.33.96-.81 1.68-1.44 2.16-.63.48-1.26.72-1.92.72-.45 0-.9-.12-1.32-.36-.45-.24-.75-.6-.96-1.08-.21-.45-.3-1.17-.3-2.13v-9.03h-2.13v-.48c.54-.21 1.08-.57 1.65-1.11.54-.51 1.05-1.11 1.5-1.8.21-.39.54-1.05.93-2.04h.45zM623.83 554.15h5.64v.54c-.51.03-.87.12-1.02.27a.86.86 0 00-.24.63c0 .3.09.66.24 1.11l2.88 7.71 2.88-6.27-.75-1.98c-.24-.6-.54-.99-.93-1.23-.21-.12-.63-.21-1.2-.24v-.54h6.39v.54c-.72.03-1.2.15-1.5.36-.21.18-.3.42-.3.75 0 .21.03.42.12.6l3.06 7.71 2.82-7.41c.18-.54.3-.96.3-1.26 0-.18-.12-.36-.3-.51-.18-.15-.57-.24-1.11-.24v-.54h4.23v.54c-.84.12-1.47.69-1.89 1.71l-4.47 11.58h-.6l-3.36-8.58-3.9 8.58h-.54l-4.32-11.28c-.27-.72-.57-1.2-.84-1.44-.27-.27-.69-.45-1.29-.57v-.54zM648.494 559.19c0 2.01.48 3.57 1.47 4.68.96 1.14 2.13 1.71 3.45 1.71.87 0 1.62-.24 2.28-.72.66-.48 1.2-1.32 1.62-2.49l.48.3c-.21 1.35-.81 2.55-1.8 3.66-.99 1.08-2.22 1.65-3.72 1.65-1.59 0-2.97-.63-4.14-1.89-1.14-1.26-1.71-2.94-1.71-5.07 0-2.28.6-4.08 1.77-5.37s2.64-1.92 4.44-1.92c1.5 0 2.73.51 3.69 1.5s1.47 2.31 1.47 3.96h-9.3zm0-.84h6.21c-.03-.87-.15-1.47-.3-1.83-.24-.54-.6-.96-1.08-1.29-.48-.3-.99-.45-1.53-.45-.81 0-1.53.3-2.16.93-.66.63-1.02 1.5-1.14 2.64zM661.81 559.19c0 2.01.48 3.57 1.47 4.68.96 1.14 2.13 1.71 3.45 1.71.87 0 1.62-.24 2.28-.72.66-.48 1.2-1.32 1.62-2.49l.48.3c-.21 1.35-.81 2.55-1.8 3.66-.99 1.08-2.22 1.65-3.72 1.65-1.59 0-2.97-.63-4.14-1.89-1.14-1.26-1.71-2.94-1.71-5.07 0-2.28.6-4.08 1.77-5.37s2.64-1.92 4.44-1.92c1.5 0 2.73.51 3.69 1.5s1.47 2.31 1.47 3.96h-9.3zm0-.84h6.21c-.03-.87-.15-1.47-.3-1.83-.24-.54-.6-.96-1.08-1.29-.48-.3-.99-.45-1.53-.45-.81 0-1.53.3-2.16.93-.66.63-1.02 1.5-1.14 2.64zM676.805 556.58c1.56-1.89 3.06-2.82 4.5-2.82.72 0 1.35.18 1.89.54.51.36.93.96 1.26 1.8.21.6.3 1.5.3 2.7v5.73c0 .84.09 1.41.21 1.74.12.24.27.42.51.57.24.12.69.18 1.35.18v.54h-6.66v-.54h.3c.63 0 1.05-.09 1.29-.27.27-.18.42-.48.54-.84.03-.15.06-.6.06-1.38v-5.49c0-1.23-.18-2.1-.48-2.67-.33-.54-.87-.81-1.62-.81-1.14 0-2.31.63-3.45 1.89v7.08c0 .9.03 1.47.15 1.68.15.3.33.48.57.63.24.12.72.18 1.44.18v.54h-6.63v-.54h.3c.69 0 1.14-.15 1.38-.51.24-.33.36-1.02.36-1.98v-4.98c0-1.62-.03-2.61-.12-2.94-.06-.36-.18-.6-.33-.72a.966.966 0 00-.6-.21c-.27 0-.6.09-.99.24l-.21-.54 4.05-1.62h.63v2.82zM599.774 599.136c-1.23 0-2.25-.3-3.06-.93-.81-.6-1.26-1.44-1.41-2.52h-.03v3.15h-2.7v-21.9h2.7v4.8l-.06 3.75h.09c.15-1.05.6-1.89 1.41-2.52.81-.63 1.83-.93 3.06-.93 1.65 0 3 .54 3.99 1.65.99 1.11 1.5 2.61 1.5 4.5v4.83c0 1.89-.51 3.36-1.5 4.47-.99 1.11-2.34 1.65-3.99 1.65zm-.9-2.34c1.14 0 2.04-.33 2.7-1.02.66-.69.99-1.65.99-2.94v-4.5c0-1.29-.33-2.25-.99-2.94-.66-.69-1.56-1.02-2.7-1.02-1.11 0-1.98.36-2.61 1.05-.66.69-.99 1.68-.99 2.91v4.5c0 1.23.33 2.22.99 2.91.63.69 1.5 1.05 2.61 1.05zM623.864 596.916c-1.38 1.05-2.25 1.68-2.61 1.83-.51.24-1.08.36-1.68.36-.93 0-1.68-.3-2.28-.93-.6-.66-.9-1.47-.9-2.52 0-.66.15-1.23.42-1.71.42-.66 1.11-1.29 2.1-1.86.99-.6 2.64-1.29 4.95-2.13v-.54c0-1.35-.21-2.25-.66-2.76-.42-.48-1.02-.75-1.83-.75-.63 0-1.11.18-1.47.51-.39.33-.57.72-.57 1.14l.03.84c0 .45-.12.81-.33 1.05-.24.24-.54.36-.9.36s-.66-.12-.9-.36c-.21-.27-.33-.6-.33-1.05 0-.84.42-1.62 1.29-2.31.84-.72 2.07-1.05 3.6-1.05 1.2 0 2.19.18 2.94.6.57.3.99.75 1.26 1.41.18.42.27 1.29.27 2.58v4.56c0 1.26.03 2.04.09 2.34.03.3.12.48.24.57.09.12.24.15.39.15.15 0 .27-.03.39-.09.21-.12.6-.48 1.2-1.08v.84c-1.11 1.44-2.13 2.19-3.15 2.19-.48 0-.84-.18-1.14-.51-.27-.33-.42-.9-.42-1.68zm0-.96v-5.13c-1.47.6-2.43 1.02-2.88 1.26-.75.42-1.32.87-1.65 1.35-.33.45-.48.99-.48 1.53 0 .72.21 1.29.63 1.74.42.48.9.72 1.44.72.75 0 1.71-.51 2.94-1.47zM633.49 587.856c1.56-1.89 3.06-2.82 4.5-2.82.72 0 1.35.18 1.89.54.51.36.93.96 1.26 1.8.21.6.3 1.5.3 2.7v5.73c0 .84.09 1.41.21 1.74.12.24.27.42.51.57.24.12.69.18 1.35.18v.54h-6.66v-.54h.3c.63 0 1.05-.09 1.29-.27.27-.18.42-.48.54-.84.03-.15.06-.6.06-1.38v-5.49c0-1.23-.18-2.1-.48-2.67-.33-.54-.87-.81-1.62-.81-1.14 0-2.31.63-3.45 1.89v7.08c0 .9.03 1.47.15 1.68.15.3.33.48.57.63.24.12.72.18 1.44.18v.54h-6.63v-.54h.3c.69 0 1.14-.15 1.38-.51.24-.33.36-1.02.36-1.98v-4.98c0-1.62-.03-2.61-.12-2.94-.06-.36-.18-.6-.33-.72a.966.966 0 00-.6-.21c-.27 0-.6.09-.99.24l-.21-.54 4.05-1.62h.63v2.82zM654.04 597.336c-.66.66-1.29 1.17-1.92 1.47-.63.3-1.29.45-2.01.45-1.47 0-2.76-.63-3.84-1.86-1.11-1.2-1.65-2.79-1.65-4.71s.6-3.69 1.83-5.28c1.2-1.59 2.76-2.4 4.68-2.4 1.17 0 2.13.39 2.91 1.14v-2.49c0-1.53-.03-2.46-.09-2.82-.09-.36-.21-.6-.36-.72a.923.923 0 00-.57-.18c-.27 0-.6.06-1.02.21l-.21-.51 4.02-1.62h.66v15.51c0 1.56.03 2.52.09 2.88.09.33.21.57.36.72.15.12.36.21.57.21.27 0 .6-.09 1.05-.27l.15.51-3.96 1.68h-.69v-1.92zm0-1.02v-6.93c-.06-.66-.24-1.26-.51-1.8-.3-.57-.69-.96-1.17-1.26-.48-.27-.96-.42-1.41-.42-.87 0-1.65.39-2.31 1.17-.9 1.02-1.32 2.49-1.32 4.44 0 1.98.42 3.48 1.29 4.53.84 1.05 1.8 1.59 2.85 1.59.9 0 1.74-.45 2.58-1.32zM675.25 599.136c-2.01 0-3.6-.57-4.77-1.68-1.2-1.11-1.8-2.67-1.8-4.62v-4.5c0-1.95.6-3.51 1.8-4.62 1.17-1.11 2.76-1.68 4.77-1.68 1.89 0 3.42.51 4.59 1.53s1.77 2.4 1.83 4.17h-2.7c-.06-1.05-.42-1.89-1.05-2.46-.66-.54-1.56-.84-2.67-.84-1.17 0-2.13.33-2.82.99-.69.69-1.05 1.65-1.05 2.88v4.53c0 1.23.36 2.19 1.05 2.88.69.69 1.65 1.02 2.82 1.02 1.11 0 2.01-.3 2.67-.87.63-.57.99-1.38 1.05-2.43h2.7c-.06 1.77-.66 3.15-1.83 4.17s-2.7 1.53-4.59 1.53z"
                fill="#b12e1e" fill-rule="nonzero" />
        </g>
    </g>
    <g>
        <path
            d="M563.099 443.761c5.452-7.403 14.842-11.878 24.923-11.878 10.082 0 19.472 4.475 24.924 11.878l55.155 74.894c5.861 7.959 6.276 18.076 1.083 26.381-5.194 8.304-15.168 13.47-26.007 13.47H532.868c-10.839 0-20.813-5.166-26.007-13.47-5.193-8.305-4.778-18.422 1.083-26.381l55.155-74.894z"
            fill="#fff" stroke="#c1c1c1" stroke-width="2.76" transform="matrix(1.35 0 0 1.54651 92.779 -256.71)" />
        <path d="M115.268 524.044L90.62 571.098" fill="none" stroke="#000" stroke-width="5.1" stroke-linecap="square"
            transform="matrix(.94978 -.06574 .24178 .77485 577.89 210.464)" />
        <path d="M115.268 524.044L90.62 571.098" fill="none" stroke="#000" stroke-width="5.1" stroke-linecap="square"
            transform="matrix(-.94998 -.0664 -.24138 .7761 1195.478 209.613)" />
        <path d="M115.268 524.044L90.62 571.098" fill="none" stroke="#000" stroke-width="5.12" stroke-linecap="square"
            transform="matrix(.91382 -.23039 .39952 .65782 510.771 293.115)" />
        <circle cx="154.775" cy="556.848" r="2.753" transform="translate(689.85 74.759)" />
        <circle cx="154.775" cy="556.848" r="2.753" transform="translate(728.617 74.759)" />
        <circle cx="154.775" cy="556.848" r="2.753" transform="translate(709.234 74.759)" />
        <g>
            <path
                d="M848.967 562.67c-.81-.39-1.44-.96-1.89-1.68-.45-.72-.66-1.5-.66-2.37 0-1.35.51-2.49 1.5-3.45.99-.93 2.28-1.41 3.84-1.41 1.29 0 2.4.3 3.33.93h2.85c.42 0 .66 0 .72.03.06.03.12.06.15.12.06.09.09.24.09.48s-.03.42-.09.51c0 .06-.06.09-.15.12-.06.03-.3.06-.72.06h-1.74c.54.69.81 1.59.81 2.7 0 1.23-.48 2.31-1.44 3.21-.96.87-2.25 1.32-3.84 1.32-.66 0-1.35-.09-2.04-.3-.45.39-.72.69-.87.99-.15.27-.24.51-.24.69 0 .18.09.33.24.48.18.18.48.27.96.36.27.03.96.06 2.04.09 2.01.06 3.33.12 3.9.21.93.12 1.65.45 2.19 1.02.54.54.81 1.2.81 2.01 0 1.11-.51 2.13-1.56 3.12-1.5 1.41-3.51 2.13-5.94 2.13-1.89 0-3.48-.42-4.8-1.29-.72-.48-1.08-.99-1.08-1.5 0-.24.06-.48.15-.72.18-.36.51-.87 1.02-1.5.09-.09.57-.63 1.5-1.59-.51-.3-.87-.57-1.08-.81-.21-.24-.3-.51-.3-.81 0-.33.12-.75.42-1.2.27-.45.9-1.11 1.92-1.95zm2.55-8.22c-.72 0-1.32.3-1.83.87-.48.57-.72 1.44-.72 2.64 0 1.56.33 2.73.99 3.6.51.63 1.14.96 1.95.96.72 0 1.35-.27 1.83-.84.48-.54.69-1.41.69-2.61 0-1.56-.33-2.76-.99-3.66-.51-.63-1.14-.96-1.92-.96zm-2.7 13.11c-.45.51-.81.96-1.05 1.38-.21.45-.33.84-.33 1.2 0 .48.27.87.84 1.23.96.6 2.4.9 4.23.9 1.77 0 3.06-.3 3.9-.93.84-.6 1.23-1.29 1.23-1.98 0-.51-.24-.87-.72-1.08-.51-.21-1.53-.33-3.03-.39-2.19-.06-3.9-.15-5.07-.33zM864.297 553.76v3c1.14-2.01 2.28-3 3.45-3 .54 0 .99.15 1.35.48.33.33.51.69.51 1.14 0 .36-.12.69-.36.96-.27.27-.57.39-.93.39-.33 0-.72-.15-1.14-.51-.42-.33-.75-.51-.93-.51-.18 0-.39.12-.57.3-.45.42-.9 1.08-1.38 1.98v6.45c0 .72.09 1.29.27 1.68.15.24.36.48.69.66.33.15.78.24 1.38.24v.54h-6.87v-.54c.69 0 1.2-.09 1.53-.3.24-.18.42-.42.51-.75.06-.18.09-.66.09-1.44v-5.19c0-1.56-.06-2.49-.12-2.79-.06-.3-.18-.51-.33-.66-.18-.12-.39-.21-.66-.21-.3 0-.63.09-1.02.24l-.15-.54 4.08-1.62h.6zM872.607 559.19c0 2.01.48 3.57 1.47 4.68.96 1.14 2.13 1.71 3.45 1.71.87 0 1.62-.24 2.28-.72.66-.48 1.2-1.32 1.62-2.49l.48.3c-.21 1.35-.81 2.55-1.8 3.66-.99 1.08-2.22 1.65-3.72 1.65-1.59 0-2.97-.63-4.14-1.89-1.14-1.26-1.71-2.94-1.71-5.07 0-2.28.6-4.08 1.77-5.37s2.64-1.92 4.44-1.92c1.5 0 2.73.51 3.69 1.5s1.47 2.31 1.47 3.96h-9.3zm0-.84h6.21c-.03-.87-.15-1.47-.3-1.83-.24-.54-.6-.96-1.08-1.29-.48-.3-.99-.45-1.53-.45-.81 0-1.53.3-2.16.93-.66.63-1.02 1.5-1.14 2.64zM891.292 565.64c-1.38 1.05-2.25 1.68-2.61 1.83-.51.24-1.08.36-1.68.36-.93 0-1.68-.3-2.28-.93-.6-.66-.9-1.47-.9-2.52 0-.66.15-1.23.42-1.71.42-.66 1.11-1.29 2.1-1.86.99-.6 2.64-1.29 4.95-2.13v-.54c0-1.35-.21-2.25-.66-2.76-.42-.48-1.02-.75-1.83-.75-.63 0-1.11.18-1.47.51-.39.33-.57.72-.57 1.14l.03.84c0 .45-.12.81-.33 1.05-.24.24-.54.36-.9.36s-.66-.12-.9-.36c-.21-.27-.33-.6-.33-1.05 0-.84.42-1.62 1.29-2.31.84-.72 2.07-1.05 3.6-1.05 1.2 0 2.19.18 2.94.6.57.3.99.75 1.26 1.41.18.42.27 1.29.27 2.58v4.56c0 1.26.03 2.04.09 2.34.03.3.12.48.24.57.09.12.24.15.39.15.15 0 .27-.03.39-.09.21-.12.6-.48 1.2-1.08v.84c-1.11 1.44-2.13 2.19-3.15 2.19-.48 0-.84-.18-1.14-.51-.27-.33-.42-.9-.42-1.68zm0-.96v-5.13c-1.47.6-2.43 1.02-2.88 1.26-.75.42-1.32.87-1.65 1.35-.33.45-.48.99-.48 1.53 0 .72.21 1.29.63 1.74.42.48.9.72 1.44.72.75 0 1.71-.51 2.94-1.47zM900.888 549.74v4.41h3.15v1.02h-3.15v8.7c0 .87.12 1.44.39 1.77.24.3.57.45.96.45.3 0 .63-.12.93-.3.3-.21.54-.51.69-.9h.57c-.33.96-.81 1.68-1.44 2.16-.63.48-1.26.72-1.92.72-.45 0-.9-.12-1.32-.36-.45-.24-.75-.6-.96-1.08-.21-.45-.3-1.17-.3-2.13v-9.03h-2.13v-.48c.54-.21 1.08-.57 1.65-1.11.54-.51 1.05-1.11 1.5-1.8.21-.39.54-1.05.93-2.04h.45zM907.573 559.19c0 2.01.48 3.57 1.47 4.68.96 1.14 2.13 1.71 3.45 1.71.87 0 1.62-.24 2.28-.72.66-.48 1.2-1.32 1.62-2.49l.48.3c-.21 1.35-.81 2.55-1.8 3.66-.99 1.08-2.22 1.65-3.72 1.65-1.59 0-2.97-.63-4.14-1.89-1.14-1.26-1.71-2.94-1.71-5.07 0-2.28.6-4.08 1.77-5.37s2.64-1.92 4.44-1.92c1.5 0 2.73.51 3.69 1.5s1.47 2.31 1.47 3.96h-9.3zm0-.84h6.21c-.03-.87-.15-1.47-.3-1.83-.24-.54-.6-.96-1.08-1.29-.48-.3-.99-.45-1.53-.45-.81 0-1.53.3-2.16.93-.66.63-1.02 1.5-1.14 2.64zM922.568 553.76v3c1.14-2.01 2.28-3 3.45-3 .54 0 .99.15 1.35.48.33.33.51.69.51 1.14 0 .36-.12.69-.36.96-.27.27-.57.39-.93.39-.33 0-.72-.15-1.14-.51-.42-.33-.75-.51-.93-.51-.18 0-.39.12-.57.3-.45.42-.9 1.08-1.38 1.98v6.45c0 .72.09 1.29.27 1.68.15.24.36.48.69.66.33.15.78.24 1.38.24v.54h-6.87v-.54c.69 0 1.2-.09 1.53-.3.24-.18.42-.42.51-.75.06-.18.09-.66.09-1.44v-5.19c0-1.56-.06-2.49-.12-2.79-.06-.3-.18-.51-.33-.66-.18-.12-.39-.21-.66-.21-.3 0-.63.09-1.02.24l-.15-.54 4.08-1.62h.6zM852.322 581.016v4.41h3.15v1.02h-3.15v8.7c0 .87.12 1.44.39 1.77.24.3.57.45.96.45.3 0 .63-.12.93-.3.3-.21.54-.51.69-.9h.57c-.33.96-.81 1.68-1.44 2.16-.63.48-1.26.72-1.92.72-.45 0-.9-.12-1.32-.36-.45-.24-.75-.6-.96-1.08-.21-.45-.3-1.17-.3-2.13v-9.03h-2.13v-.48c.54-.21 1.08-.57 1.65-1.11.54-.51 1.05-1.11 1.5-1.8.21-.39.54-1.05.93-2.04h.45zM860.717 578.016v9.81c1.08-1.2 1.92-1.95 2.58-2.31a4.02 4.02 0 011.89-.48c.75 0 1.41.21 1.95.63.57.42.96 1.08 1.23 1.95.18.63.27 1.77.27 3.45v4.74c0 .84.09 1.44.21 1.74.09.24.27.42.51.57.21.12.66.18 1.29.18v.54h-6.6v-.54h.3c.63 0 1.05-.09 1.32-.27.24-.18.39-.48.51-.84.03-.15.03-.63.03-1.38v-4.74c0-1.47-.06-2.43-.21-2.88-.15-.48-.39-.81-.75-1.05-.33-.24-.72-.33-1.2-.33s-.96.12-1.47.36c-.54.27-1.14.78-1.86 1.56v7.08c0 .93.03 1.5.15 1.71.09.24.27.42.57.57.27.15.75.21 1.44.21v.54h-6.66v-.54c.6 0 1.08-.09 1.41-.27.21-.09.36-.27.48-.54.12-.3.18-.84.18-1.68v-12.15c0-1.53-.06-2.46-.12-2.82-.09-.36-.18-.6-.33-.72-.15-.12-.36-.18-.63-.18-.18 0-.54.06-.99.21l-.21-.51 4.02-1.62h.69zM879.377 596.916c-1.38 1.05-2.25 1.68-2.61 1.83-.51.24-1.08.36-1.68.36-.93 0-1.68-.3-2.28-.93-.6-.66-.9-1.47-.9-2.52 0-.66.15-1.23.42-1.71.42-.66 1.11-1.29 2.1-1.86.99-.6 2.64-1.29 4.95-2.13v-.54c0-1.35-.21-2.25-.66-2.76-.42-.48-1.02-.75-1.83-.75-.63 0-1.11.18-1.47.51-.39.33-.57.72-.57 1.14l.03.84c0 .45-.12.81-.33 1.05-.24.24-.54.36-.9.36s-.66-.12-.9-.36c-.21-.27-.33-.6-.33-1.05 0-.84.42-1.62 1.29-2.31.84-.72 2.07-1.05 3.6-1.05 1.2 0 2.19.18 2.94.6.57.3.99.75 1.26 1.41.18.42.27 1.29.27 2.58v4.56c0 1.26.03 2.04.09 2.34.03.3.12.48.24.57.09.12.24.15.39.15.15 0 .27-.03.39-.09.21-.12.6-.48 1.2-1.08v.84c-1.11 1.44-2.13 2.19-3.15 2.19-.48 0-.84-.18-1.14-.51-.27-.33-.42-.9-.42-1.68zm0-.96v-5.13c-1.47.6-2.43 1.02-2.88 1.26-.75.42-1.32.87-1.65 1.35-.33.45-.48.99-.48 1.53 0 .72.21 1.29.63 1.74.42.48.9.72 1.44.72.75 0 1.71-.51 2.94-1.47zM889.003 587.856c1.56-1.89 3.06-2.82 4.5-2.82.72 0 1.35.18 1.89.54.51.36.93.96 1.26 1.8.21.6.3 1.5.3 2.7v5.73c0 .84.09 1.41.21 1.74.12.24.27.42.51.57.24.12.69.18 1.35.18v.54h-6.66v-.54h.3c.63 0 1.05-.09 1.29-.27.27-.18.42-.48.54-.84.03-.15.06-.6.06-1.38v-5.49c0-1.23-.18-2.1-.48-2.67-.33-.54-.87-.81-1.62-.81-1.14 0-2.31.63-3.45 1.89v7.08c0 .9.03 1.47.15 1.68.15.3.33.48.57.63.24.12.72.18 1.44.18v.54h-6.63v-.54h.3c.69 0 1.14-.15 1.38-.51.24-.33.36-1.02.36-1.98v-4.98c0-1.62-.03-2.61-.12-2.94-.06-.36-.18-.6-.33-.72a.966.966 0 00-.6-.21c-.27 0-.6.09-.99.24l-.21-.54 4.05-1.62h.63v2.82zM915.763 599.136c-2.01 0-3.6-.57-4.77-1.68-1.2-1.11-1.8-2.67-1.8-4.62v-4.5c0-1.95.6-3.51 1.8-4.62 1.17-1.11 2.76-1.68 4.77-1.68 1.89 0 3.42.51 4.59 1.53s1.77 2.4 1.83 4.17h-2.7c-.06-1.05-.42-1.89-1.05-2.46-.66-.54-1.56-.84-2.67-.84-1.17 0-2.13.33-2.82.99-.69.69-1.05 1.65-1.05 2.88v4.53c0 1.23.36 2.19 1.05 2.88.69.69 1.65 1.02 2.82 1.02 1.11 0 2.01-.3 2.67-.87.63-.57.99-1.38 1.05-2.43h2.7c-.06 1.77-.66 3.15-1.83 4.17s-2.7 1.53-4.59 1.53z"
                fill="#b12e1e" fill-rule="nonzero" />
        </g>
    </g>
</svg>