<svg width="477" height="548" xmlns="http://www.w3.org/2000/svg" xmlns:xlink="http://www.w3.org/1999/xlink" overflow="hidden"><defs><clipPath id="clip0"><path d="M73 69 550 69 550 617 73 617Z" fill-rule="evenodd" clip-rule="evenodd"/></clipPath><clipPath id="clip1"><path d="M326 352 408 352 408 554 326 554Z" fill-rule="evenodd" clip-rule="evenodd"/></clipPath><clipPath id="clip2"><path d="M326 481 408 481 408 684 326 684Z" fill-rule="evenodd" clip-rule="evenodd"/></clipPath></defs><g clip-path="url(#clip0)" transform="translate(-73 -69)"><path d="M85.9574 239.934 167.538 239.934" stroke="#000000" stroke-width="1.33333" stroke-linejoin="round" stroke-miterlimit="10" fill="none" fill-rule="evenodd"/><path d="M86.624 109.779 86.624 305.345" stroke="#000000" stroke-width="1.33333" stroke-linejoin="round" stroke-miterlimit="10" fill="none" fill-rule="evenodd"/><path d="M166.872 109.779 166.872 305.345" stroke="#000000" stroke-width="1.33333" stroke-linejoin="round" stroke-miterlimit="10" fill="none" fill-rule="evenodd"/><path d="M85.9574 110.446 167.538 110.446" stroke="#000000" stroke-width="1.33333" stroke-linejoin="round" stroke-miterlimit="10" fill="none" fill-rule="evenodd"/><path d="M85.9574 304.678 167.538 304.678" stroke="#000000" stroke-width="1.33333" stroke-linejoin="round" stroke-miterlimit="10" fill="none" fill-rule="evenodd"/><text font-family="Sarasa Mono T SC,Sarasa Mono T SC_MSFontService,sans-serif" font-weight="400" font-size="21" transform="translate(105.415 170)">对象<tspan x="0" y="26">开销</tspan><tspan font-size="24" x="-2.66667" y="111">root</tspan></text><path d="M326.329 291.283 407.911 291.283" stroke="#000000" stroke-width="1.33333" stroke-linejoin="round" stroke-miterlimit="10" fill="none" fill-rule="evenodd"/><path d="M326.329 356.027 407.911 356.027" stroke="#000000" stroke-width="1.33333" stroke-linejoin="round" stroke-miterlimit="10" fill="none" fill-rule="evenodd"/><path d="M326.329 420.771 407.911 420.771" stroke="#000000" stroke-width="1.33333" stroke-linejoin="round" stroke-miterlimit="10" fill="none" fill-rule="evenodd"/><path d="M326.329 485.516 407.911 485.516" stroke="#000000" stroke-width="1.33333" stroke-linejoin="round" stroke-miterlimit="10" fill="none" fill-rule="evenodd"/><path d="M326.329 550.26 407.911 550.26" stroke="#000000" stroke-width="1.33333" stroke-linejoin="round" stroke-miterlimit="10" fill="none" fill-rule="evenodd"/><path d="M326.996 161.128 326.996 615.67" stroke="#000000" stroke-width="1.33333" stroke-linejoin="round" stroke-miterlimit="10" fill="none" fill-rule="evenodd"/><path d="M407.244 161.128 407.244 615.67" stroke="#000000" stroke-width="1.33333" stroke-linejoin="round" stroke-miterlimit="10" fill="none" fill-rule="evenodd"/><path d="M326.329 161.795 407.911 161.795" stroke="#000000" stroke-width="1.33333" stroke-linejoin="round" stroke-miterlimit="10" fill="none" fill-rule="evenodd"/><path d="M326.329 615.004 407.911 615.004" stroke="#000000" stroke-width="1.33333" stroke-linejoin="round" stroke-miterlimit="10" fill="none" fill-rule="evenodd"/><text font-family="Sarasa Mono T SC,Sarasa Mono T SC_MSFontService,sans-serif" font-weight="400" font-size="21" transform="translate(345.787 221)">对象<tspan x="0" y="26">开销</tspan><tspan x="0" y="97">额外</tspan><tspan x="0" y="123">开销</tspan><tspan font-size="24" x="-2.66669" y="176">left</tspan></text><g clip-path="url(#clip1)"><text font-family="Sarasa Mono T SC,Sarasa Mono T SC_MSFontService,sans-serif" font-weight="400" font-size="24" transform="translate(337.12 462)">right</text></g><text font-family="Sarasa Mono T SC,Sarasa Mono T SC_MSFontService,sans-serif" font-weight="400" font-size="24" transform="translate(349.12 526)">key</text><g clip-path="url(#clip2)"><text font-family="Sarasa Mono T SC,Sarasa Mono T SC_MSFontService,sans-serif" font-weight="400" font-size="24" transform="translate(337.12 591)">value</text></g><path d="M0.857823-1.2305 154.83 106.108 153.114 108.569-0.857823 1.2305ZM155.315 102.789 160.124 111.628 150.168 110.172Z" fill="#262626" transform="matrix(1 0 0 -1 167.5 274.128)"/><text font-family="Sarasa Mono T SC,Sarasa Mono T SC_MSFontService,sans-serif" font-weight="400" font-size="21" transform="translate(328.782 148)">Node<tspan x="-242.605" y="-52">BST&lt;String, Integer&gt;</tspan></text><path d="M1.0074-1.11138 68.2066 59.8007 66.1918 62.0235-1.0074 1.11138ZM69.1101 56.5706 72.7561 65.9491 63.0657 63.2388Z" transform="matrix(1 0 0 -1 407.5 388.449)"/><path d="M408.478 455.362 475.545 512.982 473.59 515.258 406.523 457.638ZM476.362 509.729 480.256 519.007 470.497 516.556Z"/><text font-family="Sarasa Mono T SC,Sarasa Mono T SC_MSFontService,sans-serif" font-weight="400" font-size="21" transform="translate(489.6 329)">…<tspan x="0" y="197">…</tspan></text></g></svg>