<svg viewBox="0 0 1024 768" xmlns="http://www.w3.org/2000/svg" fill-rule="evenodd" clip-rule="evenodd"
    stroke-linecap="round" stroke-linejoin="round" stroke-miterlimit="1.5">
    <path d="M438.476 309.763l179.747-52.55" fill="none" stroke="#000" stroke-width="3.9991276000000004" />
    <path d="M280.408 181.088l216.149-65.461" fill="none" stroke="#000" stroke-width="4.61"
        transform="matrix(-1.02315 -.06245 .06245 .8278 1163.55 192.509)" />
    <path d="M334.66 468.938l67.39-102.721M166.742 485.575l202.504-126.243M533.05 471.638l-58.506-104.612" fill="none"
        stroke="#000" stroke-width="4.003194" />
    <g transform="translate(326.858 130.997) scale(.70108)">
        <circle cx="447.581" cy="153.572" r="41.223" fill="none" />
        <clipPath id="prefix__a">
            <circle cx="447.581" cy="153.572" r="41.223" />
        </clipPath>
        <g clip-path="url(#prefix__a)">
            <path
                d="M445.614 174.08c-3.048 0-5.487-.998-7.316-3.05-1.884-2.05-2.827-4.766-2.827-8.258v-8.923c0-3.492.943-6.263 2.772-8.314 1.829-2.05 4.323-3.048 7.371-3.048 2.273 0 4.157.554 5.654 1.718 1.496 1.164 2.328 2.716 2.605 4.656h.166l-.11-6.929v-8.868h4.987v40.46h-4.988v-5.819h-.055c-.277 1.996-1.109 3.547-2.605 4.656-1.497 1.164-3.381 1.718-5.654 1.718zm1.663-4.324c2.05 0 3.714-.665 4.878-1.94 1.163-1.275 1.773-3.104 1.773-5.376v-8.314c0-2.272-.61-4.102-1.773-5.376-1.164-1.275-2.827-1.94-4.878-1.94-2.106 0-3.769.61-4.988 1.884-1.22 1.275-1.83 3.049-1.83 5.432v8.314c0 2.383.61 4.157 1.83 5.432 1.22 1.274 2.882 1.884 4.988 1.884z"
                fill-rule="nonzero" />
        </g>
        <circle cx="447.581" cy="153.572" r="41.223" fill="none" stroke="#000" stroke-width="5.71" />
    </g>
    <path d="M115.268 524.044L90.62 571.098" fill="none" stroke="#000" stroke-width="6.71" stroke-linecap="square"
        transform="matrix(-.70498 -.05375 -.17913 .62828 1147.672 304.179)" />
    <path d="M115.268 524.044L90.62 571.098" fill="none" stroke="#000" stroke-width="6.71" stroke-linecap="square"
        transform="matrix(.70482 -.05322 .17942 .62727 690.56 303.433)" />
    <path d="M115.268 524.044L90.62 571.098" fill="none" stroke="#000" stroke-width="6.84" stroke-linecap="square"
        transform="matrix(.67814 -.1865 .29648 .53252 641.826 370.994)" />
    <circle cx="154.775" cy="556.848" r="2.753" transform="matrix(.7421 0 0 .80954 776.15 195.4)" />
    <circle cx="154.775" cy="556.848" r="2.753" transform="matrix(.7421 0 0 .80954 804.919 195.4)" />
    <circle cx="154.775" cy="556.848" r="2.753" transform="matrix(.7421 0 0 .80954 790.534 195.4)" />
    <path
        d="M262.068 522.986c5.231-10.996 32.382-19.056 64.195-19.056 31.814 0 58.965 8.06 64.196 19.056l63.987 134.517c3.145 6.613-2.171 13.375-14.537 18.491-12.366 5.115-30.528 8.064-49.659 8.064H262.276c-19.131 0-37.293-2.949-49.658-8.064-12.366-5.116-17.683-11.878-14.537-18.491l63.987-134.517z"
        fill="none" stroke="#bababa" stroke-width="3.04" transform="matrix(.61462 0 0 1.75394 720.247 -572.582)" />
    <g>
        <path
            d="M890.544 587.904a3.625 3.625 0 01-1.53-1.36 3.52 3.52 0 01-.534-1.919c0-1.092.412-2.015 1.214-2.792.801-.753 1.846-1.142 3.108-1.142 1.045 0 1.943.243 2.696.753h2.307c.34 0 .535 0 .583.024.049.025.097.049.122.097.048.073.073.195.073.389s-.025.34-.073.413c0 .048-.049.073-.122.097-.048.024-.243.049-.583.049h-1.408c.437.558.656 1.287.656 2.185 0 .996-.39 1.87-1.166 2.599-.777.704-1.822 1.068-3.109 1.068a5.669 5.669 0 01-1.651-.242c-.365.315-.583.558-.705.801-.121.219-.194.413-.194.559 0 .145.073.267.194.388.146.146.389.219.778.292.218.024.777.048 1.651.072 1.627.05 2.696.098 3.157.17.753.098 1.336.365 1.773.826.437.437.656.972.656 1.627 0 .899-.413 1.725-1.263 2.526-1.214 1.142-2.842 1.724-4.809 1.724-1.53 0-2.817-.34-3.885-1.044-.583-.388-.875-.801-.875-1.214 0-.194.049-.389.122-.583.145-.291.413-.704.825-1.214.073-.073.462-.51 1.215-1.287-.413-.243-.705-.462-.875-.656a.957.957 0 01-.242-.656c0-.267.097-.607.34-.971.218-.365.728-.899 1.554-1.579zm2.064-6.654c-.583 0-1.068.243-1.481.704-.389.461-.583 1.166-.583 2.137 0 1.263.267 2.21.801 2.914.413.51.923.778 1.579.778.583 0 1.093-.219 1.481-.68.389-.438.559-1.142.559-2.113 0-1.263-.267-2.235-.802-2.963-.412-.51-.922-.777-1.554-.777zm-2.186 10.613c-.364.413-.655.777-.85 1.117-.17.364-.267.68-.267.971 0 .389.219.705.68.996.777.486 1.943.729 3.425.729 1.432 0 2.477-.243 3.157-.753.68-.486.996-1.045.996-1.603 0-.413-.195-.704-.583-.874-.413-.17-1.239-.268-2.453-.316-1.773-.049-3.157-.122-4.105-.267zM902.954 580.691v2.429c.923-1.627 1.846-2.429 2.793-2.429.437 0 .801.121 1.093.389.267.267.413.558.413.923 0 .29-.098.558-.292.777a1.01 1.01 0 01-.753.315c-.267 0-.583-.121-.923-.412-.34-.268-.607-.413-.752-.413-.146 0-.316.097-.462.243-.364.34-.728.874-1.117 1.602v5.222c0 .583.073 1.044.219 1.36.121.194.291.388.558.534.267.122.632.195 1.117.195v.437h-5.561v-.437c.558 0 .971-.073 1.238-.243.195-.146.34-.34.413-.608.049-.145.073-.534.073-1.165v-4.202c0-1.263-.048-2.015-.097-2.258a1.01 1.01 0 00-.267-.535.933.933 0 00-.534-.17c-.243 0-.51.073-.826.195l-.122-.437 3.303-1.312h.486zM909.681 585.087c0 1.627.389 2.89 1.19 3.788.777.923 1.725 1.385 2.793 1.385.704 0 1.312-.195 1.846-.583.534-.389.971-1.069 1.311-2.016l.389.243c-.17 1.093-.656 2.064-1.457 2.963-.802.874-1.797 1.336-3.012 1.336-1.287 0-2.404-.51-3.351-1.53-.923-1.02-1.384-2.38-1.384-4.105 0-1.845.485-3.303 1.432-4.347.948-1.044 2.138-1.554 3.595-1.554 1.214 0 2.21.413 2.987 1.214.777.802 1.19 1.87 1.19 3.206h-7.529zm0-.68h5.027c-.024-.704-.121-1.19-.242-1.482a2.444 2.444 0 00-.875-1.044 2.298 2.298 0 00-1.238-.364c-.656 0-1.239.243-1.749.753-.534.51-.826 1.214-.923 2.137zM924.808 590.308c-1.117.85-1.821 1.36-2.113 1.482a3.18 3.18 0 01-1.36.291c-.753 0-1.36-.243-1.845-.753-.486-.534-.729-1.19-.729-2.04 0-.534.121-.995.34-1.384.34-.534.899-1.044 1.7-1.506.801-.485 2.137-1.044 4.007-1.724v-.437c0-1.093-.17-1.822-.534-2.234-.34-.39-.826-.608-1.482-.608-.51 0-.898.146-1.19.413-.315.267-.461.583-.461.923l.024.68c0 .364-.097.656-.267.85a.989.989 0 01-.728.292.989.989 0 01-.729-.292c-.17-.218-.267-.486-.267-.85 0-.68.34-1.311 1.044-1.87.68-.583 1.676-.85 2.914-.85.972 0 1.773.146 2.38.486a2.15 2.15 0 011.02 1.141c.146.34.22 1.045.22 2.089v3.691c0 1.02.023 1.652.072 1.895.024.242.097.388.194.461.073.097.195.121.316.121a.672.672 0 00.316-.072c.17-.098.485-.389.971-.875v.68c-.898 1.166-1.724 1.773-2.55 1.773a1.18 1.18 0 01-.923-.413c-.218-.267-.34-.728-.34-1.36zm0-.777v-4.153c-1.19.486-1.967.826-2.331 1.02-.607.34-1.069.705-1.336 1.093a2.082 2.082 0 00-.389 1.239c0 .583.17 1.044.51 1.408.34.389.729.583 1.166.583.607 0 1.384-.413 2.38-1.19zM932.576 577.437v3.57h2.55v.826h-2.55v7.042c0 .705.097 1.166.315 1.433a.956.956 0 00.778.365c.242 0 .51-.098.752-.243.243-.17.438-.413.559-.729h.461c-.267.777-.655 1.36-1.165 1.749-.51.388-1.02.583-1.555.583-.364 0-.728-.097-1.068-.292-.364-.194-.607-.485-.777-.874-.17-.364-.243-.947-.243-1.724v-7.31h-1.725v-.39c.438-.17.875-.46 1.336-.898.437-.413.85-.898 1.215-1.457.17-.316.437-.85.752-1.651h.365zM937.987 585.087c0 1.627.389 2.89 1.19 3.788.778.923 1.725 1.385 2.793 1.385.705 0 1.312-.195 1.846-.583.534-.389.972-1.069 1.312-2.016l.388.243c-.17 1.093-.656 2.064-1.457 2.963-.802.874-1.797 1.336-3.012 1.336-1.287 0-2.404-.51-3.351-1.53-.923-1.02-1.384-2.38-1.384-4.105 0-1.845.485-3.303 1.433-4.347.947-1.044 2.137-1.554 3.594-1.554 1.214 0 2.21.413 2.987 1.214.777.802 1.19 1.87 1.19 3.206h-7.529zm0-.68h5.028c-.025-.704-.122-1.19-.243-1.482a2.444 2.444 0 00-.875-1.044 2.298 2.298 0 00-1.238-.364c-.656 0-1.239.243-1.749.753-.534.51-.825 1.214-.923 2.137zM950.127 580.691v2.429c.923-1.627 1.846-2.429 2.793-2.429.437 0 .802.121 1.093.389.267.267.413.558.413.923 0 .29-.097.558-.292.777a1.01 1.01 0 01-.752.315c-.268 0-.583-.121-.923-.412-.34-.268-.607-.413-.753-.413-.146 0-.316.097-.462.243-.364.34-.728.874-1.117 1.602v5.222c0 .583.073 1.044.219 1.36.121.194.291.388.558.534.268.122.632.195 1.118.195v.437h-5.562v-.437c.559 0 .971-.073 1.239-.243.194-.146.34-.34.412-.608.049-.145.073-.534.073-1.165v-4.202c0-1.263-.048-2.015-.097-2.258a1.01 1.01 0 00-.267-.535.933.933 0 00-.534-.17c-.243 0-.51.073-.826.195l-.121-.437 3.302-1.312h.486zM893.26 602.755v3.57h2.55v.826h-2.55v7.043c0 .704.098 1.165.316 1.433a.956.956 0 00.778.364c.242 0 .51-.097.752-.243.243-.17.438-.413.559-.729h.461c-.267.778-.655 1.36-1.165 1.749s-1.02.583-1.555.583c-.364 0-.728-.097-1.068-.292-.365-.194-.607-.485-.777-.874-.17-.364-.243-.947-.243-1.724v-7.31h-1.725v-.389c.438-.17.875-.461 1.336-.898.437-.413.85-.899 1.214-1.458.17-.315.438-.85.753-1.651h.365zM900.057 600.326v7.942c.874-.972 1.554-1.579 2.088-1.87a3.254 3.254 0 011.53-.389c.607 0 1.142.17 1.579.51.461.34.777.875.996 1.579.145.51.218 1.433.218 2.793v3.837c0 .68.073 1.166.17 1.409.073.194.219.34.413.461.17.097.534.146 1.044.146v.437h-5.343v-.437h.243c.51 0 .85-.073 1.069-.219.194-.146.316-.388.413-.68.024-.121.024-.51.024-1.117v-3.837c0-1.19-.049-1.967-.17-2.332-.121-.388-.316-.655-.607-.85-.267-.194-.583-.267-.972-.267-.388 0-.777.097-1.19.292-.437.218-.922.631-1.505 1.262v5.732c0 .753.024 1.214.121 1.384.073.195.219.34.462.462.218.121.607.17 1.165.17v.437h-5.391v-.437c.486 0 .874-.073 1.141-.219.17-.073.292-.218.389-.437.097-.243.146-.68.146-1.36v-9.836c0-1.238-.049-1.991-.098-2.283-.072-.291-.145-.485-.267-.583-.121-.097-.291-.145-.51-.145-.145 0-.437.048-.801.17l-.17-.413 3.254-1.312h.559zM915.163 615.627c-1.118.85-1.822 1.36-2.113 1.481a3.18 3.18 0 01-1.36.291c-.753 0-1.36-.242-1.846-.752-.486-.535-.729-1.19-.729-2.04 0-.535.122-.996.34-1.385.34-.534.899-1.044 1.7-1.506.802-.485 2.138-1.044 4.008-1.724v-.437c0-1.093-.17-1.821-.535-2.234-.34-.389-.825-.607-1.481-.607-.51 0-.899.145-1.19.412-.316.268-.462.583-.462.923l.025.68c0 .365-.097.656-.267.85a.989.989 0 01-.729.292.989.989 0 01-.729-.292c-.17-.218-.267-.485-.267-.85 0-.68.34-1.311 1.045-1.87.68-.583 1.675-.85 2.914-.85.971 0 1.773.146 2.38.486a2.15 2.15 0 011.02 1.141c.146.34.218 1.045.218 2.089v3.692c0 1.02.025 1.651.073 1.894.025.243.097.388.195.461.072.097.194.122.315.122a.672.672 0 00.316-.073c.17-.097.486-.389.972-.874v.68c-.9 1.165-1.725 1.772-2.55 1.772a1.18 1.18 0 01-.923-.412c-.219-.268-.34-.729-.34-1.36zm0-.778v-4.153c-1.19.486-1.968.826-2.332 1.02-.607.34-1.068.705-1.336 1.093a2.082 2.082 0 00-.388 1.239c0 .583.17 1.044.51 1.409.34.388.728.582 1.166.582.607 0 1.384-.412 2.38-1.19zM922.954 608.292c1.263-1.53 2.478-2.283 3.643-2.283.583 0 1.093.146 1.53.437.413.292.753.778 1.02 1.458.17.485.243 1.214.243 2.185v4.639c0 .68.073 1.141.17 1.409.097.194.219.34.413.461.194.097.559.146 1.093.146v.437h-5.392v-.437h.243c.51 0 .85-.073 1.045-.219.218-.146.34-.388.437-.68.024-.121.048-.486.048-1.117v-4.444c0-.996-.145-1.7-.388-2.162-.267-.437-.705-.656-1.312-.656-.923 0-1.87.51-2.793 1.53v5.732c0 .729.025 1.19.122 1.36.121.243.267.389.461.51.195.097.583.146 1.166.146v.437h-5.367v-.437h.243c.558 0 .922-.122 1.117-.413.194-.267.291-.826.291-1.603v-4.032c0-1.311-.024-2.112-.097-2.38-.049-.291-.146-.485-.267-.582a.782.782 0 00-.486-.17c-.218 0-.486.072-.801.194l-.17-.437 3.278-1.312h.51v2.283zM943.743 617.424c-1.336 0-2.404-.437-3.206-1.336-.825-.899-1.238-2.089-1.238-3.619v-3.91c0-1.53.413-2.744 1.214-3.643.802-.898 1.894-1.335 3.23-1.335.996 0 1.822.243 2.477.753.656.51 1.02 1.19 1.142 2.04h.073l-.049-3.036v-3.886h2.186v17.729h-2.186v-2.55h-.024c-.122.874-.486 1.554-1.142 2.04-.655.51-1.481.753-2.477.753zm.729-1.895c.898 0 1.627-.291 2.137-.85.51-.558.777-1.36.777-2.355v-3.643c0-.996-.267-1.797-.777-2.356-.51-.559-1.239-.85-2.137-.85-.923 0-1.652.267-2.186.826-.534.558-.801 1.335-.801 2.38v3.643c0 1.044.267 1.821.801 2.38.534.558 1.263.825 2.186.825z"
            fill="#b12e1e" fill-rule="nonzero" />
    </g>
    <g transform="matrix(.35808 0 0 .6923 258.735 209.916)">
        <path
            d="M731.429 185.017c0-23.045-36.172-41.755-80.726-41.755H357.747c-44.554 0-80.726 18.71-80.726 41.755s36.172 41.755 80.726 41.755h292.956c44.554 0 80.726-18.71 80.726-41.755z"
            fill="#fff" />
        <clipPath id="prefix__b">
            <path
                d="M731.429 185.017c0-23.045-36.172-41.755-80.726-41.755H357.747c-44.554 0-80.726 18.71-80.726 41.755s36.172 41.755 80.726 41.755h292.956c44.554 0 80.726-18.71 80.726-41.755z" />
        </clipPath>
        <g clip-path="url(#prefix__b)">
            <path
                d="M369.718 205.784c-6.294 0-11.286-.842-14.867-2.526-3.58-1.628-5.425-3.873-5.425-6.736 0-2.862 1.844-5.164 5.425-6.791 3.581-1.628 8.465-2.47 14.65-2.47h18.448v-3.087c0-1.852-1.086-3.312-3.256-4.378-2.279-1.067-5.317-1.572-9.224-1.572-3.472 0-6.402.393-8.79 1.179-2.387.786-3.906 1.796-4.449 3.087h-9.766c.326-1.74 1.628-3.255 3.69-4.546 2.061-1.291 4.774-2.358 8.138-3.087 3.364-.73 7.054-1.067 11.177-1.067 6.837 0 12.263.898 16.278 2.75 4.015 1.853 5.968 4.322 5.968 7.466v21.216h-9.55v-5.893h-.108c-.434 1.964-2.279 3.536-5.534 4.715-3.364 1.178-7.596 1.74-12.805 1.74zm2.387-3.986c4.666 0 8.465-.617 11.394-1.796 2.93-1.178 4.45-2.75 4.45-4.602v-4.378h-18.231c-3.256 0-5.86.449-7.705 1.403-1.844.954-2.821 2.189-2.821 3.817 0 1.74 1.194 3.087 3.472 4.097 2.17.954 5.426 1.46 9.441 1.46zM508.618 205.784c-4.45 0-8.139-.562-11.069-1.74-2.93-1.123-4.557-2.695-5.1-4.715h-.108v5.893h-9.767v-40.974h9.767v8.98l-.218 7.017h.326c.543-1.965 2.17-3.536 5.1-4.715 2.93-1.179 6.62-1.74 11.069-1.74 5.968 0 10.851 1.01 14.432 3.087 3.581 2.077 5.426 4.883 5.426 8.42v9.036c0 3.536-1.845 6.287-5.426 8.363-3.58 2.077-8.464 3.088-14.432 3.088zm-3.256-4.379c4.124 0 7.38-.617 9.767-1.908 2.387-1.29 3.58-3.087 3.58-5.5v-8.42c0-2.413-1.193-4.21-3.58-5.5-2.388-1.291-5.643-1.909-9.767-1.909-4.015 0-7.162.674-9.44 1.965-2.388 1.29-3.581 3.143-3.581 5.444v8.42c0 2.3 1.193 4.153 3.58 5.444 2.28 1.29 5.426 1.964 9.441 1.964zM635.798 205.784c-7.27 0-13.022-1.067-17.254-3.144-4.34-2.076-6.51-4.995-6.51-8.644v-8.419c0-3.648 2.17-6.567 6.51-8.644 4.232-2.076 9.983-3.143 17.254-3.143 6.836 0 12.37.954 16.603 2.863 4.232 1.908 6.402 4.49 6.62 7.802h-9.767c-.217-1.965-1.52-3.537-3.798-4.603-2.387-1.01-5.643-1.572-9.658-1.572-4.232 0-7.705.618-10.2 1.853-2.496 1.29-3.798 3.087-3.798 5.388v8.475c0 2.302 1.302 4.098 3.798 5.389 2.495 1.29 5.968 1.908 10.2 1.908 4.015 0 7.27-.561 9.658-1.628 2.279-1.066 3.58-2.581 3.798-4.546h9.766c-.217 3.312-2.387 5.894-6.62 7.802-4.231 1.908-9.766 2.863-16.602 2.863z"
                fill-rule="nonzero" />
        </g>
        <path
            d="M731.429 185.017c0-23.045-36.172-41.755-80.726-41.755H357.747c-44.554 0-80.726 18.71-80.726 41.755s36.172 41.755 80.726 41.755h292.956c44.554 0 80.726-18.71 80.726-41.755z"
            fill="none" stroke="#000" stroke-width="7.26" />
    </g>
    <g>
        <path d="M115.268 524.044L90.62 571.098" fill="none" stroke="#000" stroke-width="6.3" stroke-linecap="square"
            transform="matrix(.76888 -.05322 .19573 .62727 84.74 303.168)" />
        <path d="M115.268 524.044L90.62 571.098" fill="none" stroke="#000" stroke-width="6.3" stroke-linecap="square"
            transform="matrix(-.76905 -.05375 -.1954 .62828 584.7 302.48)" />
        <path d="M115.268 524.044L90.62 571.098" fill="none" stroke="#000" stroke-width="6.32" stroke-linecap="square"
            transform="matrix(.73977 -.1865 .32343 .53252 30.405 370.077)" />
        <circle cx="154.775" cy="556.848" r="2.753" transform="matrix(.80954 0 0 .80954 175.376 193.31)" />
        <circle cx="154.775" cy="556.848" r="2.753" transform="matrix(.80954 0 0 .80954 206.76 193.31)" />
        <circle cx="154.775" cy="556.848" r="2.753" transform="matrix(.80954 0 0 .80954 191.067 193.31)" />
        <g>
            <path
                d="M557.235 451.723c6.734-9.144 18.334-14.672 30.787-14.672 12.454 0 24.054 5.528 30.788 14.672l42.386 57.556c7.24 9.831 7.753 22.329 1.337 32.587-6.415 10.259-18.736 16.64-32.125 16.64h-84.771c-13.389 0-25.71-6.381-32.125-16.64-6.416-10.258-5.903-22.756 1.337-32.587l42.386-57.556z"
                fill="#fff" stroke="#c1c1c1" stroke-width="3.4"
                transform="matrix(1.09287 0 0 1.25195 -307.974 -75.026)" />
        </g>
        <g>
            <path
                d="M298.027 583.265c1.044-1.458 2.186-2.186 3.4-2.186 1.117 0 2.089.461 2.914 1.408.826.972 1.239 2.259 1.239 3.91 0 1.943-.632 3.498-1.919 4.663-1.093 1.02-2.307 1.53-3.667 1.53a5.92 5.92 0 01-1.918-.34 9.412 9.412 0 01-2.016-1.044v-11.244c0-1.239-.025-1.992-.073-2.283-.073-.292-.17-.486-.292-.583a.747.747 0 00-.461-.146c-.243 0-.51.049-.85.17l-.146-.413 3.255-1.311h.534v7.869zm0 .752v6.51c.389.388.826.68 1.239.898.437.194.874.291 1.335.291.705 0 1.385-.388 2.016-1.19.607-.777.923-1.943.923-3.449 0-1.384-.316-2.452-.923-3.205-.631-.753-1.336-1.117-2.137-1.117-.413 0-.826.097-1.239.315-.315.17-.728.486-1.214.947zM309.004 585.475c0 1.627.389 2.89 1.19 3.788.777.923 1.725 1.385 2.793 1.385.704 0 1.312-.195 1.846-.583.534-.389.971-1.069 1.311-2.016l.389.243c-.17 1.093-.656 2.064-1.457 2.963-.802.874-1.797 1.335-3.012 1.335-1.287 0-2.404-.51-3.351-1.53-.923-1.02-1.384-2.38-1.384-4.104 0-1.846.485-3.303 1.432-4.347.948-1.044 2.138-1.554 3.595-1.554 1.214 0 2.21.412 2.987 1.214.777.801 1.19 1.87 1.19 3.206h-7.529zm0-.68h5.027c-.024-.705-.121-1.19-.242-1.482a2.444 2.444 0 00-.875-1.044 2.298 2.298 0 00-1.238-.364c-.656 0-1.239.242-1.749.752-.534.51-.826 1.215-.923 2.138zM321.12 577.824v3.57h2.55v.826h-2.55v7.043c0 .705.097 1.166.315 1.433a.956.956 0 00.778.364c.242 0 .51-.097.752-.242.243-.17.438-.413.56-.73h.46c-.267.778-.655 1.361-1.165 1.75-.51.388-1.02.582-1.555.582-.364 0-.728-.097-1.068-.291-.364-.194-.607-.486-.777-.874-.17-.365-.243-.947-.243-1.725v-7.31h-1.724v-.388c.437-.17.874-.462 1.335-.899.437-.413.85-.898 1.215-1.457.17-.316.437-.85.752-1.652h.365zM324.103 581.395h4.566v.437c-.413.024-.705.097-.826.218a.696.696 0 00-.194.51c0 .243.072.535.194.899l2.331 6.241 2.332-5.075-.607-1.603c-.195-.486-.437-.802-.753-.996-.17-.097-.51-.17-.972-.194v-.437h5.173v.437c-.583.024-.971.121-1.214.291-.17.146-.243.34-.243.607 0 .17.024.34.097.486l2.477 6.241 2.283-5.998c.146-.437.243-.777.243-1.02 0-.146-.097-.292-.243-.413-.145-.121-.461-.194-.898-.194v-.437h3.424v.437c-.68.097-1.19.558-1.53 1.384l-3.619 9.374h-.485l-2.72-6.945-3.157 6.945h-.438l-3.497-9.131c-.218-.583-.461-.972-.68-1.166-.218-.218-.558-.364-1.044-.461v-.437zM344.07 585.475c0 1.627.389 2.89 1.19 3.788.777.923 1.724 1.385 2.793 1.385.704 0 1.311-.195 1.846-.583.534-.389.971-1.069 1.311-2.016l.389.243c-.17 1.093-.656 2.064-1.457 2.963-.802.874-1.798 1.335-3.012 1.335-1.287 0-2.404-.51-3.351-1.53-.923-1.02-1.385-2.38-1.385-4.104 0-1.846.486-3.303 1.433-4.347.947-1.044 2.137-1.554 3.595-1.554 1.214 0 2.21.412 2.987 1.214.777.801 1.19 1.87 1.19 3.206h-7.529zm0-.68h5.027c-.024-.705-.121-1.19-.243-1.482a2.444 2.444 0 00-.874-1.044 2.298 2.298 0 00-1.238-.364c-.656 0-1.24.242-1.75.752-.533.51-.825 1.215-.922 2.138zM354.849 585.475c0 1.627.389 2.89 1.19 3.788.777.923 1.724 1.385 2.793 1.385.704 0 1.311-.195 1.846-.583.534-.389.971-1.069 1.311-2.016l.389.243c-.17 1.093-.656 2.064-1.457 2.963-.802.874-1.798 1.335-3.012 1.335-1.287 0-2.404-.51-3.351-1.53-.923-1.02-1.385-2.38-1.385-4.104 0-1.846.486-3.303 1.433-4.347.947-1.044 2.137-1.554 3.594-1.554 1.215 0 2.21.412 2.988 1.214.777.801 1.19 1.87 1.19 3.206h-7.529zm0-.68h5.027c-.024-.705-.121-1.19-.243-1.482a2.444 2.444 0 00-.874-1.044 2.298 2.298 0 00-1.239-.364c-.655 0-1.238.242-1.748.752-.534.51-.826 1.215-.923 2.138zM366.989 583.362c1.263-1.53 2.477-2.283 3.643-2.283.583 0 1.093.146 1.53.437.413.291.753.777 1.02 1.457.17.486.243 1.214.243 2.186v4.639c0 .68.072 1.14.17 1.408.097.194.218.34.412.462.195.097.56.145 1.093.145v.437h-5.391v-.437h.243c.51 0 .85-.073 1.044-.218.219-.146.34-.389.437-.68.024-.122.049-.486.049-1.117v-4.445c0-.996-.146-1.7-.389-2.161-.267-.437-.704-.656-1.311-.656-.923 0-1.87.51-2.793 1.53v5.732c0 .728.024 1.19.121 1.36.122.242.267.388.462.51.194.097.583.145 1.165.145v.437h-5.367v-.437h.243c.559 0 .923-.121 1.117-.413.194-.267.292-.825.292-1.602v-4.032c0-1.311-.025-2.113-.098-2.38-.048-.291-.145-.486-.267-.583a.782.782 0 00-.485-.17c-.219 0-.486.073-.802.194l-.17-.437 3.279-1.311h.51v2.283zM302.687 617.811c-1.409 0-2.526-.364-3.328-1.092-.801-.705-1.214-1.676-1.214-2.915 0-1.238.413-2.234 1.214-2.938.802-.705 1.895-1.069 3.28-1.069h4.128v-1.336c0-.801-.243-1.433-.729-1.894-.51-.461-1.19-.68-2.064-.68-.777 0-1.433.17-1.967.51-.535.34-.875.777-.996 1.336h-2.186a3.58 3.58 0 01.826-1.967 4.684 4.684 0 011.821-1.336c.753-.316 1.579-.462 2.502-.462 1.53 0 2.744.389 3.643 1.19.898.802 1.335 1.87 1.335 3.23v9.18h-2.137v-2.55h-.024c-.097.85-.51 1.53-1.239 2.04-.752.51-1.7.753-2.865.753zm.534-1.724c1.044 0 1.894-.267 2.55-.777.656-.51.996-1.19.996-1.991v-1.895h-4.08c-.729 0-1.312.195-1.725.607-.413.413-.631.948-.631 1.652 0 .753.267 1.336.777 1.773.486.413 1.214.631 2.113.631zM324.131 616.014c-1.117.85-1.821 1.36-2.113 1.482a3.18 3.18 0 01-1.36.291c-.753 0-1.36-.243-1.845-.753-.486-.534-.729-1.19-.729-2.04 0-.534.121-.995.34-1.384.34-.534.899-1.044 1.7-1.506.801-.485 2.137-1.044 4.007-1.724v-.437c0-1.093-.17-1.822-.534-2.235-.34-.388-.826-.607-1.482-.607-.51 0-.898.146-1.19.413-.315.267-.461.583-.461.923l.024.68c0 .364-.097.656-.267.85a.989.989 0 01-.728.291.989.989 0 01-.729-.29c-.17-.22-.267-.487-.267-.85 0-.681.34-1.312 1.044-1.871.68-.583 1.676-.85 2.914-.85.972 0 1.773.146 2.38.486a2.15 2.15 0 011.02 1.141c.146.34.22 1.044.22 2.089v3.691c0 1.02.023 1.652.072 1.895.024.242.097.388.194.461.073.097.195.121.316.121a.672.672 0 00.316-.072c.17-.098.485-.389.971-.875v.68c-.898 1.166-1.724 1.773-2.55 1.773a1.18 1.18 0 01-.923-.413c-.218-.267-.34-.728-.34-1.36zm0-.777v-4.153c-1.19.486-1.967.826-2.331 1.02-.607.34-1.069.705-1.336 1.093a2.082 2.082 0 00-.389 1.239c0 .583.17 1.044.51 1.408.34.389.729.583 1.166.583.607 0 1.384-.413 2.38-1.19zM331.923 608.68c1.263-1.53 2.477-2.283 3.643-2.283.583 0 1.093.146 1.53.437.413.292.753.777 1.02 1.457.17.486.243 1.215.243 2.186v4.639c0 .68.073 1.141.17 1.408.097.195.218.34.413.462.194.097.558.145 1.093.145v.438h-5.392v-.438h.243c.51 0 .85-.072 1.044-.218.219-.146.34-.389.437-.68.025-.122.049-.486.049-1.117v-4.445c0-.995-.146-1.7-.389-2.161-.267-.437-.704-.656-1.311-.656-.923 0-1.87.51-2.793 1.53v5.732c0 .728.024 1.19.121 1.36.122.243.268.388.462.51.194.097.583.145 1.166.145v.438h-5.368v-.438h.243c.559 0 .923-.121 1.117-.412.195-.268.292-.826.292-1.603v-4.032c0-1.311-.024-2.113-.097-2.38-.049-.291-.146-.486-.267-.583a.782.782 0 00-.486-.17c-.219 0-.486.073-.802.195l-.17-.438 3.279-1.311h.51v2.283zM348.559 616.354c-.534.535-1.044.947-1.554 1.19a3.712 3.712 0 01-1.628.365c-1.19 0-2.234-.51-3.108-1.506-.899-.972-1.336-2.259-1.336-3.813 0-1.554.486-2.987 1.482-4.274.971-1.288 2.234-1.943 3.788-1.943.947 0 1.724.315 2.356.923v-2.016c0-1.239-.024-1.992-.073-2.283-.073-.291-.17-.486-.291-.583a.747.747 0 00-.462-.146c-.218 0-.486.049-.826.17l-.17-.412 3.255-1.312h.534v12.556c0 1.263.024 2.04.073 2.331.073.268.17.462.291.583.122.097.292.17.462.17.218 0 .486-.073.85-.218l.121.413-3.205 1.36h-.56v-1.555zm0-.825v-5.61a4.057 4.057 0 00-.413-1.458 2.573 2.573 0 00-.947-1.02c-.389-.218-.777-.34-1.142-.34-.704 0-1.335.316-1.87.947-.728.826-1.068 2.016-1.068 3.595 0 1.603.34 2.817 1.044 3.667.68.85 1.457 1.287 2.307 1.287.729 0 1.409-.364 2.089-1.068zM366.41 617.811c-.997 0-1.822-.242-2.478-.752-.656-.486-1.02-1.166-1.141-2.04h-.025v2.55h-2.185v-17.73h2.185v3.887l-.048 3.035h.073c.121-.85.485-1.53 1.141-2.04s1.481-.753 2.477-.753c1.336 0 2.429.438 3.23 1.336.802.899 1.215 2.113 1.215 3.643v3.91c0 1.53-.413 2.72-1.215 3.619-.801.898-1.894 1.335-3.23 1.335zm-.73-1.894c.923 0 1.652-.267 2.186-.826.535-.558.802-1.335.802-2.38v-3.643c0-1.044-.267-1.821-.802-2.38-.534-.558-1.263-.825-2.185-.825-.899 0-1.603.291-2.113.85-.535.558-.802 1.36-.802 2.355v3.643c0 .996.267 1.798.802 2.356.51.559 1.214.85 2.113.85z"
                fill="#b12e1e" fill-rule="nonzero" />
        </g>
    </g>
    <g>
        <path d="M115.268 524.044L90.62 571.098" fill="none" stroke="#000" stroke-width="6.3" stroke-linecap="square"
            transform="matrix(.76888 -.05322 .19573 .62727 -113.652 303.168)" />
        <path d="M115.268 524.044L90.62 571.098" fill="none" stroke="#000" stroke-width="6.3" stroke-linecap="square"
            transform="matrix(-.76905 -.05375 -.1954 .62828 386.307 302.48)" />
        <path d="M115.268 524.044L90.62 571.098" fill="none" stroke="#000" stroke-width="6.32" stroke-linecap="square"
            transform="matrix(.73977 -.1865 .32343 .53252 -167.987 370.077)" />
        <circle cx="154.775" cy="556.848" r="2.753" transform="matrix(.80954 0 0 .80954 -23.016 193.31)" />
        <circle cx="154.775" cy="556.848" r="2.753" transform="matrix(.80954 0 0 .80954 8.367 193.31)" />
        <circle cx="154.775" cy="556.848" r="2.753" transform="matrix(.80954 0 0 .80954 -7.324 193.31)" />
        <g>
            <path
                d="M557.235 451.723c6.734-9.144 18.334-14.672 30.787-14.672 12.454 0 24.054 5.528 30.788 14.672l42.386 57.556c7.24 9.831 7.753 22.329 1.337 32.587-6.415 10.259-18.736 16.64-32.125 16.64h-84.771c-13.389 0-25.71-6.381-32.125-16.64-6.416-10.258-5.903-22.756 1.337-32.587l42.386-57.556z"
                fill="#fff" stroke="#c1c1c1" stroke-width="3.4"
                transform="matrix(1.09287 0 0 1.25195 -506.366 -75.026)" />
        </g>
        <g>
            <path
                d="M123.52 575.396v14.402c0 .68.05 1.117.146 1.36a.904.904 0 00.462.485c.194.122.583.17 1.141.17v.437h-5.318v-.437c.51 0 .85-.048 1.02-.145.194-.098.315-.268.437-.51.097-.243.145-.68.145-1.36v-9.86c0-1.24-.024-1.992-.072-2.26-.073-.29-.146-.485-.268-.582a.77.77 0 00-.485-.146c-.195 0-.462.049-.777.17l-.195-.413 3.23-1.311h.535zM128.349 585.475c0 1.627.388 2.89 1.19 3.788.777.923 1.724 1.385 2.793 1.385.704 0 1.311-.195 1.845-.583.535-.389.972-1.069 1.312-2.016l.388.243c-.17 1.093-.655 2.064-1.457 2.963-.801.874-1.797 1.335-3.011 1.335-1.287 0-2.405-.51-3.352-1.53-.923-1.02-1.384-2.38-1.384-4.104 0-1.846.486-3.303 1.433-4.347.947-1.044 2.137-1.554 3.594-1.554 1.214 0 2.21.412 2.987 1.214.777.801 1.19 1.87 1.19 3.206h-7.528zm0-.68h5.027c-.024-.705-.122-1.19-.243-1.482a2.444 2.444 0 00-.874-1.044 2.298 2.298 0 00-1.239-.364c-.656 0-1.238.242-1.748.752-.535.51-.826 1.215-.923 2.138zM144.326 581.079v3.691h-.389c-.291-1.165-.68-1.967-1.141-2.38-.486-.413-1.069-.631-1.798-.631-.558 0-1.02.146-1.36.437-.34.291-.51.631-.51.971 0 .462.146.826.389 1.142.243.34.753.68 1.506 1.044l1.724.826c1.603.801 2.404 1.821 2.404 3.108 0 .996-.364 1.773-1.117 2.38-.753.608-1.578.923-2.501.923-.68 0-1.433-.121-2.283-.364-.267-.073-.486-.121-.656-.121-.17 0-.316.097-.413.315h-.388v-3.885h.388c.219 1.117.632 1.943 1.263 2.501.632.559 1.336.85 2.113.85.534 0 .971-.17 1.311-.486.365-.315.535-.704.535-1.165a1.8 1.8 0 00-.583-1.36c-.389-.365-1.142-.85-2.283-1.409-1.166-.583-1.919-1.093-2.259-1.554-.364-.437-.534-1.02-.534-1.7 0-.899.292-1.652.923-2.235.607-.607 1.409-.898 2.38-.898.413 0 .923.073 1.554.267.389.121.656.17.802.17a.518.518 0 00.291-.073c.073-.073.146-.194.243-.364h.389zM153.777 581.079v3.691h-.389c-.291-1.165-.68-1.967-1.141-2.38-.486-.413-1.069-.631-1.797-.631-.559 0-1.02.146-1.36.437-.34.291-.51.631-.51.971 0 .462.145.826.388 1.142.243.34.753.68 1.506 1.044l1.724.826c1.603.801 2.405 1.821 2.405 3.108 0 .996-.365 1.773-1.117 2.38-.753.608-1.58.923-2.502.923-.68 0-1.433-.121-2.283-.364-.267-.073-.486-.121-.656-.121-.17 0-.315.097-.412.315h-.389v-3.885h.389c.218 1.117.631 1.943 1.262 2.501.632.559 1.336.85 2.113.85.535 0 .972-.17 1.312-.486.364-.315.534-.704.534-1.165a1.8 1.8 0 00-.583-1.36c-.388-.365-1.141-.85-2.283-1.409-1.165-.583-1.918-1.093-2.258-1.554-.365-.437-.535-1.02-.535-1.7 0-.899.292-1.652.923-2.235.607-.607 1.409-.898 2.38-.898.413 0 .923.073 1.555.267.388.121.655.17.801.17a.518.518 0 00.292-.073c.072-.073.145-.194.242-.364h.389zM109.924 603.143v3.57h2.55v.825h-2.55v7.043c0 .705.097 1.166.315 1.433a.956.956 0 00.777.365c.243 0 .51-.098.753-.243.243-.17.438-.413.559-.729h.461c-.267.777-.655 1.36-1.165 1.749-.51.388-1.02.583-1.555.583-.364 0-.728-.098-1.068-.292-.365-.194-.607-.486-.777-.874-.17-.364-.243-.947-.243-1.724v-7.31h-1.725v-.39c.438-.17.875-.46 1.336-.898.437-.413.85-.898 1.214-1.457.17-.316.438-.85.753-1.651h.365zM116.72 600.714v7.942c.874-.972 1.554-1.579 2.088-1.87a3.254 3.254 0 011.53-.389c.607 0 1.142.17 1.579.51.461.34.777.874.996 1.579.145.51.218 1.432.218 2.793v3.837c0 .68.073 1.165.17 1.408.073.195.219.34.413.462.17.097.534.145 1.044.145v.438h-5.343v-.438h.243c.51 0 .85-.072 1.069-.218.194-.146.316-.389.413-.68.024-.122.024-.51.024-1.117v-3.837c0-1.19-.049-1.968-.17-2.332-.121-.389-.316-.656-.607-.85-.267-.194-.583-.267-.972-.267-.388 0-.777.097-1.19.291-.437.219-.922.632-1.505 1.263v5.732c0 .753.024 1.214.121 1.384.073.194.219.34.462.461.218.122.607.17 1.165.17v.438h-5.391v-.438c.485 0 .874-.072 1.141-.218.17-.073.292-.219.389-.437.097-.243.146-.68.146-1.36v-9.836c0-1.239-.05-1.992-.098-2.283-.073-.291-.145-.486-.267-.583-.121-.097-.291-.146-.51-.146-.146 0-.437.049-.801.17l-.17-.412 3.254-1.312h.559zM131.826 616.014c-1.118.85-1.822 1.36-2.113 1.482a3.18 3.18 0 01-1.36.291c-.753 0-1.36-.243-1.846-.753-.486-.534-.729-1.19-.729-2.04 0-.534.122-.995.34-1.384.34-.534.899-1.044 1.7-1.506.802-.485 2.138-1.044 4.008-1.724v-.437c0-1.093-.17-1.822-.535-2.235-.34-.388-.825-.607-1.481-.607-.51 0-.899.146-1.19.413-.316.267-.462.583-.462.923l.025.68c0 .364-.097.656-.267.85a.989.989 0 01-.729.291.989.989 0 01-.729-.29c-.17-.22-.267-.487-.267-.85 0-.681.34-1.312 1.045-1.871.68-.583 1.675-.85 2.914-.85.971 0 1.773.146 2.38.486a2.15 2.15 0 011.02 1.141c.146.34.218 1.044.218 2.089v3.691c0 1.02.025 1.652.073 1.895.025.242.097.388.195.461.072.097.194.121.315.121a.672.672 0 00.316-.072c.17-.098.486-.389.972-.875v.68c-.9 1.166-1.725 1.773-2.55 1.773a1.18 1.18 0 01-.923-.413c-.219-.267-.34-.728-.34-1.36zm0-.777v-4.153c-1.19.486-1.968.826-2.332 1.02-.607.34-1.068.705-1.336 1.093a2.082 2.082 0 00-.388 1.239c0 .583.17 1.044.51 1.408.34.389.728.583 1.166.583.607 0 1.384-.413 2.38-1.19zM139.618 608.68c1.263-1.53 2.477-2.283 3.643-2.283.583 0 1.093.146 1.53.437.413.292.753.777 1.02 1.457.17.486.243 1.215.243 2.186v4.639c0 .68.073 1.141.17 1.408.097.195.219.34.413.462.194.097.558.145 1.093.145v.438h-5.392v-.438h.243c.51 0 .85-.072 1.044-.218.219-.146.34-.389.438-.68.024-.122.048-.486.048-1.117v-4.445c0-.995-.146-1.7-.388-2.161-.268-.437-.705-.656-1.312-.656-.923 0-1.87.51-2.793 1.53v5.732c0 .728.024 1.19.122 1.36.121.243.267.388.461.51.194.097.583.145 1.166.145v.438H136v-.438h.242c.559 0 .923-.121 1.118-.412.194-.268.291-.826.291-1.603v-4.032c0-1.311-.024-2.113-.097-2.38-.049-.291-.146-.486-.267-.583a.782.782 0 00-.486-.17c-.219 0-.486.073-.801.195l-.17-.438 3.278-1.311h.51v2.283zM160.018 617.811c-1.408 0-2.525-.364-3.327-1.092-.801-.705-1.214-1.676-1.214-2.915 0-1.238.413-2.234 1.214-2.938.802-.705 1.895-1.069 3.279-1.069h4.129v-1.336c0-.801-.243-1.433-.73-1.894-.51-.461-1.19-.68-2.063-.68-.778 0-1.433.17-1.968.51-.534.34-.874.777-.995 1.336h-2.186a3.58 3.58 0 01.826-1.967 4.684 4.684 0 011.821-1.336c.753-.316 1.579-.462 2.502-.462 1.53 0 2.744.389 3.643 1.19.898.802 1.335 1.87 1.335 3.23v9.18h-2.137v-2.55h-.024c-.097.85-.51 1.53-1.239 2.04-.753.51-1.7.753-2.866.753zm.535-1.724c1.044 0 1.894-.267 2.55-.777.656-.51.996-1.19.996-1.991v-1.895h-4.08c-.73 0-1.312.195-1.725.607-.413.413-.631.948-.631 1.652 0 .753.267 1.336.777 1.773.486.413 1.214.631 2.113.631z"
                fill="#b12e1e" fill-rule="nonzero" />
        </g>
    </g>
    <g>
        <path
            d="M557.235 451.723c6.734-9.144 18.334-14.672 30.787-14.672 12.454 0 24.054 5.528 30.788 14.672l42.386 57.556c7.24 9.831 7.753 22.329 1.337 32.587-6.415 10.259-18.736 16.64-32.125 16.64h-84.771c-13.389 0-25.71-6.381-32.125-16.64-6.416-10.258-5.903-22.756 1.337-32.587l42.386-57.556z"
            fill="#fff" stroke="#c1c1c1" stroke-width="3.4" transform="matrix(1.09287 0 0 1.25195 -109.582 -72.325)" />
        <path d="M115.268 524.044L90.62 571.098" fill="none" stroke="#000" stroke-width="6.3" stroke-linecap="square"
            transform="matrix(.76888 -.05322 .19573 .62727 283.132 305.87)" />
        <path d="M115.268 524.044L90.62 571.098" fill="none" stroke="#000" stroke-width="6.3" stroke-linecap="square"
            transform="matrix(-.76905 -.05375 -.1954 .62828 783.091 305.18)" />
        <path d="M115.268 524.044L90.62 571.098" fill="none" stroke="#000" stroke-width="6.32" stroke-linecap="square"
            transform="matrix(.73977 -.1865 .32343 .53252 228.797 372.778)" />
        <circle cx="154.775" cy="556.848" r="2.753" transform="matrix(.80954 0 0 .80954 373.768 196.01)" />
        <circle cx="154.775" cy="556.848" r="2.753" transform="matrix(.80954 0 0 .80954 405.151 196.01)" />
        <circle cx="154.775" cy="556.848" r="2.753" transform="matrix(.80954 0 0 .80954 389.46 196.01)" />
        <g>
            <path
                d="M496.419 587.674c1.044-1.457 2.186-2.185 3.4-2.185 1.117 0 2.089.461 2.914 1.408.826.972 1.239 2.259 1.239 3.91 0 1.943-.632 3.497-1.919 4.663-1.093 1.02-2.307 1.53-3.667 1.53a5.92 5.92 0 01-1.918-.34 9.412 9.412 0 01-2.016-1.044V584.37c0-1.238-.025-1.991-.073-2.282-.073-.292-.17-.486-.292-.583a.747.747 0 00-.461-.146c-.243 0-.51.049-.85.17l-.146-.413 3.255-1.311h.534v7.868zm0 .753v6.509c.389.388.826.68 1.239.898.437.195.874.292 1.335.292.705 0 1.385-.389 2.016-1.19.607-.777.923-1.943.923-3.449 0-1.384-.316-2.453-.923-3.206-.631-.752-1.336-1.117-2.137-1.117-.413 0-.826.097-1.239.316-.315.17-.728.486-1.214.947zM507.396 589.884c0 1.628.389 2.89 1.19 3.789.777.923 1.725 1.384 2.793 1.384.704 0 1.312-.194 1.846-.583.534-.388.971-1.068 1.311-2.015l.389.243c-.17 1.092-.656 2.064-1.457 2.962-.802.875-1.797 1.336-3.012 1.336-1.287 0-2.404-.51-3.351-1.53-.923-1.02-1.384-2.38-1.384-4.104 0-1.846.485-3.303 1.432-4.347.948-1.045 2.138-1.555 3.595-1.555 1.214 0 2.21.413 2.987 1.215.777.801 1.19 1.87 1.19 3.205h-7.529zm0-.68h5.027c-.024-.704-.121-1.19-.242-1.481a2.444 2.444 0 00-.875-1.044 2.298 2.298 0 00-1.238-.365c-.656 0-1.239.243-1.749.753-.534.51-.826 1.214-.923 2.137zM519.512 582.234v3.57h2.55v.826h-2.55v7.043c0 .704.097 1.166.315 1.433a.956.956 0 00.778.364c.242 0 .51-.097.752-.243.243-.17.438-.413.56-.728h.46c-.267.777-.655 1.36-1.165 1.748-.51.389-1.02.583-1.555.583-.364 0-.728-.097-1.068-.291-.364-.195-.607-.486-.777-.875-.17-.364-.243-.947-.243-1.724v-7.31h-1.724v-.389c.437-.17.874-.461 1.335-.898.437-.413.85-.899 1.215-1.457.17-.316.437-.85.752-1.652h.365zM522.495 585.804h4.566v.437c-.413.025-.705.098-.826.219a.696.696 0 00-.194.51c0 .243.072.534.194.899l2.331 6.241 2.332-5.076-.607-1.603c-.195-.485-.437-.801-.753-.995-.17-.097-.51-.17-.972-.195v-.437h5.173v.437c-.583.025-.971.122-1.214.292-.17.146-.243.34-.243.607 0 .17.024.34.097.486l2.477 6.241 2.283-5.998c.146-.438.243-.778.243-1.02 0-.146-.097-.292-.243-.413-.145-.122-.461-.195-.898-.195v-.437h3.424v.437c-.68.098-1.19.559-1.53 1.385L534.516 597h-.485l-2.72-6.946-3.157 6.946h-.438l-3.497-9.131c-.218-.583-.461-.972-.68-1.166-.218-.219-.558-.364-1.044-.462v-.437zM542.462 589.884c0 1.628.389 2.89 1.19 3.789.777.923 1.724 1.384 2.793 1.384.704 0 1.311-.194 1.846-.583.534-.388.971-1.068 1.311-2.015l.389.243c-.17 1.092-.656 2.064-1.457 2.962-.802.875-1.798 1.336-3.012 1.336-1.287 0-2.404-.51-3.351-1.53-.923-1.02-1.385-2.38-1.385-4.104 0-1.846.486-3.303 1.433-4.347.947-1.045 2.137-1.555 3.595-1.555 1.214 0 2.21.413 2.987 1.215.777.801 1.19 1.87 1.19 3.205h-7.529zm0-.68h5.027c-.024-.704-.121-1.19-.243-1.481a2.444 2.444 0 00-.874-1.044 2.298 2.298 0 00-1.238-.365c-.656 0-1.24.243-1.75.753-.533.51-.825 1.214-.922 2.137zM553.241 589.884c0 1.628.389 2.89 1.19 3.789.777.923 1.724 1.384 2.793 1.384.704 0 1.311-.194 1.846-.583.534-.388.971-1.068 1.311-2.015l.389.243c-.17 1.092-.656 2.064-1.457 2.962-.802.875-1.798 1.336-3.012 1.336-1.287 0-2.404-.51-3.351-1.53-.923-1.02-1.385-2.38-1.385-4.104 0-1.846.486-3.303 1.433-4.347.947-1.045 2.137-1.555 3.594-1.555 1.215 0 2.21.413 2.988 1.215.777.801 1.19 1.87 1.19 3.205h-7.529zm0-.68h5.027c-.024-.704-.121-1.19-.243-1.481a2.444 2.444 0 00-.874-1.044 2.298 2.298 0 00-1.239-.365c-.655 0-1.238.243-1.748.753-.534.51-.826 1.214-.923 2.137zM565.38 587.771c1.264-1.53 2.478-2.282 3.644-2.282.583 0 1.093.145 1.53.437.413.291.753.777 1.02 1.457.17.486.243 1.214.243 2.186v4.638c0 .68.072 1.142.17 1.409.097.194.218.34.412.461.195.097.56.146 1.093.146v.437h-5.391v-.437h.243c.51 0 .85-.073 1.044-.219.219-.145.34-.388.437-.68.024-.121.049-.485.049-1.117v-4.444c0-.996-.146-1.7-.389-2.162-.267-.437-.704-.655-1.311-.655-.923 0-1.87.51-2.793 1.53v5.731c0 .729.024 1.19.121 1.36.122.243.267.389.462.51.194.097.583.146 1.165.146v.437h-5.367v-.437h.243c.559 0 .923-.121 1.117-.413.194-.267.292-.826.292-1.603v-4.031c0-1.312-.025-2.113-.098-2.38-.048-.292-.145-.486-.267-.583a.782.782 0 00-.485-.17c-.219 0-.486.073-.802.194l-.17-.437 3.279-1.311h.51v2.282zM503.022 622.221c-.996 0-1.822-.243-2.478-.753-.655-.485-1.02-1.165-1.141-2.04h-.024v2.55h-2.186V604.25h2.186v3.885l-.049 3.036h.073c.121-.85.486-1.53 1.141-2.04.656-.51 1.482-.753 2.478-.753 1.335 0 2.428.437 3.23 1.336.801.898 1.214 2.113 1.214 3.643v3.91c0 1.53-.413 2.72-1.214 3.618-.802.9-1.895 1.336-3.23 1.336zm-.73-1.894c.924 0 1.652-.267 2.187-.826.534-.558.801-1.336.801-2.38v-3.643c0-1.044-.267-1.821-.801-2.38-.535-.558-1.263-.826-2.186-.826-.899 0-1.603.292-2.113.85-.534.56-.801 1.36-.801 2.356v3.643c0 .996.267 1.797.801 2.356.51.558 1.214.85 2.113.85zM522.523 620.424c-1.117.85-1.821 1.36-2.113 1.482a3.18 3.18 0 01-1.36.29c-.753 0-1.36-.242-1.845-.752-.486-.534-.729-1.19-.729-2.04 0-.534.121-.996.34-1.384.34-.535.899-1.045 1.7-1.506.801-.486 2.137-1.044 4.007-1.724v-.437c0-1.093-.17-1.822-.534-2.235-.34-.388-.826-.607-1.482-.607-.51 0-.898.146-1.19.413-.315.267-.461.583-.461.923l.024.68c0 .364-.097.656-.267.85a.989.989 0 01-.728.291.989.989 0 01-.729-.291c-.17-.219-.267-.486-.267-.85 0-.68.34-1.312 1.044-1.87.68-.583 1.676-.85 2.914-.85.972 0 1.773.145 2.38.486a2.15 2.15 0 011.02 1.14c.146.341.22 1.045.22 2.09v3.691c0 1.02.023 1.651.072 1.894.024.243.097.389.194.462.073.097.195.121.316.121a.672.672 0 00.316-.073c.17-.097.485-.388.971-.874v.68c-.898 1.166-1.724 1.773-2.55 1.773a1.18 1.18 0 01-.923-.413c-.218-.267-.34-.729-.34-1.36zm0-.777v-4.153c-1.19.486-1.967.826-2.331 1.02-.607.34-1.069.704-1.336 1.093a2.082 2.082 0 00-.389 1.238c0 .583.17 1.045.51 1.41.34.388.729.582 1.166.582.607 0 1.384-.413 2.38-1.19zM530.315 613.09c1.263-1.53 2.477-2.283 3.643-2.283.583 0 1.093.145 1.53.437.413.291.753.777 1.02 1.457.17.486.243 1.214.243 2.186v4.638c0 .68.073 1.142.17 1.41.097.193.218.34.413.46.194.098.558.146 1.093.146v.437h-5.392v-.437h.243c.51 0 .85-.073 1.044-.218.219-.146.34-.389.437-.68.025-.122.049-.486.049-1.118v-4.444c0-.996-.146-1.7-.389-2.161-.267-.437-.704-.656-1.311-.656-.923 0-1.87.51-2.793 1.53v5.731c0 .73.024 1.19.121 1.36.122.243.268.39.462.51.194.098.583.146 1.166.146v.437h-5.368v-.437h.243c.559 0 .923-.121 1.117-.413.195-.267.292-.825.292-1.603v-4.031c0-1.311-.024-2.113-.097-2.38-.049-.291-.146-.486-.267-.583a.782.782 0 00-.486-.17c-.219 0-.486.073-.802.194l-.17-.437 3.279-1.311h.51v2.283zM546.95 620.764c-.533.534-1.043.947-1.553 1.19a3.712 3.712 0 01-1.628.364c-1.19 0-2.234-.51-3.108-1.505-.899-.972-1.336-2.259-1.336-3.813 0-1.555.486-2.987 1.482-4.275.971-1.287 2.234-1.943 3.788-1.943.947 0 1.724.316 2.356.923v-2.015c0-1.239-.024-1.992-.073-2.283-.073-.292-.17-.486-.291-.583a.747.747 0 00-.462-.146c-.218 0-.486.049-.826.17l-.17-.413 3.255-1.311h.534v12.556c0 1.263.024 2.04.073 2.331.073.267.17.462.291.583.122.097.292.17.462.17.218 0 .486-.073.85-.219l.121.413-3.205 1.36h-.56v-1.554zm0-.826v-5.61a4.057 4.057 0 00-.412-1.457 2.573 2.573 0 00-.947-1.02c-.389-.218-.777-.34-1.142-.34-.704 0-1.335.316-1.87.947-.728.826-1.068 2.016-1.068 3.595 0 1.602.34 2.817 1.044 3.667.68.85 1.457 1.287 2.307 1.287.729 0 1.409-.364 2.089-1.069zM564.121 622.221c-1.627 0-2.914-.461-3.861-1.36-.972-.898-1.457-2.161-1.457-3.74v-3.643c0-1.578.485-2.841 1.457-3.74.947-.898 2.234-1.36 3.861-1.36 1.53 0 2.769.413 3.716 1.239.947.825 1.433 1.943 1.481 3.376h-2.185c-.049-.85-.34-1.53-.85-1.992-.535-.437-1.263-.68-2.162-.68-.947 0-1.724.267-2.283.802-.558.558-.85 1.335-.85 2.331v3.667c0 .996.292 1.773.85 2.332.559.558 1.336.825 2.283.825.899 0 1.627-.243 2.162-.704.51-.461.801-1.117.85-1.967h2.185c-.048 1.433-.534 2.55-1.481 3.376-.947.825-2.186 1.238-3.716 1.238z"
                fill="#b12e1e" fill-rule="nonzero" />
        </g>
    </g>
    <g>
        <path
            d="M557.235 451.723c6.734-9.144 18.334-14.672 30.787-14.672 12.454 0 24.054 5.528 30.788 14.672l42.386 57.556c7.24 9.831 7.753 22.329 1.337 32.587-6.415 10.259-18.736 16.64-32.125 16.64h-84.771c-13.389 0-25.71-6.381-32.125-16.64-6.416-10.258-5.903-22.756 1.337-32.587l42.386-57.556z"
            fill="#fff" stroke="#c1c1c1" stroke-width="3.4" transform="matrix(1.09287 0 0 1.25195 88.81 -72.325)" />
        <path d="M115.268 524.044L90.62 571.098" fill="none" stroke="#000" stroke-width="6.3" stroke-linecap="square"
            transform="matrix(.76888 -.05322 .19573 .62727 481.524 305.87)" />
        <path d="M115.268 524.044L90.62 571.098" fill="none" stroke="#000" stroke-width="6.3" stroke-linecap="square"
            transform="matrix(-.76905 -.05375 -.1954 .62828 981.483 305.18)" />
        <path d="M115.268 524.044L90.62 571.098" fill="none" stroke="#000" stroke-width="6.32" stroke-linecap="square"
            transform="matrix(.73977 -.1865 .32343 .53252 427.189 372.778)" />
        <circle cx="154.775" cy="556.848" r="2.753" transform="matrix(.80954 0 0 .80954 572.16 196.01)" />
        <circle cx="154.775" cy="556.848" r="2.753" transform="matrix(.80954 0 0 .80954 603.543 196.01)" />
        <circle cx="154.775" cy="556.848" r="2.753" transform="matrix(.80954 0 0 .80954 587.851 196.01)" />
        <g>
            <path
                d="M694.81 587.674c1.045-1.457 2.187-2.185 3.401-2.185 1.117 0 2.089.461 2.914 1.408.826.972 1.239 2.259 1.239 3.91 0 1.943-.632 3.497-1.919 4.663-1.093 1.02-2.307 1.53-3.667 1.53a5.92 5.92 0 01-1.918-.34 9.412 9.412 0 01-2.016-1.044V584.37c0-1.238-.025-1.991-.073-2.282-.073-.292-.17-.486-.292-.583a.747.747 0 00-.461-.146c-.243 0-.51.049-.85.17l-.146-.413 3.255-1.311h.534v7.868zm0 .753v6.509c.39.388.827.68 1.24.898.437.195.874.292 1.335.292.705 0 1.385-.389 2.016-1.19.607-.777.923-1.943.923-3.449 0-1.384-.316-2.453-.923-3.206-.631-.752-1.336-1.117-2.137-1.117-.413 0-.826.097-1.239.316-.315.17-.728.486-1.214.947zM705.788 589.884c0 1.628.389 2.89 1.19 3.789.777.923 1.725 1.384 2.793 1.384.704 0 1.312-.194 1.846-.583.534-.388.971-1.068 1.311-2.015l.389.243c-.17 1.092-.656 2.064-1.457 2.962-.802.875-1.797 1.336-3.012 1.336-1.287 0-2.404-.51-3.351-1.53-.923-1.02-1.384-2.38-1.384-4.104 0-1.846.485-3.303 1.432-4.347.948-1.045 2.138-1.555 3.595-1.555 1.214 0 2.21.413 2.987 1.215.777.801 1.19 1.87 1.19 3.205h-7.529zm0-.68h5.027c-.024-.704-.121-1.19-.242-1.481a2.444 2.444 0 00-.875-1.044 2.298 2.298 0 00-1.238-.365c-.656 0-1.239.243-1.749.753-.534.51-.826 1.214-.923 2.137zM717.904 582.234v3.57h2.55v.826h-2.55v7.043c0 .704.097 1.166.315 1.433a.956.956 0 00.778.364c.242 0 .51-.097.752-.243.243-.17.438-.413.56-.728h.46c-.267.777-.655 1.36-1.165 1.748-.51.389-1.02.583-1.555.583-.364 0-.728-.097-1.068-.291-.364-.195-.607-.486-.777-.875-.17-.364-.243-.947-.243-1.724v-7.31h-1.724v-.389c.437-.17.874-.461 1.335-.898.437-.413.85-.899 1.215-1.457.17-.316.437-.85.752-1.652h.365zM720.887 585.804h4.566v.437c-.413.025-.705.098-.826.219a.696.696 0 00-.194.51c0 .243.072.534.194.899l2.331 6.241 2.332-5.076-.607-1.603c-.195-.485-.437-.801-.753-.995-.17-.097-.51-.17-.972-.195v-.437h5.173v.437c-.583.025-.971.122-1.214.292-.17.146-.243.34-.243.607 0 .17.024.34.097.486l2.477 6.241 2.283-5.998c.146-.438.243-.778.243-1.02 0-.146-.097-.292-.243-.413-.145-.122-.461-.195-.898-.195v-.437h3.424v.437c-.68.098-1.19.559-1.53 1.385L732.908 597h-.485l-2.72-6.946-3.157 6.946h-.438l-3.497-9.131c-.218-.583-.461-.972-.68-1.166-.218-.219-.558-.364-1.044-.462v-.437zM740.854 589.884c0 1.628.389 2.89 1.19 3.789.777.923 1.724 1.384 2.793 1.384.704 0 1.311-.194 1.846-.583.534-.388.971-1.068 1.311-2.015l.389.243c-.17 1.092-.656 2.064-1.457 2.962-.802.875-1.798 1.336-3.012 1.336-1.287 0-2.404-.51-3.351-1.53-.923-1.02-1.385-2.38-1.385-4.104 0-1.846.486-3.303 1.433-4.347.947-1.045 2.137-1.555 3.595-1.555 1.214 0 2.21.413 2.987 1.215.777.801 1.19 1.87 1.19 3.205h-7.529zm0-.68h5.027c-.024-.704-.121-1.19-.243-1.481a2.444 2.444 0 00-.874-1.044 2.298 2.298 0 00-1.238-.365c-.656 0-1.24.243-1.75.753-.533.51-.825 1.214-.922 2.137zM751.633 589.884c0 1.628.389 2.89 1.19 3.789.777.923 1.724 1.384 2.793 1.384.704 0 1.311-.194 1.846-.583.534-.388.971-1.068 1.311-2.015l.389.243c-.17 1.092-.656 2.064-1.457 2.962-.802.875-1.798 1.336-3.012 1.336-1.287 0-2.404-.51-3.351-1.53-.923-1.02-1.385-2.38-1.385-4.104 0-1.846.486-3.303 1.433-4.347.947-1.045 2.137-1.555 3.594-1.555 1.215 0 2.21.413 2.988 1.215.777.801 1.19 1.87 1.19 3.205h-7.529zm0-.68h5.027c-.024-.704-.121-1.19-.243-1.481a2.444 2.444 0 00-.874-1.044 2.298 2.298 0 00-1.239-.365c-.655 0-1.238.243-1.748.753-.534.51-.826 1.214-.923 2.137zM763.773 587.771c1.263-1.53 2.477-2.282 3.643-2.282.583 0 1.093.145 1.53.437.413.291.753.777 1.02 1.457.17.486.243 1.214.243 2.186v4.638c0 .68.072 1.142.17 1.409.097.194.218.34.412.461.195.097.56.146 1.093.146v.437h-5.391v-.437h.243c.51 0 .85-.073 1.044-.219.219-.145.34-.388.437-.68.024-.121.049-.485.049-1.117v-4.444c0-.996-.146-1.7-.389-2.162-.267-.437-.704-.655-1.311-.655-.923 0-1.87.51-2.793 1.53v5.731c0 .729.024 1.19.121 1.36.122.243.267.389.462.51.194.097.583.146 1.165.146v.437h-5.367v-.437h.243c.559 0 .923-.121 1.117-.413.194-.267.292-.826.292-1.603v-4.031c0-1.312-.025-2.113-.098-2.38-.048-.292-.145-.486-.267-.583a.782.782 0 00-.485-.17c-.219 0-.486.073-.802.194l-.17-.437 3.279-1.311h.51v2.282zM700.734 622.221c-1.628 0-2.915-.461-3.862-1.36-.971-.898-1.457-2.161-1.457-3.74v-3.643c0-1.578.486-2.841 1.457-3.74.947-.898 2.234-1.36 3.862-1.36 1.53 0 2.768.413 3.715 1.239.947.825 1.433 1.943 1.482 3.376h-2.186c-.049-.85-.34-1.53-.85-1.992-.534-.437-1.263-.68-2.161-.68-.948 0-1.725.267-2.283.802-.559.558-.85 1.335-.85 2.331v3.667c0 .996.291 1.773.85 2.332.558.558 1.335.825 2.283.825.898 0 1.627-.243 2.161-.704.51-.461.801-1.117.85-1.967h2.186c-.049 1.433-.535 2.55-1.482 3.376-.947.825-2.185 1.238-3.715 1.238zM720.915 620.424c-1.117.85-1.821 1.36-2.113 1.482a3.18 3.18 0 01-1.36.29c-.753 0-1.36-.242-1.845-.752-.486-.534-.729-1.19-.729-2.04 0-.534.121-.996.34-1.384.34-.535.899-1.045 1.7-1.506.801-.486 2.137-1.044 4.007-1.724v-.437c0-1.093-.17-1.822-.534-2.235-.34-.388-.826-.607-1.482-.607-.51 0-.898.146-1.19.413-.315.267-.461.583-.461.923l.024.68c0 .364-.097.656-.267.85a.989.989 0 01-.728.291.989.989 0 01-.729-.291c-.17-.219-.267-.486-.267-.85 0-.68.34-1.312 1.044-1.87.68-.583 1.676-.85 2.914-.85.972 0 1.773.145 2.38.486a2.15 2.15 0 011.02 1.14c.146.341.22 1.045.22 2.09v3.691c0 1.02.023 1.651.072 1.894.024.243.097.389.194.462.073.097.195.121.316.121a.672.672 0 00.316-.073c.17-.097.485-.388.971-.874v.68c-.898 1.166-1.724 1.773-2.55 1.773a1.18 1.18 0 01-.923-.413c-.218-.267-.34-.729-.34-1.36zm0-.777v-4.153c-1.19.486-1.967.826-2.331 1.02-.607.34-1.069.704-1.336 1.093a2.082 2.082 0 00-.389 1.238c0 .583.17 1.045.51 1.41.34.388.729.582 1.166.582.607 0 1.384-.413 2.38-1.19zM728.707 613.09c1.263-1.53 2.477-2.283 3.643-2.283.583 0 1.093.145 1.53.437.413.291.753.777 1.02 1.457.17.486.243 1.214.243 2.186v4.638c0 .68.073 1.142.17 1.41.097.193.218.34.413.46.194.098.558.146 1.093.146v.437h-5.392v-.437h.243c.51 0 .85-.073 1.044-.218.219-.146.34-.389.437-.68.025-.122.049-.486.049-1.118v-4.444c0-.996-.146-1.7-.389-2.161-.267-.437-.704-.656-1.311-.656-.923 0-1.87.51-2.793 1.53v5.731c0 .73.024 1.19.121 1.36.122.243.268.39.462.51.194.098.583.146 1.166.146v.437h-5.368v-.437h.243c.559 0 .923-.121 1.117-.413.195-.267.292-.825.292-1.603v-4.031c0-1.311-.024-2.113-.097-2.38-.049-.291-.146-.486-.267-.583a.782.782 0 00-.486-.17c-.219 0-.486.073-.802.194l-.17-.437 3.279-1.311h.51v2.283zM745.343 620.764c-.534.534-1.044.947-1.554 1.19a3.712 3.712 0 01-1.628.364c-1.19 0-2.234-.51-3.108-1.505-.899-.972-1.336-2.259-1.336-3.813 0-1.555.486-2.987 1.482-4.275.971-1.287 2.234-1.943 3.788-1.943.947 0 1.724.316 2.356.923v-2.015c0-1.239-.024-1.992-.073-2.283-.073-.292-.17-.486-.291-.583a.747.747 0 00-.462-.146c-.218 0-.486.049-.826.17l-.17-.413 3.255-1.311h.534v12.556c0 1.263.024 2.04.073 2.331.073.267.17.462.291.583.122.097.292.17.462.17.218 0 .486-.073.85-.219l.121.413-3.205 1.36h-.56v-1.554zm0-.826v-5.61a4.057 4.057 0 00-.413-1.457 2.573 2.573 0 00-.947-1.02c-.389-.218-.777-.34-1.142-.34-.704 0-1.335.316-1.87.947-.728.826-1.068 2.016-1.068 3.595 0 1.602.34 2.817 1.044 3.667.68.85 1.457 1.287 2.307 1.287.729 0 1.409-.364 2.089-1.069zM761.639 622.221c-1.336 0-2.404-.437-3.206-1.336-.826-.898-1.238-2.088-1.238-3.618v-3.91c0-1.53.412-2.745 1.214-3.643.801-.899 1.894-1.336 3.23-1.336.996 0 1.821.243 2.477.753.656.51 1.02 1.19 1.141 2.04h.073l-.048-3.036v-3.885h2.186v17.728h-2.186v-2.55h-.025c-.12.875-.485 1.555-1.141 2.04-.656.51-1.481.753-2.477.753zm.728-1.894c.899 0 1.628-.292 2.138-.85.51-.559.777-1.36.777-2.356v-3.643c0-.995-.267-1.797-.777-2.355-.51-.56-1.239-.85-2.138-.85-.922 0-1.651.267-2.185.825-.535.559-.802 1.336-.802 2.38v3.643c0 1.044.267 1.822.802 2.38.534.559 1.263.826 2.185.826z"
                fill="#b12e1e" fill-rule="nonzero" />
        </g>
    </g>
    <g>
        <path d="M700.969 488.276l-190.38-127.729" fill="none" stroke="#000" stroke-width="4.003194" />
    </g>
</svg>