<svg viewBox="0 0 1024 768" xmlns="http://www.w3.org/2000/svg" fill-rule="evenodd" clip-rule="evenodd"
    stroke-linecap="round" stroke-linejoin="round" stroke-miterlimit="1.5">
    <path d="M893.563 247.435l-260.829-82.544" fill="none" stroke="#000" stroke-width="3.81"
        transform="matrix(1.06584 .03922 .03922 .95432 -67.363 86.908)" />
    <path
        d="M334.424 461.187l-78.815-88.524M131.963 461.187l78.815-88.524M737.439 461.187l-77.103-88.524M535.879 461.187l77.102-88.524M232.876 325.753l253.772-55.94"
        fill="none" stroke="#000" stroke-width="4.000293" />
    <path d="M657.183 225.056l-66.371-51.781" fill="none" stroke="#000" stroke-width="4.41"
        transform="matrix(.91996 -.01712 -.01712 .92855 35.798 128.03)" />
    <g transform="matrix(.31273 0 0 .6911 392.2 121.14)">
        <path
            d="M731.429 185.017c0-23.045-41.346-41.755-92.273-41.755H369.294c-50.927 0-92.273 18.71-92.273 41.755s41.346 41.755 92.273 41.755h269.862c50.927 0 92.273-18.71 92.273-41.755z"
            fill="#fff" />
        <clipPath id="prefix__a">
            <path
                d="M731.429 185.017c0-23.045-41.346-41.755-92.273-41.755H369.294c-50.927 0-92.273 18.71-92.273 41.755s41.346 41.755 92.273 41.755h269.862c50.927 0 92.273-18.71 92.273-41.755z" />
        </clipPath>
        <g clip-path="url(#prefix__a)">
            <path
                d="M433.771 205.784c-5.085 0-9.302-.562-12.651-1.74-3.35-1.123-5.21-2.695-5.83-4.715h-.124v5.893h-11.164v-40.974h11.164v8.98l-.248 7.017h.372c.62-1.965 2.48-3.536 5.83-4.715 3.349-1.179 7.566-1.74 12.651-1.74 6.823 0 12.404 1.01 16.498 3.087 4.093 2.077 6.201 4.883 6.201 8.42v9.036c0 3.536-2.108 6.287-6.201 8.363-4.094 2.077-9.675 3.088-16.498 3.088zm-3.72-4.379c4.713 0 8.434-.617 11.163-1.908 2.729-1.29 4.093-3.087 4.093-5.5v-8.42c0-2.413-1.364-4.21-4.093-5.5-2.73-1.291-6.45-1.909-11.164-1.909-4.589 0-8.186.674-10.79 1.965-2.73 1.29-4.094 3.143-4.094 5.444v8.42c0 2.3 1.364 4.153 4.093 5.444 2.605 1.29 6.202 1.964 10.791 1.964zM574.678 205.784c-6.822 0-12.28-1.01-16.373-3.088-4.217-2.076-6.326-4.827-6.326-8.363v-9.036c0-3.537 2.11-6.343 6.202-8.42 4.094-2.077 9.675-3.087 16.497-3.087 5.086 0 9.303.561 12.652 1.74 3.35 1.179 5.21 2.75 5.83 4.715h.372l-.248-7.016v-8.98h11.163v40.973h-11.163v-5.893h-.124c-.62 2.02-2.48 3.592-5.83 4.715-3.349 1.178-7.566 1.74-12.652 1.74zm3.722-4.379c4.589 0 8.31-.673 10.915-1.964 2.605-1.291 3.969-3.143 3.969-5.445v-8.419c0-2.301-1.364-4.153-3.97-5.444-2.604-1.291-6.325-1.965-10.914-1.965-4.714 0-8.435.618-11.164 1.909-2.729 1.29-4.093 3.087-4.093 5.5v8.42c0 2.413 1.364 4.21 4.093 5.5 2.729 1.291 6.45 1.908 11.164 1.908z"
                fill-rule="nonzero" />
        </g>
        <path
            d="M731.429 185.017c0-23.045-41.346-41.755-92.273-41.755H369.294c-50.927 0-92.273 18.71-92.273 41.755s41.346 41.755 92.273 41.755h269.862c50.927 0 92.273-18.71 92.273-41.755z"
            fill="none" stroke="#000" stroke-width="7.46" />
    </g>
    <path d="M115.268 524.044L90.62 571.098" fill="none" stroke="#000" stroke-width="7.3" stroke-linecap="square"
        transform="matrix(-.63297 -.05188 -.16083 .60648 1134.586 306.966)" />
    <path d="M115.268 524.044L90.62 571.098" fill="none" stroke="#000" stroke-width="7.21" stroke-linecap="square"
        transform="matrix(.63852 -.07246 .1467 .65894 735.47 279.26)" />
    <path d="M115.268 524.044L90.62 571.098" fill="none" stroke="#000" stroke-width="7.55" stroke-linecap="square"
        transform="matrix(.60888 -.18004 .2662 .51405 683.54 371.891)" />
    <path
        d="M254.64 538.601c5.491-11.543 35.892-20.056 71.623-20.056s66.132 8.513 71.623 20.056l56.186 118.117c3.253 6.839-2.8 13.801-16.571 19.058s-33.883 8.282-55.052 8.282H270.077c-21.169 0-41.28-3.025-55.051-8.282s-19.825-12.219-16.572-19.058l56.186-118.117z"
        fill="none" stroke="#bababa" stroke-width="3.19" transform="matrix(.55184 0 0 1.68787 753.666 -536.093)" />
    <circle cx="154.775" cy="556.848" r="2.753" transform="matrix(.6663 0 0 .78145 803.859 204.527)" />
    <circle cx="154.775" cy="556.848" r="2.753" transform="matrix(.6663 0 0 .78145 829.69 204.527)" />
    <circle cx="154.775" cy="556.848" r="2.753" transform="matrix(.6663 0 0 .78145 816.774 204.527)" />
    <g>
        <path
            d="M906.57 583.49a3.346 3.346 0 01-1.374-1.312c-.327-.563-.48-1.173-.48-1.853 0-1.054.37-1.945 1.09-2.696.72-.726 1.658-1.101 2.792-1.101.937 0 1.744.234 2.42.726h2.071c.306 0 .48 0 .524.024.043.023.087.047.109.094.043.07.065.187.065.375 0 .187-.022.328-.065.398 0 .047-.044.07-.11.094-.043.023-.217.047-.523.047h-1.264c.392.54.589 1.242.589 2.11 0 .961-.35 1.805-1.047 2.508-.698.68-1.636 1.032-2.791 1.032-.48 0-.982-.07-1.483-.235-.327.305-.523.54-.632.774-.11.211-.175.399-.175.54 0 .14.066.257.175.374.13.14.348.211.697.282.197.023.698.046 1.483.07 1.461.047 2.42.094 2.835.164.676.094 1.2.352 1.592.797.392.422.588.938.588 1.57 0 .868-.37 1.665-1.133 2.439-1.09 1.102-2.552 1.664-4.318 1.664-1.374 0-2.53-.328-3.489-1.008-.523-.375-.785-.773-.785-1.172 0-.187.044-.375.11-.562.13-.282.37-.68.74-1.173.066-.07.415-.492 1.09-1.242-.37-.235-.632-.446-.784-.633a.966.966 0 01-.218-.633c0-.258.087-.586.305-.938.196-.351.654-.867 1.396-1.524zm1.853-6.423c-.523 0-.96.234-1.33.68-.349.445-.523 1.125-.523 2.063 0 1.219.24 2.133.72 2.813.37.492.828.75 1.417.75.523 0 .98-.21 1.33-.656.349-.422.501-1.102.501-2.04 0-1.219-.24-2.157-.72-2.86-.37-.492-.828-.75-1.395-.75zm-1.962 10.245c-.327.398-.59.75-.764 1.078-.152.352-.24.656-.24.938 0 .375.197.68.611.96.698.47 1.745.704 3.075.704 1.286 0 2.224-.234 2.834-.727.611-.468.894-1.008.894-1.547 0-.398-.174-.68-.523-.844-.37-.164-1.112-.258-2.202-.304-1.592-.047-2.835-.118-3.685-.258zM917.712 576.528v2.344c.829-1.57 1.658-2.344 2.508-2.344.392 0 .72.117.981.375.24.258.37.539.37.89 0 .282-.086.54-.26.75a.877.877 0 01-.677.306c-.24 0-.523-.118-.828-.399-.306-.258-.546-.399-.676-.399-.131 0-.284.094-.415.235-.327.328-.654.844-1.003 1.547v5.04c0 .563.066 1.009.197 1.313.109.188.261.375.501.516.24.117.567.188 1.003.188v.422h-4.993v-.422c.501 0 .872-.07 1.112-.235.174-.14.305-.328.37-.586.044-.14.066-.516.066-1.125v-4.056c0-1.219-.044-1.946-.087-2.18a1.002 1.002 0 00-.24-.516.799.799 0 00-.48-.164c-.218 0-.458.07-.741.188l-.11-.422 2.966-1.266h.436zM923.752 580.77c0 1.572.35 2.79 1.069 3.658.698.89 1.548 1.336 2.508 1.336.632 0 1.177-.187 1.657-.562.48-.375.872-1.032 1.177-1.946l.35.234c-.153 1.055-.59 1.993-1.31 2.86-.719.844-1.613 1.29-2.703 1.29-1.156 0-2.159-.492-3.01-1.477-.828-.985-1.242-2.298-1.242-3.962 0-1.782.436-3.188 1.286-4.196.85-1.008 1.92-1.5 3.228-1.5 1.09 0 1.984.398 2.682 1.171.697.774 1.068 1.806 1.068 3.095h-6.76zm0-.656h4.514c-.022-.68-.109-1.148-.218-1.43a2.326 2.326 0 00-.785-1.008 1.96 1.96 0 00-1.112-.351c-.589 0-1.112.234-1.57.726-.48.493-.741 1.173-.829 2.063zM937.334 585.811c-1.003.82-1.635 1.313-1.897 1.43-.37.188-.785.282-1.22.282-.677 0-1.222-.235-1.658-.727-.436-.516-.654-1.149-.654-1.97 0-.515.109-.96.305-1.336.305-.515.807-1.008 1.526-1.453.72-.469 1.92-1.008 3.598-1.665v-.422c0-1.055-.152-1.758-.48-2.156-.305-.376-.74-.586-1.33-.586-.457 0-.806.14-1.068.398-.283.258-.414.563-.414.89l.022.657c0 .352-.088.633-.24.82a.856.856 0 01-.654.282.856.856 0 01-.655-.281c-.152-.211-.24-.469-.24-.82 0-.657.306-1.267.938-1.806.61-.562 1.505-.82 2.617-.82.872 0 1.592.14 2.137.469.414.234.72.586.916 1.101.13.329.196 1.008.196 2.016v3.564c0 .985.022 1.594.065 1.828.022.235.087.376.175.446.065.094.174.117.283.117a.57.57 0 00.284-.07c.152-.094.436-.375.872-.844v.656c-.807 1.126-1.548 1.712-2.29 1.712-.349 0-.61-.141-.828-.399-.197-.258-.306-.703-.306-1.313zm0-.75v-4.009c-1.068.47-1.766.797-2.093.985-.545.328-.96.68-1.2 1.055-.24.351-.348.773-.348 1.195 0 .563.153 1.008.458 1.36.305.375.654.563 1.046.563.546 0 1.243-.399 2.137-1.149zM944.309 573.386v3.446h2.29v.797h-2.29v6.8c0 .679.087 1.124.283 1.382a.836.836 0 00.698.352c.218 0 .458-.094.676-.235.218-.164.392-.398.501-.703h.415c-.24.75-.59 1.313-1.047 1.688-.458.375-.916.563-1.396.563-.327 0-.654-.094-.959-.282-.327-.187-.545-.468-.698-.844-.152-.351-.218-.914-.218-1.664v-7.057h-1.548v-.375c.392-.164.785-.445 1.2-.867a7.676 7.676 0 001.09-1.407c.152-.304.392-.82.675-1.594h.328zM949.168 580.77c0 1.572.348 2.79 1.068 3.658.698.89 1.548 1.336 2.508 1.336.632 0 1.177-.187 1.657-.562.48-.375.872-1.032 1.177-1.946l.35.234c-.153 1.055-.59 1.993-1.309 2.86-.72.844-1.614 1.29-2.704 1.29-1.156 0-2.159-.492-3.01-1.477-.828-.985-1.242-2.298-1.242-3.962 0-1.782.436-3.188 1.287-4.196.85-1.008 1.918-1.5 3.227-1.5 1.09 0 1.984.398 2.682 1.171.698.774 1.068 1.806 1.068 3.095h-6.76zm0-.656h4.513c-.021-.68-.109-1.148-.218-1.43a2.326 2.326 0 00-.785-1.008 1.96 1.96 0 00-1.112-.351c-.589 0-1.112.234-1.57.726-.48.493-.741 1.173-.828 2.063zM960.067 576.528v2.344c.83-1.57 1.658-2.344 2.508-2.344.393 0 .72.117.981.375.24.258.371.539.371.89 0 .282-.087.54-.262.75a.877.877 0 01-.676.306c-.24 0-.523-.118-.828-.399-.305-.258-.545-.399-.676-.399s-.284.094-.414.235c-.328.328-.655.844-1.004 1.547v5.04c0 .563.066 1.009.197 1.313.109.188.261.375.501.516.24.117.567.188 1.003.188v.422h-4.993v-.422c.501 0 .872-.07 1.112-.235.174-.14.305-.328.37-.586.044-.14.066-.516.066-1.125v-4.056c0-1.219-.044-1.946-.087-2.18a1.002 1.002 0 00-.24-.516.799.799 0 00-.48-.164c-.218 0-.458.07-.741.188l-.11-.422 2.966-1.266h.436zM909.009 597.826v3.446h2.29v.797h-2.29v6.799c0 .68.087 1.125.283 1.383a.836.836 0 00.698.352c.218 0 .458-.094.676-.235.218-.164.393-.398.502-.703h.414c-.24.75-.589 1.313-1.047 1.688-.458.375-.916.563-1.395.563-.327 0-.654-.094-.96-.282-.327-.187-.545-.469-.697-.844-.153-.351-.219-.914-.219-1.664v-7.057h-1.548v-.375c.393-.164.785-.445 1.2-.867a7.676 7.676 0 001.09-1.407c.153-.305.392-.82.676-1.594h.327zM915.11 595.482v7.666c.786-.938 1.396-1.524 1.876-1.805a2.76 2.76 0 011.374-.376c.545 0 1.025.165 1.417.493.415.328.698.844.894 1.524.131.492.197 1.383.197 2.696v3.704c0 .656.065 1.125.152 1.36a.893.893 0 00.37.445c.154.094.48.14.939.14v.422h-4.798v-.422h.218c.458 0 .764-.07.96-.21.174-.141.283-.376.37-.657.022-.117.022-.492.022-1.078v-3.704c0-1.15-.043-1.9-.152-2.251-.11-.375-.284-.633-.545-.82-.24-.188-.524-.258-.873-.258s-.697.093-1.068.28c-.393.212-.829.61-1.352 1.22v5.533c0 .726.022 1.172.109 1.336.065.187.196.328.414.445.196.118.545.164 1.047.164v.422h-4.841v-.422c.436 0 .785-.07 1.025-.21.153-.07.262-.212.349-.423.087-.234.13-.656.13-1.312v-9.495c0-1.196-.043-1.922-.087-2.204-.065-.281-.13-.469-.24-.562-.108-.094-.261-.141-.457-.141-.131 0-.393.047-.72.164l-.153-.398 2.922-1.266h.502zM928.674 610.251c-1.003.82-1.635 1.313-1.897 1.43-.37.188-.785.281-1.221.281-.676 0-1.221-.234-1.657-.726-.437-.516-.655-1.15-.655-1.97 0-.515.11-.96.306-1.336.305-.516.806-1.008 1.526-1.453.72-.47 1.919-1.008 3.598-1.665v-.422c0-1.055-.153-1.758-.48-2.157-.305-.375-.741-.586-1.33-.586-.458 0-.807.14-1.068.399-.284.258-.415.562-.415.89l.022.657c0 .352-.087.633-.24.82a.856.856 0 01-.654.282.856.856 0 01-.654-.281c-.153-.211-.24-.47-.24-.82 0-.657.305-1.267.938-1.806.61-.563 1.504-.82 2.616-.82.873 0 1.592.14 2.137.468.415.235.72.586.916 1.102.131.328.196 1.008.196 2.016v3.564c0 .984.022 1.594.066 1.828.022.235.087.375.174.446.066.093.175.117.284.117a.57.57 0 00.283-.07c.153-.094.436-.376.872-.844v.656c-.806 1.125-1.548 1.711-2.29 1.711-.348 0-.61-.14-.828-.398-.196-.258-.305-.703-.305-1.313zm0-.75v-4.009c-1.069.469-1.766.797-2.093.985-.546.328-.96.68-1.2 1.055-.24.351-.349.773-.349 1.195 0 .563.153 1.008.458 1.36.306.375.655.563 1.047.563.545 0 1.243-.399 2.137-1.15zM935.67 603.171c1.134-1.477 2.224-2.204 3.27-2.204.524 0 .982.141 1.375.422.37.282.675.75.915 1.407.153.469.218 1.172.218 2.11v4.478c0 .656.066 1.101.153 1.36.087.187.196.328.37.445.175.094.502.14.982.14v.422h-4.84v-.422h.217c.458 0 .763-.07.938-.21.196-.141.305-.376.392-.657.022-.117.044-.469.044-1.078v-4.29c0-.962-.13-1.642-.349-2.087-.24-.422-.632-.633-1.177-.633-.83 0-1.68.492-2.508 1.477v5.533c0 .703.022 1.148.109 1.312.109.235.24.376.414.493.175.094.524.14 1.047.14v.422h-4.82v-.422h.219c.501 0 .829-.117 1.003-.398.174-.258.262-.797.262-1.547v-3.892c0-1.266-.022-2.04-.088-2.297-.043-.282-.13-.47-.24-.563a.673.673 0 00-.436-.164c-.196 0-.436.07-.72.187l-.152-.422 2.944-1.266h.458v2.204zM954.336 611.986c-1.2 0-2.16-.422-2.879-1.29-.741-.867-1.112-2.016-1.112-3.493v-3.774c0-1.477.37-2.65 1.09-3.517.72-.867 1.701-1.289 2.9-1.289.895 0 1.636.235 2.225.727.588.492.916 1.149 1.025 1.97h.065l-.044-2.931v-3.751h1.963v17.113h-1.963v-2.461h-.021c-.11.844-.437 1.5-1.025 1.97-.59.491-1.33.726-2.224.726zm.654-1.829c.806 0 1.46-.281 1.919-.82.457-.54.697-1.313.697-2.274v-3.517c0-.961-.24-1.735-.697-2.274-.458-.539-1.113-.82-1.92-.82-.828 0-1.482.258-1.962.797s-.72 1.29-.72 2.297v3.517c0 1.008.24 1.758.72 2.297.48.54 1.134.797 1.963.797z"
            fill="#b12e1e" fill-rule="nonzero" />
    </g>
    <g transform="matrix(.69987 0 0 .69987 -80.374 247.122)">
        <circle cx="447.581" cy="153.572" r="41.223" fill="none" />
        <clipPath id="prefix__b">
            <circle cx="447.581" cy="153.572" r="41.223" />
        </clipPath>
        <g clip-path="url(#prefix__b)">
            <path
                d="M445.614 169.368c-3.214 0-5.764-.831-7.593-2.494-1.829-1.607-2.771-3.824-2.771-6.651s.942-5.1 2.771-6.707c1.83-1.607 4.323-2.438 7.483-2.438h9.422v-3.049c0-1.829-.554-3.27-1.663-4.323-1.164-1.053-2.716-1.552-4.711-1.552-1.774 0-3.27.388-4.49 1.164-1.219.776-1.995 1.774-2.272 3.048h-4.988c.166-1.718.831-3.214 1.884-4.489s2.439-2.328 4.157-3.048c1.718-.721 3.603-1.054 5.709-1.054 3.492 0 6.263.887 8.314 2.716 2.05 1.83 3.048 4.268 3.048 7.372v20.95h-4.877v-5.819h-.056c-.221 1.94-1.164 3.492-2.826 4.656-1.718 1.164-3.88 1.718-6.54 1.718zm1.22-3.935c2.383 0 4.323-.61 5.82-1.774 1.496-1.164 2.272-2.716 2.272-4.545v-4.323h-9.312c-1.662 0-2.993.444-3.935 1.386-.942.942-1.44 2.161-1.44 3.769 0 1.718.609 3.048 1.773 4.046 1.108.942 2.771 1.44 4.822 1.44z"
                fill-rule="nonzero" />
        </g>
        <circle cx="447.581" cy="153.572" r="41.223" fill="none" stroke="#000" stroke-width="5.72" />
    </g>
    <g transform="matrix(-.69987 0 0 .69987 949.776 247.122)">
        <circle cx="447.581" cy="153.572" r="41.223" fill="none" />
        <clipPath id="prefix__c">
            <circle cx="447.581" cy="153.572" r="41.223" />
        </clipPath>
        <g clip-path="url(#prefix__c)">
            <path
                d="M446.668 169.368c3.714 0 6.651-1.053 8.813-3.104 2.217-2.05 3.326-4.933 3.326-8.535v-8.314c0-3.603-1.109-6.485-3.326-8.536-2.162-2.05-5.1-3.104-8.813-3.104-3.491 0-6.318.943-8.48 2.827-2.161 1.885-3.27 4.434-3.38 7.704h4.988c.11-1.94.776-3.491 1.94-4.545 1.219-.997 2.882-1.551 4.932-1.551 2.162 0 3.936.61 5.21 1.829 1.275 1.274 1.94 3.048 1.94 5.32v8.37c0 2.272-.665 4.046-1.94 5.32-1.274 1.275-3.048 1.885-5.21 1.885-2.05 0-3.713-.554-4.932-1.607-1.164-1.053-1.83-2.55-1.94-4.49h-4.989c.111 3.27 1.22 5.82 3.381 7.704 2.162 1.885 4.989 2.827 8.48 2.827z"
                fill-rule="nonzero" />
        </g>
        <circle cx="447.581" cy="153.572" r="41.223" fill="none" stroke="#000" stroke-width="5.72" />
    </g>
    <g>
        <path
            d="M557.182 451.795c6.746-9.16 18.365-14.698 30.84-14.698 12.476 0 24.095 5.538 30.841 14.698l42.271 57.399c7.252 9.848 7.766 22.368 1.339 32.644s-18.768 16.668-32.18 16.668h-84.541c-13.412 0-25.753-6.392-32.18-16.668s-5.913-22.796 1.339-32.644l42.271-57.399z"
            fill="#fff" stroke="#c1c1c1" stroke-width="3.41" transform="matrix(1.091 0 0 1.2498 -509.565 -82.35)" />
        <path d="M115.268 524.044L90.62 571.098" fill="none" stroke="#000" stroke-width="6.31" stroke-linecap="square"
            transform="matrix(.76756 -.05313 .19539 .6262 -117.526 295.195)" />
        <path d="M115.268 524.044L90.62 571.098" fill="none" stroke="#000" stroke-width="6.31" stroke-linecap="square"
            transform="matrix(-.76772 -.05366 -.19507 .6272 381.573 294.507)" />
        <path d="M115.268 524.044L90.62 571.098" fill="none" stroke="#000" stroke-width="6.34" stroke-linecap="square"
            transform="matrix(.7385 -.18619 .32287 .5316 -171.768 361.989)" />
        <circle cx="154.775" cy="556.848" r="2.753" transform="matrix(.80814 0 0 .80814 -27.046 185.525)" />
        <circle cx="154.775" cy="556.848" r="2.753" transform="matrix(.80814 0 0 .80814 4.283 185.525)" />
        <circle cx="154.775" cy="556.848" r="2.753" transform="matrix(.80814 0 0 .80814 -11.382 185.525)" />
        <g>
            <path
                d="M118.349 566.954v14.377c0 .68.048 1.116.145 1.358a.902.902 0 00.46.485c.195.121.583.17 1.14.17v.436h-5.31v-.436c.51 0 .85-.049 1.019-.146.194-.097.315-.267.436-.509.097-.242.146-.679.146-1.358v-9.843c0-1.236-.024-1.988-.073-2.255-.073-.29-.145-.484-.267-.581a.77.77 0 00-.484-.146c-.194 0-.461.049-.776.17l-.194-.412 3.224-1.31h.534zM123.168 577.016c0 1.624.388 2.885 1.188 3.782.776.921 1.722 1.382 2.788 1.382.704 0 1.31-.194 1.843-.582.533-.388.97-1.067 1.31-2.012l.387.242c-.17 1.091-.654 2.061-1.455 2.958-.8.873-1.794 1.333-3.006 1.333-1.285 0-2.4-.509-3.346-1.527-.92-1.018-1.381-2.376-1.381-4.097 0-1.843.484-3.297 1.43-4.34.945-1.042 2.133-1.552 3.588-1.552 1.212 0 2.206.413 2.982 1.213.776.8 1.188 1.866 1.188 3.2h-7.516zm0-.679h5.019c-.024-.703-.121-1.188-.243-1.479a2.44 2.44 0 00-.872-1.042 2.294 2.294 0 00-1.237-.364c-.654 0-1.236.242-1.745.752-.534.509-.825 1.212-.922 2.133zM139.118 572.628v3.685h-.388c-.291-1.164-.679-1.964-1.14-2.376-.484-.412-1.066-.63-1.794-.63-.557 0-1.018.145-1.357.436-.34.29-.51.63-.51.97 0 .46.146.824.389 1.14.242.339.751.678 1.503 1.042l1.721.824c1.6.8 2.4 1.818 2.4 3.103 0 .994-.363 1.77-1.115 2.376-.752.606-1.576.921-2.497.921-.68 0-1.43-.12-2.28-.363-.266-.073-.484-.121-.654-.121-.17 0-.315.097-.412.315h-.388v-3.88h.388c.218 1.116.63 1.94 1.26 2.498.631.557 1.334.848 2.11.848.533 0 .97-.17 1.31-.485a1.47 1.47 0 00.533-1.163c0-.534-.194-.994-.582-1.358-.388-.364-1.14-.848-2.28-1.406-1.163-.582-1.915-1.091-2.254-1.552-.364-.436-.533-1.018-.533-1.697 0-.897.29-1.648.921-2.23.606-.606 1.406-.897 2.376-.897.412 0 .921.072 1.552.266.387.122.654.17.8.17a.517.517 0 00.29-.073c.073-.072.146-.194.243-.363h.388zM148.553 572.628v3.685h-.388c-.29-1.164-.679-1.964-1.14-2.376-.484-.412-1.066-.63-1.794-.63-.557 0-1.018.145-1.357.436-.34.29-.51.63-.51.97 0 .46.146.824.389 1.14.242.339.751.678 1.503 1.042l1.721.824c1.6.8 2.4 1.818 2.4 3.103 0 .994-.363 1.77-1.115 2.376-.752.606-1.576.921-2.497.921-.679 0-1.43-.12-2.28-.363-.266-.073-.484-.121-.654-.121-.17 0-.315.097-.412.315h-.388v-3.88h.388c.218 1.116.63 1.94 1.26 2.498.631.557 1.334.848 2.11.848.533 0 .97-.17 1.31-.485a1.47 1.47 0 00.533-1.163c0-.534-.194-.994-.582-1.358-.388-.364-1.14-.848-2.28-1.406-1.163-.582-1.914-1.091-2.254-1.552-.364-.436-.533-1.018-.533-1.697 0-.897.29-1.648.921-2.23.606-.606 1.406-.897 2.376-.897.412 0 .921.072 1.552.266.388.122.654.17.8.17a.517.517 0 00.29-.073c.073-.072.146-.194.243-.363h.388zM104.775 594.654v3.564h2.546v.824h-2.546v7.03c0 .704.097 1.164.315 1.431.194.243.46.364.776.364.242 0 .51-.097.752-.243.242-.17.436-.412.557-.727h.46c-.266.776-.654 1.358-1.163 1.746-.509.387-1.018.581-1.551.581-.364 0-.728-.097-1.067-.29-.364-.194-.606-.485-.776-.873-.17-.364-.243-.946-.243-1.722v-7.297h-1.72v-.388c.436-.17.872-.46 1.333-.897a8.044 8.044 0 001.212-1.455c.17-.315.436-.848.751-1.648h.364zM111.56 592.23v7.927c.872-.97 1.551-1.576 2.084-1.867a3.248 3.248 0 011.528-.388c.606 0 1.14.17 1.576.51.46.339.775.872.994 1.575.145.51.218 1.43.218 2.788v3.831c0 .679.073 1.164.17 1.406.072.194.218.34.412.46.17.098.533.146 1.042.146v.437h-5.333v-.437h.242c.51 0 .849-.072 1.067-.218.194-.145.315-.388.412-.679.024-.121.024-.509.024-1.115v-3.83c0-1.189-.048-1.964-.17-2.328-.12-.388-.315-.655-.606-.849-.266-.194-.582-.266-.97-.266-.387 0-.775.097-1.187.29-.437.219-.922.631-1.504 1.261v5.722c0 .752.025 1.212.122 1.382.072.194.218.34.46.46.218.122.606.17 1.164.17v.437h-5.382v-.437c.485 0 .873-.072 1.14-.218.169-.073.29-.218.387-.436.097-.243.146-.68.146-1.358v-9.819c0-1.236-.049-1.988-.097-2.279-.073-.29-.146-.485-.267-.582-.121-.097-.291-.145-.51-.145-.145 0-.436.048-.8.17l-.169-.413 3.249-1.309h.557zM126.64 607.503c-1.116.849-1.819 1.358-2.11 1.479-.412.194-.873.29-1.358.29-.751 0-1.357-.242-1.842-.75-.485-.534-.727-1.189-.727-2.037 0-.534.12-.994.339-1.382.34-.533.897-1.043 1.697-1.503.8-.485 2.134-1.043 4-1.722v-.436c0-1.091-.17-1.818-.533-2.23-.34-.388-.824-.607-1.479-.607-.51 0-.897.146-1.188.413-.315.266-.46.581-.46.92l.024.68c0 .363-.097.654-.267.848a.987.987 0 01-.727.291.987.987 0 01-.728-.29c-.17-.219-.266-.486-.266-.85 0-.678.34-1.309 1.042-1.866.679-.582 1.673-.849 2.91-.849.97 0 1.77.146 2.375.485.461.243.8.606 1.019 1.14.145.34.218 1.042.218 2.085v3.685c0 1.018.024 1.648.073 1.89.024.243.097.389.194.462.072.097.194.12.315.12a.671.671 0 00.315-.072c.17-.097.485-.388.97-.873v.68c-.897 1.163-1.722 1.769-2.546 1.769-.388 0-.679-.146-.921-.412-.218-.267-.34-.728-.34-1.358zm0-.776v-4.146c-1.189.485-1.964.825-2.328 1.019-.606.34-1.067.703-1.334 1.09-.266.364-.387.8-.387 1.237 0 .582.17 1.043.509 1.406.34.388.727.582 1.163.582.607 0 1.382-.412 2.376-1.188zM134.419 600.181c1.26-1.527 2.472-2.279 3.636-2.279.582 0 1.091.146 1.528.437.412.29.751.776 1.018 1.454.17.485.242 1.213.242 2.182v4.631c0 .679.073 1.14.17 1.406.097.194.218.34.412.46.194.098.558.146 1.091.146v.437h-5.382v-.437h.242c.51 0 .849-.072 1.043-.218.218-.145.34-.388.436-.679.024-.121.049-.485.049-1.115v-4.437c0-.994-.146-1.697-.388-2.157-.267-.437-.703-.655-1.31-.655-.92 0-1.866.51-2.787 1.527v5.722c0 .727.024 1.188.12 1.358.122.242.267.388.461.509.194.097.582.145 1.164.145v.437h-5.358v-.437h.243c.557 0 .92-.12 1.115-.412.194-.267.29-.824.29-1.6v-4.025c0-1.309-.024-2.109-.096-2.375-.049-.291-.146-.485-.267-.582a.78.78 0 00-.485-.17c-.218 0-.485.073-.8.194l-.17-.436 3.273-1.31h.51v2.28zM154.784 609.297c-1.406 0-2.522-.364-3.322-1.09-.8-.704-1.212-1.674-1.212-2.91 0-1.237.412-2.23 1.212-2.934.8-.703 1.891-1.066 3.273-1.066h4.122v-1.334c0-.8-.243-1.43-.728-1.891-.509-.46-1.188-.679-2.06-.679-.776 0-1.43.17-1.964.51-.533.339-.873.775-.994 1.333h-2.182a3.575 3.575 0 01.824-1.964 4.676 4.676 0 011.819-1.333c.751-.316 1.575-.461 2.497-.461 1.527 0 2.74.388 3.636 1.188.897.8 1.334 1.867 1.334 3.224v9.165h-2.134v-2.546h-.024c-.097.849-.51 1.527-1.236 2.037-.752.509-1.698.751-2.861.751zm.533-1.721c1.043 0 1.891-.267 2.546-.776.654-.51.994-1.188.994-1.988v-1.891h-4.073c-.728 0-1.31.194-1.722.606-.412.412-.63.946-.63 1.649 0 .751.267 1.333.776 1.77.485.412 1.212.63 2.11.63z"
                fill="#b12e1e" fill-rule="nonzero" />
        </g>
    </g>
    <g>
        <path
            d="M557.182 451.795c6.746-9.16 18.365-14.698 30.84-14.698 12.476 0 24.095 5.538 30.841 14.698l42.271 57.399c7.252 9.848 7.766 22.368 1.339 32.644s-18.768 16.668-32.18 16.668h-84.541c-13.412 0-25.753-6.392-32.18-16.668s-5.913-22.796 1.339-32.644l42.271-57.399z"
            fill="#fff" stroke="#c1c1c1" stroke-width="3.41" transform="matrix(1.091 0 0 1.2498 -307.74 -82.35)" />
        <path d="M115.268 524.044L90.62 571.098" fill="none" stroke="#000" stroke-width="6.31" stroke-linecap="square"
            transform="matrix(.76756 -.05313 .19539 .6262 84.3 295.195)" />
        <path d="M115.268 524.044L90.62 571.098" fill="none" stroke="#000" stroke-width="6.31" stroke-linecap="square"
            transform="matrix(-.76772 -.05366 -.19507 .6272 583.399 294.507)" />
        <path d="M115.268 524.044L90.62 571.098" fill="none" stroke="#000" stroke-width="6.34" stroke-linecap="square"
            transform="matrix(.7385 -.18619 .32287 .5316 30.057 361.989)" />
        <circle cx="154.775" cy="556.848" r="2.753" transform="matrix(.80814 0 0 .80814 174.779 185.525)" />
        <circle cx="154.775" cy="556.848" r="2.753" transform="matrix(.80814 0 0 .80814 206.108 185.525)" />
        <circle cx="154.775" cy="556.848" r="2.753" transform="matrix(.80814 0 0 .80814 190.444 185.525)" />
        <g>
            <path
                d="M297.22 574.81c1.042-1.455 2.181-2.182 3.394-2.182 1.115 0 2.085.46 2.909 1.406.824.97 1.236 2.255 1.236 3.903 0 1.94-.63 3.491-1.915 4.655-1.091 1.018-2.303 1.527-3.66 1.527a5.91 5.91 0 01-1.916-.339 9.395 9.395 0 01-2.012-1.042v-11.226c0-1.236-.025-1.988-.073-2.279-.073-.29-.17-.484-.291-.581a.746.746 0 00-.46-.146c-.243 0-.51.049-.85.17l-.145-.412 3.249-1.31h.533v7.856zm0 .751v6.498c.387.388.824.679 1.236.897.436.194.873.29 1.333.29.703 0 1.382-.387 2.012-1.187.607-.776.922-1.94.922-3.443 0-1.382-.315-2.449-.922-3.2-.63-.752-1.333-1.115-2.133-1.115-.412 0-.824.096-1.236.315-.316.17-.728.485-1.213.945zM308.178 577.016c0 1.624.388 2.885 1.188 3.782.776.921 1.721 1.382 2.788 1.382.703 0 1.309-.194 1.842-.582.534-.388.97-1.067 1.31-2.012l.387.242c-.17 1.091-.654 2.061-1.454 2.958-.8.873-1.794 1.333-3.006 1.333-1.285 0-2.4-.509-3.346-1.527-.921-1.018-1.382-2.376-1.382-4.097 0-1.843.485-3.297 1.43-4.34.946-1.042 2.134-1.552 3.588-1.552 1.213 0 2.207.413 2.982 1.213.776.8 1.188 1.866 1.188 3.2h-7.515zm0-.679h5.018c-.024-.703-.12-1.188-.242-1.479a2.44 2.44 0 00-.873-1.042 2.294 2.294 0 00-1.236-.364c-.655 0-1.237.242-1.746.752-.533.509-.824 1.212-.921 2.133zM320.272 569.379v3.564h2.546v.824h-2.546v7.031c0 .703.097 1.164.316 1.43.194.243.46.364.775.364.243 0 .51-.097.752-.242.242-.17.436-.413.558-.728h.46c-.266.776-.654 1.358-1.163 1.746-.51.388-1.019.582-1.552.582-.364 0-.727-.097-1.067-.291-.364-.194-.606-.485-.776-.873-.17-.364-.242-.946-.242-1.721v-7.298h-1.721v-.388c.436-.17.872-.46 1.333-.897a8.044 8.044 0 001.212-1.454c.17-.316.437-.849.752-1.65h.363zM323.25 572.943h4.558v.436c-.412.024-.703.097-.824.218a.695.695 0 00-.194.51c0 .242.073.533.194.897l2.327 6.23 2.328-5.067-.606-1.6c-.194-.485-.437-.8-.752-.994-.17-.097-.509-.17-.97-.194v-.436h5.165v.436c-.582.024-.97.121-1.213.291-.17.146-.242.34-.242.606 0 .17.024.34.097.485l2.473 6.23 2.279-5.987c.145-.437.242-.776.242-1.019 0-.145-.097-.29-.242-.412-.146-.121-.46-.194-.897-.194v-.436h3.418v.436c-.679.097-1.188.558-1.527 1.382l-3.613 9.358h-.485l-2.715-6.933-3.152 6.933h-.436l-3.491-9.115c-.218-.582-.46-.97-.68-1.164-.217-.218-.557-.364-1.042-.46v-.437zM343.183 577.016c0 1.624.388 2.885 1.188 3.782.776.921 1.722 1.382 2.788 1.382.703 0 1.31-.194 1.843-.582.533-.388.97-1.067 1.31-2.012l.387.242c-.17 1.091-.655 2.061-1.455 2.958-.8.873-1.794 1.333-3.006 1.333-1.285 0-2.4-.509-3.346-1.527-.921-1.018-1.382-2.376-1.382-4.097 0-1.843.485-3.297 1.43-4.34.946-1.042 2.134-1.552 3.589-1.552 1.212 0 2.206.413 2.982 1.213.776.8 1.188 1.866 1.188 3.2h-7.516zm0-.679h5.019c-.024-.703-.121-1.188-.243-1.479a2.44 2.44 0 00-.872-1.042 2.294 2.294 0 00-1.237-.364c-.654 0-1.236.242-1.745.752-.534.509-.825 1.212-.922 2.133zM353.944 577.016c0 1.624.388 2.885 1.188 3.782.775.921 1.721 1.382 2.788 1.382.703 0 1.309-.194 1.842-.582.534-.388.97-1.067 1.31-2.012l.387.242c-.17 1.091-.654 2.061-1.454 2.958-.8.873-1.794 1.333-3.007 1.333-1.284 0-2.4-.509-3.345-1.527-.922-1.018-1.382-2.376-1.382-4.097 0-1.843.485-3.297 1.43-4.34.946-1.042 2.134-1.552 3.588-1.552 1.213 0 2.207.413 2.982 1.213.776.8 1.188 1.866 1.188 3.2h-7.515zm0-.679h5.018c-.024-.703-.121-1.188-.242-1.479a2.44 2.44 0 00-.873-1.042 2.294 2.294 0 00-1.236-.364c-.655 0-1.237.242-1.746.752-.533.509-.824 1.212-.921 2.133zM366.063 574.907c1.26-1.528 2.473-2.28 3.636-2.28.582 0 1.091.146 1.528.437.412.291.751.776 1.018 1.455.17.485.242 1.212.242 2.182v4.63c0 .68.073 1.14.17 1.407.097.193.218.339.412.46.194.097.558.146 1.091.146v.436h-5.382v-.436h.242c.51 0 .849-.073 1.043-.219.218-.145.34-.387.436-.678.025-.122.049-.485.049-1.116v-4.436c0-.994-.146-1.697-.388-2.158-.267-.436-.703-.655-1.31-.655-.92 0-1.866.51-2.787 1.528v5.721c0 .728.024 1.188.12 1.358.122.242.268.388.461.51.194.096.582.145 1.164.145v.436h-5.358v-.436h.243c.557 0 .92-.122 1.115-.413.194-.266.29-.824.29-1.6v-4.024c0-1.31-.023-2.11-.096-2.376-.049-.291-.146-.485-.267-.582a.78.78 0 00-.485-.17c-.218 0-.485.073-.8.194l-.17-.436 3.273-1.31h.51v2.28zM301.871 609.297c-1.406 0-2.521-.364-3.321-1.09-.8-.704-1.213-1.674-1.213-2.91 0-1.237.412-2.23 1.213-2.934.8-.703 1.89-1.066 3.272-1.066h4.122v-1.334c0-.8-.242-1.43-.727-1.891-.51-.46-1.188-.679-2.061-.679-.776 0-1.43.17-1.964.51-.533.339-.873.775-.994 1.333h-2.182a3.575 3.575 0 01.824-1.964 4.676 4.676 0 011.819-1.333c.751-.316 1.576-.461 2.497-.461 1.527 0 2.74.388 3.637 1.188.897.8 1.333 1.867 1.333 3.224v9.165h-2.133v-2.546h-.025c-.097.849-.509 1.527-1.236 2.037-.752.509-1.697.751-2.861.751zm.533-1.721c1.043 0 1.891-.267 2.546-.776.655-.51.994-1.188.994-1.988v-1.891h-4.073c-.727 0-1.31.194-1.721.606-.413.412-.63.946-.63 1.649 0 .751.266 1.333.775 1.77.485.412 1.212.63 2.11.63zM323.279 607.503c-1.116.849-1.819 1.358-2.11 1.479-.412.194-.872.29-1.357.29-.752 0-1.358-.242-1.843-.75-.485-.534-.727-1.189-.727-2.037 0-.534.121-.994.34-1.382.339-.533.896-1.043 1.696-1.503.8-.485 2.134-1.043 4-1.722v-.436c0-1.091-.169-1.818-.533-2.23-.34-.388-.824-.607-1.479-.607-.509 0-.897.146-1.188.413-.315.266-.46.581-.46.92l.024.68c0 .363-.097.654-.267.848a.987.987 0 01-.727.291.987.987 0 01-.727-.29c-.17-.219-.267-.486-.267-.85 0-.678.34-1.309 1.043-1.866.678-.582 1.672-.849 2.909-.849.97 0 1.77.146 2.376.485.46.243.8.606 1.018 1.14.146.34.218 1.042.218 2.085v3.685c0 1.018.024 1.648.073 1.89.024.243.097.389.194.462.073.097.194.12.315.12a.671.671 0 00.315-.072c.17-.097.485-.388.97-.873v.68c-.897 1.163-1.721 1.769-2.546 1.769-.388 0-.678-.146-.92-.412-.22-.267-.34-.728-.34-1.358zm0-.776v-4.146c-1.188.485-1.964.825-2.328 1.019-.606.34-1.067.703-1.333 1.09-.267.364-.388.8-.388 1.237 0 .582.17 1.043.509 1.406.34.388.727.582 1.164.582.606 0 1.382-.412 2.376-1.188zM331.057 600.181c1.26-1.527 2.473-2.279 3.637-2.279.582 0 1.09.146 1.527.437.412.29.752.776 1.018 1.454.17.485.243 1.213.243 2.182v4.631c0 .679.073 1.14.17 1.406.096.194.218.34.412.46.194.098.557.146 1.09.146v.437h-5.382v-.437h.243c.509 0 .848-.072 1.042-.218.219-.145.34-.388.437-.679.024-.121.048-.485.048-1.115v-4.437c0-.994-.145-1.697-.388-2.157-.266-.437-.703-.655-1.309-.655-.921 0-1.867.51-2.788 1.527v5.722c0 .727.024 1.188.121 1.358.122.242.267.388.46.509.195.097.583.145 1.165.145v.437h-5.358v-.437h.242c.558 0 .921-.12 1.115-.412.194-.267.291-.824.291-1.6v-4.025c0-1.309-.024-2.109-.097-2.375-.048-.291-.145-.485-.266-.582a.78.78 0 00-.485-.17c-.218 0-.485.073-.8.194l-.17-.436 3.273-1.31h.51v2.28zM347.664 607.842c-.533.534-1.042.946-1.551 1.188a3.705 3.705 0 01-1.625.364c-1.188 0-2.23-.509-3.103-1.503-.897-.97-1.333-2.255-1.333-3.806 0-1.552.485-2.982 1.479-4.267.97-1.285 2.23-1.94 3.782-1.94.945 0 1.721.315 2.351.921v-2.012c0-1.236-.024-1.988-.072-2.279-.073-.29-.17-.485-.291-.582a.746.746 0 00-.46-.145c-.22 0-.486.048-.825.17l-.17-.413 3.249-1.309h.533v12.534c0 1.261.024 2.037.073 2.328.073.267.17.46.29.582.122.097.292.17.462.17.218 0 .484-.073.848-.219l.121.412-3.2 1.358h-.558v-1.552zm0-.824v-5.6a4.05 4.05 0 00-.412-1.455 2.569 2.569 0 00-.945-1.018c-.388-.218-.776-.34-1.14-.34-.703 0-1.333.316-1.867.946-.727.824-1.066 2.012-1.066 3.588 0 1.6.34 2.812 1.042 3.661.679.849 1.455 1.285 2.303 1.285.728 0 1.407-.364 2.085-1.067zM365.484 609.297c-.994 0-1.818-.242-2.473-.751-.655-.485-1.018-1.164-1.14-2.037h-.024v2.546h-2.182v-17.699h2.182v3.88l-.048 3.03h.073c.12-.849.484-1.527 1.139-2.037.655-.509 1.479-.751 2.473-.751 1.333 0 2.424.436 3.224 1.333.8.897 1.213 2.11 1.213 3.637v3.903c0 1.528-.412 2.716-1.213 3.613-.8.897-1.89 1.333-3.224 1.333zm-.727-1.89c.92 0 1.648-.268 2.182-.825.533-.558.8-1.334.8-2.376v-3.637c0-1.042-.267-1.818-.8-2.376-.534-.557-1.261-.824-2.182-.824-.897 0-1.6.29-2.11.849-.533.557-.8 1.357-.8 2.351v3.637c0 .994.267 1.794.8 2.352.51.557 1.213.848 2.11.848z"
                fill="#b12e1e" fill-rule="nonzero" />
        </g>
    </g>
    <g>
        <path
            d="M557.182 451.795c6.746-9.16 18.365-14.698 30.84-14.698 12.476 0 24.095 5.538 30.841 14.698l42.271 57.399c7.252 9.848 7.766 22.368 1.339 32.644s-18.768 16.668-32.18 16.668h-84.541c-13.412 0-25.753-6.392-32.18-16.668s-5.913-22.796 1.339-32.644l42.271-57.399z"
            fill="#fff" stroke="#c1c1c1" stroke-width="3.41" transform="matrix(1.091 0 0 1.2498 -105.915 -82.35)" />
        <path d="M115.268 524.044L90.62 571.098" fill="none" stroke="#000" stroke-width="6.31" stroke-linecap="square"
            transform="matrix(.76756 -.05313 .19539 .6262 286.124 295.195)" />
        <path d="M115.268 524.044L90.62 571.098" fill="none" stroke="#000" stroke-width="6.31" stroke-linecap="square"
            transform="matrix(-.76772 -.05366 -.19507 .6272 785.224 294.507)" />
        <path d="M115.268 524.044L90.62 571.098" fill="none" stroke="#000" stroke-width="6.34" stroke-linecap="square"
            transform="matrix(.7385 -.18619 .32287 .5316 231.882 361.989)" />
        <circle cx="154.775" cy="556.848" r="2.753" transform="matrix(.80814 0 0 .80814 376.604 185.525)" />
        <circle cx="154.775" cy="556.848" r="2.753" transform="matrix(.80814 0 0 .80814 407.933 185.525)" />
        <circle cx="154.775" cy="556.848" r="2.753" transform="matrix(.80814 0 0 .80814 392.269 185.525)" />
        <g>
            <path
                d="M499.044 574.81c1.043-1.455 2.182-2.182 3.395-2.182 1.115 0 2.085.46 2.909 1.406.824.97 1.236 2.255 1.236 3.903 0 1.94-.63 3.491-1.915 4.655-1.091 1.018-2.303 1.527-3.66 1.527a5.91 5.91 0 01-1.916-.339 9.395 9.395 0 01-2.012-1.042v-11.226c0-1.236-.025-1.988-.073-2.279-.073-.29-.17-.484-.291-.581a.746.746 0 00-.46-.146c-.243 0-.51.049-.85.17l-.145-.412 3.249-1.31h.533v7.856zm0 .751v6.498c.388.388.825.679 1.237.897.436.194.873.29 1.333.29.703 0 1.382-.387 2.012-1.187.607-.776.922-1.94.922-3.443 0-1.382-.315-2.449-.922-3.2-.63-.752-1.333-1.115-2.133-1.115-.412 0-.824.096-1.236.315-.316.17-.728.485-1.213.945zM510.003 577.016c0 1.624.388 2.885 1.188 3.782.776.921 1.721 1.382 2.788 1.382.703 0 1.309-.194 1.842-.582.534-.388.97-1.067 1.31-2.012l.387.242c-.17 1.091-.654 2.061-1.454 2.958-.8.873-1.794 1.333-3.006 1.333-1.285 0-2.4-.509-3.346-1.527-.921-1.018-1.382-2.376-1.382-4.097 0-1.843.485-3.297 1.43-4.34.946-1.042 2.134-1.552 3.588-1.552 1.213 0 2.207.413 2.982 1.213.776.8 1.188 1.866 1.188 3.2h-7.515zm0-.679h5.018c-.024-.703-.12-1.188-.242-1.479a2.44 2.44 0 00-.873-1.042 2.294 2.294 0 00-1.236-.364c-.655 0-1.237.242-1.746.752-.533.509-.824 1.212-.921 2.133zM522.097 569.379v3.564h2.546v.824h-2.546v7.031c0 .703.097 1.164.316 1.43.194.243.46.364.775.364.243 0 .51-.097.752-.242.242-.17.436-.413.558-.728h.46c-.266.776-.654 1.358-1.163 1.746-.51.388-1.019.582-1.552.582-.364 0-.727-.097-1.067-.291-.364-.194-.606-.485-.776-.873-.17-.364-.242-.946-.242-1.721v-7.298h-1.721v-.388c.436-.17.872-.46 1.333-.897a8.044 8.044 0 001.212-1.454c.17-.316.437-.849.752-1.65h.363zM525.075 572.943h4.558v.436c-.412.024-.703.097-.824.218a.695.695 0 00-.194.51c0 .242.073.533.194.897l2.327 6.23 2.328-5.067-.606-1.6c-.194-.485-.437-.8-.752-.994-.17-.097-.509-.17-.97-.194v-.436h5.165v.436c-.582.024-.97.121-1.213.291-.17.146-.242.34-.242.606 0 .17.024.34.097.485l2.473 6.23 2.279-5.987c.145-.437.242-.776.242-1.019 0-.145-.097-.29-.242-.412-.146-.121-.46-.194-.897-.194v-.436h3.418v.436c-.679.097-1.188.558-1.527 1.382l-3.613 9.358h-.485l-2.715-6.933-3.152 6.933h-.436l-3.491-9.115c-.218-.582-.46-.97-.68-1.164-.217-.218-.557-.364-1.042-.46v-.437zM545.008 577.016c0 1.624.388 2.885 1.188 3.782.776.921 1.722 1.382 2.788 1.382.703 0 1.31-.194 1.843-.582.533-.388.97-1.067 1.31-2.012l.387.242c-.17 1.091-.655 2.061-1.455 2.958-.8.873-1.794 1.333-3.006 1.333-1.285 0-2.4-.509-3.346-1.527-.921-1.018-1.382-2.376-1.382-4.097 0-1.843.485-3.297 1.43-4.34.946-1.042 2.134-1.552 3.589-1.552 1.212 0 2.206.413 2.982 1.213.776.8 1.188 1.866 1.188 3.2h-7.516zm0-.679h5.019c-.024-.703-.121-1.188-.243-1.479a2.44 2.44 0 00-.872-1.042 2.294 2.294 0 00-1.237-.364c-.654 0-1.236.242-1.745.752-.534.509-.825 1.212-.922 2.133zM555.769 577.016c0 1.624.388 2.885 1.188 3.782.775.921 1.721 1.382 2.788 1.382.703 0 1.309-.194 1.842-.582.534-.388.97-1.067 1.31-2.012l.387.242c-.17 1.091-.654 2.061-1.454 2.958-.8.873-1.794 1.333-3.007 1.333-1.284 0-2.4-.509-3.345-1.527-.922-1.018-1.382-2.376-1.382-4.097 0-1.843.485-3.297 1.43-4.34.946-1.042 2.134-1.552 3.588-1.552 1.213 0 2.207.413 2.982 1.213.776.8 1.188 1.866 1.188 3.2h-7.515zm0-.679h5.018c-.024-.703-.121-1.188-.242-1.479a2.44 2.44 0 00-.873-1.042 2.294 2.294 0 00-1.236-.364c-.655 0-1.237.242-1.746.752-.533.509-.824 1.212-.921 2.133zM567.888 574.907c1.26-1.528 2.473-2.28 3.636-2.28.582 0 1.091.146 1.528.437.412.291.751.776 1.018 1.455.17.485.242 1.212.242 2.182v4.63c0 .68.073 1.14.17 1.407.097.193.218.339.412.46.194.097.558.146 1.091.146v.436h-5.382v-.436h.242c.51 0 .849-.073 1.043-.219.218-.145.34-.387.436-.678.025-.122.049-.485.049-1.116v-4.436c0-.994-.146-1.697-.388-2.158-.267-.436-.703-.655-1.31-.655-.92 0-1.866.51-2.787 1.528v5.721c0 .728.024 1.188.12 1.358.122.242.268.388.461.51.194.096.582.145 1.164.145v.436h-5.358v-.436h.243c.557 0 .92-.122 1.115-.413.194-.266.29-.824.29-1.6v-4.024c0-1.31-.023-2.11-.096-2.376-.049-.291-.146-.485-.267-.582a.78.78 0 00-.485-.17c-.218 0-.485.073-.8.194l-.17-.436 3.273-1.31h.51v2.28zM505.636 609.297c-.994 0-1.819-.242-2.473-.751-.655-.485-1.019-1.164-1.14-2.037H502v2.546h-2.182v-17.699h2.182v3.88l-.049 3.03h.073c.121-.849.485-1.527 1.14-2.037.654-.509 1.479-.751 2.473-.751 1.333 0 2.424.436 3.224 1.333.8.897 1.212 2.11 1.212 3.637v3.903c0 1.528-.412 2.716-1.212 3.613-.8.897-1.891 1.333-3.224 1.333zm-.728-1.89c.921 0 1.649-.268 2.182-.825.534-.558.8-1.334.8-2.376v-3.637c0-1.042-.266-1.818-.8-2.376-.533-.557-1.26-.824-2.182-.824-.897 0-1.6.29-2.11.849-.532.557-.8 1.357-.8 2.351v3.637c0 .994.268 1.794.8 2.352.51.557 1.213.848 2.11.848zM525.104 607.503c-1.116.849-1.819 1.358-2.11 1.479-.412.194-.872.29-1.357.29-.752 0-1.358-.242-1.843-.75-.485-.534-.727-1.189-.727-2.037 0-.534.121-.994.34-1.382.339-.533.896-1.043 1.696-1.503.8-.485 2.134-1.043 4-1.722v-.436c0-1.091-.169-1.818-.533-2.23-.34-.388-.824-.607-1.479-.607-.509 0-.897.146-1.188.413-.315.266-.46.581-.46.92l.024.68c0 .363-.097.654-.267.848a.987.987 0 01-.727.291.987.987 0 01-.727-.29c-.17-.219-.267-.486-.267-.85 0-.678.34-1.309 1.043-1.866.678-.582 1.672-.849 2.909-.849.97 0 1.77.146 2.376.485.46.243.8.606 1.018 1.14.146.34.218 1.042.218 2.085v3.685c0 1.018.024 1.648.073 1.89.024.243.097.389.194.462.073.097.194.12.315.12a.671.671 0 00.315-.072c.17-.097.485-.388.97-.873v.68c-.897 1.163-1.721 1.769-2.546 1.769-.388 0-.678-.146-.92-.412-.22-.267-.34-.728-.34-1.358zm0-.776v-4.146c-1.188.485-1.964.825-2.328 1.019-.606.34-1.067.703-1.333 1.09-.267.364-.388.8-.388 1.237 0 .582.17 1.043.509 1.406.34.388.727.582 1.164.582.606 0 1.382-.412 2.376-1.188zM532.882 600.181c1.26-1.527 2.473-2.279 3.637-2.279.582 0 1.09.146 1.527.437.412.29.752.776 1.018 1.454.17.485.243 1.213.243 2.182v4.631c0 .679.073 1.14.17 1.406.096.194.218.34.412.46.194.098.557.146 1.09.146v.437h-5.382v-.437h.243c.509 0 .848-.072 1.042-.218.219-.145.34-.388.437-.679.024-.121.048-.485.048-1.115v-4.437c0-.994-.145-1.697-.388-2.157-.266-.437-.703-.655-1.309-.655-.921 0-1.867.51-2.788 1.527v5.722c0 .727.024 1.188.121 1.358.122.242.267.388.46.509.195.097.583.145 1.165.145v.437h-5.358v-.437h.242c.558 0 .921-.12 1.115-.412.194-.267.291-.824.291-1.6v-4.025c0-1.309-.024-2.109-.097-2.375-.048-.291-.145-.485-.266-.582a.78.78 0 00-.485-.17c-.218 0-.485.073-.8.194l-.17-.436 3.273-1.31h.51v2.28zM549.49 607.842c-.534.534-1.043.946-1.552 1.188a3.705 3.705 0 01-1.625.364c-1.188 0-2.23-.509-3.103-1.503-.897-.97-1.333-2.255-1.333-3.806 0-1.552.485-2.982 1.479-4.267.97-1.285 2.23-1.94 3.782-1.94.945 0 1.721.315 2.351.921v-2.012c0-1.236-.024-1.988-.072-2.279-.073-.29-.17-.485-.291-.582a.746.746 0 00-.46-.145c-.22 0-.486.048-.825.17l-.17-.413 3.249-1.309h.533v12.534c0 1.261.024 2.037.073 2.328.073.267.17.46.29.582.122.097.292.17.462.17.218 0 .484-.073.848-.219l.121.412-3.2 1.358h-.558v-1.552zm0-.824v-5.6a4.05 4.05 0 00-.413-1.455 2.569 2.569 0 00-.945-1.018c-.388-.218-.776-.34-1.14-.34-.703 0-1.333.316-1.867.946-.727.824-1.066 2.012-1.066 3.588 0 1.6.34 2.812 1.042 3.661.679.849 1.455 1.285 2.303 1.285.728 0 1.407-.364 2.085-1.067zM566.63 609.297c-1.624 0-2.91-.46-3.855-1.358-.97-.897-1.454-2.157-1.454-3.733v-3.637c0-1.576.485-2.836 1.454-3.733.946-.897 2.23-1.358 3.855-1.358 1.528 0 2.764.412 3.71 1.236.945.825 1.43 1.94 1.478 3.37h-2.182c-.048-.848-.339-1.527-.848-1.988-.534-.436-1.26-.679-2.158-.679-.945 0-1.721.267-2.279.8-.557.558-.848 1.334-.848 2.328v3.66c0 .995.29 1.77.848 2.328.558.558 1.334.825 2.28.825.896 0 1.623-.243 2.157-.703.509-.461.8-1.116.848-1.964h2.182c-.048 1.43-.533 2.545-1.479 3.37-.945.824-2.181 1.236-3.709 1.236z"
                fill="#b12e1e" fill-rule="nonzero" />
        </g>
    </g>
    <g>
        <path
            d="M557.182 451.795c6.746-9.16 18.365-14.698 30.84-14.698 12.476 0 24.095 5.538 30.841 14.698l42.271 57.399c7.252 9.848 7.766 22.368 1.339 32.644s-18.768 16.668-32.18 16.668h-84.541c-13.412 0-25.753-6.392-32.18-16.668s-5.913-22.796 1.339-32.644l42.271-57.399z"
            fill="#fff" stroke="#c1c1c1" stroke-width="3.41" transform="matrix(1.091 0 0 1.2498 95.91 -82.35)" />
        <path d="M115.268 524.044L90.62 571.098" fill="none" stroke="#000" stroke-width="6.31" stroke-linecap="square"
            transform="matrix(.76756 -.05313 .19539 .6262 487.95 295.195)" />
        <path d="M115.268 524.044L90.62 571.098" fill="none" stroke="#000" stroke-width="6.31" stroke-linecap="square"
            transform="matrix(-.76772 -.05366 -.19507 .6272 987.049 294.507)" />
        <path d="M115.268 524.044L90.62 571.098" fill="none" stroke="#000" stroke-width="6.34" stroke-linecap="square"
            transform="matrix(.7385 -.18619 .32287 .5316 433.707 361.989)" />
        <circle cx="154.775" cy="556.848" r="2.753" transform="matrix(.80814 0 0 .80814 578.429 185.525)" />
        <circle cx="154.775" cy="556.848" r="2.753" transform="matrix(.80814 0 0 .80814 609.758 185.525)" />
        <circle cx="154.775" cy="556.848" r="2.753" transform="matrix(.80814 0 0 .80814 594.094 185.525)" />
        <g>
            <path
                d="M700.348 574.81c1.043-1.455 2.182-2.182 3.395-2.182 1.115 0 2.085.46 2.909 1.406.824.97 1.236 2.255 1.236 3.903 0 1.94-.63 3.491-1.915 4.655-1.09 1.018-2.303 1.527-3.66 1.527a5.91 5.91 0 01-1.916-.339 9.395 9.395 0 01-2.012-1.042v-11.226c0-1.236-.025-1.988-.073-2.279-.073-.29-.17-.484-.291-.581a.746.746 0 00-.46-.146c-.243 0-.51.049-.85.17l-.145-.412 3.25-1.31h.532v7.856zm0 .751v6.498c.388.388.825.679 1.237.897.436.194.873.29 1.333.29.703 0 1.382-.387 2.013-1.187.606-.776.92-1.94.92-3.443 0-1.382-.314-2.449-.92-3.2-.63-.752-1.334-1.115-2.134-1.115-.412 0-.824.096-1.236.315-.315.17-.728.485-1.213.945zM711.307 577.016c0 1.624.388 2.885 1.188 3.782.776.921 1.721 1.382 2.788 1.382.703 0 1.31-.194 1.843-.582.533-.388.97-1.067 1.309-2.012l.388.242c-.17 1.091-.655 2.061-1.455 2.958-.8.873-1.794 1.333-3.006 1.333-1.285 0-2.4-.509-3.346-1.527-.921-1.018-1.382-2.376-1.382-4.097 0-1.843.485-3.297 1.43-4.34.946-1.042 2.134-1.552 3.589-1.552 1.212 0 2.206.413 2.982 1.213.775.8 1.188 1.866 1.188 3.2h-7.516zm0-.679h5.018c-.024-.703-.12-1.188-.242-1.479a2.44 2.44 0 00-.873-1.042 2.294 2.294 0 00-1.236-.364c-.655 0-1.237.242-1.746.752-.533.509-.824 1.212-.921 2.133zM723.402 569.379v3.564h2.545v.824h-2.545v7.031c0 .703.097 1.164.315 1.43.194.243.46.364.776.364.242 0 .509-.097.751-.242.243-.17.437-.413.558-.728h.46c-.266.776-.654 1.358-1.163 1.746-.51.388-1.019.582-1.552.582-.364 0-.727-.097-1.067-.291-.363-.194-.606-.485-.776-.873-.17-.364-.242-.946-.242-1.721v-7.298h-1.721v-.388c.436-.17.872-.46 1.333-.897a8.044 8.044 0 001.212-1.454c.17-.316.437-.849.752-1.65h.364zM726.38 572.943h4.557v.436c-.412.024-.703.097-.824.218a.695.695 0 00-.194.51c0 .242.073.533.194.897l2.328 6.23 2.327-5.067-.606-1.6c-.194-.485-.436-.8-.752-.994-.17-.097-.509-.17-.97-.194v-.436h5.165v.436c-.582.024-.97.121-1.213.291-.17.146-.242.34-.242.606 0 .17.024.34.097.485l2.473 6.23 2.279-5.987c.145-.437.242-.776.242-1.019 0-.145-.097-.29-.242-.412-.146-.121-.46-.194-.897-.194v-.436h3.418v.436c-.679.097-1.188.558-1.527 1.382l-3.613 9.358h-.484l-2.716-6.933-3.152 6.933h-.436l-3.491-9.115c-.218-.582-.46-.97-.679-1.164-.218-.218-.558-.364-1.042-.46v-.437zM746.312 577.016c0 1.624.388 2.885 1.188 3.782.776.921 1.722 1.382 2.788 1.382.704 0 1.31-.194 1.843-.582.533-.388.97-1.067 1.31-2.012l.387.242c-.17 1.091-.654 2.061-1.455 2.958-.8.873-1.794 1.333-3.006 1.333-1.285 0-2.4-.509-3.346-1.527-.92-1.018-1.381-2.376-1.381-4.097 0-1.843.484-3.297 1.43-4.34.945-1.042 2.133-1.552 3.588-1.552 1.212 0 2.206.413 2.982 1.213.776.8 1.188 1.866 1.188 3.2h-7.516zm0-.679h5.019c-.024-.703-.121-1.188-.242-1.479a2.44 2.44 0 00-.873-1.042 2.294 2.294 0 00-1.237-.364c-.654 0-1.236.242-1.745.752-.534.509-.825 1.212-.922 2.133zM757.073 577.016c0 1.624.388 2.885 1.188 3.782.776.921 1.721 1.382 2.788 1.382.703 0 1.31-.194 1.842-.582.534-.388.97-1.067 1.31-2.012l.388.242c-.17 1.091-.655 2.061-1.455 2.958-.8.873-1.794 1.333-3.006 1.333-1.285 0-2.4-.509-3.346-1.527-.921-1.018-1.382-2.376-1.382-4.097 0-1.843.485-3.297 1.43-4.34.946-1.042 2.134-1.552 3.589-1.552 1.212 0 2.206.413 2.982 1.213.775.8 1.188 1.866 1.188 3.2h-7.516zm0-.679h5.018c-.024-.703-.12-1.188-.242-1.479a2.44 2.44 0 00-.873-1.042 2.294 2.294 0 00-1.236-.364c-.655 0-1.237.242-1.746.752-.533.509-.824 1.212-.921 2.133zM769.192 574.907c1.26-1.528 2.473-2.28 3.636-2.28.582 0 1.091.146 1.528.437.412.291.751.776 1.018 1.455.17.485.242 1.212.242 2.182v4.63c0 .68.073 1.14.17 1.407.097.193.218.339.412.46.194.097.558.146 1.091.146v.436h-5.382v-.436h.243c.509 0 .848-.073 1.042-.219.218-.145.34-.387.436-.678.025-.122.049-.485.049-1.116v-4.436c0-.994-.146-1.697-.388-2.158-.267-.436-.703-.655-1.31-.655-.92 0-1.866.51-2.787 1.528v5.721c0 .728.024 1.188.121 1.358.121.242.267.388.46.51.195.096.582.145 1.164.145v.436h-5.358v-.436h.243c.557 0 .921-.122 1.115-.413.194-.266.291-.824.291-1.6v-4.024c0-1.31-.024-2.11-.097-2.376-.049-.291-.145-.485-.267-.582a.78.78 0 00-.485-.17c-.218 0-.484.073-.8.194l-.17-.436 3.274-1.31h.509v2.28zM706.26 609.297c-1.624 0-2.908-.46-3.854-1.358-.97-.897-1.455-2.157-1.455-3.733v-3.637c0-1.576.485-2.836 1.455-3.733.946-.897 2.23-1.358 3.855-1.358 1.527 0 2.764.412 3.71 1.236.945.825 1.43 1.94 1.478 3.37h-2.182c-.048-.848-.34-1.527-.848-1.988-.534-.436-1.261-.679-2.158-.679-.946 0-1.722.267-2.28.8-.557.558-.848 1.334-.848 2.328v3.66c0 .995.291 1.77.849 2.328.557.558 1.333.825 2.279.825.897 0 1.624-.243 2.158-.703.509-.461.8-1.116.848-1.964h2.182c-.048 1.43-.533 2.545-1.479 3.37-.945.824-2.182 1.236-3.71 1.236zM726.408 607.503c-1.115.849-1.818 1.358-2.11 1.479-.412.194-.872.29-1.357.29-.752 0-1.358-.242-1.843-.75-.485-.534-.727-1.189-.727-2.037 0-.534.121-.994.34-1.382.339-.533.896-1.043 1.697-1.503.8-.485 2.133-1.043 4-1.722v-.436c0-1.091-.17-1.818-.534-2.23-.339-.388-.824-.607-1.478-.607-.51 0-.897.146-1.188.413-.316.266-.461.581-.461.92l.024.68c0 .363-.097.654-.266.848a.987.987 0 01-.728.291.987.987 0 01-.727-.29c-.17-.219-.267-.486-.267-.85 0-.678.34-1.309 1.043-1.866.679-.582 1.673-.849 2.909-.849.97 0 1.77.146 2.376.485.46.243.8.606 1.018 1.14.146.34.218 1.042.218 2.085v3.685c0 1.018.025 1.648.073 1.89.024.243.097.389.194.462.073.097.194.12.315.12a.671.671 0 00.315-.072c.17-.097.485-.388.97-.873v.68c-.897 1.163-1.721 1.769-2.545 1.769-.388 0-.68-.146-.922-.412-.218-.267-.34-.728-.34-1.358zm0-.776v-4.146c-1.188.485-1.964.825-2.328 1.019-.606.34-1.066.703-1.333 1.09-.267.364-.388.8-.388 1.237 0 .582.17 1.043.51 1.406.339.388.727.582 1.163.582.606 0 1.382-.412 2.376-1.188zM734.186 600.181c1.26-1.527 2.473-2.279 3.637-2.279.582 0 1.09.146 1.527.437.412.29.752.776 1.019 1.454.17.485.242 1.213.242 2.182v4.631c0 .679.073 1.14.17 1.406.097.194.218.34.412.46.194.098.557.146 1.09.146v.437h-5.381v-.437h.242c.51 0 .849-.072 1.043-.218.218-.145.339-.388.436-.679.024-.121.048-.485.048-1.115v-4.437c0-.994-.145-1.697-.387-2.157-.267-.437-.704-.655-1.31-.655-.921 0-1.866.51-2.788 1.527v5.722c0 .727.024 1.188.121 1.358.122.242.267.388.461.509.194.097.582.145 1.164.145v.437h-5.358v-.437h.242c.558 0 .922-.12 1.116-.412.193-.267.29-.824.29-1.6v-4.025c0-1.309-.024-2.109-.097-2.375-.048-.291-.145-.485-.266-.582a.78.78 0 00-.485-.17c-.218 0-.485.073-.8.194l-.17-.436 3.273-1.31h.51v2.28zM750.794 607.842c-.534.534-1.043.946-1.552 1.188a3.705 3.705 0 01-1.624.364c-1.188 0-2.23-.509-3.104-1.503-.897-.97-1.333-2.255-1.333-3.806 0-1.552.485-2.982 1.479-4.267.97-1.285 2.23-1.94 3.782-1.94.945 0 1.721.315 2.352.921v-2.012c0-1.236-.025-1.988-.073-2.279-.073-.29-.17-.485-.291-.582a.746.746 0 00-.46-.145c-.219 0-.486.048-.825.17l-.17-.413 3.249-1.309h.533v12.534c0 1.261.025 2.037.073 2.328.073.267.17.46.291.582.121.097.29.17.46.17.219 0 .486-.073.85-.219l.12.412-3.2 1.358h-.557v-1.552zm0-.824v-5.6a4.05 4.05 0 00-.413-1.455 2.569 2.569 0 00-.945-1.018c-.388-.218-.776-.34-1.14-.34-.703 0-1.333.316-1.866.946-.728.824-1.067 2.012-1.067 3.588 0 1.6.34 2.812 1.042 3.661.68.849 1.455 1.285 2.304 1.285.727 0 1.406-.364 2.085-1.067zM767.061 609.297c-1.333 0-2.4-.436-3.2-1.333-.824-.897-1.236-2.085-1.236-3.613v-3.903c0-1.527.412-2.74 1.212-3.637.8-.897 1.891-1.333 3.224-1.333.994 0 1.819.242 2.473.751.655.51 1.019 1.188 1.14 2.037h.073l-.049-3.03v-3.88h2.182v17.699h-2.182v-2.546h-.024c-.121.873-.485 1.552-1.14 2.037-.654.509-1.479.751-2.473.751zm.728-1.89c.897 0 1.624-.292 2.133-.85.51-.557.776-1.357.776-2.351v-3.637c0-.994-.267-1.794-.776-2.351-.509-.558-1.236-.849-2.133-.849-.921 0-1.649.267-2.182.824-.534.558-.8 1.334-.8 2.376v3.637c0 1.042.266 1.818.8 2.376.533.557 1.26.824 2.182.824z"
                fill="#b12e1e" fill-rule="nonzero" />
        </g>
    </g>
</svg>