<svg viewBox="0 0 1024 768" xmlns="http://www.w3.org/2000/svg" fill-rule="evenodd" clip-rule="evenodd"
    stroke-linecap="round" stroke-linejoin="round" stroke-miterlimit="1.5">
    <path d="M490.876 468.905l60.856-102.336M319.776 485.077l206.762-125.595" fill="none" stroke="#000"
        stroke-width="3.9969252" />
    <path d="M692.111 423.665L638.77 306.529" fill="none" stroke="#000" stroke-width="4.59"
        transform="matrix(.8785 -.00412 -.00412 .87132 85.325 102.609)" />
    <path d="M862.7 485.077L667.078 360.663" fill="none" stroke="#000" stroke-width="3.9969252" />
    <path d="M598.7 310.654l-174.722-51.081" fill="none" stroke="#000" stroke-width="3.9974520000000004" />
    <path d="M274.519 180.541l222.038-64.914" fill="none" stroke="#000" stroke-width="4.6"
        transform="matrix(1.07652 -.08467 -.08467 .81166 -144.034 207.768)" />
    <g transform="matrix(-.68148 0 0 .68148 707.198 136.885)">
        <circle cx="447.581" cy="153.572" r="41.223" fill="none" />
        <clipPath id="prefix__a">
            <circle cx="447.581" cy="153.572" r="41.223" />
        </clipPath>
        <g clip-path="url(#prefix__a)">
            <path
                d="M448.66 174.08c3.215 0 5.765-.832 7.594-2.495 1.829-1.607 2.771-3.824 2.771-6.651s-.942-5.1-2.771-6.707c-1.83-1.607-4.323-2.438-7.483-2.438h-9.422v-3.049c0-1.829.554-3.27 1.663-4.323 1.164-1.053 2.716-1.552 4.711-1.552 1.774 0 3.27.388 4.49 1.164 1.219.776 1.995 1.774 2.272 3.049h4.988c-.166-1.719-.831-3.215-1.884-4.49-1.053-1.275-2.439-2.328-4.157-3.048-1.718-.72-3.603-1.053-5.709-1.053-3.492 0-6.263.886-8.314 2.715-2.05 1.83-3.048 4.268-3.048 7.372v20.95h4.877v-5.819h.056c.221 1.94 1.164 3.492 2.826 4.656 1.718 1.164 3.88 1.718 6.54 1.718zm-1.219-3.936c-2.383 0-4.323-.61-5.82-1.774-1.496-1.164-2.272-2.716-2.272-4.545v-4.323h9.312c1.662 0 2.993.444 3.935 1.386.942.942 1.44 2.161 1.44 3.769 0 1.718-.609 3.048-1.773 4.046-1.108.942-2.771 1.441-4.822 1.441z"
                fill-rule="nonzero" />
        </g>
        <circle cx="447.581" cy="153.572" r="41.223" fill="none" stroke="#000" stroke-width="5.87" />
    </g>
    <path d="M115.268 524.044L90.62 571.098" fill="none" stroke="#000" stroke-width="6.9" stroke-linecap="square"
        transform="matrix(-.68527 -.05225 -.17412 .61072 320.115 306.002)" />
    <path d="M115.268 524.044L90.62 571.098" fill="none" stroke="#000" stroke-width="6.9" stroke-linecap="square"
        transform="matrix(.68512 -.05173 .1744 .60974 -124.217 305.277)" />
    <path d="M115.268 524.044L90.62 571.098" fill="none" stroke="#000" stroke-width="7.03" stroke-linecap="square"
        transform="matrix(.65918 -.1813 .2882 .51764 -171.588 370.949)" />
    <circle cx="154.775" cy="556.848" r="2.753" transform="matrix(.72135 0 0 .7869 -41.02 200.264)" />
    <circle cx="154.775" cy="556.848" r="2.753" transform="matrix(.72135 0 0 .7869 -13.056 200.264)" />
    <circle cx="154.775" cy="556.848" r="2.753" transform="matrix(.72135 0 0 .7869 -27.038 200.264)" />
    <g>
        <path
            d="M260.225 526.861c5.39-11.331 33.317-19.634 66.038-19.634s60.649 8.303 66.039 19.634l61.752 129.819c3.243 6.817-2.223 13.789-14.945 19.063-12.721 5.274-31.408 8.315-51.093 8.315H264.511c-19.685 0-38.373-3.041-51.094-8.315-12.721-5.274-18.187-12.246-14.945-19.063l61.753-129.819z"
            fill="none" stroke="#bababa" stroke-width="3.14" transform="matrix(.59743 0 0 1.70168 -95.36 -544.306)" />
    </g>
    <g>
        <path
            d="M86.033 572.781v14c0 .66.047 1.085.141 1.321a.878.878 0 00.449.472c.189.118.566.166 1.11.166v.425h-5.17v-.425c.495 0 .826-.048.99-.142.19-.094.308-.26.426-.496.094-.236.141-.66.141-1.322v-9.584c0-1.204-.023-1.936-.07-2.196-.071-.283-.142-.472-.26-.566a.75.75 0 00-.472-.142 2.19 2.19 0 00-.756.165l-.189-.401 3.14-1.275h.52zM90.726 582.578c0 1.582.378 2.81 1.157 3.683.756.897 1.676 1.345 2.715 1.345.685 0 1.275-.188 1.794-.566.52-.378.944-1.039 1.275-1.96l.378.237c-.166 1.062-.638 2.006-1.417 2.88-.779.85-1.747 1.298-2.927 1.298-1.251 0-2.337-.496-3.258-1.487-.897-.992-1.345-2.314-1.345-3.99 0-1.794.472-3.21 1.392-4.225.921-1.016 2.078-1.511 3.494-1.511 1.18 0 2.148.401 2.904 1.18.755.78 1.157 1.818 1.157 3.116h-7.319zm0-.66h4.887c-.023-.685-.118-1.158-.236-1.44a2.376 2.376 0 00-.85-1.016 2.234 2.234 0 00-1.204-.354c-.637 0-1.204.236-1.7.732-.519.495-.802 1.18-.897 2.077zM106.256 578.305v3.589h-.378c-.283-1.134-.66-1.913-1.11-2.314-.471-.401-1.038-.614-1.746-.614-.543 0-.992.142-1.322.425-.33.283-.496.614-.496.944 0 .449.142.803.378 1.11.236.33.732.661 1.463 1.015l1.676.803c1.559.779 2.338 1.77 2.338 3.021 0 .968-.355 1.724-1.086 2.314-.732.59-1.535.897-2.432.897-.66 0-1.393-.118-2.219-.354-.26-.07-.472-.118-.637-.118-.166 0-.307.094-.402.307h-.377v-3.777h.377c.213 1.086.614 1.888 1.228 2.431.614.543 1.298.826 2.054.826.52 0 .944-.165 1.275-.472a1.43 1.43 0 00.519-1.133c0-.52-.189-.968-.567-1.322-.377-.354-1.11-.826-2.219-1.37-1.133-.566-1.865-1.061-2.195-1.51-.354-.425-.52-.991-.52-1.652 0-.874.284-1.606.898-2.172.59-.59 1.369-.874 2.313-.874.401 0 .897.071 1.51.26.379.118.638.165.78.165a.503.503 0 00.283-.07c.071-.071.142-.19.236-.355h.378zM115.443 578.305v3.589h-.378c-.283-1.134-.66-1.913-1.11-2.314-.471-.401-1.038-.614-1.746-.614-.543 0-.992.142-1.322.425-.33.283-.496.614-.496.944 0 .449.142.803.378 1.11.236.33.732.661 1.463 1.015l1.677.803c1.558.779 2.337 1.77 2.337 3.021 0 .968-.354 1.724-1.086 2.314-.732.59-1.535.897-2.432.897-.66 0-1.393-.118-2.219-.354-.26-.07-.472-.118-.637-.118-.165 0-.307.094-.402.307h-.377v-3.777h.377c.213 1.086.614 1.888 1.228 2.431.614.543 1.298.826 2.054.826.52 0 .944-.165 1.275-.472a1.43 1.43 0 00.519-1.133c0-.52-.189-.968-.567-1.322-.377-.354-1.11-.826-2.219-1.37-1.133-.566-1.865-1.061-2.195-1.51-.354-.425-.52-.991-.52-1.652 0-.874.284-1.606.898-2.172.59-.59 1.369-.874 2.313-.874.401 0 .897.071 1.51.26.379.118.638.165.78.165a.503.503 0 00.283-.07c.071-.071.142-.19.236-.355h.378zM72.817 599.752v3.47h2.478v.803h-2.478v6.846c0 .685.094 1.133.306 1.393a.929.929 0 00.756.354c.236 0 .496-.094.732-.236.236-.165.425-.401.543-.708h.448c-.26.755-.637 1.322-1.133 1.7-.496.377-.991.566-1.51.566-.355 0-.709-.094-1.04-.283-.354-.189-.59-.472-.755-.85-.165-.354-.236-.92-.236-1.676v-7.106h-1.676v-.378c.425-.165.85-.448 1.298-.873a7.832 7.832 0 001.18-1.416c.166-.307.426-.827.732-1.606h.355zM79.423 597.392v7.72c.85-.945 1.51-1.535 2.03-1.819.496-.26.991-.377 1.487-.377.59 0 1.11.165 1.535.495.448.33.755.85.967 1.535.142.496.213 1.393.213 2.715v3.73c0 .66.07 1.133.165 1.369.07.189.213.33.401.448.166.095.52.142 1.016.142v.425h-5.194v-.425h.236c.496 0 .826-.07 1.039-.212.189-.142.307-.378.401-.661.024-.119.024-.496.024-1.086v-3.73c0-1.157-.048-1.913-.166-2.267-.118-.377-.306-.637-.59-.826-.26-.189-.566-.26-.944-.26s-.755.095-1.157.284c-.425.212-.897.614-1.463 1.227v5.572c0 .731.023 1.18.118 1.345.07.189.212.33.448.449.213.118.59.165 1.133.165v.425h-5.24v-.425c.472 0 .85-.07 1.11-.212.164-.071.282-.213.377-.425.094-.236.141-.661.141-1.322v-9.561c0-1.204-.047-1.936-.094-2.22-.07-.283-.142-.471-.26-.566-.118-.094-.283-.142-.495-.142-.142 0-.425.048-.78.166l-.165-.402 3.164-1.274h.543zM94.106 612.264c-1.086.826-1.77 1.322-2.054 1.44a3.09 3.09 0 01-1.322.283c-.731 0-1.322-.236-1.794-.731-.472-.52-.708-1.157-.708-1.983 0-.52.118-.968.33-1.346.331-.52.874-1.015 1.653-1.464.78-.472 2.077-1.015 3.895-1.676v-.425c0-1.062-.165-1.77-.52-2.172-.33-.377-.802-.59-1.44-.59-.495 0-.873.142-1.156.402-.307.26-.448.566-.448.897l.023.66c0 .355-.094.638-.26.827a.96.96 0 01-.708.283.96.96 0 01-.708-.283c-.165-.213-.26-.472-.26-.826 0-.661.33-1.275 1.015-1.818.661-.567 1.63-.826 2.833-.826.945 0 1.724.141 2.314.472.448.236.779.59.991 1.11.142.33.213 1.014.213 2.03v3.588c0 .991.023 1.605.07 1.841.024.236.095.378.19.449.07.094.188.118.306.118a.653.653 0 00.307-.071c.165-.095.472-.378.944-.85v.661c-.873 1.133-1.676 1.723-2.478 1.723-.378 0-.661-.141-.897-.401-.213-.26-.33-.708-.33-1.322zm0-.755v-4.037c-1.157.472-1.912.802-2.266.991-.59.33-1.039.685-1.298 1.063-.26.354-.378.779-.378 1.204 0 .566.165 1.015.496 1.369.33.378.708.566 1.133.566.59 0 1.345-.4 2.313-1.156zM101.68 605.135c1.228-1.488 2.408-2.22 3.541-2.22.567 0 1.062.142 1.487.426.402.283.732.755.992 1.416.165.472.236 1.18.236 2.125v4.509c0 .66.07 1.11.165 1.369.095.189.213.33.402.448.188.095.543.142 1.062.142v.425h-5.24v-.425h.235c.496 0 .826-.07 1.015-.212.213-.142.33-.378.425-.661.024-.119.047-.473.047-1.086v-4.32c0-.968-.141-1.653-.377-2.102-.26-.424-.685-.637-1.275-.637-.897 0-1.818.496-2.715 1.487v5.572c0 .708.024 1.156.118 1.322.118.236.26.377.449.495.189.095.566.142 1.133.142v.425h-5.217v-.425h.236c.543 0 .897-.118 1.086-.401.189-.26.283-.803.283-1.558v-3.92c0-1.274-.024-2.053-.094-2.313-.048-.283-.142-.472-.26-.566a.76.76 0 00-.472-.165c-.213 0-.472.07-.78.188l-.165-.425 3.187-1.274h.496v2.219zM121.51 614.011c-1.37 0-2.455-.354-3.234-1.062-.78-.685-1.18-1.63-1.18-2.833 0-1.204.4-2.172 1.18-2.857.779-.684 1.841-1.038 3.187-1.038h4.013v-1.299c0-.779-.236-1.393-.708-1.841-.496-.449-1.157-.661-2.007-.661-.755 0-1.393.165-1.912.496-.52.33-.85.755-.968 1.298h-2.124a3.48 3.48 0 01.802-1.912 4.553 4.553 0 011.77-1.299c.733-.306 1.535-.448 2.432-.448 1.487 0 2.668.378 3.541 1.157.874.779 1.299 1.817 1.299 3.14v8.923h-2.078v-2.479h-.023c-.095.826-.496 1.487-1.204 1.983-.732.496-1.653.732-2.786.732zm.52-1.676c1.015 0 1.84-.26 2.478-.756.638-.495.968-1.156.968-1.935v-1.842h-3.966c-.708 0-1.275.19-1.676.59-.401.402-.614.921-.614 1.606 0 .732.26 1.298.756 1.723.472.401 1.18.614 2.053.614z"
            fill="#b12e1e" fill-rule="nonzero" />
    </g>
    <g transform="matrix(.34807 0 0 .67294 422.403 213.598)">
        <path
            d="M731.429 185.017c0-23.045-36.172-41.755-80.726-41.755H357.747c-44.554 0-80.726 18.71-80.726 41.755s36.172 41.755 80.726 41.755h292.956c44.554 0 80.726-18.71 80.726-41.755z"
            fill="#fff" />
        <clipPath id="prefix__b">
            <path
                d="M731.429 185.017c0-23.045-36.172-41.755-80.726-41.755H357.747c-44.554 0-80.726 18.71-80.726 41.755s36.172 41.755 80.726 41.755h292.956c44.554 0 80.726-18.71 80.726-41.755z" />
        </clipPath>
        <g clip-path="url(#prefix__b)">
            <path
                d="M378.4 205.784c-4.45 0-8.14-.562-11.07-1.74-2.93-1.123-4.557-2.695-5.1-4.715h-.108v5.893h-9.767v-40.974h9.767v8.98l-.217 7.017h.325c.543-1.965 2.17-3.536 5.1-4.715 2.93-1.179 6.62-1.74 11.07-1.74 5.968 0 10.85 1.01 14.432 3.087 3.58 2.077 5.426 4.883 5.426 8.42v9.036c0 3.536-1.845 6.287-5.426 8.363-3.581 2.077-8.464 3.088-14.433 3.088zm-3.256-4.379c4.123 0 7.379-.617 9.766-1.908 2.387-1.29 3.581-3.087 3.581-5.5v-8.42c0-2.413-1.194-4.21-3.58-5.5-2.388-1.291-5.644-1.909-9.767-1.909-4.015 0-7.162.674-9.441 1.965-2.387 1.29-3.581 3.143-3.581 5.444v8.42c0 2.3 1.194 4.153 3.58 5.444 2.28 1.29 5.427 1.964 9.442 1.964zM505.58 205.784c-7.271 0-13.022-1.067-17.255-3.144-4.34-2.076-6.51-4.995-6.51-8.644v-8.419c0-3.648 2.17-6.567 6.51-8.644 4.233-2.076 9.984-3.143 17.254-3.143 6.837 0 12.371.954 16.603 2.863 4.232 1.908 6.403 4.49 6.62 7.802h-9.767c-.217-1.965-1.519-3.537-3.798-4.603-2.387-1.01-5.643-1.572-9.658-1.572-4.232 0-7.704.618-10.2 1.853-2.496 1.29-3.798 3.087-3.798 5.388v8.475c0 2.302 1.302 4.098 3.798 5.389 2.496 1.29 5.968 1.908 10.2 1.908 4.015 0 7.27-.561 9.658-1.628 2.28-1.066 3.581-2.581 3.798-4.546h9.767c-.217 3.312-2.388 5.894-6.62 7.802-4.232 1.908-9.766 2.863-16.603 2.863zM631.891 205.784c-5.968 0-10.743-1.01-14.324-3.088-3.69-2.076-5.534-4.827-5.534-8.363v-9.036c0-3.537 1.845-6.343 5.426-8.42 3.58-2.077 8.464-3.087 14.432-3.087 4.45 0 8.14.561 11.069 1.74 2.93 1.179 4.558 2.75 5.1 4.715h.326l-.217-7.016v-8.98h9.766v40.973h-9.766v-5.893h-.109c-.542 2.02-2.17 3.592-5.1 4.715-2.93 1.178-6.62 1.74-11.069 1.74zm3.256-4.379c4.015 0 7.27-.673 9.55-1.964 2.278-1.291 3.472-3.143 3.472-5.445v-8.419c0-2.301-1.194-4.153-3.473-5.444-2.279-1.291-5.534-1.965-9.55-1.965-4.123 0-7.378.618-9.765 1.909-2.388 1.29-3.581 3.087-3.581 5.5v8.42c0 2.413 1.193 4.21 3.58 5.5 2.388 1.291 5.643 1.908 9.767 1.908z"
                fill-rule="nonzero" />
        </g>
        <path
            d="M731.429 185.017c0-23.045-36.172-41.755-80.726-41.755H357.747c-44.554 0-80.726 18.71-80.726 41.755s36.172 41.755 80.726 41.755h292.956c44.554 0 80.726-18.71 80.726-41.755z"
            fill="none" stroke="#000" stroke-width="7.47" />
    </g>
    <g>
        <path d="M115.268 524.044L90.62 571.098" fill="none" stroke="#000" stroke-width="6.48" stroke-linecap="square"
            transform="matrix(.74738 -.05173 .19025 .60974 247.944 307.77)" />
        <path d="M115.268 524.044L90.62 571.098" fill="none" stroke="#000" stroke-width="6.48" stroke-linecap="square"
            transform="matrix(-.74754 -.05225 -.18994 .61072 733.926 307.1)" />
        <path d="M115.268 524.044L90.62 571.098" fill="none" stroke="#000" stroke-width="6.51" stroke-linecap="square"
            transform="matrix(.71909 -.1813 .31438 .51764 195.128 372.808)" />
        <circle cx="154.775" cy="556.848" r="2.753" transform="translate(336.046 200.982) scale(.7869)" />
        <circle cx="154.775" cy="556.848" r="2.753" transform="translate(366.552 200.982) scale(.7869)" />
        <circle cx="154.775" cy="556.848" r="2.753" transform="translate(351.299 200.982) scale(.7869)" />
        <g>
            <path
                d="M556.349 452.926c6.928-9.408 18.861-15.095 31.673-15.095 12.813 0 24.746 5.687 31.674 15.095l40.458 54.937c7.448 10.114 7.975 22.971 1.375 33.525-6.6 10.553-19.275 17.118-33.049 17.118h-80.915c-13.774 0-26.449-6.565-33.049-17.118-6.6-10.554-6.073-23.411 1.375-33.525l40.458-54.937z"
                fill="#fff" stroke="#c1c1c1" stroke-width="3.5"
                transform="matrix(1.06232 0 0 1.21695 -133.79 -59.852)" />
        </g>
        <g>
            <path
                d="M455.268 580.035c1.015-1.417 2.125-2.125 3.305-2.125 1.086 0 2.03.449 2.833 1.37.803.944 1.204 2.195 1.204 3.8 0 1.889-.614 3.4-1.865 4.533-1.062.991-2.242 1.487-3.564 1.487a5.754 5.754 0 01-1.865-.33 9.148 9.148 0 01-1.96-1.016v-10.93c0-1.204-.023-1.935-.07-2.219-.071-.283-.166-.472-.284-.566a.726.726 0 00-.448-.142c-.237 0-.496.047-.827.165l-.141-.401 3.163-1.275h.52v7.649zm0 .732v6.326c.378.378.803.661 1.204.874.425.189.85.283 1.299.283.684 0 1.345-.378 1.96-1.157.59-.755.896-1.888.896-3.352 0-1.345-.307-2.384-.897-3.116-.614-.732-1.298-1.086-2.077-1.086-.402 0-.803.095-1.204.307-.307.165-.709.472-1.18.92zM465.939 582.183c0 1.582.377 2.81 1.156 3.683.756.897 1.677 1.345 2.715 1.345.685 0 1.275-.188 1.794-.566.52-.378.945-1.039 1.275-1.96l.378.237c-.165 1.062-.637 2.006-1.416 2.88-.78.85-1.747 1.298-2.928 1.298-1.25 0-2.337-.496-3.258-1.487-.897-.992-1.345-2.314-1.345-3.99 0-1.794.472-3.21 1.393-4.225.92-1.016 2.077-1.511 3.494-1.511 1.18 0 2.148.401 2.903 1.18.756.779 1.157 1.818 1.157 3.116h-7.318zm0-.66h4.886c-.023-.685-.118-1.158-.236-1.44a2.376 2.376 0 00-.85-1.016 2.234 2.234 0 00-1.203-.354c-.638 0-1.204.236-1.7.732-.52.495-.803 1.18-.897 2.077zM477.716 574.747v3.47h2.478v.803h-2.478v6.846c0 .684.094 1.133.306 1.393a.929.929 0 00.756.354c.236 0 .496-.095.732-.236.236-.166.425-.402.543-.709h.448c-.26.756-.637 1.322-1.133 1.7-.496.378-.991.567-1.51.567-.355 0-.709-.095-1.04-.284-.354-.188-.59-.472-.755-.85-.165-.353-.236-.92-.236-1.675v-7.106h-1.676v-.378c.425-.165.85-.448 1.298-.873a7.832 7.832 0 001.18-1.417c.166-.307.426-.826.732-1.605h.355zM480.615 578.217h4.438v.425c-.4.024-.684.095-.802.213a.676.676 0 00-.19.495c0 .236.072.52.19.874l2.266 6.067 2.266-4.934-.59-1.558c-.189-.472-.425-.78-.732-.968-.165-.094-.495-.165-.944-.189v-.425h5.028v.425c-.566.024-.944.118-1.18.283-.165.142-.236.33-.236.59 0 .166.024.331.094.473l2.408 6.067 2.22-5.831c.141-.425.235-.756.235-.992 0-.141-.094-.283-.236-.401-.141-.118-.448-.189-.873-.189v-.425h3.328v.425c-.66.095-1.156.543-1.487 1.346l-3.517 9.112h-.472l-2.644-6.752-3.07 6.752h-.424l-3.4-8.876c-.212-.567-.448-.945-.66-1.133-.213-.213-.544-.354-1.016-.449v-.425zM500.024 582.183c0 1.582.378 2.81 1.157 3.683.755.897 1.676 1.345 2.715 1.345.684 0 1.275-.188 1.794-.566.52-.378.944-1.039 1.275-1.96l.377.237c-.165 1.062-.637 2.006-1.416 2.88-.78.85-1.747 1.298-2.927 1.298-1.251 0-2.337-.496-3.258-1.487-.897-.992-1.346-2.314-1.346-3.99 0-1.794.472-3.21 1.393-4.225.92-1.016 2.078-1.511 3.494-1.511 1.18 0 2.148.401 2.904 1.18.755.779 1.156 1.818 1.156 3.116h-7.318zm0-.66h4.887c-.024-.685-.118-1.158-.236-1.44a2.376 2.376 0 00-.85-1.016 2.234 2.234 0 00-1.204-.354c-.637 0-1.204.236-1.7.732-.52.495-.802 1.18-.897 2.077zM510.502 582.183c0 1.582.378 2.81 1.157 3.683.755.897 1.676 1.345 2.714 1.345.685 0 1.275-.188 1.795-.566.519-.378.944-1.039 1.274-1.96l.378.237c-.165 1.062-.637 2.006-1.416 2.88-.78.85-1.747 1.298-2.928 1.298-1.25 0-2.337-.496-3.257-1.487-.898-.992-1.346-2.314-1.346-3.99 0-1.794.472-3.21 1.393-4.225.92-1.016 2.077-1.511 3.494-1.511 1.18 0 2.148.401 2.903 1.18.756.779 1.157 1.818 1.157 3.116h-7.318zm0-.66h4.886c-.023-.685-.118-1.158-.236-1.44a2.376 2.376 0 00-.85-1.016 2.234 2.234 0 00-1.203-.354c-.638 0-1.204.236-1.7.732-.52.495-.803 1.18-.897 2.077zM522.302 580.13c1.228-1.488 2.408-2.22 3.541-2.22.567 0 1.063.142 1.488.425.4.283.731.756.991 1.417.165.472.236 1.18.236 2.124v4.51c0 .66.07 1.109.165 1.368.095.19.213.33.402.449.189.094.543.142 1.062.142v.425h-5.24v-.425h.235c.496 0 .827-.071 1.015-.213.213-.142.33-.378.425-.66.024-.119.048-.473.048-1.087v-4.32c0-.968-.142-1.652-.378-2.1-.26-.426-.685-.638-1.275-.638-.897 0-1.818.495-2.715 1.487v5.571c0 .708.024 1.157.118 1.322.118.236.26.378.449.496.189.094.566.142 1.133.142v.425h-5.217v-.425h.236c.543 0 .897-.118 1.086-.402.189-.26.283-.802.283-1.558v-3.919c0-1.274-.024-2.053-.094-2.313-.048-.283-.142-.472-.26-.567a.76.76 0 00-.472-.165c-.213 0-.472.07-.78.189l-.164-.425 3.186-1.275h.496v2.22zM461.686 613.616c-.968 0-1.77-.236-2.408-.732-.637-.472-.991-1.133-1.11-1.983h-.023v2.479h-2.124v-17.233h2.124v3.777l-.047 2.95h.07c.119-.826.473-1.487 1.11-1.982.638-.496 1.44-.732 2.408-.732 1.299 0 2.361.425 3.14 1.298.78.874 1.18 2.054 1.18 3.541v3.801c0 1.487-.4 2.644-1.18 3.518-.779.873-1.841 1.298-3.14 1.298zm-.708-1.841c.897 0 1.605-.26 2.125-.803s.779-1.298.779-2.314v-3.54c0-1.016-.26-1.771-.78-2.314-.519-.543-1.227-.803-2.124-.803-.873 0-1.558.284-2.054.827-.52.542-.779 1.322-.779 2.29v3.54c0 .968.26 1.747.78 2.29.495.543 1.18.827 2.053.827zM480.643 611.869c-1.086.826-1.77 1.322-2.054 1.44a3.09 3.09 0 01-1.322.283c-.732 0-1.322-.236-1.794-.731-.472-.52-.708-1.157-.708-1.983 0-.52.118-.968.33-1.346.33-.52.874-1.015 1.653-1.464.779-.472 2.077-1.015 3.895-1.676v-.425c0-1.062-.165-1.77-.52-2.172-.33-.377-.802-.59-1.44-.59-.495 0-.873.142-1.156.402-.307.26-.449.566-.449.897l.024.66c0 .355-.095.638-.26.827a.96.96 0 01-.708.283.96.96 0 01-.708-.283c-.166-.213-.26-.472-.26-.826 0-.661.33-1.275 1.015-1.818.661-.567 1.629-.826 2.833-.826.944 0 1.723.141 2.313.472.449.236.78.59.992 1.11.142.33.212 1.014.212 2.03v3.588c0 .991.024 1.605.071 1.841.024.236.095.378.19.449.07.094.188.118.306.118a.653.653 0 00.307-.071c.165-.095.472-.378.944-.85v.661c-.873 1.133-1.676 1.723-2.479 1.723-.377 0-.66-.141-.897-.401-.212-.26-.33-.708-.33-1.322zm0-.755v-4.037c-1.157.472-1.912.802-2.266.991-.59.33-1.04.685-1.299 1.063-.26.354-.378.779-.378 1.204 0 .566.166 1.015.496 1.369.33.377.708.566 1.133.566.59 0 1.346-.401 2.314-1.156zM488.217 604.74c1.227-1.488 2.408-2.22 3.54-2.22.567 0 1.063.142 1.488.426.401.283.732.755.992 1.416.165.472.236 1.18.236 2.125v4.509c0 .66.07 1.11.165 1.369.094.189.212.33.401.448.189.095.543.142 1.063.142v.425h-5.241v-.425h.236c.496 0 .826-.07 1.015-.213.212-.141.33-.377.425-.66.023-.119.047-.473.047-1.086v-4.32c0-.968-.142-1.653-.378-2.102-.26-.424-.684-.637-1.274-.637-.898 0-1.818.496-2.715 1.487v5.572c0 .708.023 1.156.118 1.322.118.236.26.377.448.495.19.095.567.142 1.133.142v.425H484.7v-.425h.236c.543 0 .897-.118 1.086-.401.19-.26.284-.803.284-1.558v-3.92c0-1.274-.024-2.053-.095-2.313-.047-.283-.142-.472-.26-.566a.76.76 0 00-.472-.166c-.212 0-.472.071-.779.19l-.165-.426 3.187-1.274h.496v2.219zM504.388 612.2c-.52.519-1.016.92-1.511 1.156a3.608 3.608 0 01-1.582.354c-1.157 0-2.172-.495-3.022-1.463-.873-.945-1.298-2.196-1.298-3.707 0-1.51.472-2.903 1.44-4.154.944-1.252 2.172-1.889 3.683-1.889.92 0 1.676.307 2.29.897v-1.96c0-1.203-.024-1.935-.071-2.218-.071-.284-.165-.472-.284-.567a.726.726 0 00-.448-.142c-.213 0-.472.048-.803.166l-.165-.402 3.163-1.274h.52V609.2c0 1.228.023 1.983.07 2.267.071.26.166.448.284.566a.745.745 0 00.448.166c.213 0 .473-.071.827-.213l.118.401-3.116 1.322h-.543v-1.51zm0-.803v-5.453a3.943 3.943 0 00-.402-1.417 2.501 2.501 0 00-.92-.991c-.378-.213-.756-.33-1.11-.33-.685 0-1.298.306-1.818.92-.708.803-1.038 1.96-1.038 3.494 0 1.558.33 2.738 1.015 3.564.66.827 1.416 1.252 2.242 1.252.709 0 1.37-.355 2.03-1.04zM521.078 613.616c-1.582 0-2.833-.449-3.754-1.322-.944-.873-1.416-2.101-1.416-3.636v-3.54c0-1.535.472-2.763 1.416-3.636.92-.874 2.172-1.322 3.754-1.322 1.487 0 2.691.401 3.612 1.204.92.803 1.392 1.888 1.44 3.281h-2.125c-.047-.826-.33-1.487-.826-1.936-.52-.424-1.228-.66-2.101-.66-.92 0-1.676.26-2.22.779-.542.542-.826 1.298-.826 2.266v3.564c0 .968.284 1.724.827 2.267.543.543 1.298.802 2.219.802.873 0 1.581-.236 2.1-.684.497-.449.78-1.086.827-1.912h2.125c-.048 1.392-.52 2.478-1.44 3.281-.921.803-2.125 1.204-3.612 1.204z"
                fill="#b12e1e" fill-rule="nonzero" />
        </g>
    </g>
    <g>
        <path d="M115.268 524.044L90.62 571.098" fill="none" stroke="#000" stroke-width="6.48" stroke-linecap="square"
            transform="matrix(.74738 -.05173 .19025 .60974 47.221 307.77)" />
        <path d="M115.268 524.044L90.62 571.098" fill="none" stroke="#000" stroke-width="6.48" stroke-linecap="square"
            transform="matrix(-.74754 -.05225 -.18994 .61072 533.203 307.1)" />
        <path d="M115.268 524.044L90.62 571.098" fill="none" stroke="#000" stroke-width="6.51" stroke-linecap="square"
            transform="matrix(.71909 -.1813 .31438 .51764 -5.595 372.808)" />
        <circle cx="154.775" cy="556.848" r="2.753" transform="translate(135.323 200.982) scale(.7869)" />
        <circle cx="154.775" cy="556.848" r="2.753" transform="translate(165.83 200.982) scale(.7869)" />
        <circle cx="154.775" cy="556.848" r="2.753" transform="translate(150.576 200.982) scale(.7869)" />
        <g>
            <path
                d="M556.349 452.926c6.928-9.408 18.861-15.095 31.673-15.095 12.813 0 24.746 5.687 31.674 15.095l40.458 54.937c7.448 10.114 7.975 22.971 1.375 33.525-6.6 10.553-19.275 17.118-33.049 17.118h-80.915c-13.774 0-26.449-6.565-33.049-17.118-6.6-10.554-6.073-23.411 1.375-33.525l40.458-54.937z"
                fill="#fff" stroke="#c1c1c1" stroke-width="3.5"
                transform="matrix(1.06232 0 0 1.21695 -334.514 -59.852)" />
        </g>
        <g>
            <path
                d="M254.545 580.035c1.015-1.417 2.125-2.125 3.305-2.125 1.086 0 2.03.449 2.833 1.37.803.944 1.204 2.195 1.204 3.8 0 1.889-.614 3.4-1.865 4.533-1.062.991-2.242 1.487-3.564 1.487a5.754 5.754 0 01-1.865-.33 9.148 9.148 0 01-1.96-1.016v-10.93c0-1.204-.023-1.935-.07-2.219-.071-.283-.166-.472-.284-.566a.726.726 0 00-.448-.142c-.237 0-.496.047-.827.165l-.141-.401 3.163-1.275h.52v7.649zm0 .732v6.326c.378.378.803.661 1.204.874.425.189.85.283 1.299.283.684 0 1.345-.378 1.96-1.157.59-.755.896-1.888.896-3.352 0-1.345-.307-2.384-.897-3.116-.614-.732-1.298-1.086-2.077-1.086-.402 0-.803.095-1.204.307-.307.165-.708.472-1.18.92zM265.216 582.183c0 1.582.377 2.81 1.157 3.683.755.897 1.676 1.345 2.714 1.345.685 0 1.275-.188 1.794-.566.52-.378.945-1.039 1.275-1.96l.378.237c-.165 1.062-.637 2.006-1.416 2.88-.78.85-1.747 1.298-2.928 1.298-1.25 0-2.337-.496-3.258-1.487-.897-.992-1.345-2.314-1.345-3.99 0-1.794.472-3.21 1.393-4.225.92-1.016 2.077-1.511 3.494-1.511 1.18 0 2.148.401 2.903 1.18.756.779 1.157 1.818 1.157 3.116h-7.318zm0-.66h4.886c-.023-.685-.118-1.158-.236-1.44a2.376 2.376 0 00-.85-1.016 2.234 2.234 0 00-1.203-.354c-.638 0-1.204.236-1.7.732-.52.495-.803 1.18-.897 2.077zM276.993 574.747v3.47h2.478v.803h-2.478v6.846c0 .684.094 1.133.306 1.393a.929.929 0 00.756.354c.236 0 .496-.095.732-.236.236-.166.425-.402.543-.709h.448c-.26.756-.637 1.322-1.133 1.7-.496.378-.991.567-1.51.567-.355 0-.709-.095-1.04-.284-.354-.188-.59-.472-.755-.85-.165-.353-.236-.92-.236-1.675v-7.106h-1.676v-.378c.425-.165.85-.448 1.298-.873a7.832 7.832 0 001.18-1.417c.166-.307.426-.826.732-1.605h.355zM279.892 578.217h4.438v.425c-.4.024-.684.095-.802.213a.676.676 0 00-.19.495c0 .236.072.52.19.874l2.266 6.067 2.266-4.934-.59-1.558c-.189-.472-.425-.78-.732-.968-.165-.094-.495-.165-.944-.189v-.425h5.028v.425c-.566.024-.944.118-1.18.283-.165.142-.236.33-.236.59 0 .166.024.331.094.473l2.408 6.067 2.22-5.831c.141-.425.235-.756.235-.992 0-.141-.094-.283-.236-.401-.141-.118-.448-.189-.873-.189v-.425h3.328v.425c-.66.095-1.156.543-1.487 1.346l-3.517 9.112h-.472l-2.644-6.752-3.07 6.752h-.424l-3.4-8.876c-.212-.567-.448-.945-.66-1.133-.213-.213-.544-.354-1.016-.449v-.425zM299.301 582.183c0 1.582.378 2.81 1.157 3.683.755.897 1.676 1.345 2.715 1.345.684 0 1.275-.188 1.794-.566.52-.378.944-1.039 1.275-1.96l.377.237c-.165 1.062-.637 2.006-1.416 2.88-.779.85-1.747 1.298-2.927 1.298-1.251 0-2.337-.496-3.258-1.487-.897-.992-1.346-2.314-1.346-3.99 0-1.794.472-3.21 1.393-4.225.92-1.016 2.078-1.511 3.494-1.511 1.18 0 2.148.401 2.904 1.18.755.779 1.156 1.818 1.156 3.116h-7.318zm0-.66h4.887c-.024-.685-.118-1.158-.236-1.44a2.376 2.376 0 00-.85-1.016 2.234 2.234 0 00-1.204-.354c-.637 0-1.204.236-1.7.732-.52.495-.802 1.18-.897 2.077zM309.779 582.183c0 1.582.378 2.81 1.157 3.683.755.897 1.676 1.345 2.714 1.345.685 0 1.275-.188 1.795-.566.519-.378.944-1.039 1.274-1.96l.378.237c-.165 1.062-.637 2.006-1.416 2.88-.78.85-1.747 1.298-2.928 1.298-1.25 0-2.337-.496-3.257-1.487-.898-.992-1.346-2.314-1.346-3.99 0-1.794.472-3.21 1.393-4.225.92-1.016 2.077-1.511 3.494-1.511 1.18 0 2.148.401 2.903 1.18.756.779 1.157 1.818 1.157 3.116h-7.318zm0-.66h4.887c-.024-.685-.119-1.158-.237-1.44a2.376 2.376 0 00-.85-1.016 2.234 2.234 0 00-1.203-.354c-.638 0-1.204.236-1.7.732-.52.495-.803 1.18-.897 2.077zM321.58 580.13c1.227-1.488 2.407-2.22 3.54-2.22.567 0 1.063.142 1.488.425.4.283.731.756.991 1.417.165.472.236 1.18.236 2.124v4.51c0 .66.07 1.109.165 1.368.095.19.213.33.402.449.189.094.543.142 1.062.142v.425h-5.24v-.425h.235c.496 0 .827-.071 1.015-.213.213-.142.33-.378.425-.66.024-.119.048-.473.048-1.087v-4.32c0-.968-.142-1.652-.378-2.1-.26-.426-.685-.638-1.275-.638-.897 0-1.818.495-2.715 1.487v5.571c0 .708.024 1.157.118 1.322.118.236.26.378.449.496.189.094.566.142 1.133.142v.425h-5.217v-.425h.236c.543 0 .897-.118 1.086-.402.189-.26.283-.802.283-1.558v-3.919c0-1.274-.024-2.053-.094-2.313-.048-.283-.142-.472-.26-.567a.76.76 0 00-.472-.165c-.213 0-.472.07-.78.189l-.164-.425 3.186-1.275h.496v2.22zM259.075 613.616c-1.37 0-2.455-.354-3.234-1.062-.78-.685-1.18-1.63-1.18-2.833 0-1.204.4-2.172 1.18-2.857.779-.684 1.841-1.038 3.187-1.038h4.013v-1.299c0-.779-.236-1.393-.708-1.841-.496-.449-1.157-.661-2.007-.661-.755 0-1.393.165-1.912.496-.52.33-.85.755-.968 1.298h-2.125a3.48 3.48 0 01.803-1.912 4.553 4.553 0 011.77-1.299c.732-.306 1.535-.448 2.432-.448 1.487 0 2.668.378 3.541 1.157.873.779 1.298 1.817 1.298 3.14v8.923h-2.077V610.9h-.024c-.094.826-.495 1.487-1.204 1.983-.731.496-1.652.732-2.785.732zm.52-1.676c1.014 0 1.84-.26 2.478-.756.637-.495.968-1.156.968-1.935v-1.842h-3.966c-.708 0-1.275.19-1.676.59-.402.402-.614.921-.614 1.606 0 .732.26 1.298.755 1.723.472.401 1.18.614 2.054.614zM279.92 611.869c-1.086.826-1.77 1.322-2.054 1.44a3.09 3.09 0 01-1.322.283c-.732 0-1.322-.236-1.794-.731-.472-.52-.708-1.157-.708-1.983 0-.52.118-.968.33-1.346.33-.52.874-1.015 1.653-1.464.779-.472 2.077-1.015 3.895-1.676v-.425c0-1.062-.165-1.77-.52-2.172-.33-.377-.802-.59-1.44-.59-.495 0-.873.142-1.156.402-.307.26-.449.566-.449.897l.024.66c0 .355-.095.638-.26.827a.96.96 0 01-.708.283.96.96 0 01-.708-.283c-.166-.213-.26-.472-.26-.826 0-.661.33-1.275 1.015-1.818.661-.567 1.629-.826 2.833-.826.944 0 1.723.141 2.313.472.449.236.78.59.992 1.11.142.33.212 1.014.212 2.03v3.588c0 .991.024 1.605.071 1.841.024.236.095.378.19.449.07.094.188.118.306.118a.653.653 0 00.307-.071c.165-.095.472-.378.944-.85v.661c-.873 1.133-1.676 1.723-2.479 1.723-.377 0-.66-.141-.897-.401-.212-.26-.33-.708-.33-1.322zm0-.755v-4.037c-1.157.472-1.912.802-2.266.991-.59.33-1.04.685-1.299 1.063-.26.354-.378.779-.378 1.204 0 .566.166 1.015.496 1.369.33.377.708.566 1.133.566.59 0 1.346-.401 2.314-1.156zM287.494 604.74c1.227-1.488 2.408-2.22 3.54-2.22.567 0 1.063.142 1.488.426.401.283.732.755.992 1.416.165.472.236 1.18.236 2.125v4.509c0 .66.07 1.11.165 1.369.094.189.212.33.401.448.19.095.543.142 1.063.142v.425h-5.241v-.425h.236c.496 0 .826-.07 1.015-.213.212-.141.33-.377.425-.66.023-.119.047-.473.047-1.086v-4.32c0-.968-.142-1.653-.378-2.102-.26-.424-.684-.637-1.274-.637-.897 0-1.818.496-2.715 1.487v5.572c0 .708.023 1.156.118 1.322.118.236.26.377.448.495.19.095.567.142 1.133.142v.425h-5.217v-.425h.236c.543 0 .897-.118 1.086-.401.19-.26.284-.803.284-1.558v-3.92c0-1.274-.024-2.053-.095-2.313-.047-.283-.141-.472-.26-.566a.76.76 0 00-.472-.166c-.212 0-.472.071-.779.19l-.165-.426 3.187-1.274h.496v2.219zM303.665 612.2c-.52.519-1.015.92-1.511 1.156a3.608 3.608 0 01-1.582.354c-1.157 0-2.172-.495-3.022-1.463-.873-.945-1.298-2.196-1.298-3.707 0-1.51.472-2.903 1.44-4.154.944-1.252 2.172-1.889 3.683-1.889.92 0 1.676.307 2.29.897v-1.96c0-1.203-.024-1.935-.071-2.218-.071-.284-.165-.472-.283-.567a.726.726 0 00-.449-.142c-.212 0-.472.048-.803.166l-.165-.402 3.163-1.274h.52V609.2c0 1.228.023 1.983.07 2.267.071.26.166.448.284.566a.745.745 0 00.448.166c.213 0 .473-.071.827-.213l.118.401-3.116 1.322h-.543v-1.51zm0-.803v-5.453a3.943 3.943 0 00-.402-1.417 2.501 2.501 0 00-.92-.991c-.378-.213-.756-.33-1.11-.33-.685 0-1.298.306-1.818.92-.708.803-1.038 1.96-1.038 3.494 0 1.558.33 2.738 1.015 3.564.66.827 1.416 1.252 2.242 1.252.709 0 1.37-.355 2.03-1.04zM321.016 613.616c-.968 0-1.77-.236-2.408-.732-.638-.472-.992-1.133-1.11-1.983h-.023v2.479h-2.125v-17.233h2.125v3.777l-.047 2.95h.07c.118-.826.472-1.487 1.11-1.982.637-.496 1.44-.732 2.408-.732 1.298 0 2.36.425 3.14 1.298.779.874 1.18 2.054 1.18 3.541v3.801c0 1.487-.401 2.644-1.18 3.518-.78.873-1.842 1.298-3.14 1.298zm-.708-1.841c.897 0 1.605-.26 2.124-.803.52-.543.78-1.298.78-2.314v-3.54c0-1.016-.26-1.771-.78-2.314-.52-.543-1.227-.803-2.124-.803-.874 0-1.558.284-2.054.827-.52.542-.78 1.322-.78 2.29v3.54c0 .968.26 1.747.78 2.29.496.543 1.18.827 2.054.827z"
                fill="#b12e1e" fill-rule="nonzero" />
        </g>
    </g>
    <g>
        <path d="M115.268 524.044L90.62 571.098" fill="none" stroke="#000" stroke-width="6.48" stroke-linecap="square"
            transform="matrix(.74738 -.05173 .19025 .60974 448.667 307.77)" />
        <path d="M115.268 524.044L90.62 571.098" fill="none" stroke="#000" stroke-width="6.48" stroke-linecap="square"
            transform="matrix(-.74754 -.05225 -.18994 .61072 934.648 307.1)" />
        <path d="M115.268 524.044L90.62 571.098" fill="none" stroke="#000" stroke-width="6.51" stroke-linecap="square"
            transform="matrix(.71909 -.1813 .31438 .51764 395.85 372.808)" />
        <circle cx="154.775" cy="556.848" r="2.753" transform="translate(536.768 200.982) scale(.7869)" />
        <circle cx="154.775" cy="556.848" r="2.753" transform="translate(567.275 200.982) scale(.7869)" />
        <circle cx="154.775" cy="556.848" r="2.753" transform="translate(552.021 200.982) scale(.7869)" />
        <g>
            <path
                d="M556.349 452.926c6.928-9.408 18.861-15.095 31.673-15.095 12.813 0 24.746 5.687 31.674 15.095l40.458 54.937c7.448 10.114 7.975 22.971 1.375 33.525-6.6 10.553-19.275 17.118-33.049 17.118h-80.915c-13.774 0-26.449-6.565-33.049-17.118-6.6-10.554-6.073-23.411 1.375-33.525l40.458-54.937z"
                fill="#fff" stroke="#c1c1c1" stroke-width="3.5"
                transform="matrix(1.06232 0 0 1.21695 66.932 -59.852)" />
        </g>
        <g>
            <path
                d="M655.99 581.696c1.016-1.417 2.125-2.125 3.306-2.125 1.086 0 2.03.449 2.833 1.37.802.944 1.204 2.195 1.204 3.8 0 1.889-.614 3.4-1.865 4.533-1.063.991-2.243 1.487-3.565 1.487a5.754 5.754 0 01-1.865-.33 9.148 9.148 0 01-1.96-1.016v-10.93c0-1.204-.023-1.935-.07-2.219-.071-.283-.165-.472-.284-.566a.726.726 0 00-.448-.142c-.236 0-.496.047-.826.165l-.142-.401 3.163-1.275h.52v7.649zm0 .732v6.326c.378.378.803.661 1.205.874.425.189.85.283 1.298.283.685 0 1.346-.378 1.96-1.157.59-.755.897-1.888.897-3.352 0-1.345-.307-2.384-.897-3.116-.614-.732-1.299-1.086-2.078-1.086-.401 0-.803.095-1.204.307-.307.165-.708.472-1.18.92zM666.661 583.844c0 1.582.378 2.81 1.157 3.683.755.897 1.676 1.345 2.715 1.345.684 0 1.275-.188 1.794-.566.52-.378.944-1.039 1.275-1.96l.377.237c-.165 1.062-.637 2.006-1.416 2.88-.78.85-1.747 1.298-2.927 1.298-1.252 0-2.337-.496-3.258-1.487-.897-.992-1.346-2.314-1.346-3.99 0-1.794.472-3.21 1.393-4.225.92-1.016 2.078-1.511 3.494-1.511 1.18 0 2.148.401 2.904 1.18.755.779 1.156 1.818 1.156 3.116h-7.318zm0-.66h4.887c-.024-.685-.118-1.158-.236-1.44a2.376 2.376 0 00-.85-1.016 2.234 2.234 0 00-1.204-.354c-.637 0-1.204.236-1.7.732-.52.495-.802 1.18-.897 2.077zM678.438 576.408v3.47h2.479v.803h-2.479v6.846c0 .684.094 1.133.307 1.393a.929.929 0 00.755.354c.236 0 .496-.095.732-.236.236-.166.425-.402.543-.709h.449c-.26.756-.638 1.322-1.134 1.7-.495.378-.991.567-1.51.567-.355 0-.709-.095-1.04-.284-.353-.188-.59-.472-.755-.85-.165-.353-.236-.92-.236-1.675v-7.106h-1.676v-.378c.425-.165.85-.448 1.299-.873a7.832 7.832 0 001.18-1.417c.165-.307.425-.826.732-1.605h.354zM681.338 579.878h4.438v.425c-.401.024-.685.095-.803.213a.676.676 0 00-.189.495c0 .236.071.52.19.874l2.265 6.067 2.267-4.934-.59-1.558c-.19-.472-.425-.78-.732-.968-.166-.094-.496-.165-.945-.189v-.425h5.029v.425c-.567.024-.945.118-1.18.283-.166.142-.237.33-.237.59 0 .166.024.331.095.473l2.408 6.067 2.219-5.831c.141-.425.236-.756.236-.992 0-.141-.095-.283-.236-.401-.142-.118-.449-.189-.874-.189v-.425h3.329v.425c-.661.095-1.157.543-1.487 1.346l-3.518 9.112h-.472l-2.644-6.752-3.069 6.752h-.425l-3.4-8.876c-.212-.567-.448-.945-.66-1.133-.213-.213-.543-.354-1.015-.449v-.425zM700.747 583.844c0 1.582.377 2.81 1.156 3.683.756.897 1.676 1.345 2.715 1.345.685 0 1.275-.188 1.794-.566.52-.378.945-1.039 1.275-1.96l.378.237c-.165 1.062-.638 2.006-1.417 2.88-.779.85-1.747 1.298-2.927 1.298-1.251 0-2.337-.496-3.258-1.487-.897-.992-1.345-2.314-1.345-3.99 0-1.794.472-3.21 1.393-4.225.92-1.016 2.077-1.511 3.493-1.511 1.18 0 2.149.401 2.904 1.18.756.779 1.157 1.818 1.157 3.116h-7.318zm0-.66h4.886c-.023-.685-.118-1.158-.236-1.44a2.376 2.376 0 00-.85-1.016 2.234 2.234 0 00-1.204-.354c-.637 0-1.204.236-1.7.732-.519.495-.802 1.18-.896 2.077zM711.224 583.844c0 1.582.378 2.81 1.157 3.683.755.897 1.676 1.345 2.715 1.345.684 0 1.275-.188 1.794-.566.52-.378.944-1.039 1.275-1.96l.377.237c-.165 1.062-.637 2.006-1.416 2.88-.779.85-1.747 1.298-2.927 1.298-1.251 0-2.337-.496-3.258-1.487-.897-.992-1.346-2.314-1.346-3.99 0-1.794.473-3.21 1.393-4.225.92-1.016 2.078-1.511 3.494-1.511 1.18 0 2.148.401 2.904 1.18.755.779 1.156 1.818 1.156 3.116h-7.318zm0-.66h4.887c-.024-.685-.118-1.158-.236-1.44a2.376 2.376 0 00-.85-1.016 2.234 2.234 0 00-1.204-.354c-.637 0-1.204.236-1.7.732-.519.495-.802 1.18-.897 2.077zM723.025 581.79c1.227-1.487 2.408-2.219 3.54-2.219.567 0 1.063.142 1.488.425.401.283.732.756.991 1.417.166.472.237 1.18.237 2.124v4.51c0 .66.07 1.109.165 1.368.094.19.212.33.401.449.189.094.543.142 1.062.142v.425h-5.24v-.425h.236c.495 0 .826-.071 1.015-.213.212-.142.33-.378.425-.66.023-.119.047-.473.047-1.087v-4.32c0-.968-.142-1.652-.378-2.1-.26-.426-.684-.638-1.275-.638-.897 0-1.817.495-2.714 1.487v5.571c0 .708.023 1.157.118 1.322.118.236.26.378.448.496.19.094.567.142 1.133.142v.425h-5.217v-.425h.236c.543 0 .897-.118 1.086-.402.189-.26.283-.802.283-1.558v-3.919c0-1.274-.023-2.053-.094-2.313-.047-.283-.142-.472-.26-.567a.76.76 0 00-.472-.165c-.212 0-.472.07-.779.189l-.165-.425 3.187-1.275h.496v2.22zM661.748 615.277c-1.582 0-2.833-.449-3.754-1.322-.944-.874-1.416-2.101-1.416-3.636v-3.54c0-1.535.472-2.763 1.416-3.636.92-.874 2.172-1.322 3.754-1.322 1.487 0 2.691.401 3.612 1.204.92.803 1.392 1.888 1.44 3.281h-2.125c-.047-.826-.33-1.487-.826-1.936-.52-.424-1.228-.66-2.101-.66-.92 0-1.676.26-2.22.779-.542.542-.826 1.298-.826 2.266v3.564c0 .968.284 1.724.827 2.267.543.543 1.298.802 2.219.802.873 0 1.581-.236 2.1-.684.497-.449.78-1.086.827-1.912h2.125c-.048 1.392-.52 2.478-1.44 3.281-.921.803-2.125 1.204-3.612 1.204zM681.365 613.53c-1.086.826-1.77 1.322-2.054 1.44a3.09 3.09 0 01-1.322.283c-.731 0-1.322-.236-1.794-.731-.472-.52-.708-1.157-.708-1.983 0-.52.118-.968.33-1.346.331-.52.874-1.015 1.653-1.464.78-.472 2.077-1.015 3.895-1.676v-.425c0-1.062-.165-1.77-.52-2.172-.33-.377-.802-.59-1.44-.59-.495 0-.873.142-1.156.402-.307.26-.448.566-.448.897l.023.66c0 .355-.094.638-.26.827a.96.96 0 01-.708.283.96.96 0 01-.708-.283c-.165-.213-.26-.472-.26-.826 0-.661.33-1.275 1.015-1.818.661-.567 1.63-.826 2.833-.826.945 0 1.724.141 2.314.472.448.236.779.59.991 1.11.142.33.213 1.014.213 2.03v3.588c0 .991.023 1.605.07 1.841.024.236.095.378.19.449.07.094.188.118.306.118a.653.653 0 00.307-.071c.166-.095.472-.378.945-.85v.661c-.874 1.133-1.677 1.723-2.48 1.723-.377 0-.66-.141-.896-.401-.213-.26-.33-.708-.33-1.322zm0-.755v-4.037c-1.157.472-1.912.802-2.266.991-.59.33-1.039.685-1.298 1.063-.26.354-.378.779-.378 1.204 0 .566.165 1.015.496 1.369.33.377.708.566 1.133.566.59 0 1.345-.401 2.313-1.156zM688.94 606.4c1.227-1.487 2.407-2.218 3.54-2.218.567 0 1.063.141 1.487.425.402.283.732.755.992 1.416.165.472.236 1.18.236 2.125v4.509c0 .66.07 1.11.165 1.369.095.189.213.33.402.448.188.095.543.142 1.062.142v.425h-5.24v-.425h.235c.496 0 .826-.07 1.015-.213.213-.141.33-.377.425-.66.024-.119.047-.473.047-1.086v-4.32c0-.968-.141-1.653-.377-2.102-.26-.424-.685-.637-1.275-.637-.897 0-1.818.496-2.715 1.487v5.572c0 .708.024 1.156.118 1.322.118.236.26.377.449.495.189.095.566.142 1.133.142v.425h-5.217v-.425h.236c.543 0 .897-.118 1.086-.401.189-.26.283-.803.283-1.558v-3.92c0-1.274-.024-2.053-.094-2.313-.048-.283-.142-.472-.26-.566a.76.76 0 00-.472-.166c-.213 0-.472.071-.78.19l-.165-.426 3.187-1.274h.496v2.219zM705.11 613.86c-.52.52-1.015.921-1.51 1.157a3.608 3.608 0 01-1.583.354c-1.156 0-2.171-.495-3.021-1.463-.874-.945-1.299-2.196-1.299-3.707 0-1.51.473-2.903 1.44-4.154.945-1.252 2.172-1.889 3.683-1.889.92 0 1.676.307 2.29.897v-1.96c0-1.203-.024-1.935-.07-2.218-.072-.284-.166-.473-.284-.567a.726.726 0 00-.449-.142c-.212 0-.472.048-.802.166l-.166-.402 3.164-1.274h.52v12.204c0 1.228.023 1.983.07 2.267.07.26.165.448.283.566a.745.745 0 00.449.166c.212 0 .472-.071.826-.213l.118.401-3.116 1.322h-.543v-1.51zm0-.802v-5.453a3.943 3.943 0 00-.401-1.417 2.501 2.501 0 00-.921-.991c-.378-.213-.755-.33-1.11-.33-.684 0-1.298.306-1.817.92-.708.803-1.039 1.96-1.039 3.494 0 1.558.33 2.738 1.015 3.564.661.827 1.417 1.252 2.243 1.252.708 0 1.369-.355 2.03-1.04zM720.95 615.277c-1.298 0-2.337-.425-3.116-1.298-.802-.874-1.204-2.03-1.204-3.518v-3.8c0-1.488.402-2.668 1.18-3.542.78-.873 1.842-1.298 3.14-1.298.968 0 1.77.236 2.408.732.638.495.992 1.156 1.11 1.983h.07l-.047-2.951v-3.777h2.125v17.233h-2.125v-2.479h-.023c-.118.85-.472 1.511-1.11 1.983-.637.496-1.44.732-2.408.732zm.709-1.841c.873 0 1.581-.284 2.077-.827.496-.543.755-1.322.755-2.29v-3.54c0-.968-.26-1.748-.755-2.29-.496-.543-1.204-.827-2.077-.827-.897 0-1.606.26-2.125.803-.52.543-.78 1.298-.78 2.313v3.541c0 1.016.26 1.771.78 2.314.52.543 1.228.803 2.125.803z"
                fill="#b12e1e" fill-rule="nonzero" />
        </g>
    </g>
    <g>
        <path d="M115.268 524.044L90.62 571.098" fill="none" stroke="#000" stroke-width="6.48" stroke-linecap="square"
            transform="matrix(.74738 -.05173 .19025 .60974 649.39 307.77)" />
        <path d="M115.268 524.044L90.62 571.098" fill="none" stroke="#000" stroke-width="6.48" stroke-linecap="square"
            transform="matrix(-.74754 -.05225 -.18994 .61072 1135.37 307.1)" />
        <path d="M115.268 524.044L90.62 571.098" fill="none" stroke="#000" stroke-width="6.51" stroke-linecap="square"
            transform="matrix(.71909 -.1813 .31438 .51764 596.573 372.808)" />
        <circle cx="154.775" cy="556.848" r="2.753" transform="translate(737.49 200.982) scale(.7869)" />
        <circle cx="154.775" cy="556.848" r="2.753" transform="translate(767.997 200.982) scale(.7869)" />
        <circle cx="154.775" cy="556.848" r="2.753" transform="translate(752.744 200.982) scale(.7869)" />
        <g>
            <path
                d="M556.349 452.926c6.928-9.408 18.861-15.095 31.673-15.095 12.813 0 24.746 5.687 31.674 15.095l40.458 54.937c7.448 10.114 7.975 22.971 1.375 33.525-6.6 10.553-19.275 17.118-33.049 17.118h-80.915c-13.774 0-26.449-6.565-33.049-17.118-6.6-10.554-6.073-23.411 1.375-33.525l40.458-54.937z"
                fill="#fff" stroke="#c1c1c1" stroke-width="3.5"
                transform="matrix(1.06232 0 0 1.21695 267.654 -59.852)" />
        </g>
        <g>
            <path
                d="M862.7 577.315a3.523 3.523 0 01-1.487-1.322 3.42 3.42 0 01-.52-1.865c0-1.062.402-1.96 1.18-2.714.78-.732 1.795-1.11 3.022-1.11 1.016 0 1.89.236 2.62.732h2.244c.33 0 .519 0 .566.023.047.024.095.048.118.095.047.07.071.189.071.378 0 .188-.024.33-.07.4 0 .048-.048.072-.119.095-.047.024-.236.048-.566.048h-1.37c.425.542.638 1.25.638 2.124 0 .968-.378 1.818-1.133 2.526-.756.685-1.77 1.039-3.022 1.039a5.51 5.51 0 01-1.605-.236c-.354.307-.567.543-.685.779-.118.212-.189.401-.189.543 0 .141.071.26.189.377.142.142.378.213.755.284.213.023.756.047 1.606.07 1.581.048 2.62.095 3.069.166.731.094 1.298.354 1.723.802.425.425.637.945.637 1.582 0 .874-.401 1.676-1.227 2.455-1.18 1.11-2.762 1.676-4.674 1.676-1.488 0-2.739-.33-3.778-1.015-.566-.377-.85-.779-.85-1.18 0-.189.048-.378.119-.567.141-.283.4-.684.802-1.18.071-.07.449-.496 1.18-1.251-.4-.236-.684-.449-.85-.638a.93.93 0 01-.235-.637c0-.26.094-.59.33-.944.213-.354.708-.874 1.511-1.535zm2.007-6.468c-.567 0-1.04.236-1.44.685-.378.448-.567 1.133-.567 2.077 0 1.228.26 2.148.78 2.833.4.496.896.755 1.534.755.566 0 1.062-.212 1.44-.66.377-.426.543-1.11.543-2.055 0-1.227-.26-2.171-.78-2.88-.4-.495-.897-.755-1.51-.755zm-2.125 10.316c-.354.402-.637.756-.826 1.086-.165.354-.26.661-.26.944 0 .378.213.685.661.968.756.472 1.889.709 3.329.709 1.392 0 2.408-.237 3.069-.732.66-.472.967-1.015.967-1.558 0-.402-.188-.685-.566-.85-.401-.165-1.204-.26-2.384-.307-1.724-.047-3.07-.118-3.99-.26zM874.763 570.304v2.36c.897-1.581 1.794-2.36 2.715-2.36.425 0 .78.118 1.062.378.26.26.402.543.402.897 0 .283-.095.543-.284.755a.982.982 0 01-.731.307c-.26 0-.567-.118-.897-.401-.331-.26-.59-.402-.732-.402-.142 0-.307.095-.449.237-.354.33-.708.85-1.086 1.558v5.075c0 .567.071 1.015.213 1.322.118.189.283.378.543.52.26.117.613.188 1.086.188v.425h-5.406v-.425c.543 0 .944-.07 1.204-.236.188-.141.33-.33.4-.59.048-.142.072-.52.072-1.133v-4.084c0-1.228-.048-1.96-.095-2.196a.981.981 0 00-.26-.519.907.907 0 00-.519-.165c-.236 0-.496.07-.802.189l-.118-.425 3.21-1.275h.472zM881.302 574.577c0 1.582.378 2.81 1.157 3.683.756.897 1.676 1.345 2.715 1.345.685 0 1.275-.189 1.794-.566.52-.378.944-1.04 1.275-1.96l.378.236c-.166 1.063-.638 2.007-1.417 2.88-.779.85-1.747 1.299-2.927 1.299-1.251 0-2.337-.496-3.258-1.488-.897-.991-1.345-2.313-1.345-3.99 0-1.793.472-3.21 1.392-4.225.921-1.015 2.078-1.51 3.494-1.51 1.18 0 2.148.4 2.904 1.18.755.779 1.157 1.817 1.157 3.116h-7.319zm0-.661h4.887c-.024-.685-.118-1.157-.236-1.44a2.376 2.376 0 00-.85-1.015 2.234 2.234 0 00-1.204-.354c-.637 0-1.204.236-1.7.731-.519.496-.802 1.18-.897 2.078zM896.006 579.652c-1.085.827-1.77 1.322-2.053 1.44a3.09 3.09 0 01-1.322.284c-.732 0-1.322-.236-1.794-.732-.473-.52-.709-1.157-.709-1.983 0-.52.118-.968.33-1.346.331-.52.874-1.015 1.653-1.463.78-.472 2.078-1.015 3.895-1.676v-.425c0-1.063-.165-1.77-.519-2.172-.33-.378-.803-.59-1.44-.59-.496 0-.873.141-1.157.4-.307.26-.448.567-.448.898l.023.661c0 .354-.094.637-.26.826a.96.96 0 01-.707.284.96.96 0 01-.709-.284c-.165-.212-.26-.472-.26-.826 0-.661.331-1.275 1.016-1.818.66-.566 1.629-.826 2.833-.826.944 0 1.723.142 2.313.472.449.236.78.59.992 1.11.141.33.212 1.015.212 2.03v3.588c0 .992.024 1.605.07 1.841.024.237.095.378.19.449.07.094.189.118.307.118a.653.653 0 00.306-.07c.166-.095.473-.378.945-.85v.66c-.874 1.134-1.676 1.724-2.479 1.724-.378 0-.661-.142-.897-.402-.212-.26-.33-.708-.33-1.322zm0-.755v-4.037c-1.156.472-1.912.803-2.266.992-.59.33-1.039.684-1.298 1.062-.26.354-.378.779-.378 1.204 0 .566.165 1.015.496 1.37.33.377.708.566 1.133.566.59 0 1.346-.402 2.313-1.157zM903.557 567.14v3.47h2.479v.804h-2.48v6.846c0 .684.095 1.133.308 1.392a.929.929 0 00.755.354c.236 0 .496-.094.732-.236.236-.165.425-.4.543-.708h.448c-.26.756-.637 1.322-1.133 1.7-.495.378-.991.566-1.51.566-.355 0-.709-.094-1.04-.283-.353-.189-.59-.472-.755-.85-.165-.354-.236-.92-.236-1.676v-7.105h-1.676v-.378c.425-.165.85-.449 1.299-.874a7.832 7.832 0 001.18-1.416c.165-.307.425-.826.732-1.605h.354zM908.817 574.577c0 1.582.378 2.81 1.157 3.683.755.897 1.676 1.345 2.715 1.345.684 0 1.275-.189 1.794-.566.52-.378.944-1.04 1.275-1.96l.377.236c-.165 1.063-.637 2.007-1.416 2.88-.779.85-1.747 1.299-2.927 1.299-1.251 0-2.337-.496-3.258-1.488-.897-.991-1.346-2.313-1.346-3.99 0-1.793.472-3.21 1.393-4.225.92-1.015 2.078-1.51 3.494-1.51 1.18 0 2.148.4 2.904 1.18.755.779 1.156 1.817 1.156 3.116h-7.318zm0-.661h4.887c-.024-.685-.118-1.157-.236-1.44a2.376 2.376 0 00-.85-1.015 2.234 2.234 0 00-1.204-.354c-.637 0-1.204.236-1.7.731-.519.496-.802 1.18-.897 2.078zM920.618 570.304v2.36c.897-1.581 1.794-2.36 2.714-2.36.425 0 .78.118 1.063.378.26.26.401.543.401.897 0 .283-.094.543-.283.755a.982.982 0 01-.732.307c-.26 0-.567-.118-.897-.401-.33-.26-.59-.402-.732-.402-.142 0-.307.095-.448.237-.355.33-.709.85-1.086 1.558v5.075c0 .567.07 1.015.212 1.322.118.189.283.378.543.52.26.117.614.188 1.086.188v.425h-5.406v-.425c.543 0 .944-.07 1.204-.236.189-.141.33-.33.401-.59.047-.142.071-.52.071-1.133v-4.084c0-1.228-.047-1.96-.094-2.196a.981.981 0 00-.26-.519.907.907 0 00-.52-.165c-.235 0-.495.07-.802.189l-.118-.425 3.21-1.275h.473zM865.34 591.751v3.47h2.48v.803h-2.48v6.846c0 .685.095 1.133.308 1.393a.929.929 0 00.755.354c.236 0 .496-.095.732-.236.236-.165.425-.402.543-.708h.449c-.26.755-.638 1.322-1.134 1.7-.495.377-.991.566-1.51.566-.355 0-.709-.095-1.04-.283-.353-.19-.59-.473-.755-.85-.165-.354-.236-.921-.236-1.676v-7.106h-1.676v-.378c.425-.165.85-.448 1.299-.873a7.832 7.832 0 001.18-1.417c.165-.307.425-.826.732-1.605h.354zM871.947 589.39v7.72c.85-.944 1.51-1.535 2.03-1.818.496-.26.992-.378 1.487-.378.59 0 1.11.166 1.535.496.448.33.755.85.968 1.535.141.495.212 1.392.212 2.714v3.73c0 .661.071 1.133.165 1.37.071.188.213.33.402.448.165.094.52.142 1.015.142v.425h-5.194v-.425h.236c.496 0 .827-.071 1.04-.213.188-.141.306-.377.4-.66.024-.119.024-.497.024-1.087v-3.73c0-1.156-.047-1.912-.165-2.266-.118-.378-.307-.637-.59-.826-.26-.189-.567-.26-.945-.26-.377 0-.755.095-1.156.283-.425.213-.898.614-1.464 1.228v5.571c0 .732.024 1.18.118 1.346.07.189.212.33.448.448.213.118.59.166 1.134.166v.425h-5.241v-.425c.472 0 .85-.071 1.11-.213.165-.07.283-.212.377-.425.095-.236.142-.66.142-1.322v-9.56c0-1.205-.047-1.936-.095-2.22-.07-.283-.141-.472-.26-.566-.117-.095-.283-.142-.495-.142-.142 0-.425.047-.78.165l-.164-.4 3.163-1.276h.543zM886.63 604.263c-1.085.826-1.77 1.322-2.053 1.44a3.09 3.09 0 01-1.322.283c-.732 0-1.322-.236-1.794-.732-.473-.52-.709-1.156-.709-1.983 0-.52.118-.968.33-1.345.331-.52.874-1.015 1.653-1.464.78-.472 2.078-1.015 3.896-1.676v-.425c0-1.062-.166-1.77-.52-2.172-.33-.378-.802-.59-1.44-.59-.496 0-.873.142-1.157.401-.306.26-.448.567-.448.897l.023.661c0 .354-.094.638-.26.827a.96.96 0 01-.707.283.96.96 0 01-.709-.283c-.165-.213-.26-.473-.26-.827 0-.66.331-1.274 1.016-1.817.66-.567 1.629-.827 2.833-.827.944 0 1.723.142 2.313.472.449.237.78.59.992 1.11.141.33.212 1.015.212 2.03v3.589c0 .991.024 1.605.07 1.84.025.237.095.379.19.45.07.094.189.117.307.117a.653.653 0 00.307-.07c.165-.095.472-.378.944-.85v.66c-.874 1.134-1.676 1.724-2.479 1.724-.378 0-.66-.142-.897-.401-.212-.26-.33-.708-.33-1.322zm0-.756v-4.036c-1.156.472-1.912.802-2.266.991-.59.33-1.038.685-1.298 1.062-.26.354-.378.78-.378 1.204 0 .567.165 1.015.496 1.37.33.377.708.566 1.133.566.59 0 1.346-.401 2.314-1.157zM894.204 597.133c1.228-1.487 2.408-2.219 3.542-2.219.566 0 1.062.142 1.487.425.401.284.732.756.991 1.417.166.472.236 1.18.236 2.124v4.51c0 .66.071 1.109.166 1.369.094.188.212.33.4.448.19.094.544.142 1.063.142v.425h-5.24v-.425h.236c.495 0 .826-.071 1.015-.213.212-.141.33-.377.425-.66.023-.119.047-.473.047-1.087v-4.32c0-.968-.142-1.652-.378-2.1-.26-.426-.685-.638-1.275-.638-.897 0-1.817.496-2.715 1.487v5.571c0 .709.024 1.157.118 1.322.119.236.26.378.449.496.189.094.567.142 1.133.142v.425h-5.217v-.425h.236c.543 0 .897-.118 1.086-.402.189-.26.283-.802.283-1.558v-3.918c0-1.275-.023-2.054-.094-2.314-.047-.283-.142-.472-.26-.567a.76.76 0 00-.472-.165c-.212 0-.472.071-.779.19l-.165-.426 3.187-1.275h.495v2.22zM914.412 606.01c-1.298 0-2.337-.425-3.116-1.299-.803-.873-1.204-2.03-1.204-3.517v-3.8c0-1.488.401-2.668 1.18-3.542.78-.873 1.842-1.298 3.14-1.298.968 0 1.77.236 2.408.731.637.496.992 1.157 1.11 1.983h.07l-.047-2.95v-3.778h2.125v17.234h-2.125v-2.48h-.023c-.118.85-.473 1.512-1.11 1.984-.637.496-1.44.732-2.408.732zm.708-1.842c.874 0 1.582-.283 2.078-.826.496-.543.755-1.322.755-2.29v-3.54c0-.969-.26-1.748-.755-2.29-.496-.544-1.204-.827-2.078-.827-.897 0-1.605.26-2.124.803-.52.543-.78 1.298-.78 2.313v3.541c0 1.015.26 1.77.78 2.314.52.543 1.227.802 2.124.802z"
                fill="#b12e1e" fill-rule="nonzero" />
        </g>
    </g>
</svg>