<svg viewBox="0 0 1024 768" xmlns="http://www.w3.org/2000/svg" fill-rule="evenodd" clip-rule="evenodd"
    stroke-linecap="round" stroke-linejoin="round" stroke-miterlimit="1.5">
    <path
        d="M734.837 459.139l-46.203-84.226M875.408 476.841L719.525 360.94M561.84 459.139l63.176-84.594M421.27 476.841l168.811-109.65"
        fill="none" stroke="#000" stroke-width="3.9994380000000005" />
    <path d="M654.33 325.652l-152.553-44.6" fill="none" stroke="#000" stroke-width="3.9986892000000003" />
    <g transform="matrix(.25522 0 0 .564 351.597 154.031)">
        <path
            d="M731.429 185.017c0-23.045-41.346-41.755-92.273-41.755H369.294c-50.927 0-92.273 18.71-92.273 41.755s41.346 41.755 92.273 41.755h269.862c50.927 0 92.273-18.71 92.273-41.755z"
            fill="#fff" />
        <clipPath id="prefix__a">
            <path
                d="M731.429 185.017c0-23.045-41.346-41.755-92.273-41.755H369.294c-50.927 0-92.273 18.71-92.273 41.755s41.346 41.755 92.273 41.755h269.862c50.927 0 92.273-18.71 92.273-41.755z" />
        </clipPath>
        <g clip-path="url(#prefix__a)">
            <path
                d="M423.848 205.784c-7.194 0-12.9-.842-16.993-2.526-4.093-1.628-6.202-3.873-6.202-6.736 0-2.862 2.109-5.164 6.202-6.791 4.094-1.628 9.675-2.47 16.745-2.47h21.087v-3.087c0-1.852-1.24-3.312-3.721-4.378-2.605-1.067-6.078-1.572-10.544-1.572-3.969 0-7.318.393-10.047 1.179-2.728.786-4.465 1.796-5.085 3.087h-11.164c.373-1.74 1.861-3.255 4.218-4.546 2.356-1.291 5.457-2.358 9.303-3.087 3.845-.73 8.062-1.067 12.775-1.067 7.815 0 14.017.898 18.606 2.75 4.59 1.853 6.822 4.322 6.822 7.466v21.216h-10.915v-5.893h-.124c-.496 1.964-2.605 3.536-6.326 4.715-3.845 1.178-8.683 1.74-14.637 1.74zm2.73-3.986c5.333 0 9.674-.617 13.023-1.796 3.35-1.178 5.086-2.75 5.086-4.602v-4.378h-20.839c-3.72 0-6.698.449-8.806 1.403-2.109.954-3.225 2.189-3.225 3.817 0 1.74 1.364 3.087 3.969 4.097 2.48.954 6.202 1.46 10.791 1.46zM582.617 205.784c-5.086 0-9.303-.562-12.652-1.74-3.35-1.123-5.21-2.695-5.83-4.715h-.124v5.893h-11.163v-40.974h11.163v8.98l-.248 7.017h.372c.62-1.965 2.48-3.536 5.83-4.715 3.349-1.179 7.566-1.74 12.652-1.74 6.822 0 12.404 1.01 16.497 3.087s6.202 4.883 6.202 8.42v9.036c0 3.536-2.109 6.287-6.202 8.363-4.093 2.077-9.675 3.088-16.497 3.088zm-3.721-4.379c4.713 0 8.434-.617 11.163-1.908 2.729-1.29 4.093-3.087 4.093-5.5v-8.42c0-2.413-1.364-4.21-4.093-5.5-2.729-1.291-6.45-1.909-11.163-1.909-4.59 0-8.187.674-10.792 1.965-2.728 1.29-4.093 3.143-4.093 5.444v8.42c0 2.3 1.365 4.153 4.093 5.444 2.605 1.29 6.202 1.964 10.792 1.964z"
                fill-rule="nonzero" />
        </g>
        <path
            d="M731.429 185.017c0-23.045-41.346-41.755-92.273-41.755H369.294c-50.927 0-92.273 18.71-92.273 41.755s41.346 41.755 92.273 41.755h269.862c50.927 0 92.273-18.71 92.273-41.755z"
            fill="none" stroke="#000" stroke-width="9.14" />
    </g>
    <path d="M115.268 524.044L90.62 571.098" fill="none" stroke="#000" stroke-width="7.9" stroke-linecap="square"
        transform="matrix(-.59832 -.04562 -.15203 .53323 433.442 307.786)" />
    <path d="M115.268 524.044L90.62 571.098" fill="none" stroke="#000" stroke-width="7.99" stroke-linecap="square"
        transform="matrix(.59049 -.01858 .16949 .47295 36.356 338.68)" />
    <path d="M115.268 524.044L90.62 571.098" fill="none" stroke="#000" stroke-width="8.08" stroke-linecap="square"
        transform="matrix(.57449 -.14697 .25376 .42906 3.005 376.54)" />
    <circle cx="154.775" cy="556.848" r="2.753" transform="matrix(.62982 0 0 .68706 118.128 215.465)" />
    <circle cx="154.775" cy="556.848" r="2.753" transform="matrix(.62982 0 0 .68706 142.545 215.465)" />
    <circle cx="154.775" cy="556.848" r="2.753" transform="matrix(.62982 0 0 .68706 130.337 215.465)" />
    <path
        d="M250.689 546.906c6.328-13.301 38.238-23.022 75.574-23.022 37.337 0 69.247 9.721 75.574 23.022l49.82 104.734c3.832 8.056-2.366 16.311-16.936 22.561s-36.028 9.857-58.638 9.857h-99.64c-22.61 0-44.067-3.607-58.638-9.857-14.57-6.25-20.767-14.505-16.936-22.561l49.82-104.734z"
        fill="none" stroke="#bababa" stroke-width="3.69" transform="matrix(.52163 0 0 1.44298 68.275 -402.424)" />
    <path
        d="M207.373 549.927c.886-1.236 1.855-1.855 2.885-1.855.949 0 1.773.392 2.474 1.196.7.824 1.051 1.917 1.051 3.318 0 1.65-.536 2.968-1.628 3.958-.928.865-1.958 1.298-3.113 1.298a5.024 5.024 0 01-1.628-.288 7.988 7.988 0 01-1.71-.887v-9.543c0-1.051-.021-1.69-.063-1.937-.061-.248-.144-.413-.247-.495a.634.634 0 00-.392-.124c-.206 0-.432.042-.72.145l-.125-.35 2.762-1.114h.454v6.678zm0 .64v5.523c.33.33.7.577 1.051.763.371.165.742.247 1.134.247.597 0 1.175-.33 1.71-1.01.516-.66.784-1.649.784-2.927 0-1.174-.268-2.081-.784-2.72-.535-.64-1.133-.948-1.813-.948-.35 0-.701.082-1.052.268-.268.144-.618.412-1.03.803zM216.69 551.803c0 1.381.33 2.453 1.01 3.216.659.783 1.463 1.174 2.37 1.174a2.58 2.58 0 001.566-.494c.454-.33.825-.907 1.113-1.711l.33.206c-.144.928-.557 1.752-1.237 2.515-.68.742-1.525 1.133-2.556 1.133-1.092 0-2.04-.433-2.844-1.298-.783-.866-1.175-2.02-1.175-3.484 0-1.566.412-2.803 1.216-3.69.804-.885 1.814-1.318 3.05-1.318 1.031 0 1.876.35 2.536 1.03.66.68 1.01 1.587 1.01 2.721h-6.39zm0-.577h4.266c-.02-.598-.103-1.01-.206-1.257a2.074 2.074 0 00-.742-.887 1.95 1.95 0 00-1.051-.309c-.557 0-1.052.206-1.484.64-.454.432-.701 1.03-.784 1.813zM226.972 545.31v3.03h2.164v.701h-2.164v5.978c0 .597.082.989.268 1.216.165.206.391.309.66.309.205 0 .432-.083.638-.206.206-.145.371-.35.474-.619h.392c-.227.66-.557 1.155-.99 1.484-.432.33-.865.495-1.319.495a1.82 1.82 0 01-.906-.247c-.31-.165-.516-.413-.66-.742-.144-.31-.206-.804-.206-1.464v-6.204h-1.464v-.33c.371-.144.742-.391 1.134-.762.371-.35.721-.763 1.03-1.237.145-.268.372-.721.64-1.402h.309zM229.504 548.34h3.875v.371c-.35.02-.598.083-.701.186a.59.59 0 00-.165.433c0 .206.062.453.165.762l1.978 5.298 1.98-4.308-.516-1.36c-.165-.413-.371-.68-.639-.846-.144-.082-.433-.144-.825-.165v-.37h4.39v.37c-.494.02-.824.103-1.03.248-.144.123-.206.288-.206.515 0 .144.02.289.083.412l2.102 5.297 1.937-5.09c.124-.372.207-.66.207-.866 0-.124-.083-.248-.207-.35-.123-.104-.391-.166-.762-.166v-.37h2.906v.37c-.577.083-1.01.474-1.299 1.175l-3.07 7.956h-.413l-2.308-5.895-2.68 5.895h-.37l-2.969-7.75c-.186-.494-.392-.824-.577-.989-.186-.186-.474-.31-.886-.392v-.37zM246.45 551.803c0 1.381.33 2.453 1.01 3.216.66.783 1.463 1.174 2.37 1.174a2.58 2.58 0 001.567-.494c.453-.33.824-.907 1.113-1.711l.33.206c-.145.928-.557 1.752-1.237 2.515-.68.742-1.526 1.133-2.556 1.133-1.093 0-2.04-.433-2.845-1.298-.783-.866-1.174-2.02-1.174-3.484 0-1.566.412-2.803 1.216-3.69.804-.885 1.814-1.318 3.05-1.318 1.03 0 1.876.35 2.535 1.03.66.68 1.01 1.587 1.01 2.721h-6.39zm0-.577h4.266c-.02-.598-.103-1.01-.206-1.257a2.074 2.074 0 00-.742-.887 1.95 1.95 0 00-1.05-.309c-.557 0-1.052.206-1.485.64-.453.432-.7 1.03-.783 1.813zM255.598 551.803c0 1.381.33 2.453 1.01 3.216.66.783 1.463 1.174 2.37 1.174a2.58 2.58 0 001.567-.494c.453-.33.824-.907 1.113-1.711l.33.206c-.145.928-.557 1.752-1.237 2.515-.68.742-1.525 1.133-2.556 1.133-1.092 0-2.04-.433-2.844-1.298-.784-.866-1.175-2.02-1.175-3.484 0-1.566.412-2.803 1.216-3.69.804-.885 1.814-1.318 3.05-1.318 1.03 0 1.876.35 2.536 1.03.66.68 1.01 1.587 1.01 2.721h-6.39zm0-.577h4.267c-.021-.598-.103-1.01-.207-1.257a2.074 2.074 0 00-.742-.887 1.95 1.95 0 00-1.05-.309c-.557 0-1.052.206-1.485.64-.453.432-.7 1.03-.783 1.813zM265.901 550.01c1.072-1.299 2.102-1.938 3.092-1.938.494 0 .927.124 1.298.371.35.248.64.66.866 1.237.144.412.206 1.03.206 1.855v3.937c0 .577.062.969.144 1.195a.916.916 0 00.35.392c.166.083.475.124.928.124v.37h-4.575v-.37h.206c.433 0 .721-.062.886-.186.185-.123.289-.33.371-.577.02-.103.041-.412.041-.948V551.7c0-.845-.123-1.443-.33-1.834-.226-.371-.597-.557-1.113-.557-.783 0-1.587.433-2.37 1.299v4.864c0 .618.02 1.01.103 1.154.103.206.227.33.392.433.165.083.494.124.99.124v.37h-4.556v-.37h.206c.474 0 .783-.103.948-.35.165-.227.247-.701.247-1.361v-3.422c0-1.113-.02-1.793-.082-2.02-.041-.247-.124-.412-.227-.494a.664.664 0 00-.412-.144c-.185 0-.412.061-.68.164l-.144-.37 2.782-1.114h.433v1.938zM211.328 579.248c-1.196 0-2.144-.31-2.824-.928-.68-.598-1.03-1.422-1.03-2.473 0-1.052.35-1.897 1.03-2.494.68-.598 1.607-.907 2.782-.907h3.504v-1.134c0-.68-.206-1.216-.618-1.608-.433-.391-1.01-.577-1.752-.577-.66 0-1.216.145-1.67.433-.453.289-.742.66-.845 1.134h-1.855a3.04 3.04 0 01.701-1.67 3.975 3.975 0 011.546-1.133c.639-.268 1.34-.392 2.123-.392 1.298 0 2.329.33 3.092 1.01.762.68 1.133 1.587 1.133 2.741v7.791h-1.814v-2.164h-.02c-.083.722-.433 1.299-1.051 1.732-.64.432-1.443.639-2.432.639zm.453-1.464c.886 0 1.608-.227 2.164-.66.557-.432.845-1.01.845-1.69v-1.607h-3.462c-.619 0-1.114.165-1.464.515-.35.35-.536.804-.536 1.402 0 .639.227 1.133.66 1.504.412.35 1.03.536 1.793.536zM229.528 577.722c-.949.722-1.546 1.155-1.794 1.258-.35.165-.742.247-1.154.247-.639 0-1.154-.206-1.566-.639-.413-.453-.619-1.01-.619-1.731 0-.454.103-.845.289-1.175.288-.454.763-.887 1.443-1.278.68-.412 1.814-.886 3.4-1.464v-.37c0-.928-.144-1.546-.453-1.897-.288-.33-.7-.515-1.257-.515-.433 0-.763.123-1.01.35-.268.227-.392.495-.392.783l.02.578c0 .309-.082.556-.226.721a.839.839 0 01-.618.247.839.839 0 01-.619-.247c-.144-.186-.226-.412-.226-.721 0-.578.288-1.113.886-1.588.577-.494 1.422-.72 2.473-.72.825 0 1.505.123 2.02.411.392.206.68.516.866.97.124.288.186.885.186 1.772v3.133c0 .865.02 1.401.061 1.607.021.206.083.33.165.392.062.082.165.103.268.103a.57.57 0 00.268-.062c.144-.082.412-.33.825-.742v.577c-.763.99-1.464 1.505-2.165 1.505-.33 0-.577-.124-.783-.35-.185-.227-.288-.619-.288-1.155zm0-.66v-3.524c-1.01.412-1.67.7-1.98.866-.514.288-.906.598-1.133.927-.226.31-.33.68-.33 1.052 0 .494.145.886.433 1.195.289.33.619.495.99.495.515 0 1.175-.35 2.02-1.01zM236.14 571.498c1.072-1.299 2.103-1.938 3.092-1.938.495 0 .928.124 1.299.371.35.247.639.66.866 1.237.144.412.206 1.03.206 1.855v3.937c0 .577.061.968.144 1.195a.916.916 0 00.35.392c.165.082.474.123.928.123v.371h-4.576v-.37h.206c.433 0 .722-.062.886-.186.186-.124.289-.33.371-.577.021-.103.042-.412.042-.948v-3.772c0-.845-.124-1.443-.33-1.835-.227-.37-.598-.556-1.113-.556-.783 0-1.587.433-2.37 1.298v4.865c0 .618.02 1.01.103 1.154.103.206.226.33.391.433.165.082.495.123.99.123v.371h-4.556v-.37h.207c.474 0 .783-.104.948-.35.165-.228.247-.702.247-1.361v-3.422c0-1.113-.02-1.793-.082-2.02-.042-.247-.124-.412-.227-.494a.664.664 0 00-.412-.145c-.186 0-.413.062-.68.165l-.145-.37 2.783-1.114h.433v1.938zM250.26 578.01c-.454.454-.887.805-1.32 1.01a3.15 3.15 0 01-1.38.31c-1.01 0-1.897-.433-2.639-1.278-.763-.824-1.134-1.917-1.134-3.236 0-1.32.413-2.535 1.258-3.628.824-1.092 1.896-1.649 3.215-1.649.804 0 1.464.268 2 .784v-1.711c0-1.051-.021-1.69-.062-1.938-.062-.247-.145-.412-.248-.494a.634.634 0 00-.391-.124 2.11 2.11 0 00-.701.144l-.144-.35 2.762-1.113h.453v10.656c0 1.072.02 1.732.062 1.979.062.227.144.392.247.495a.65.65 0 00.392.144c.185 0 .412-.062.721-.186l.103.35-2.72 1.155h-.474v-1.32zm0-.7v-4.761a3.443 3.443 0 00-.35-1.237 2.184 2.184 0 00-.805-.866c-.33-.185-.66-.288-.968-.288-.598 0-1.134.268-1.588.804-.618.7-.906 1.71-.906 3.05 0 1.36.288 2.391.886 3.113.577.721 1.237 1.092 1.958 1.092.618 0 1.195-.31 1.773-.907zM265.41 579.248c-.846 0-1.547-.207-2.103-.64-.557-.412-.866-.989-.969-1.73h-.02v2.163h-1.856v-15.046h1.855v3.298l-.04 2.576h.061c.103-.721.412-1.298.969-1.731.556-.433 1.257-.64 2.102-.64 1.134 0 2.061.372 2.741 1.135.68.762 1.031 1.793 1.031 3.091v3.319c0 1.298-.35 2.308-1.03 3.07-.68.764-1.608 1.135-2.742 1.135zm-.62-1.608c.784 0 1.402-.227 1.856-.7.453-.475.68-1.135.68-2.02v-3.093c0-.886-.227-1.546-.68-2.02-.454-.474-1.072-.7-1.855-.7-.763 0-1.36.247-1.793.721-.454.474-.68 1.154-.68 2v3.091c0 .845.226 1.525.68 2 .432.474 1.03.72 1.793.72z"
        fill="#b12e1e" fill-rule="nonzero" />
    <g>
        <path d="M759.534 338.108l-163.073-104.57" fill="none" stroke="#000" stroke-width="4.21"
            transform="matrix(-.9542 -.0061 .0061 .9598 999.135 58.559)" />
    </g>
    <g>
        <path d="M115.268 524.044L90.62 571.098" fill="none" stroke="#000" stroke-width="7.9" stroke-linecap="square"
            transform="matrix(-.59832 -.04562 -.15203 .53323 283.1 307.786)" />
        <path d="M115.268 524.044L90.62 571.098" fill="none" stroke="#000" stroke-width="7.99" stroke-linecap="square"
            transform="matrix(.59049 -.01858 .16949 .47295 -113.985 338.68)" />
        <path d="M115.268 524.044L90.62 571.098" fill="none" stroke="#000" stroke-width="8.08" stroke-linecap="square"
            transform="matrix(.57449 -.14697 .25376 .42906 -147.336 376.54)" />
        <circle cx="154.775" cy="556.848" r="2.753" transform="matrix(.62982 0 0 .68706 -32.213 215.465)" />
        <circle cx="154.775" cy="556.848" r="2.753" transform="matrix(.62982 0 0 .68706 -7.796 215.465)" />
        <circle cx="154.775" cy="556.848" r="2.753" transform="matrix(.62982 0 0 .68706 -20.004 215.465)" />
        <g>
            <path
                d="M250.689 546.906c6.328-13.301 38.238-23.022 75.574-23.022 37.337 0 69.247 9.721 75.574 23.022l49.82 104.734c3.832 8.056-2.366 16.311-16.936 22.561s-36.028 9.857-58.638 9.857h-99.64c-22.61 0-44.067-3.607-58.638-9.857-14.57-6.25-20.767-14.505-16.936-22.561l49.82-104.734z"
                fill="none" stroke="#bababa" stroke-width="3.69"
                transform="matrix(.52163 0 0 1.44298 -82.066 -402.424)" />
        </g>
        <g>
            <path
                d="M76.547 543.25v12.222c0 .577.041.948.124 1.154.082.186.206.33.391.412.165.104.495.145.969.145v.37h-4.514v-.37c.433 0 .721-.041.866-.124.165-.082.268-.227.37-.433.083-.206.124-.577.124-1.154v-8.368c0-1.052-.02-1.69-.061-1.917-.062-.248-.124-.413-.227-.495a.654.654 0 00-.412-.124c-.165 0-.392.042-.66.145l-.165-.35 2.741-1.114h.454zM80.645 551.803c0 1.381.33 2.453 1.01 3.216.66.783 1.463 1.174 2.37 1.174a2.58 2.58 0 001.566-.494c.454-.33.825-.907 1.113-1.711l.33.206c-.144.928-.556 1.752-1.237 2.515-.68.742-1.525 1.133-2.555 1.133-1.093 0-2.04-.433-2.845-1.298-.783-.866-1.175-2.02-1.175-3.484 0-1.566.413-2.803 1.216-3.69.804-.885 1.814-1.318 3.051-1.318 1.03 0 1.876.35 2.535 1.03.66.68 1.01 1.587 1.01 2.721h-6.39zm0-.577h4.266c-.02-.598-.103-1.01-.206-1.257a2.074 2.074 0 00-.742-.887 1.95 1.95 0 00-1.051-.309c-.557 0-1.051.206-1.484.64-.454.432-.701 1.03-.783 1.813zM94.204 548.072v3.133h-.33c-.247-.989-.577-1.67-.968-2.02-.412-.35-.907-.536-1.526-.536-.474 0-.865.124-1.154.372-.288.247-.433.535-.433.824 0 .392.124.7.33.969.206.288.64.577 1.278.886l1.464.7c1.36.681 2.04 1.547 2.04 2.64 0 .844-.31 1.504-.948 2.02-.639.514-1.34.782-2.123.782-.577 0-1.216-.103-1.938-.309-.226-.062-.412-.103-.556-.103-.144 0-.268.083-.35.268h-.33V554.4h.33c.185.948.535 1.65 1.071 2.123.536.474 1.134.722 1.794.722.453 0 .824-.145 1.113-.413a1.25 1.25 0 00.453-.989c0-.453-.165-.845-.495-1.154-.33-.31-.968-.722-1.937-1.196-.99-.494-1.628-.927-1.917-1.319-.31-.37-.453-.866-.453-1.443 0-.762.247-1.401.783-1.896.515-.515 1.195-.763 2.02-.763.35 0 .783.062 1.319.227.33.103.556.144.68.144a.44.44 0 00.247-.061c.062-.062.124-.165.206-.31h.33zM102.226 548.072v3.133h-.33c-.247-.989-.577-1.67-.969-2.02-.412-.35-.907-.536-1.525-.536-.474 0-.866.124-1.154.372-.289.247-.433.535-.433.824 0 .392.123.7.33.969.206.288.639.577 1.277.886l1.464.7c1.36.681 2.04 1.547 2.04 2.64 0 .844-.309 1.504-.948 2.02-.639.514-1.34.782-2.123.782-.577 0-1.216-.103-1.937-.309-.227-.062-.412-.103-.557-.103-.144 0-.268.083-.35.268h-.33V554.4h.33c.185.948.536 1.65 1.072 2.123.536.474 1.133.722 1.793.722.453 0 .824-.145 1.113-.413a1.25 1.25 0 00.453-.989c0-.453-.164-.845-.494-1.154-.33-.31-.969-.722-1.938-1.196-.99-.494-1.628-.927-1.917-1.319-.309-.37-.453-.866-.453-1.443 0-.762.247-1.401.783-1.896.515-.515 1.196-.763 2.02-.763.35 0 .783.062 1.32.227.329.103.556.144.68.144a.44.44 0 00.247-.061c.062-.062.123-.165.206-.31h.33zM65.007 566.798v3.03h2.164v.7h-2.164v5.978c0 .598.083.99.268 1.216.165.206.392.31.66.31.206 0 .433-.083.639-.207.206-.144.37-.35.474-.618h.391c-.226.66-.556 1.154-.989 1.484-.433.33-.866.495-1.32.495a1.82 1.82 0 01-.906-.248c-.31-.164-.515-.412-.66-.742-.144-.309-.206-.803-.206-1.463v-6.204h-1.463v-.33c.37-.144.742-.392 1.133-.763.371-.35.722-.762 1.031-1.236.144-.268.371-.722.639-1.402h.31zM70.775 564.737v6.74c.742-.825 1.32-1.34 1.773-1.587.432-.227.865-.33 1.298-.33.515 0 .969.144 1.34.433.392.288.66.742.845 1.34.124.433.185 1.216.185 2.37v3.257c0 .577.062.989.145 1.195.062.165.185.289.35.392.144.082.454.123.886.123v.371h-4.534v-.37h.206c.433 0 .721-.062.907-.186.165-.124.268-.33.35-.577.02-.103.02-.433.02-.948v-3.257c0-1.01-.04-1.67-.143-1.979-.103-.33-.268-.556-.516-.721-.226-.165-.494-.227-.824-.227-.33 0-.66.083-1.01.248-.371.185-.783.535-1.278 1.071v4.865c0 .639.02 1.03.103 1.175.062.164.186.288.392.391.185.103.515.144.989.144v.371h-4.576v-.37c.412 0 .742-.062.969-.186.144-.062.247-.186.33-.371.082-.206.123-.577.123-1.154v-8.348c0-1.051-.04-1.69-.082-1.938-.062-.247-.124-.412-.227-.494-.103-.083-.247-.124-.433-.124-.123 0-.37.041-.68.144l-.144-.35 2.762-1.113h.474zM83.595 577.722c-.948.722-1.545 1.155-1.793 1.258-.35.165-.742.247-1.154.247-.639 0-1.154-.206-1.567-.639-.412-.453-.618-1.01-.618-1.731 0-.454.103-.845.289-1.175.288-.454.762-.887 1.443-1.278.68-.412 1.813-.886 3.4-1.464v-.37c0-.928-.144-1.546-.453-1.897-.289-.33-.7-.515-1.257-.515-.433 0-.763.123-1.01.35-.268.227-.392.495-.392.783l.02.578c0 .309-.082.556-.226.721a.839.839 0 01-.618.247.839.839 0 01-.619-.247c-.144-.186-.226-.412-.226-.721 0-.578.288-1.113.886-1.588.577-.494 1.422-.72 2.473-.72.825 0 1.505.123 2.02.411.392.206.68.516.866.97.124.288.185.885.185 1.772v3.133c0 .865.021 1.401.062 1.607.02.206.083.33.165.392.062.082.165.103.268.103a.57.57 0 00.268-.062c.144-.082.412-.33.824-.742v.577c-.762.99-1.463 1.505-2.164 1.505-.33 0-.577-.124-.783-.35-.185-.227-.289-.619-.289-1.155zm0-.66v-3.524c-1.01.412-1.67.7-1.978.866-.516.288-.907.598-1.134.927-.227.31-.33.68-.33 1.052 0 .494.145.886.433 1.195.289.33.618.495.99.495.515 0 1.174-.35 2.02-1.01zM90.21 571.498c1.07-1.299 2.101-1.938 3.09-1.938.495 0 .928.124 1.3.371.35.247.638.66.865 1.237.144.412.206 1.03.206 1.855v3.937c0 .577.062.968.144 1.195a.916.916 0 00.35.392c.166.082.475.123.928.123v.371h-4.575v-.37h.206c.433 0 .721-.062.886-.186.185-.124.289-.33.371-.577.02-.103.041-.412.041-.948v-3.772c0-.845-.123-1.443-.33-1.835-.226-.37-.597-.556-1.113-.556-.783 0-1.587.433-2.37 1.298v4.865c0 .618.02 1.01.103 1.154.103.206.227.33.392.433.165.082.494.123.99.123v.371h-4.556v-.37h.206c.474 0 .783-.104.948-.35.165-.228.248-.702.248-1.361v-3.422c0-1.113-.021-1.793-.083-2.02-.041-.247-.124-.412-.227-.494a.664.664 0 00-.412-.145c-.185 0-.412.062-.68.165l-.144-.37 2.782-1.114h.433v1.938zM107.523 579.248c-1.196 0-2.144-.31-2.824-.928-.68-.598-1.03-1.422-1.03-2.473 0-1.052.35-1.897 1.03-2.494.68-.598 1.608-.907 2.783-.907h3.504v-1.134c0-.68-.206-1.216-.619-1.608-.433-.391-1.01-.577-1.752-.577-.66 0-1.216.145-1.67.433-.453.289-.741.66-.844 1.134h-1.855a3.04 3.04 0 01.7-1.67 3.975 3.975 0 011.546-1.133c.64-.268 1.34-.392 2.123-.392 1.299 0 2.33.33 3.092 1.01.763.68 1.134 1.587 1.134 2.741v7.791h-1.814v-2.164h-.02c-.083.722-.434 1.299-1.052 1.732-.639.432-1.443.639-2.432.639zm.453-1.464c.887 0 1.608-.227 2.165-.66.556-.432.845-1.01.845-1.69v-1.607h-3.463c-.618 0-1.113.165-1.464.515-.35.35-.535.804-.535 1.402 0 .639.226 1.133.66 1.504.411.35 1.03.536 1.792.536z"
                fill="#b12e1e" fill-rule="nonzero" />
        </g>
    </g>
    <g>
        <path d="M126.118 378.438L422.596 268.92" fill="none" stroke="#000" stroke-width="3.9994380000000005" />
    </g>
    <g transform="matrix(.3039 0 0 .58755 500.401 240.911)">
        <path
            d="M731.429 185.017c0-23.045-36.172-41.755-80.726-41.755H357.747c-44.554 0-80.726 18.71-80.726 41.755s36.172 41.755 80.726 41.755h292.956c44.554 0 80.726-18.71 80.726-41.755z"
            fill="#fff" />
        <clipPath id="prefix__b">
            <path
                d="M731.429 185.017c0-23.045-36.172-41.755-80.726-41.755H357.747c-44.554 0-80.726 18.71-80.726 41.755s36.172 41.755 80.726 41.755h292.956c44.554 0 80.726-18.71 80.726-41.755z" />
        </clipPath>
        <g clip-path="url(#prefix__b)">
            <path
                d="M375.36 205.784c-7.27 0-13.021-1.067-17.253-3.144-4.34-2.076-6.511-4.995-6.511-8.644v-8.419c0-3.648 2.17-6.567 6.51-8.644 4.233-2.076 9.984-3.143 17.255-3.143 6.836 0 12.37.954 16.603 2.863 4.232 1.908 6.402 4.49 6.62 7.802h-9.767c-.217-1.965-1.52-3.537-3.798-4.603-2.388-1.01-5.643-1.572-9.658-1.572-4.232 0-7.705.618-10.2 1.853-2.497 1.29-3.799 3.087-3.799 5.388v8.475c0 2.302 1.302 4.098 3.798 5.389 2.496 1.29 5.969 1.908 10.2 1.908 4.016 0 7.271-.561 9.659-1.628 2.278-1.066 3.58-2.581 3.798-4.546h9.766c-.217 3.312-2.387 5.894-6.62 7.802-4.231 1.908-9.766 2.863-16.602 2.863zM501.673 205.784c-5.969 0-10.743-1.01-14.324-3.088-3.69-2.076-5.535-4.827-5.535-8.363v-9.036c0-3.537 1.845-6.343 5.426-8.42 3.581-2.077 8.464-3.087 14.433-3.087 4.449 0 8.139.561 11.068 1.74 2.93 1.179 4.558 2.75 5.1 4.715h.326l-.217-7.016v-8.98h9.767v40.973h-9.767v-5.893h-.108c-.543 2.02-2.17 3.592-5.1 4.715-2.93 1.178-6.62 1.74-11.07 1.74zm3.255-4.379c4.015 0 7.27-.673 9.55-1.964 2.278-1.291 3.472-3.143 3.472-5.445v-8.419c0-2.301-1.194-4.153-3.472-5.444-2.28-1.291-5.535-1.965-9.55-1.965-4.123 0-7.379.618-9.766 1.909-2.387 1.29-3.581 3.087-3.581 5.5v8.42c0 2.413 1.194 4.21 3.58 5.5 2.388 1.291 5.644 1.908 9.767 1.908zM635.364 205.784c-4.666 0-8.79-.506-12.262-1.46-3.581-.954-6.294-2.357-8.139-4.153-1.953-1.74-2.93-3.817-2.93-6.175v-8.419c0-2.413.977-4.49 2.93-6.23 1.845-1.74 4.558-3.143 8.139-4.098 3.472-.954 7.596-1.459 12.262-1.459s8.79.505 12.262 1.46c3.581.954 6.294 2.357 8.247 4.097 1.845 1.74 2.822 3.817 2.822 6.23v5.445h-37.113v2.974c0 2.414 1.194 4.266 3.581 5.557 2.388 1.291 5.752 1.965 10.201 1.965 3.798 0 6.836-.337 9.115-1.067 2.28-.673 3.69-1.684 4.232-3.087h9.767c-.651 2.582-3.039 4.603-7.27 6.118-4.341 1.516-9.55 2.302-15.844 2.302zm-13.782-18.58h27.563v-1.627c0-2.413-1.193-4.322-3.472-5.613-2.387-1.29-5.86-1.964-10.309-1.964-4.45 0-7.813.673-10.2 1.964-2.388 1.291-3.582 3.2-3.582 5.613v1.628z"
                fill-rule="nonzero" />
        </g>
        <path
            d="M731.429 185.017c0-23.045-36.172-41.755-80.726-41.755H357.747c-44.554 0-80.726 18.71-80.726 41.755s36.172 41.755 80.726 41.755h292.956c44.554 0 80.726-18.71 80.726-41.755z"
            fill="none" stroke="#000" stroke-width="8.55" />
    </g>
    <g>
        <path d="M115.268 524.044L90.62 571.098" fill="none" stroke="#000" stroke-width="7.42" stroke-linecap="square"
            transform="matrix(.65255 -.04517 .16611 .53237 522.73 309.947)" />
        <path d="M115.268 524.044L90.62 571.098" fill="none" stroke="#000" stroke-width="7.42" stroke-linecap="square"
            transform="matrix(-.6527 -.04562 -.16584 .53323 947.048 309.363)" />
        <path d="M115.268 524.044L90.62 571.098" fill="none" stroke="#000" stroke-width="7.45" stroke-linecap="square"
            transform="matrix(.62785 -.15829 .2745 .45196 476.615 366.733)" />
        <circle cx="154.775" cy="556.848" r="2.753" transform="matrix(.68706 0 0 .68706 599.652 216.709)" />
        <circle cx="154.775" cy="556.848" r="2.753" transform="matrix(.68706 0 0 .68706 626.288 216.709)" />
        <circle cx="154.775" cy="556.848" r="2.753" transform="matrix(.68706 0 0 .68706 612.97 216.709)" />
        <g>
            <path
                d="M551.746 459.176c7.935-10.775 21.602-17.288 36.276-17.288 14.675 0 28.342 6.513 36.277 17.288l30.435 41.327c8.53 11.584 9.135 26.31 1.575 38.397-7.559 12.087-22.076 19.606-37.852 19.606h-60.869c-15.776 0-30.293-7.519-37.852-19.606-7.56-12.087-6.955-26.813 1.575-38.397l30.435-41.327z"
                fill="#fff" stroke="#c1c1c1" stroke-width="4.01"
                transform="matrix(.92753 0 0 1.06254 189.431 -9.154)" />
        </g>
        <g>
            <path
                d="M703.747 549.541c.887-1.236 1.855-1.855 2.886-1.855.948 0 1.773.392 2.473 1.196.701.824 1.052 1.917 1.052 3.318 0 1.65-.536 2.968-1.629 3.958-.927.866-1.958 1.298-3.112 1.298a5.024 5.024 0 01-1.628-.288 7.988 7.988 0 01-1.711-.886v-9.544c0-1.05-.02-1.69-.062-1.937-.062-.248-.144-.412-.247-.495a.634.634 0 00-.392-.124c-.206 0-.433.042-.721.145l-.124-.35 2.762-1.114h.453v6.678zm0 .64v5.523c.33.33.701.578 1.052.763.37.165.742.247 1.133.247.598 0 1.175-.33 1.71-1.01.516-.66.784-1.649.784-2.926 0-1.175-.268-2.082-.783-2.721-.536-.64-1.134-.948-1.814-.948-.35 0-.7.082-1.051.268-.268.144-.618.412-1.03.803zM713.064 551.417c0 1.381.33 2.453 1.01 3.216.66.783 1.463 1.174 2.37 1.174a2.58 2.58 0 001.567-.494c.453-.33.824-.907 1.113-1.711l.33.206c-.145.928-.557 1.752-1.237 2.515-.68.742-1.526 1.133-2.556 1.133-1.093 0-2.04-.432-2.845-1.298-.783-.866-1.174-2.02-1.174-3.484 0-1.566.412-2.803 1.216-3.689.804-.886 1.814-1.32 3.05-1.32 1.03 0 1.876.351 2.535 1.031.66.68 1.01 1.588 1.01 2.721h-6.39zm0-.577h4.266c-.02-.598-.103-1.01-.206-1.257a2.074 2.074 0 00-.742-.887 1.95 1.95 0 00-1.05-.309c-.557 0-1.052.206-1.485.64-.453.432-.7 1.03-.783 1.813zM723.346 544.924v3.03h2.165v.701h-2.165v5.978c0 .597.083.989.268 1.216.165.206.392.309.66.309.206 0 .433-.083.639-.206.206-.145.37-.35.474-.619h.391c-.226.66-.556 1.155-.989 1.484-.433.33-.866.495-1.319.495a1.82 1.82 0 01-.907-.247c-.31-.165-.515-.412-.66-.742-.144-.31-.206-.804-.206-1.464v-6.204h-1.463v-.33c.371-.144.742-.391 1.134-.762.37-.35.721-.763 1.03-1.237.144-.268.371-.721.64-1.402h.308zM725.878 547.954h3.875v.371c-.35.021-.598.083-.7.186a.59.59 0 00-.166.433c0 .206.062.453.165.762l1.979 5.298 1.979-4.308-.516-1.36c-.164-.413-.37-.68-.638-.846-.145-.082-.433-.144-.825-.165v-.37h4.39v.37c-.494.021-.824.103-1.03.248-.145.123-.206.288-.206.515 0 .144.02.289.082.412l2.102 5.297 1.938-5.09c.124-.372.206-.66.206-.866 0-.124-.082-.248-.206-.35-.124-.104-.392-.166-.763-.166v-.37h2.907v.37c-.578.083-1.01.474-1.299 1.175l-3.071 7.956h-.412l-2.309-5.895-2.68 5.895h-.37l-2.968-7.75c-.186-.494-.392-.824-.578-.989-.185-.185-.474-.31-.886-.392v-.37zM742.824 551.417c0 1.381.33 2.453 1.01 3.216.66.783 1.464 1.174 2.37 1.174a2.58 2.58 0 001.567-.494c.454-.33.825-.907 1.113-1.711l.33.206c-.144.928-.557 1.752-1.237 2.515-.68.742-1.525 1.133-2.556 1.133-1.092 0-2.04-.432-2.844-1.298-.783-.866-1.175-2.02-1.175-3.484 0-1.566.412-2.803 1.216-3.689.804-.886 1.814-1.32 3.05-1.32 1.031 0 1.876.351 2.536 1.031.66.68 1.01 1.588 1.01 2.721h-6.39zm0-.577h4.267c-.02-.598-.103-1.01-.206-1.257a2.074 2.074 0 00-.742-.887 1.95 1.95 0 00-1.051-.309c-.557 0-1.052.206-1.484.64-.454.432-.701 1.03-.784 1.813zM751.973 551.417c0 1.381.33 2.453 1.01 3.216.66.783 1.463 1.174 2.37 1.174a2.58 2.58 0 001.566-.494c.454-.33.825-.907 1.113-1.711l.33.206c-.144.928-.556 1.752-1.237 2.515-.68.742-1.525 1.133-2.555 1.133-1.093 0-2.041-.432-2.845-1.298-.783-.866-1.175-2.02-1.175-3.484 0-1.566.413-2.803 1.216-3.689.804-.886 1.814-1.32 3.05-1.32 1.032 0 1.877.351 2.536 1.031.66.68 1.01 1.588 1.01 2.721h-6.39zm0-.577h4.266c-.02-.598-.103-1.01-.206-1.257a2.074 2.074 0 00-.742-.887 1.95 1.95 0 00-1.051-.309c-.557 0-1.051.206-1.484.64-.454.432-.701 1.03-.783 1.813zM762.276 549.624c1.071-1.299 2.102-1.938 3.091-1.938.495 0 .928.124 1.299.371.35.248.639.66.866 1.237.144.412.206 1.03.206 1.855v3.937c0 .577.062.969.144 1.196a.916.916 0 00.35.391c.165.083.474.124.928.124v.37h-4.576v-.37h.206c.433 0 .722-.062.887-.186.185-.123.288-.33.37-.577.021-.103.042-.412.042-.948v-3.772c0-.845-.124-1.443-.33-1.834-.227-.371-.598-.557-1.113-.557-.783 0-1.587.433-2.37 1.299v4.864c0 .618.02 1.01.103 1.154.103.206.226.33.391.433.165.083.495.124.99.124v.37h-4.556v-.37h.207c.474 0 .783-.103.948-.35.165-.227.247-.701.247-1.361v-3.421c0-1.114-.02-1.794-.082-2.02-.042-.248-.124-.413-.227-.495a.664.664 0 00-.412-.144c-.186 0-.413.061-.68.164l-.145-.37 2.783-1.114h.433v1.938zM708.032 578.862c-1.134 0-2.04-.371-2.72-1.134-.702-.763-1.052-1.773-1.052-3.071v-3.319c0-1.298.35-2.329 1.03-3.091.68-.763 1.608-1.134 2.742-1.134.845 0 1.546.206 2.102.639.557.433.866 1.01.969 1.731h.062l-.041-2.576v-3.298h1.855v15.047h-1.855v-2.165h-.021c-.103.742-.412 1.32-.969 1.732-.556.433-1.257.639-2.102.639zm.618-1.608c.763 0 1.381-.247 1.814-.721.433-.475.66-1.155.66-2v-3.092c0-.845-.227-1.525-.66-1.999-.433-.474-1.051-.721-1.814-.721-.783 0-1.401.226-1.855.7-.453.475-.68 1.134-.68 2.02v3.092c0 .886.227 1.546.68 2.02.454.474 1.072.7 1.855.7zM725.902 577.336c-.948.722-1.546 1.155-1.793 1.258-.35.165-.742.247-1.154.247-.64 0-1.155-.206-1.567-.639-.412-.453-.618-1.01-.618-1.731 0-.454.103-.845.288-1.175.289-.454.763-.886 1.443-1.278.68-.412 1.814-.886 3.401-1.464v-.37c0-.928-.144-1.546-.453-1.897-.289-.33-.701-.515-1.258-.515-.432 0-.762.124-1.01.35-.268.227-.391.495-.391.784l.02.577c0 .309-.082.556-.226.721a.839.839 0 01-.619.247.839.839 0 01-.618-.247c-.144-.185-.227-.412-.227-.721 0-.577.289-1.113.887-1.587.577-.495 1.422-.722 2.473-.722.824 0 1.505.124 2.02.412.392.206.68.516.866.97.123.288.185.885.185 1.772v3.133c0 .865.02 1.401.062 1.607.02.207.082.33.165.392.062.082.165.103.268.103a.57.57 0 00.268-.062c.144-.082.412-.33.824-.742v.577c-.762.99-1.463 1.505-2.164 1.505-.33 0-.577-.124-.783-.35-.186-.227-.289-.619-.289-1.155zm0-.66v-3.524c-1.01.412-1.67.701-1.979.866-.515.288-.906.598-1.133.927-.227.31-.33.68-.33 1.052 0 .494.144.886.433 1.195.288.33.618.495.99.495.515 0 1.174-.35 2.02-1.01zM732.515 571.112c1.072-1.299 2.102-1.938 3.092-1.938.495 0 .927.124 1.298.371.35.247.64.66.866 1.237.144.412.206 1.03.206 1.855v3.937c0 .577.062.968.144 1.195a.916.916 0 00.35.392c.166.082.475.124.928.124v.37h-4.575v-.37h.206c.433 0 .721-.062.886-.186.186-.124.289-.33.371-.577.02-.103.041-.412.041-.948v-3.772c0-.845-.123-1.443-.33-1.835-.226-.37-.597-.556-1.113-.556-.783 0-1.587.433-2.37 1.298v4.865c0 .618.02 1.01.103 1.154.103.206.227.33.392.433.165.082.494.124.99.124v.37h-4.556v-.37h.206c.474 0 .783-.104.948-.35.165-.228.248-.702.248-1.361v-3.422c0-1.113-.021-1.793-.083-2.02-.041-.247-.124-.412-.227-.494a.664.664 0 00-.412-.145c-.185 0-.412.062-.68.165l-.144-.37 2.782-1.114h.433v1.938zM746.634 577.625c-.453.453-.886.804-1.32 1.01a3.15 3.15 0 01-1.38.31c-1.01 0-1.896-.434-2.638-1.279-.763-.824-1.134-1.917-1.134-3.236 0-1.319.412-2.535 1.257-3.628.825-1.092 1.897-1.648 3.216-1.648.804 0 1.463.267 2 .783v-1.711c0-1.051-.022-1.69-.063-1.937-.062-.248-.144-.413-.247-.495a.634.634 0 00-.392-.124 2.11 2.11 0 00-.7.144l-.145-.35 2.762-1.113h.454v10.656c0 1.072.02 1.732.061 1.979.062.227.145.392.248.495a.65.65 0 00.391.144c.186 0 .413-.062.722-.186l.103.35-2.72 1.155h-.475v-1.32zm0-.7v-4.762a3.443 3.443 0 00-.35-1.237 2.184 2.184 0 00-.804-.866c-.33-.185-.66-.288-.969-.288-.598 0-1.134.268-1.587.804-.618.7-.907 1.71-.907 3.05 0 1.36.289 2.391.886 3.113.578.721 1.237 1.092 1.958 1.092.619 0 1.196-.31 1.773-.907zM761.124 578.862c-.886 0-1.67-.186-2.329-.536a3.565 3.565 0 01-1.546-1.526c-.37-.638-.556-1.401-.556-2.267v-3.092c0-.886.185-1.649.556-2.287a3.633 3.633 0 011.546-1.505c.66-.35 1.443-.536 2.33-.536.885 0 1.669.185 2.328.536.68.35 1.196.866 1.567 1.505.35.638.536 1.401.536 2.287v2h-7.05v1.092c0 .886.227 1.567.68 2.04.454.475 1.093.722 1.938.722.722 0 1.299-.124 1.732-.391.432-.248.7-.619.803-1.134h1.855c-.123.948-.577 1.69-1.38 2.247-.825.556-1.814.845-3.01.845zm-2.618-6.823h5.236v-.598c0-.886-.227-1.587-.66-2.06-.453-.475-1.113-.722-1.958-.722s-1.484.247-1.937.721c-.454.474-.68 1.175-.68 2.061v.598z"
                fill="#b12e1e" fill-rule="nonzero" />
        </g>
    </g>
    <g>
        <path d="M115.268 524.044L90.62 571.098" fill="none" stroke="#000" stroke-width="7.42" stroke-linecap="square"
            transform="matrix(.65255 -.04517 .16611 .53237 695.727 309.947)" />
        <path d="M115.268 524.044L90.62 571.098" fill="none" stroke="#000" stroke-width="7.42" stroke-linecap="square"
            transform="matrix(-.6527 -.04562 -.16584 .53323 1120.045 309.363)" />
        <path d="M115.268 524.044L90.62 571.098" fill="none" stroke="#000" stroke-width="7.45" stroke-linecap="square"
            transform="matrix(.62785 -.15829 .2745 .45196 649.612 366.733)" />
        <circle cx="154.775" cy="556.848" r="2.753" transform="matrix(.68706 0 0 .68706 772.65 216.709)" />
        <circle cx="154.775" cy="556.848" r="2.753" transform="matrix(.68706 0 0 .68706 799.285 216.709)" />
        <circle cx="154.775" cy="556.848" r="2.753" transform="matrix(.68706 0 0 .68706 785.967 216.709)" />
        <g>
            <path
                d="M551.746 459.176c7.935-10.775 21.602-17.288 36.276-17.288 14.675 0 28.342 6.513 36.277 17.288l30.435 41.327c8.53 11.584 9.135 26.31 1.575 38.397-7.559 12.087-22.076 19.606-37.852 19.606h-60.869c-15.776 0-30.293-7.519-37.852-19.606-7.56-12.087-6.955-26.813 1.575-38.397l30.435-41.327z"
                fill="#fff" stroke="#c1c1c1" stroke-width="4.01"
                transform="matrix(.92753 0 0 1.06254 362.428 -9.154)" />
        </g>
        <g>
            <path
                d="M883.17 553.808a3.076 3.076 0 01-1.298-1.154 2.987 2.987 0 01-.454-1.628c0-.928.35-1.711 1.031-2.37.68-.64 1.567-.97 2.638-.97.887 0 1.65.207 2.288.64h1.958c.289 0 .454 0 .495.02.041.02.082.041.103.082.041.062.062.165.062.33s-.02.289-.062.35c0 .042-.041.062-.103.083-.041.02-.206.041-.495.041h-1.195c.37.474.556 1.093.556 1.855 0 .845-.33 1.587-.989 2.206-.66.598-1.546.907-2.638.907-.454 0-.928-.062-1.402-.206-.309.268-.495.474-.598.68-.103.185-.164.35-.164.474s.061.227.164.33c.124.123.33.185.66.247.185.02.66.041 1.402.062 1.38.041 2.287.082 2.68.144.638.083 1.133.31 1.504.7.37.372.556.825.556 1.382 0 .763-.35 1.463-1.072 2.144-1.03.968-2.411 1.463-4.08 1.463-1.3 0-2.392-.289-3.299-.886-.494-.33-.742-.68-.742-1.03 0-.166.042-.33.104-.496.123-.247.35-.597.7-1.03.062-.062.392-.433 1.03-1.093-.35-.206-.597-.391-.741-.556a.813.813 0 01-.206-.557c0-.226.082-.515.288-.824.186-.31.619-.763 1.32-1.34zm1.752-5.647c-.494 0-.906.206-1.257.597-.33.392-.495.99-.495 1.814 0 1.072.227 1.876.68 2.473.351.433.784.66 1.34.66.495 0 .928-.185 1.258-.577.33-.371.474-.969.474-1.793 0-1.072-.227-1.897-.68-2.515-.35-.433-.784-.66-1.32-.66zm-1.855 9.007c-.309.35-.556.66-.721.948-.144.31-.227.577-.227.824 0 .33.186.598.577.846.66.412 1.65.618 2.907.618 1.216 0 2.102-.206 2.68-.64.576-.411.844-.885.844-1.36 0-.35-.165-.597-.494-.741-.35-.145-1.052-.227-2.082-.268-1.505-.042-2.68-.104-3.484-.227zM893.703 547.686v2.062c.783-1.381 1.567-2.062 2.37-2.062.371 0 .68.104.928.33.227.227.35.474.35.783a.972.972 0 01-.247.66.857.857 0 01-.639.268c-.227 0-.495-.103-.783-.35-.289-.227-.516-.35-.64-.35-.123 0-.267.082-.39.205-.31.289-.62.742-.949 1.36v4.432c0 .495.062.887.186 1.154.103.165.247.33.474.454.226.103.536.165.948.165v.37h-4.72v-.37c.474 0 .824-.062 1.05-.206a.93.93 0 00.351-.516c.041-.123.062-.453.062-.989v-3.566c0-1.072-.041-1.71-.082-1.917a.857.857 0 00-.227-.453.792.792 0 00-.454-.144c-.206 0-.432.061-.7.164l-.103-.37 2.803-1.114h.412zM899.412 551.417c0 1.381.33 2.453 1.01 3.216.66.783 1.464 1.174 2.37 1.174a2.58 2.58 0 001.567-.494c.454-.33.825-.907 1.113-1.711l.33.206c-.144.928-.556 1.752-1.237 2.515-.68.742-1.525 1.133-2.555 1.133-1.093 0-2.041-.432-2.845-1.298-.783-.866-1.175-2.02-1.175-3.484 0-1.566.413-2.803 1.216-3.689.804-.886 1.814-1.32 3.05-1.32 1.031 0 1.877.351 2.536 1.031.66.68 1.01 1.588 1.01 2.721h-6.39zm0-.577h4.267c-.02-.598-.103-1.01-.206-1.257a2.074 2.074 0 00-.742-.887 1.95 1.95 0 00-1.051-.309c-.557 0-1.051.206-1.484.64-.454.432-.701 1.03-.784 1.813zM912.25 555.849c-.948.721-1.546 1.154-1.793 1.257-.35.165-.742.247-1.154.247-.64 0-1.155-.206-1.567-.639-.412-.453-.618-1.01-.618-1.731 0-.453.103-.845.288-1.175.289-.453.763-.886 1.443-1.278.68-.412 1.814-.886 3.401-1.463v-.371c0-.928-.144-1.546-.453-1.897-.289-.33-.701-.515-1.258-.515-.432 0-.762.124-1.01.35-.268.227-.391.495-.391.784l.02.577c0 .31-.082.556-.226.721a.839.839 0 01-.619.248.839.839 0 01-.618-.248c-.144-.185-.227-.412-.227-.721 0-.577.289-1.113.887-1.587.577-.495 1.422-.722 2.473-.722.824 0 1.505.124 2.02.413.391.206.68.515.866.968.123.289.185.887.185 1.773v3.133c0 .866.02 1.402.062 1.608.02.206.082.33.165.391.062.083.165.103.268.103a.57.57 0 00.268-.061c.144-.083.412-.33.824-.742v.577c-.762.989-1.463 1.504-2.164 1.504-.33 0-.577-.123-.783-.35-.186-.227-.289-.618-.289-1.154zm0-.66v-3.524c-1.01.412-1.67.7-1.979.865-.515.289-.907.598-1.133.928-.227.309-.33.68-.33 1.05 0 .496.144.887.433 1.196.288.33.618.495.99.495.514 0 1.174-.35 2.02-1.01zM918.843 544.924v3.03h2.164v.701h-2.164v5.978c0 .597.083.989.268 1.216.165.206.392.309.66.309.206 0 .433-.083.639-.206.206-.145.37-.35.474-.619h.391c-.226.66-.556 1.155-.989 1.484-.433.33-.866.495-1.32.495a1.82 1.82 0 01-.906-.247c-.31-.165-.515-.412-.66-.742-.144-.31-.206-.804-.206-1.464v-6.204h-1.463v-.33c.37-.144.742-.391 1.133-.762.371-.35.722-.763 1.031-1.237.144-.268.371-.721.639-1.402h.31zM923.436 551.417c0 1.381.33 2.453 1.01 3.216.66.783 1.464 1.174 2.37 1.174a2.58 2.58 0 001.567-.494c.453-.33.824-.907 1.113-1.711l.33.206c-.145.928-.557 1.752-1.237 2.515-.68.742-1.525 1.133-2.556 1.133-1.092 0-2.04-.432-2.844-1.298-.783-.866-1.175-2.02-1.175-3.484 0-1.566.412-2.803 1.216-3.689.804-.886 1.814-1.32 3.05-1.32 1.031 0 1.876.351 2.536 1.031.66.68 1.01 1.588 1.01 2.721h-6.39zm0-.577h4.267c-.02-.598-.103-1.01-.206-1.257a2.074 2.074 0 00-.742-.887 1.95 1.95 0 00-1.052-.309c-.556 0-1.05.206-1.484.64-.453.432-.7 1.03-.783 1.813zM933.739 547.686v2.062c.783-1.381 1.566-2.062 2.37-2.062.37 0 .68.104.927.33.227.227.35.474.35.783a.972.972 0 01-.247.66.857.857 0 01-.639.268c-.226 0-.494-.103-.783-.35-.288-.227-.515-.35-.639-.35-.123 0-.268.082-.391.205-.31.289-.619.742-.948 1.36v4.432c0 .495.061.887.185 1.154.103.165.247.33.474.454.227.103.536.165.948.165v.37h-4.72v-.37c.474 0 .825-.062 1.051-.206a.93.93 0 00.35-.516c.042-.123.063-.453.063-.989v-3.566c0-1.072-.042-1.71-.083-1.917a.857.857 0 00-.227-.453.792.792 0 00-.453-.144c-.206 0-.433.061-.7.164l-.104-.37 2.803-1.114h.413zM885.476 566.412v3.03h2.164v.7h-2.164v5.978c0 .598.082.99.267 1.216.165.206.392.31.66.31.206 0 .433-.083.639-.207.206-.144.371-.35.474-.618h.392c-.227.66-.557 1.154-.99 1.484-.432.33-.865.495-1.319.495a1.82 1.82 0 01-.907-.248c-.309-.164-.515-.412-.66-.742-.144-.309-.205-.803-.205-1.463v-6.204h-1.464v-.33c.371-.144.742-.392 1.134-.763.37-.35.721-.762 1.03-1.236.145-.268.371-.722.64-1.402h.309zM891.243 564.351v6.74c.742-.824 1.32-1.34 1.773-1.587.433-.227.866-.33 1.299-.33.515 0 .968.144 1.34.433.39.289.659.742.844 1.34.124.433.186 1.216.186 2.37v3.257c0 .577.062.99.144 1.195.062.165.186.289.35.392.145.082.454.124.887.124v.37h-4.535v-.37h.206c.433 0 .722-.062.907-.186.165-.124.268-.33.35-.577.021-.103.021-.433.021-.948v-3.257c0-1.01-.04-1.67-.144-1.979-.103-.33-.268-.556-.515-.721-.227-.165-.495-.227-.825-.227-.33 0-.66.083-1.01.248-.37.185-.783.535-1.278 1.071v4.865c0 .639.021 1.03.103 1.175.062.165.186.288.392.391.186.103.515.145.99.145v.37h-4.576v-.37c.412 0 .742-.062.968-.186.145-.062.248-.185.33-.371.083-.206.124-.577.124-1.154v-8.348c0-1.051-.041-1.69-.083-1.937-.061-.248-.123-.413-.226-.495-.103-.083-.248-.124-.433-.124-.124 0-.371.041-.68.144l-.145-.35 2.762-1.113h.474zM904.064 577.336c-.948.722-1.546 1.155-1.793 1.258-.35.165-.742.247-1.155.247-.639 0-1.154-.206-1.566-.639-.412-.453-.618-1.01-.618-1.731 0-.454.103-.845.288-1.175.289-.454.763-.886 1.443-1.278.68-.412 1.814-.886 3.4-1.464v-.37c0-.928-.143-1.546-.453-1.897-.288-.33-.7-.515-1.257-.515-.433 0-.763.124-1.01.35-.268.227-.392.495-.392.784l.021.577c0 .309-.082.556-.227.721a.839.839 0 01-.618.247.839.839 0 01-.618-.247c-.145-.185-.227-.412-.227-.721 0-.577.289-1.113.886-1.587.577-.495 1.422-.722 2.474-.722.824 0 1.504.124 2.02.412.391.206.68.516.865.97.124.288.186.885.186 1.772v3.133c0 .865.02 1.401.062 1.607.02.207.082.33.165.392.061.082.164.103.267.103a.57.57 0 00.268-.062c.145-.082.413-.33.825-.742v.577c-.763.99-1.464 1.505-2.164 1.505-.33 0-.577-.124-.784-.35-.185-.227-.288-.619-.288-1.155zm0-.66v-3.524c-1.01.412-1.67.701-1.979.866-.515.288-.907.598-1.134.927-.226.31-.33.68-.33 1.052 0 .494.145.886.434 1.195.288.33.618.495.989.495.515 0 1.175-.35 2.02-1.01zM910.677 571.112c1.072-1.299 2.103-1.938 3.092-1.938.495 0 .928.124 1.299.371.35.247.639.66.865 1.237.145.412.207 1.03.207 1.855v3.937c0 .577.061.968.144 1.195a.916.916 0 00.35.392c.165.082.474.124.928.124v.37h-4.576v-.37h.206c.433 0 .722-.062.886-.186.186-.124.289-.33.371-.577.021-.103.042-.412.042-.948v-3.772c0-.845-.124-1.443-.33-1.835-.227-.37-.598-.556-1.113-.556-.783 0-1.587.433-2.37 1.298v4.865c0 .618.02 1.01.103 1.154.103.206.226.33.391.433.165.082.495.124.99.124v.37h-4.556v-.37h.206c.475 0 .784-.104.949-.35.164-.228.247-.702.247-1.361v-3.422c0-1.113-.02-1.793-.083-2.02-.04-.247-.123-.412-.226-.494a.664.664 0 00-.412-.145c-.186 0-.413.062-.68.165l-.145-.37 2.783-1.114h.432v1.938zM928.98 578.862c-.886 0-1.669-.186-2.328-.536a3.565 3.565 0 01-1.546-1.526c-.371-.638-.557-1.401-.557-2.267v-3.092c0-.886.186-1.649.557-2.287a3.633 3.633 0 011.546-1.505c.66-.35 1.442-.536 2.329-.536.886 0 1.67.185 2.329.536.68.35 1.195.866 1.566 1.505.35.638.536 1.401.536 2.287v2h-7.049v1.092c0 .886.227 1.567.68 2.04.454.475 1.093.722 1.938.722.721 0 1.298-.124 1.731-.391.433-.248.7-.619.804-1.134h1.855c-.124.948-.577 1.69-1.381 2.247-.825.556-1.814.845-3.01.845zm-2.617-6.823h5.235v-.598c0-.886-.226-1.587-.66-2.06-.453-.475-1.112-.722-1.957-.722s-1.484.247-1.938.721c-.453.474-.68 1.175-.68 2.061v.598z"
                fill="#b12e1e" fill-rule="nonzero" />
        </g>
    </g>
    <g>
        <path d="M115.268 524.044L90.62 571.098" fill="none" stroke="#000" stroke-width="7.42" stroke-linecap="square"
            transform="matrix(.65255 -.04517 .16611 .53237 349.732 309.947)" />
        <path d="M115.268 524.044L90.62 571.098" fill="none" stroke="#000" stroke-width="7.42" stroke-linecap="square"
            transform="matrix(-.6527 -.04562 -.16584 .53323 774.05 309.362)" />
        <path d="M115.268 524.044L90.62 571.098" fill="none" stroke="#000" stroke-width="7.45" stroke-linecap="square"
            transform="matrix(.62785 -.15829 .2745 .45196 303.617 366.732)" />
        <circle cx="154.775" cy="556.848" r="2.753" transform="matrix(.68706 0 0 .68706 426.654 216.71)" />
        <circle cx="154.775" cy="556.848" r="2.753" transform="matrix(.68706 0 0 .68706 453.29 216.71)" />
        <circle cx="154.775" cy="556.848" r="2.753" transform="matrix(.68706 0 0 .68706 439.972 216.71)" />
        <g>
            <path
                d="M551.746 459.176c7.935-10.775 21.602-17.288 36.276-17.288 14.675 0 28.342 6.513 36.277 17.288l30.435 41.327c8.53 11.584 9.135 26.31 1.575 38.397-7.559 12.087-22.076 19.606-37.852 19.606h-60.869c-15.776 0-30.293-7.519-37.852-19.606-7.56-12.087-6.955-26.813 1.575-38.397l30.435-41.327z"
                fill="#fff" stroke="#c1c1c1" stroke-width="4.01" transform="matrix(.92753 0 0 1.06254 16.433 -9.153)" />
        </g>
        <g>
            <path
                d="M530.75 550.992c.886-1.237 1.854-1.855 2.885-1.855.948 0 1.773.392 2.473 1.196.701.824 1.052 1.916 1.052 3.318 0 1.649-.536 2.968-1.629 3.957-.927.866-1.958 1.299-3.112 1.299a5.024 5.024 0 01-1.628-.289 7.988 7.988 0 01-1.711-.886v-9.543c0-1.051-.02-1.69-.062-1.938-.062-.247-.144-.412-.247-.494a.634.634 0 00-.392-.124c-.206 0-.433.041-.721.144l-.124-.35 2.762-1.113h.453v6.678zm0 .64v5.523c.33.33.7.577 1.05.763.372.165.743.247 1.134.247.598 0 1.175-.33 1.71-1.01.516-.66.784-1.649.784-2.927 0-1.175-.268-2.082-.783-2.72-.536-.64-1.134-.949-1.814-.949-.35 0-.7.083-1.051.268-.268.144-.618.412-1.03.804zM540.066 552.868c0 1.38.33 2.453 1.01 3.215.66.783 1.463 1.175 2.37 1.175a2.58 2.58 0 001.567-.495c.453-.33.824-.907 1.113-1.71l.33.206c-.145.927-.557 1.752-1.237 2.514-.68.742-1.526 1.134-2.556 1.134-1.093 0-2.04-.433-2.845-1.299-.783-.865-1.174-2.02-1.174-3.483 0-1.566.412-2.803 1.216-3.69.804-.886 1.813-1.319 3.05-1.319 1.03 0 1.876.35 2.535 1.031.66.68 1.01 1.587 1.01 2.72h-6.39zm0-.577h4.266c-.02-.598-.103-1.01-.206-1.258a2.074 2.074 0 00-.742-.886 1.95 1.95 0 00-1.05-.31c-.557 0-1.052.207-1.485.64-.453.433-.7 1.03-.783 1.814zM550.348 546.375v3.03h2.165v.7h-2.165v5.978c0 .598.083.99.268 1.216.165.206.392.31.66.31.206 0 .433-.083.639-.207.206-.144.37-.35.474-.618h.391c-.226.66-.556 1.154-.989 1.484-.433.33-.866.495-1.32.495a1.82 1.82 0 01-.906-.248c-.31-.165-.515-.412-.66-.742-.144-.309-.206-.803-.206-1.463v-6.204h-1.463v-.33c.37-.144.742-.392 1.134-.763.37-.35.721-.762 1.03-1.236.144-.268.371-.722.64-1.402h.308zM552.88 549.405h3.875v.371c-.35.02-.598.082-.7.186a.59.59 0 00-.166.432c0 .206.062.454.165.763l1.979 5.297 1.979-4.308-.516-1.36c-.164-.412-.37-.68-.639-.845-.144-.083-.432-.144-.824-.165v-.371h4.39v.371c-.494.02-.824.103-1.03.247-.145.124-.206.289-.206.516 0 .144.02.288.082.412l2.102 5.297 1.938-5.091c.124-.371.206-.66.206-.866 0-.123-.082-.247-.206-.35-.124-.103-.392-.165-.763-.165v-.371h2.907v.371c-.578.082-1.01.474-1.299 1.175l-3.071 7.956h-.412l-2.309-5.895-2.68 5.895h-.37l-2.968-7.75c-.186-.495-.392-.824-.578-.99-.185-.185-.474-.309-.886-.391v-.371zM569.826 552.868c0 1.38.33 2.453 1.01 3.215.66.783 1.464 1.175 2.37 1.175a2.58 2.58 0 001.567-.495c.454-.33.825-.907 1.113-1.71l.33.206c-.144.927-.557 1.752-1.237 2.514-.68.742-1.525 1.134-2.556 1.134-1.092 0-2.04-.433-2.844-1.299-.783-.865-1.175-2.02-1.175-3.483 0-1.566.412-2.803 1.216-3.69.804-.886 1.814-1.319 3.05-1.319 1.031 0 1.876.35 2.536 1.031.66.68 1.01 1.587 1.01 2.72h-6.39zm0-.577h4.267c-.02-.598-.103-1.01-.206-1.258a2.074 2.074 0 00-.742-.886 1.95 1.95 0 00-1.051-.31c-.557 0-1.052.207-1.484.64-.454.433-.701 1.03-.784 1.814zM578.974 552.868c0 1.38.33 2.453 1.01 3.215.66.783 1.464 1.175 2.37 1.175a2.58 2.58 0 001.567-.495c.454-.33.825-.907 1.113-1.71l.33.206c-.144.927-.556 1.752-1.237 2.514-.68.742-1.525 1.134-2.555 1.134-1.093 0-2.041-.433-2.845-1.299-.783-.865-1.175-2.02-1.175-3.483 0-1.566.413-2.803 1.216-3.69.804-.886 1.814-1.319 3.05-1.319 1.031 0 1.877.35 2.536 1.031.66.68 1.01 1.587 1.01 2.72h-6.39zm0-.577h4.267c-.02-.598-.103-1.01-.206-1.258a2.074 2.074 0 00-.742-.886 1.95 1.95 0 00-1.051-.31c-.557 0-1.051.207-1.484.64-.454.433-.701 1.03-.784 1.814zM589.278 551.075c1.071-1.299 2.102-1.938 3.091-1.938.495 0 .928.124 1.299.371.35.247.639.66.866 1.237.144.412.206 1.03.206 1.855v3.937c0 .577.062.968.144 1.195a.916.916 0 00.35.392c.165.082.474.123.928.123v.371h-4.576v-.37h.206c.433 0 .722-.062.887-.186.185-.124.288-.33.37-.577.021-.103.042-.412.042-.948v-3.772c0-.845-.124-1.443-.33-1.835-.227-.37-.598-.556-1.113-.556-.783 0-1.587.433-2.37 1.298v4.865c0 .618.02 1.01.103 1.154.103.206.226.33.391.433.165.082.495.123.99.123v.371h-4.556v-.37h.207c.474 0 .783-.104.948-.351.165-.227.247-.7.247-1.36v-3.422c0-1.113-.02-1.793-.082-2.02-.042-.247-.124-.412-.227-.495a.664.664 0 00-.412-.144c-.186 0-.413.062-.68.165l-.145-.37 2.783-1.114h.433v1.938zM535.776 580.312c-1.381 0-2.474-.391-3.277-1.154-.825-.763-1.237-1.834-1.237-3.174v-3.092c0-1.34.412-2.412 1.237-3.174.803-.763 1.896-1.154 3.277-1.154 1.298 0 2.35.35 3.153 1.05.804.702 1.216 1.65 1.258 2.866h-1.855c-.042-.722-.289-1.299-.722-1.69-.453-.371-1.072-.577-1.834-.577-.804 0-1.464.226-1.938.68-.474.474-.721 1.133-.721 1.978v3.113c0 .845.247 1.504.721 1.979.474.474 1.134.7 1.938.7.762 0 1.38-.206 1.834-.597.433-.392.68-.949.722-1.67h1.855c-.042 1.216-.454 2.164-1.258 2.865-.803.7-1.855 1.051-3.153 1.051zM552.904 578.787c-.948.721-1.546 1.154-1.793 1.257-.35.165-.742.248-1.154.248-.64 0-1.155-.206-1.567-.64-.412-.453-.618-1.01-.618-1.73 0-.454.103-.846.288-1.176.289-.453.763-.886 1.443-1.277.68-.413 1.814-.887 3.401-1.464v-.37c0-.928-.144-1.547-.453-1.897-.289-.33-.701-.516-1.258-.516-.432 0-.762.124-1.01.35-.268.228-.391.496-.391.784l.02.577c0 .31-.082.557-.226.722a.839.839 0 01-.619.247.839.839 0 01-.618-.247c-.144-.186-.227-.413-.227-.722 0-.577.289-1.113.887-1.587.577-.495 1.422-.721 2.473-.721.824 0 1.505.123 2.02.412.391.206.68.515.866.969.123.288.185.886.185 1.772v3.133c0 .866.02 1.402.062 1.608.02.206.082.33.165.392.062.082.165.103.268.103a.57.57 0 00.268-.062c.144-.083.412-.33.824-.742v.577c-.762.99-1.463 1.505-2.164 1.505-.33 0-.577-.124-.783-.35-.186-.227-.289-.62-.289-1.155zm0-.66v-3.524c-1.01.412-1.67.7-1.979.866-.515.288-.907.597-1.133.927-.227.31-.33.68-.33 1.051 0 .495.144.887.433 1.196.288.33.618.494.99.494.514 0 1.174-.35 2.02-1.01zM559.517 572.562c1.072-1.298 2.102-1.937 3.092-1.937.494 0 .927.123 1.298.37.35.248.64.66.866 1.237.144.413.206 1.031.206 1.856v3.936c0 .577.062.97.144 1.196a.916.916 0 00.35.391c.166.083.475.124.928.124v.371h-4.575v-.37h.206c.433 0 .721-.063.886-.186.185-.124.289-.33.371-.578.02-.103.041-.412.041-.948v-3.772c0-.845-.123-1.442-.33-1.834-.226-.371-.597-.557-1.113-.557-.783 0-1.587.433-2.37 1.299v4.864c0 .619.02 1.01.103 1.155.103.206.227.33.392.432.165.083.494.124.99.124v.371h-4.556v-.37h.206c.474 0 .783-.104.948-.351.165-.227.247-.701.247-1.36v-3.422c0-1.113-.02-1.793-.082-2.02-.041-.247-.124-.412-.227-.495a.664.664 0 00-.412-.144c-.185 0-.412.062-.68.165l-.144-.371 2.782-1.113h.433v1.937zM573.636 579.076c-.453.453-.886.803-1.32 1.01a3.15 3.15 0 01-1.38.309c-1.01 0-1.896-.433-2.638-1.278-.763-.825-1.134-1.917-1.134-3.236 0-1.32.412-2.536 1.257-3.628.825-1.092 1.897-1.649 3.216-1.649.804 0 1.463.268 2 .783v-1.71c0-1.052-.022-1.69-.063-1.938-.062-.247-.144-.412-.247-.495a.634.634 0 00-.392-.123 2.11 2.11 0 00-.7.144l-.145-.35 2.762-1.113h.454v10.656c0 1.072.02 1.731.061 1.979.062.226.145.391.248.494a.65.65 0 00.391.145c.186 0 .413-.062.722-.186l.103.35-2.72 1.155h-.475v-1.32zm0-.701v-4.762a3.443 3.443 0 00-.35-1.236 2.184 2.184 0 00-.804-.866c-.33-.185-.66-.289-.969-.289-.598 0-1.134.268-1.587.804-.618.701-.907 1.711-.907 3.05 0 1.361.289 2.392.886 3.113.577.722 1.237 1.093 1.958 1.093.619 0 1.196-.31 1.773-.907zM587.467 580.312c-1.134 0-2.041-.37-2.721-1.133-.701-.763-1.051-1.773-1.051-3.072v-3.318c0-1.299.35-2.33 1.03-3.092s1.608-1.133 2.742-1.133c.845 0 1.545.206 2.102.639.556.432.866 1.01.969 1.73h.061l-.04-2.576v-3.297h1.854v15.046h-1.855v-2.164h-.02c-.103.742-.413 1.32-.97 1.731-.556.433-1.256.64-2.101.64zm.618-1.607c.762 0 1.38-.248 1.814-.722.433-.474.66-1.154.66-2v-3.091c0-.845-.227-1.525-.66-2-.433-.473-1.052-.72-1.814-.72-.783 0-1.402.226-1.855.7-.454.474-.68 1.134-.68 2.02v3.092c0 .886.226 1.546.68 2.02.453.474 1.072.7 1.855.7z"
                fill="#b12e1e" fill-rule="nonzero" />
        </g>
    </g>
    <g>
        <path d="M115.268 524.044L90.62 571.098" fill="none" stroke="#000" stroke-width="7.42" stroke-linecap="square"
            transform="matrix(.65255 -.04517 .16611 .53237 176.734 309.947)" />
        <path d="M115.268 524.044L90.62 571.098" fill="none" stroke="#000" stroke-width="7.42" stroke-linecap="square"
            transform="matrix(-.6527 -.04562 -.16584 .53323 601.052 309.362)" />
        <path d="M115.268 524.044L90.62 571.098" fill="none" stroke="#000" stroke-width="7.45" stroke-linecap="square"
            transform="matrix(.62785 -.15829 .2745 .45196 130.62 366.732)" />
        <circle cx="154.775" cy="556.848" r="2.753" transform="matrix(.68706 0 0 .68706 253.657 216.71)" />
        <circle cx="154.775" cy="556.848" r="2.753" transform="matrix(.68706 0 0 .68706 280.292 216.71)" />
        <circle cx="154.775" cy="556.848" r="2.753" transform="matrix(.68706 0 0 .68706 266.974 216.71)" />
        <g>
            <path
                d="M551.746 459.176c7.935-10.775 21.602-17.288 36.276-17.288 14.675 0 28.342 6.513 36.277 17.288l30.435 41.327c8.53 11.584 9.135 26.31 1.575 38.397-7.559 12.087-22.076 19.606-37.852 19.606h-60.869c-15.776 0-30.293-7.519-37.852-19.606-7.56-12.087-6.955-26.813 1.575-38.397l30.435-41.327z"
                fill="#fff" stroke="#c1c1c1" stroke-width="4.01"
                transform="matrix(.92753 0 0 1.06254 -156.564 -9.153)" />
        </g>
        <g>
            <path
                d="M357.752 550.992c.886-1.237 1.855-1.855 2.886-1.855.948 0 1.772.392 2.473 1.196.7.824 1.051 1.916 1.051 3.318 0 1.649-.536 2.968-1.628 3.957-.928.866-1.958 1.299-3.112 1.299a5.024 5.024 0 01-1.629-.289 7.988 7.988 0 01-1.71-.886v-9.543c0-1.051-.021-1.69-.062-1.938-.062-.247-.145-.412-.248-.494a.634.634 0 00-.391-.124c-.206 0-.433.041-.722.144l-.123-.35 2.762-1.113h.453v6.678zm0 .64v5.523c.33.33.7.577 1.051.763.371.165.742.247 1.134.247.598 0 1.175-.33 1.71-1.01.516-.66.784-1.649.784-2.927 0-1.175-.268-2.082-.783-2.72-.536-.64-1.134-.949-1.814-.949-.35 0-.701.083-1.051.268-.268.144-.619.412-1.031.804zM367.068 552.868c0 1.38.33 2.453 1.01 3.215.66.783 1.464 1.175 2.37 1.175a2.58 2.58 0 001.567-.495c.454-.33.825-.907 1.113-1.71l.33.206c-.144.927-.556 1.752-1.237 2.514-.68.742-1.525 1.134-2.555 1.134-1.093 0-2.041-.433-2.845-1.299-.783-.865-1.175-2.02-1.175-3.483 0-1.566.413-2.803 1.216-3.69.804-.886 1.814-1.319 3.05-1.319 1.031 0 1.877.35 2.536 1.031.66.68 1.01 1.587 1.01 2.72h-6.39zm0-.577h4.267c-.02-.598-.103-1.01-.206-1.258a2.074 2.074 0 00-.742-.886 1.95 1.95 0 00-1.051-.31c-.557 0-1.051.207-1.484.64-.454.433-.701 1.03-.784 1.814zM377.351 546.375v3.03h2.164v.7h-2.164v5.978c0 .598.082.99.268 1.216.165.206.392.31.66.31.206 0 .432-.083.638-.207.207-.144.371-.35.475-.618h.391c-.227.66-.556 1.154-.99 1.484-.432.33-.865.495-1.318.495a1.82 1.82 0 01-.907-.248c-.31-.165-.516-.412-.66-.742-.144-.309-.206-.803-.206-1.463v-6.204h-1.463v-.33c.37-.144.742-.392 1.133-.763.371-.35.722-.762 1.03-1.236.145-.268.372-.722.64-1.402h.309zM379.883 549.405h3.875v.371c-.35.02-.598.082-.701.186a.59.59 0 00-.165.432c0 .206.062.454.165.763l1.979 5.297 1.978-4.308-.515-1.36c-.165-.412-.37-.68-.639-.845-.144-.083-.433-.144-.824-.165v-.371h4.39v.371c-.495.02-.824.103-1.03.247-.145.124-.207.289-.207.516 0 .144.02.288.083.412l2.102 5.297 1.938-5.091c.123-.371.206-.66.206-.866 0-.123-.083-.247-.206-.35-.124-.103-.392-.165-.763-.165v-.371h2.906v.371c-.577.082-1.01.474-1.298 1.175l-3.071 7.956h-.413l-2.308-5.895-2.68 5.895h-.37l-2.969-7.75c-.185-.495-.391-.824-.577-.99-.185-.185-.474-.309-.886-.391v-.371zM396.829 552.868c0 1.38.33 2.453 1.01 3.215.66.783 1.463 1.175 2.37 1.175a2.58 2.58 0 001.567-.495c.453-.33.824-.907 1.113-1.71l.33.206c-.145.927-.557 1.752-1.237 2.514-.68.742-1.525 1.134-2.556 1.134-1.092 0-2.04-.433-2.844-1.299-.784-.865-1.175-2.02-1.175-3.483 0-1.566.412-2.803 1.216-3.69.804-.886 1.814-1.319 3.05-1.319 1.031 0 1.876.35 2.536 1.031.66.68 1.01 1.587 1.01 2.72h-6.39zm0-.577h4.267c-.021-.598-.103-1.01-.206-1.258a2.074 2.074 0 00-.742-.886 1.95 1.95 0 00-1.052-.31c-.556 0-1.05.207-1.484.64-.453.433-.7 1.03-.783 1.814zM405.977 552.868c0 1.38.33 2.453 1.01 3.215.66.783 1.464 1.175 2.37 1.175a2.58 2.58 0 001.567-.495c.453-.33.824-.907 1.113-1.71l.33.206c-.144.927-.557 1.752-1.237 2.514-.68.742-1.525 1.134-2.556 1.134-1.092 0-2.04-.433-2.844-1.299-.783-.865-1.175-2.02-1.175-3.483 0-1.566.412-2.803 1.216-3.69.804-.886 1.814-1.319 3.05-1.319 1.031 0 1.876.35 2.536 1.031.66.68 1.01 1.587 1.01 2.72h-6.39zm0-.577h4.267c-.02-.598-.103-1.01-.206-1.258a2.074 2.074 0 00-.742-.886 1.95 1.95 0 00-1.052-.31c-.556 0-1.05.207-1.484.64-.453.433-.7 1.03-.783 1.814zM416.28 551.075c1.072-1.299 2.103-1.938 3.092-1.938.495 0 .928.124 1.299.371.35.247.639.66.865 1.237.145.412.206 1.03.206 1.855v3.937c0 .577.062.968.145 1.195a.916.916 0 00.35.392c.165.082.474.123.928.123v.371h-4.576v-.37h.206c.433 0 .721-.062.886-.186.186-.124.289-.33.371-.577.02-.103.041-.412.041-.948v-3.772c0-.845-.123-1.443-.33-1.835-.226-.37-.597-.556-1.112-.556-.784 0-1.587.433-2.37 1.298v4.865c0 .618.02 1.01.102 1.154.103.206.227.33.392.433.165.082.495.123.99.123v.371h-4.556v-.37h.206c.474 0 .784-.104.948-.351.165-.227.248-.7.248-1.36v-3.422c0-1.113-.02-1.793-.083-2.02-.04-.247-.123-.412-.226-.495a.664.664 0 00-.413-.144c-.185 0-.412.062-.68.165l-.144-.37 2.782-1.114h.433v1.938zM363.356 580.312c-.845 0-1.546-.206-2.103-.639-.556-.412-.865-.99-.969-1.731h-.02v2.164h-1.855V565.06h1.855v3.297l-.041 2.577h.061c.104-.721.413-1.299.97-1.731.556-.433 1.257-.64 2.102-.64 1.133 0 2.06.372 2.741 1.134.68.763 1.03 1.793 1.03 3.092v3.318c0 1.299-.35 2.309-1.03 3.072-.68.762-1.608 1.133-2.741 1.133zm-.619-1.607c.784 0 1.402-.227 1.855-.701.454-.474.68-1.134.68-2.02v-3.092c0-.886-.226-1.546-.68-2.02-.453-.474-1.071-.7-1.855-.7-.762 0-1.36.247-1.793.72-.453.475-.68 1.155-.68 2v3.092c0 .845.227 1.525.68 2 .433.473 1.03.72 1.793.72zM379.907 578.787c-.948.721-1.546 1.154-1.793 1.257-.35.165-.742.248-1.155.248-.639 0-1.154-.206-1.566-.64-.412-.453-.618-1.01-.618-1.73 0-.454.103-.846.288-1.176.289-.453.763-.886 1.443-1.277.68-.413 1.814-.887 3.4-1.464v-.37c0-.928-.143-1.547-.453-1.897-.288-.33-.7-.516-1.257-.516-.433 0-.763.124-1.01.35-.268.228-.392.496-.392.784l.021.577c0 .31-.082.557-.227.722a.839.839 0 01-.618.247.839.839 0 01-.618-.247c-.145-.186-.227-.413-.227-.722 0-.577.288-1.113.886-1.587.577-.495 1.422-.721 2.474-.721.824 0 1.504.123 2.02.412.391.206.68.515.865.969.124.288.186.886.186 1.772v3.133c0 .866.02 1.402.062 1.608.02.206.082.33.164.392.062.082.165.103.268.103a.57.57 0 00.268-.062c.145-.083.413-.33.825-.742v.577c-.763.99-1.464 1.505-2.164 1.505-.33 0-.577-.124-.784-.35-.185-.227-.288-.62-.288-1.155zm0-.66v-3.524c-1.01.412-1.67.7-1.979.866-.515.288-.907.597-1.134.927-.226.31-.33.68-.33 1.051 0 .495.145.887.434 1.196.288.33.618.494.989.494.515 0 1.175-.35 2.02-1.01zM386.52 572.562c1.072-1.298 2.102-1.937 3.092-1.937.494 0 .927.123 1.298.37.35.248.639.66.866 1.237.144.413.206 1.031.206 1.856v3.936c0 .577.062.97.144 1.196a.916.916 0 00.35.391c.165.083.475.124.928.124v.371h-4.576v-.37h.206c.433 0 .722-.063.887-.186.185-.124.288-.33.37-.578.021-.103.042-.412.042-.948v-3.772c0-.845-.124-1.442-.33-1.834-.227-.371-.598-.557-1.113-.557-.783 0-1.587.433-2.37 1.299v4.864c0 .619.02 1.01.103 1.155.103.206.227.33.391.432.165.083.495.124.99.124v.371h-4.555v-.37h.206c.474 0 .783-.104.948-.351.165-.227.247-.701.247-1.36v-3.422c0-1.113-.02-1.793-.082-2.02-.041-.247-.124-.412-.227-.495a.664.664 0 00-.412-.144c-.186 0-.412.062-.68.165l-.145-.371 2.783-1.113h.433v1.937zM400.639 579.076c-.454.453-.887.803-1.32 1.01a3.15 3.15 0 01-1.38.309c-1.01 0-1.897-.433-2.639-1.278-.762-.825-1.133-1.917-1.133-3.236 0-1.32.412-2.536 1.257-3.628.824-1.092 1.896-1.649 3.215-1.649.804 0 1.464.268 2 .783v-1.71c0-1.052-.02-1.69-.062-1.938-.062-.247-.144-.412-.247-.495a.634.634 0 00-.392-.123 2.11 2.11 0 00-.7.144l-.145-.35 2.762-1.113h.453v10.656c0 1.072.02 1.731.062 1.979.062.226.144.391.247.494a.65.65 0 00.392.145c.186 0 .412-.062.722-.186l.103.35-2.721 1.155h-.474v-1.32zm0-.701v-4.762a3.443 3.443 0 00-.35-1.236 2.184 2.184 0 00-.804-.866c-.33-.185-.66-.289-.97-.289-.597 0-1.133.268-1.586.804-.619.701-.907 1.711-.907 3.05 0 1.361.288 2.392.886 3.113.577.722 1.237 1.093 1.958 1.093.619 0 1.196-.31 1.773-.907zM415.211 580.312c-1.38 0-2.473-.391-3.277-1.154-.824-.763-1.237-1.834-1.237-3.174v-3.092c0-1.34.413-2.412 1.237-3.174.804-.763 1.896-1.154 3.277-1.154 1.299 0 2.35.35 3.154 1.05.804.702 1.216 1.65 1.257 2.866h-1.855c-.041-.722-.288-1.299-.721-1.69-.454-.371-1.072-.577-1.835-.577-.804 0-1.463.226-1.937.68-.474.474-.722 1.133-.722 1.978v3.113c0 .845.248 1.504.722 1.979.474.474 1.133.7 1.937.7.763 0 1.381-.206 1.835-.597.433-.392.68-.949.721-1.67h1.855c-.041 1.216-.453 2.164-1.257 2.865-.804.7-1.855 1.051-3.154 1.051z"
                fill="#b12e1e" fill-rule="nonzero" />
        </g>
    </g>
</svg>