<svg viewBox="0 0 1024 768" xmlns="http://www.w3.org/2000/svg" fill-rule="evenodd" clip-rule="evenodd"
    stroke-linecap="round" stroke-linejoin="round" stroke-miterlimit="1.5">
    <path
        d="M267.073 377.174l189.342-149.49M114.073 377.174L443.105 218.81M830.427 334.907L566.447 225.91M471.409 336.338l35.142-106.879M740.673 449.86l68.713-73.092M920.182 449.86l-68.584-73.092M561.163 449.86l-70.156-70.23M381.654 449.86l71.434-69.157"
        fill="none" stroke="#000" stroke-width="4" />
    <path d="M115.268 524.044L90.62 571.098" fill="none" stroke="#000" stroke-width="7.62" stroke-linecap="square"
        transform="matrix(-.62084 -.04733 -.15775 .5533 426.426 296.875)" />
    <path d="M115.268 524.044L90.62 571.098" fill="none" stroke="#000" stroke-width="7.61" stroke-linecap="square"
        transform="matrix(.62133 -.04902 .15662 .55721 24.606 293.669)" />
    <path d="M115.268 524.044L90.62 571.098" fill="none" stroke="#000" stroke-width="7.76" stroke-linecap="square"
        transform="matrix(.5972 -.16425 .2611 .46897 -19.05 355.715)" />
    <circle cx="154.775" cy="556.848" r="2.753" transform="matrix(.65353 0 0 .71292 99.242 201.079)" />
    <circle cx="154.775" cy="556.848" r="2.753" transform="matrix(.65353 0 0 .71292 124.578 201.079)" />
    <circle cx="154.775" cy="556.848" r="2.753" transform="matrix(.65353 0 0 .71292 111.91 201.079)" />
    <path
        d="M253.54 540.914c6.356-13.362 36.978-23.081 72.723-23.081 35.746 0 66.367 9.719 72.724 23.081l52.362 110.079c3.894 8.187-1.97 16.608-16.011 22.992-14.041 6.384-34.813 10.073-56.712 10.073H273.901c-21.9 0-42.671-3.689-56.712-10.073-14.041-6.384-19.906-14.805-16.012-22.992l52.363-110.079z"
        fill="none" stroke="#bababa" stroke-width="3.71" transform="matrix(.54126 0 0 1.42483 51.12 -393.539)" />
    <path
        d="M195.455 543.709c.92-1.283 1.924-1.925 2.994-1.925.984 0 1.84.406 2.566 1.24.728.856 1.091 1.99 1.091 3.444 0 1.71-.556 3.08-1.69 4.106-.962.899-2.031 1.348-3.229 1.348a5.213 5.213 0 01-1.69-.3 8.288 8.288 0 01-1.775-.92V540.8c0-1.09-.021-1.754-.064-2.01-.064-.257-.15-.428-.257-.514a.658.658 0 00-.406-.128c-.214 0-.45.043-.749.15l-.128-.364 2.866-1.155h.47v6.93zm0 .663v5.732c.342.342.727.599 1.09.791.385.171.77.257 1.177.257.62 0 1.219-.342 1.775-1.048.535-.685.813-1.711.813-3.037 0-1.22-.278-2.16-.813-2.823-.556-.663-1.176-.984-1.882-.984-.364 0-.727.085-1.091.278-.278.15-.642.428-1.07.834zM205.122 545.655c0 1.433.342 2.545 1.048 3.337.684.812 1.518 1.219 2.46 1.219.62 0 1.154-.171 1.625-.514.47-.342.855-.94 1.155-1.775l.342.214c-.15.963-.578 1.818-1.283 2.61-.706.77-1.583 1.176-2.652 1.176-1.134 0-2.118-.45-2.952-1.348-.813-.898-1.219-2.096-1.219-3.614 0-1.626.428-2.909 1.262-3.829.834-.92 1.882-1.368 3.165-1.368 1.07 0 1.946.363 2.63 1.069.685.706 1.049 1.647 1.049 2.823h-6.63zm0-.599h4.427c-.021-.62-.107-1.048-.214-1.304a2.152 2.152 0 00-.77-.92 2.024 2.024 0 00-1.09-.32c-.578 0-1.091.213-1.54.662-.471.45-.728 1.07-.813 1.882zM215.791 538.918v3.144h2.246v.727h-2.246v6.203c0 .62.086 1.026.278 1.261.171.214.407.321.685.321.214 0 .449-.085.663-.214.214-.15.385-.363.492-.641h.406c-.235.684-.577 1.197-1.027 1.54-.449.342-.898.513-1.368.513a1.89 1.89 0 01-.941-.257c-.321-.17-.535-.427-.685-.77-.15-.32-.214-.834-.214-1.518v-6.438h-1.518v-.342c.385-.15.77-.406 1.176-.791a7.096 7.096 0 001.07-1.284c.15-.278.384-.748.662-1.454h.321zM218.418 542.062h4.021v.385c-.363.021-.62.086-.727.193a.613.613 0 00-.171.449c0 .214.064.47.171.791l2.053 5.497 2.053-4.47-.534-1.412c-.171-.428-.385-.706-.663-.877-.15-.085-.45-.15-.856-.171v-.385h4.556v.385c-.514.021-.856.107-1.07.257-.15.128-.213.3-.213.534 0 .15.02.3.085.428l2.182 5.497 2.01-5.283c.128-.385.214-.684.214-.898 0-.129-.086-.257-.214-.364-.128-.107-.406-.171-.791-.171v-.385h3.015v.385c-.599.086-1.048.492-1.347 1.22l-3.187 8.255h-.428l-2.395-6.117-2.78 6.117h-.385l-3.08-8.042c-.193-.513-.406-.856-.599-1.027-.192-.192-.492-.32-.92-.406v-.385zM236.002 545.655c0 1.433.343 2.545 1.048 3.337.685.812 1.519 1.219 2.46 1.219.62 0 1.155-.171 1.625-.514.471-.342.856-.94 1.155-1.775l.343.214c-.15.963-.578 1.818-1.284 2.61-.705.77-1.582 1.176-2.652 1.176-1.133 0-2.117-.45-2.951-1.348-.813-.898-1.22-2.096-1.22-3.614 0-1.626.428-2.909 1.263-3.829.834-.92 1.882-1.368 3.165-1.368 1.07 0 1.946.363 2.63 1.069.685.706 1.049 1.647 1.049 2.823h-6.63zm0-.599h4.428c-.022-.62-.107-1.048-.214-1.304a2.152 2.152 0 00-.77-.92 2.024 2.024 0 00-1.09-.32c-.578 0-1.092.213-1.54.662-.471.45-.728 1.07-.814 1.882zM245.495 545.655c0 1.433.342 2.545 1.048 3.337.684.812 1.518 1.219 2.46 1.219.62 0 1.154-.171 1.625-.514.47-.342.855-.94 1.155-1.775l.342.214c-.15.963-.577 1.818-1.283 2.61-.706.77-1.583 1.176-2.652 1.176-1.134 0-2.118-.45-2.952-1.348-.812-.898-1.219-2.096-1.219-3.614 0-1.626.428-2.909 1.262-3.829.834-.92 1.882-1.368 3.165-1.368 1.07 0 1.947.363 2.631 1.069.685.706 1.048 1.647 1.048 2.823h-6.63zm0-.599h4.427c-.021-.62-.107-1.048-.214-1.304a2.152 2.152 0 00-.77-.92 2.024 2.024 0 00-1.09-.32c-.578 0-1.091.213-1.54.662-.47.45-.727 1.07-.813 1.882zM256.186 543.794c1.112-1.347 2.181-2.01 3.208-2.01.513 0 .962.128 1.347.385.364.257.663.684.899 1.283.15.428.214 1.07.214 1.925v4.085c0 .599.064 1.005.15 1.24a.95.95 0 00.363.407c.171.086.492.128.962.128v.385h-4.748v-.385h.214c.45 0 .749-.064.92-.192.192-.129.3-.342.385-.599.021-.107.043-.428.043-.984v-3.914c0-.877-.129-1.497-.343-1.903-.235-.385-.62-.578-1.155-.578-.812 0-1.646.45-2.46 1.348v5.047c0 .642.022 1.048.108 1.198.107.214.235.342.406.449.171.086.513.128 1.027.128v.385h-4.727v-.385h.214c.492 0 .813-.107.984-.363.17-.236.256-.727.256-1.412v-3.55c0-1.155-.02-1.86-.085-2.096-.043-.257-.128-.428-.235-.513a.689.689 0 00-.428-.15c-.193 0-.428.064-.706.17l-.15-.384 2.888-1.155h.449v2.01zM199.558 574.133c-1.24 0-2.224-.321-2.93-.963-.706-.62-1.07-1.476-1.07-2.566 0-1.091.364-1.968 1.07-2.588.706-.62 1.668-.941 2.887-.941h3.636v-1.177c0-.705-.214-1.261-.641-1.668-.45-.406-1.048-.599-1.818-.599-.685 0-1.262.15-1.733.45-.47.299-.77.684-.877 1.176h-1.924c.064-.663.32-1.24.727-1.733a4.125 4.125 0 011.604-1.176c.663-.278 1.39-.406 2.203-.406 1.347 0 2.416.342 3.208 1.048.791.706 1.176 1.647 1.176 2.844v8.085h-1.882v-2.246h-.021c-.086.749-.45 1.348-1.091 1.797-.663.449-1.497.663-2.524.663zm.47-1.519c.92 0 1.669-.235 2.246-.684.578-.45.877-1.048.877-1.754v-1.668h-3.593c-.641 0-1.155.17-1.518.534-.364.364-.556.835-.556 1.455 0 .663.235 1.176.684 1.561.428.364 1.07.556 1.86.556zM218.443 572.55c-.984.749-1.604 1.198-1.86 1.305a2.8 2.8 0 01-1.198.256c-.663 0-1.198-.214-1.626-.663-.427-.47-.641-1.048-.641-1.796 0-.47.107-.877.3-1.22.299-.47.79-.919 1.496-1.325.706-.428 1.882-.92 3.53-1.519v-.385c0-.962-.15-1.604-.471-1.968-.3-.342-.727-.534-1.305-.534-.449 0-.791.128-1.048.363-.278.236-.406.514-.406.813l.021.599c0 .32-.085.577-.235.748a.87.87 0 01-.642.257.87.87 0 01-.641-.257c-.15-.192-.236-.427-.236-.748 0-.599.3-1.155.92-1.647.599-.513 1.476-.748 2.567-.748.855 0 1.56.128 2.096.427.406.214.705.535.898 1.005.128.3.192.92.192 1.84v3.25c0 .899.022 1.455.064 1.669.022.214.086.342.172.406.064.086.17.107.278.107a.592.592 0 00.278-.064c.15-.085.427-.342.855-.77v.599c-.791 1.027-1.518 1.561-2.246 1.561-.342 0-.598-.128-.812-.363-.193-.236-.3-.642-.3-1.198zm0-.684v-3.658c-1.048.428-1.732.728-2.053.899-.535.299-.94.62-1.176.962-.235.32-.342.706-.342 1.09 0 .514.15.92.449 1.241.3.342.641.514 1.026.514.535 0 1.22-.364 2.096-1.048zM225.305 566.091c1.112-1.347 2.182-2.01 3.208-2.01.514 0 .963.128 1.348.385.363.256.663.684.898 1.283.15.428.214 1.07.214 1.925v4.085c0 .599.064 1.005.15 1.24a.95.95 0 00.363.406c.171.086.492.129.963.129v.385H227.7v-.385h.213c.45 0 .749-.064.92-.193.193-.128.3-.342.385-.599.021-.106.043-.427.043-.983v-3.914c0-.877-.128-1.497-.342-1.904-.236-.385-.62-.577-1.155-.577-.813 0-1.647.449-2.46 1.347v5.048c0 .641.022 1.048.107 1.197.107.214.235.343.406.45.172.085.514.128 1.027.128v.385h-4.727v-.385h.214c.492 0 .813-.107.984-.364.171-.235.257-.727.257-1.411v-3.55c0-1.156-.022-1.861-.086-2.097-.043-.256-.128-.427-.235-.513a.689.689 0 00-.428-.15c-.192 0-.428.064-.706.171l-.15-.385 2.888-1.154h.45v2.01zM239.956 572.85c-.47.47-.92.834-1.37 1.047-.448.214-.919.321-1.432.321-1.048 0-1.968-.449-2.738-1.326-.791-.855-1.176-1.989-1.176-3.358 0-1.368.428-2.63 1.305-3.764.855-1.133 1.967-1.71 3.336-1.71.834 0 1.519.277 2.075.812v-1.775c0-1.091-.022-1.754-.065-2.01-.064-.257-.15-.428-.256-.514a.658.658 0 00-.407-.128 2.19 2.19 0 00-.727.15l-.15-.364 2.866-1.155h.471v11.057c0 1.112.021 1.797.064 2.053.064.236.15.407.257.514.107.085.256.15.406.15.193 0 .428-.065.749-.193l.107.364-2.823 1.197h-.492v-1.369zm0-.728v-4.94a3.573 3.573 0 00-.364-1.284 2.266 2.266 0 00-.834-.898c-.342-.192-.684-.3-1.005-.3-.62 0-1.177.279-1.647.835-.642.727-.941 1.775-.941 3.165 0 1.412.3 2.481.92 3.23.598.748 1.283 1.133 2.031 1.133.642 0 1.24-.32 1.84-.94zM255.675 574.133c-.876 0-1.604-.214-2.181-.663-.578-.428-.898-1.027-1.005-1.797h-.022v2.246h-1.925v-15.613h1.925v3.422l-.042 2.673h.064c.107-.748.427-1.347 1.005-1.796.577-.45 1.305-.663 2.181-.663 1.177 0 2.14.385 2.845 1.176.706.791 1.07 1.86 1.07 3.208v3.444c0 1.347-.364 2.395-1.07 3.186-.706.792-1.668 1.177-2.845 1.177zm-.641-1.669c.813 0 1.454-.235 1.925-.727.47-.492.705-1.176.705-2.096v-3.208c0-.92-.235-1.604-.705-2.096s-1.112-.727-1.925-.727c-.792 0-1.412.257-1.86.749-.471.491-.707 1.197-.707 2.074v3.208c0 .877.236 1.583.706 2.075.45.492 1.07.748 1.86.748z"
        fill="#b12e1e" fill-rule="nonzero" />
    <g>
        <path d="M115.268 524.044L90.62 571.098" fill="none" stroke="#000" stroke-width="7.62" stroke-linecap="square"
            transform="matrix(-.62084 -.04733 -.15775 .5533 273.426 296.875)" />
        <path d="M115.268 524.044L90.62 571.098" fill="none" stroke="#000" stroke-width="7.61" stroke-linecap="square"
            transform="matrix(.62133 -.04902 .15662 .55721 -128.394 293.669)" />
        <path d="M115.268 524.044L90.62 571.098" fill="none" stroke="#000" stroke-width="7.76" stroke-linecap="square"
            transform="matrix(.5972 -.16425 .2611 .46897 -172.05 355.715)" />
        <circle cx="154.775" cy="556.848" r="2.753" transform="matrix(.65353 0 0 .71292 -53.758 201.079)" />
        <circle cx="154.775" cy="556.848" r="2.753" transform="matrix(.65353 0 0 .71292 -28.422 201.079)" />
        <circle cx="154.775" cy="556.848" r="2.753" transform="matrix(.65353 0 0 .71292 -41.09 201.079)" />
        <g>
            <path
                d="M253.54 540.914c6.356-13.362 36.978-23.081 72.723-23.081 35.746 0 66.367 9.719 72.724 23.081l52.362 110.079c3.894 8.187-1.97 16.608-16.011 22.992-14.041 6.384-34.813 10.073-56.712 10.073H273.901c-21.9 0-42.671-3.689-56.712-10.073-14.041-6.384-19.906-14.805-16.012-22.992l52.363-110.079z"
                fill="none" stroke="#bababa" stroke-width="3.71"
                transform="matrix(.54126 0 0 1.42483 -101.88 -393.539)" />
        </g>
        <g>
            <path
                d="M62.704 536.78v12.682c0 .599.043.984.129 1.198a.796.796 0 00.406.428c.171.107.513.15 1.005.15v.384H59.56v-.385c.45 0 .749-.042.899-.128.17-.086.278-.235.385-.45.085-.213.128-.598.128-1.197v-8.683c0-1.091-.021-1.754-.064-1.99-.064-.256-.129-.427-.236-.513a.679.679 0 00-.427-.128c-.171 0-.407.043-.685.15l-.17-.364 2.844-1.155h.47zM66.956 545.655c0 1.433.342 2.545 1.048 3.337.685.812 1.519 1.219 2.46 1.219.62 0 1.155-.171 1.625-.514.47-.342.856-.94 1.155-1.775l.342.214c-.15.963-.577 1.818-1.283 2.61-.706.77-1.583 1.176-2.652 1.176-1.134 0-2.117-.45-2.952-1.348-.812-.898-1.219-2.096-1.219-3.614 0-1.626.428-2.909 1.262-3.829.834-.92 1.882-1.368 3.166-1.368 1.069 0 1.946.363 2.63 1.069.685.706 1.048 1.647 1.048 2.823h-6.63zm0-.599h4.427c-.021-.62-.107-1.048-.214-1.304a2.152 2.152 0 00-.77-.92 2.024 2.024 0 00-1.09-.32c-.578 0-1.091.213-1.54.662-.47.45-.727 1.07-.813 1.882zM81.026 541.784v3.25h-.342c-.257-1.026-.599-1.731-1.005-2.095-.428-.364-.941-.556-1.583-.556-.492 0-.898.128-1.198.385-.299.256-.449.556-.449.855 0 .407.129.728.343 1.006.213.299.663.598 1.326.92l1.518.726c1.412.706 2.117 1.604 2.117 2.738 0 .877-.32 1.561-.983 2.096-.663.535-1.39.813-2.203.813-.6 0-1.262-.107-2.01-.321-.236-.064-.428-.107-.578-.107-.15 0-.278.086-.364.278h-.342v-3.422h.342c.193.984.556 1.711 1.112 2.203.556.492 1.177.748 1.861.748.47 0 .856-.15 1.155-.427.32-.278.47-.62.47-1.027 0-.47-.17-.877-.513-1.198-.342-.32-1.005-.748-2.01-1.24-1.027-.513-1.69-.962-1.99-1.369-.32-.385-.47-.898-.47-1.497 0-.791.257-1.454.813-1.968.535-.534 1.24-.791 2.096-.791.364 0 .813.064 1.369.235.342.107.577.15.706.15a.456.456 0 00.256-.064c.064-.064.129-.171.214-.321h.342zM89.35 541.784v3.25h-.343c-.256-1.026-.598-1.731-1.005-2.095-.428-.364-.94-.556-1.583-.556-.491 0-.898.128-1.197.385-.3.256-.45.556-.45.855 0 .407.129.728.343 1.006.214.299.663.598 1.326.92l1.518.726c1.412.706 2.118 1.604 2.118 2.738 0 .877-.321 1.561-.984 2.096-.663.535-1.39.813-2.203.813-.599 0-1.262-.107-2.01-.321-.236-.064-.428-.107-.578-.107-.15 0-.278.086-.363.278h-.343v-3.422h.343c.192.984.556 1.711 1.112 2.203.556.492 1.176.748 1.86.748.47 0 .856-.15 1.155-.427.321-.278.47-.62.47-1.027 0-.47-.17-.877-.512-1.198-.343-.32-1.006-.748-2.01-1.24-1.027-.513-1.69-.962-1.99-1.369-.32-.385-.47-.898-.47-1.497 0-.791.256-1.454.812-1.968.535-.534 1.24-.791 2.096-.791.364 0 .813.064 1.37.235.341.107.577.15.705.15a.456.456 0 00.257-.064c.064-.064.128-.171.213-.321h.343zM50.73 561.215v3.144h2.246v.727H50.73v6.202c0 .62.086 1.027.278 1.262.171.214.407.32.685.32.213 0 .449-.085.663-.213.213-.15.385-.364.491-.642h.407c-.235.685-.578 1.198-1.027 1.54-.449.342-.898.514-1.369.514a1.89 1.89 0 01-.94-.257c-.321-.171-.535-.428-.685-.77-.15-.32-.214-.834-.214-1.519v-6.437h-1.518v-.342c.385-.15.77-.407 1.176-.792a7.096 7.096 0 001.07-1.283c.149-.278.384-.749.662-1.454h.321zM56.715 559.076v6.994c.77-.856 1.369-1.39 1.84-1.647.449-.236.898-.342 1.347-.342.535 0 1.005.15 1.39.449.406.3.684.77.877 1.39.128.449.192 1.262.192 2.46v3.379c0 .599.065 1.026.15 1.24.064.171.193.3.364.406.15.086.47.129.92.129v.385h-4.706v-.385h.214c.45 0 .749-.064.941-.193.171-.128.278-.342.364-.599.021-.106.021-.449.021-.983v-3.38c0-1.048-.043-1.732-.15-2.053-.107-.342-.278-.577-.534-.748-.236-.171-.514-.236-.856-.236-.342 0-.684.086-1.048.257-.385.193-.813.556-1.326 1.112v5.048c0 .663.021 1.069.107 1.219.064.17.192.3.406.406.193.107.535.15 1.027.15v.385h-4.748v-.385c.428 0 .77-.064 1.005-.193.15-.064.257-.192.342-.385.086-.214.129-.598.129-1.197v-8.662c0-1.091-.043-1.754-.086-2.01-.064-.257-.128-.428-.235-.514-.107-.086-.257-.128-.45-.128-.128 0-.384.042-.705.15l-.15-.364 2.866-1.155h.492zM70.018 572.55c-.984.749-1.604 1.198-1.86 1.305a2.8 2.8 0 01-1.198.256c-.663 0-1.198-.214-1.626-.663-.428-.47-.641-1.048-.641-1.796 0-.47.107-.877.299-1.22.3-.47.791-.919 1.497-1.325.706-.428 1.882-.92 3.53-1.519v-.385c0-.962-.15-1.604-.471-1.968-.3-.342-.728-.534-1.305-.534-.45 0-.791.128-1.048.363-.278.236-.406.514-.406.813l.021.599c0 .32-.086.577-.235.748a.87.87 0 01-.642.257.87.87 0 01-.642-.257c-.15-.192-.235-.427-.235-.748 0-.599.3-1.155.92-1.647.599-.513 1.476-.748 2.566-.748.856 0 1.562.128 2.096.427.407.214.706.535.899 1.005.128.3.192.92.192 1.84v3.25c0 .899.022 1.455.064 1.669.022.214.086.342.171.406.065.086.171.107.278.107a.592.592 0 00.278-.064c.15-.085.428-.342.856-.77v.599c-.791 1.027-1.519 1.561-2.246 1.561-.342 0-.599-.128-.812-.363-.193-.236-.3-.642-.3-1.198zm0-.684v-3.658c-1.048.428-1.732.728-2.053.899-.535.299-.941.62-1.176.962-.236.32-.343.706-.343 1.09 0 .514.15.92.45 1.241.299.342.641.514 1.026.514.535 0 1.22-.364 2.096-1.048zM76.88 566.091c1.113-1.347 2.182-2.01 3.209-2.01.513 0 .962.128 1.347.385.364.256.663.684.898 1.283.15.428.214 1.07.214 1.925v4.085c0 .599.065 1.005.15 1.24a.95.95 0 00.364.406c.17.086.492.129.962.129v.385h-4.748v-.385h.214c.45 0 .748-.064.92-.193.192-.128.299-.342.385-.599.021-.106.042-.427.042-.983v-3.914c0-.877-.128-1.497-.342-1.904-.235-.385-.62-.577-1.155-.577-.813 0-1.647.449-2.46 1.347v5.048c0 .641.022 1.048.108 1.197.107.214.235.343.406.45.171.085.513.128 1.027.128v.385h-4.727v-.385h.214c.492 0 .813-.107.984-.364.17-.235.256-.727.256-1.411v-3.55c0-1.156-.021-1.861-.085-2.097-.043-.256-.129-.427-.236-.513a.689.689 0 00-.427-.15c-.193 0-.428.064-.706.171l-.15-.385 2.888-1.154h.449v2.01zM94.846 574.133c-1.24 0-2.224-.321-2.93-.963-.706-.62-1.07-1.476-1.07-2.566 0-1.091.364-1.968 1.07-2.588.706-.62 1.668-.941 2.887-.941h3.636v-1.177c0-.705-.214-1.261-.641-1.668-.45-.406-1.048-.599-1.818-.599-.685 0-1.262.15-1.733.45-.47.299-.77.684-.877 1.176h-1.924c.064-.663.32-1.24.727-1.733a4.125 4.125 0 011.604-1.176c.663-.278 1.39-.406 2.203-.406 1.347 0 2.416.342 3.208 1.048.791.706 1.176 1.647 1.176 2.844v8.085h-1.882v-2.246h-.021c-.086.749-.45 1.348-1.091 1.797-.663.449-1.497.663-2.524.663zm.47-1.519c.92 0 1.669-.235 2.246-.684.578-.45.877-1.048.877-1.754v-1.668h-3.593c-.641 0-1.155.17-1.518.534-.364.364-.556.835-.556 1.455 0 .663.235 1.176.684 1.561.428.364 1.07.556 1.86.556z"
                fill="#b12e1e" fill-rule="nonzero" />
        </g>
    </g>
    <g transform="matrix(.31589 0 0 .6107 353.298 89.744)">
        <path
            d="M731.429 185.017c0-23.045-36.172-41.755-80.726-41.755H357.747c-44.554 0-80.726 18.71-80.726 41.755s36.172 41.755 80.726 41.755h292.956c44.554 0 80.726-18.71 80.726-41.755z"
            fill="#fff" />
        <clipPath id="prefix__a">
            <path
                d="M731.429 185.017c0-23.045-36.172-41.755-80.726-41.755H357.747c-44.554 0-80.726 18.71-80.726 41.755s36.172 41.755 80.726 41.755h292.956c44.554 0 80.726-18.71 80.726-41.755z" />
        </clipPath>
        <g clip-path="url(#prefix__a)">
            <path
                d="M369.718 205.784c-6.294 0-11.286-.842-14.867-2.526-3.58-1.628-5.425-3.873-5.425-6.736 0-2.862 1.844-5.164 5.425-6.791 3.581-1.628 8.465-2.47 14.65-2.47h18.448v-3.087c0-1.852-1.086-3.312-3.256-4.378-2.279-1.067-5.317-1.572-9.224-1.572-3.472 0-6.402.393-8.79 1.179-2.387.786-3.906 1.796-4.449 3.087h-9.766c.326-1.74 1.628-3.255 3.69-4.546 2.061-1.291 4.774-2.358 8.138-3.087 3.364-.73 7.054-1.067 11.177-1.067 6.837 0 12.263.898 16.278 2.75 4.015 1.853 5.968 4.322 5.968 7.466v21.216h-9.55v-5.893h-.108c-.434 1.964-2.279 3.536-5.534 4.715-3.364 1.178-7.596 1.74-12.805 1.74zm2.387-3.986c4.666 0 8.465-.617 11.394-1.796 2.93-1.178 4.45-2.75 4.45-4.602v-4.378h-18.231c-3.256 0-5.86.449-7.705 1.403-1.844.954-2.821 2.189-2.821 3.817 0 1.74 1.194 3.087 3.472 4.097 2.17.954 5.426 1.46 9.441 1.46zM508.618 205.784c-4.45 0-8.139-.562-11.069-1.74-2.93-1.123-4.557-2.695-5.1-4.715h-.108v5.893h-9.767v-40.974h9.767v8.98l-.218 7.017h.326c.543-1.965 2.17-3.536 5.1-4.715 2.93-1.179 6.62-1.74 11.069-1.74 5.968 0 10.851 1.01 14.432 3.087 3.581 2.077 5.426 4.883 5.426 8.42v9.036c0 3.536-1.845 6.287-5.426 8.363-3.58 2.077-8.464 3.088-14.432 3.088zm-3.256-4.379c4.124 0 7.38-.617 9.767-1.908 2.387-1.29 3.58-3.087 3.58-5.5v-8.42c0-2.413-1.193-4.21-3.58-5.5-2.388-1.291-5.643-1.909-9.767-1.909-4.015 0-7.162.674-9.44 1.965-2.388 1.29-3.581 3.143-3.581 5.444v8.42c0 2.3 1.193 4.153 3.58 5.444 2.28 1.29 5.426 1.964 9.441 1.964zM631.891 205.784c-5.968 0-10.743-1.01-14.324-3.088-3.69-2.076-5.534-4.827-5.534-8.363v-9.036c0-3.537 1.845-6.343 5.426-8.42 3.58-2.077 8.464-3.087 14.432-3.087 4.45 0 8.14.561 11.069 1.74 2.93 1.179 4.558 2.75 5.1 4.715h.326l-.217-7.016v-8.98h9.766v40.973h-9.766v-5.893h-.109c-.542 2.02-2.17 3.592-5.1 4.715-2.93 1.178-6.62 1.74-11.069 1.74zm3.256-4.379c4.015 0 7.27-.673 9.55-1.964 2.278-1.291 3.472-3.143 3.472-5.445v-8.419c0-2.301-1.194-4.153-3.473-5.444-2.279-1.291-5.534-1.965-9.55-1.965-4.123 0-7.378.618-9.765 1.909-2.388 1.29-3.581 3.087-3.581 5.5v8.42c0 2.413 1.193 4.21 3.58 5.5 2.388 1.291 5.643 1.908 9.767 1.908z"
                fill-rule="nonzero" />
        </g>
        <path
            d="M731.429 185.017c0-23.045-36.172-41.755-80.726-41.755H357.747c-44.554 0-80.726 18.71-80.726 41.755s36.172 41.755 80.726 41.755h292.956c44.554 0 80.726-18.71 80.726-41.755z"
            fill="none" stroke="#000" stroke-width="8.23" />
    </g>
    <g>
        <path d="M115.268 524.044L90.62 571.098" fill="none" stroke="#000" stroke-width="7.15" stroke-linecap="square"
            transform="matrix(.67711 -.04687 .17237 .5524 520.585 295.052)" />
        <path d="M115.268 524.044L90.62 571.098" fill="none" stroke="#000" stroke-width="7.15" stroke-linecap="square"
            transform="matrix(-.67726 -.04733 -.17209 .5533 960.875 294.446)" />
        <path d="M115.268 524.044L90.62 571.098" fill="none" stroke="#000" stroke-width="7.18" stroke-linecap="square"
            transform="matrix(.65148 -.16425 .28483 .46897 472.735 353.976)" />
        <circle cx="154.775" cy="556.848" r="2.753" transform="matrix(.71292 0 0 .71292 600.403 198.305)" />
        <circle cx="154.775" cy="556.848" r="2.753" transform="matrix(.71292 0 0 .71292 628.041 198.305)" />
        <circle cx="154.775" cy="556.848" r="2.753" transform="matrix(.71292 0 0 .71292 614.222 198.305)" />
        <g>
            <path
                d="M553.062 457.389c7.647-10.384 20.819-16.661 34.96-16.661 14.142 0 27.314 6.277 34.961 16.661l33.3 45.219c8.221 11.163 8.804 25.355 1.519 37.003-7.286 11.649-21.276 18.895-36.479 18.895h-66.601c-15.203 0-29.193-7.246-36.479-18.895-7.285-11.648-6.702-25.84 1.519-37.003l33.3-45.219z"
                fill="#fff" stroke="#c1c1c1" stroke-width="3.87"
                transform="matrix(.96244 0 0 1.10253 174.741 -36.06)" />
        </g>
        <g>
            <path
                d="M708.417 543.666c.92-1.284 1.925-1.925 2.994-1.925.984 0 1.84.406 2.567 1.24.727.856 1.09 1.99 1.09 3.444 0 1.71-.556 3.08-1.69 4.106-.962.898-2.031 1.347-3.229 1.347a5.213 5.213 0 01-1.69-.299 8.288 8.288 0 01-1.775-.92v-9.902c0-1.09-.021-1.754-.064-2.01-.064-.257-.15-.428-.256-.514a.658.658 0 00-.407-.128c-.214 0-.449.043-.748.15l-.129-.364 2.866-1.155h.47v6.93zm0 .663v5.732c.342.342.727.598 1.09.79.386.172.77.258 1.177.258.62 0 1.219-.343 1.775-1.048.535-.685.813-1.711.813-3.037 0-1.22-.278-2.16-.813-2.824-.556-.663-1.176-.983-1.882-.983-.364 0-.727.085-1.09.278-.279.15-.642.427-1.07.834zM718.084 545.612c0 1.433.342 2.545 1.048 3.336.684.813 1.518 1.22 2.46 1.22.62 0 1.154-.172 1.625-.514.47-.342.855-.94 1.155-1.775l.342.214c-.15.962-.577 1.818-1.283 2.61-.706.77-1.583 1.175-2.652 1.175-1.134 0-2.118-.449-2.952-1.347-.812-.898-1.219-2.096-1.219-3.614 0-1.626.428-2.91 1.262-3.829.834-.92 1.882-1.369 3.165-1.369 1.07 0 1.947.364 2.631 1.07.684.706 1.048 1.647 1.048 2.823h-6.63zm0-.599h4.427c-.021-.62-.107-1.048-.214-1.305a2.152 2.152 0 00-.77-.92 2.024 2.024 0 00-1.09-.32c-.578 0-1.091.214-1.54.663-.47.45-.728 1.07-.813 1.882zM728.753 538.875v3.144H731v.727h-2.246v6.202c0 .62.086 1.027.279 1.262.17.214.406.321.684.321.214 0 .45-.085.663-.214.214-.15.385-.363.492-.641h.406c-.235.684-.577 1.197-1.026 1.54-.45.342-.899.513-1.37.513a1.89 1.89 0 01-.94-.257c-.321-.171-.535-.428-.685-.77-.15-.32-.214-.834-.214-1.518v-6.438h-1.518v-.342c.385-.15.77-.407 1.176-.792a7.096 7.096 0 001.07-1.283c.15-.278.385-.748.663-1.454h.32zM731.38 542.019h4.021v.385c-.363.021-.62.085-.727.192a.613.613 0 00-.17.45c0 .213.063.47.17.79l2.053 5.497 2.054-4.47-.535-1.411c-.171-.428-.385-.706-.663-.877-.15-.086-.45-.15-.856-.171v-.385h4.556v.385c-.513.021-.855.107-1.07.256-.15.129-.213.3-.213.535 0 .15.021.3.085.428l2.182 5.497 2.01-5.283c.129-.385.214-.685.214-.898 0-.129-.085-.257-.214-.364-.128-.107-.406-.171-.791-.171v-.385h3.016v.385c-.6.085-1.048.492-1.348 1.219l-3.187 8.255h-.427l-2.396-6.116-2.78 6.116h-.385l-3.08-8.041c-.192-.514-.406-.856-.599-1.027-.192-.192-.492-.32-.92-.406v-.385zM748.965 545.612c0 1.433.342 2.545 1.048 3.336.684.813 1.518 1.22 2.46 1.22.62 0 1.154-.172 1.625-.514.47-.342.855-.94 1.155-1.775l.342.214c-.15.962-.578 1.818-1.283 2.61-.706.77-1.583 1.175-2.652 1.175-1.134 0-2.118-.449-2.952-1.347-.813-.898-1.219-2.096-1.219-3.614 0-1.626.428-2.91 1.262-3.829.834-.92 1.882-1.369 3.165-1.369 1.07 0 1.946.364 2.63 1.07.685.706 1.049 1.647 1.049 2.823h-6.63zm0-.599h4.427c-.021-.62-.107-1.048-.214-1.305a2.152 2.152 0 00-.77-.92 2.024 2.024 0 00-1.09-.32c-.578 0-1.091.214-1.54.663-.471.45-.728 1.07-.813 1.882zM758.457 545.612c0 1.433.342 2.545 1.048 3.336.685.813 1.519 1.22 2.46 1.22.62 0 1.155-.172 1.625-.514s.856-.94 1.155-1.775l.342.214c-.15.962-.577 1.818-1.283 2.61-.706.77-1.583 1.175-2.652 1.175-1.134 0-2.117-.449-2.951-1.347-.813-.898-1.22-2.096-1.22-3.614 0-1.626.428-2.91 1.262-3.829.834-.92 1.882-1.369 3.166-1.369 1.07 0 1.946.364 2.63 1.07.685.706 1.048 1.647 1.048 2.823h-6.63zm0-.599h4.427c-.021-.62-.107-1.048-.213-1.305a2.152 2.152 0 00-.77-.92 2.024 2.024 0 00-1.091-.32c-.578 0-1.09.214-1.54.663-.47.45-.727 1.07-.813 1.882zM769.148 543.751c1.112-1.347 2.182-2.01 3.208-2.01.514 0 .963.128 1.348.385.363.256.663.684.898 1.283.15.428.214 1.07.214 1.925v4.085c0 .599.064 1.005.15 1.24a.95.95 0 00.363.407c.171.085.492.128.963.128v.385h-4.748v-.385h.213c.45 0 .749-.064.92-.192.193-.129.3-.343.385-.6.021-.106.043-.427.043-.983v-3.914c0-.877-.129-1.497-.342-1.903-.236-.385-.62-.578-1.155-.578-.813 0-1.647.45-2.46 1.347v5.048c0 .642.022 1.048.107 1.198.107.214.235.342.406.449.172.085.514.128 1.027.128v.385h-4.727v-.385h.214c.492 0 .813-.107.984-.363.171-.236.257-.728.257-1.412v-3.55c0-1.155-.022-1.861-.086-2.096-.043-.257-.128-.428-.235-.514a.689.689 0 00-.428-.15c-.192 0-.428.065-.706.172l-.15-.385 2.888-1.155h.45v2.01zM712.863 574.09c-1.177 0-2.118-.386-2.824-1.177-.727-.791-1.09-1.84-1.09-3.187v-3.443c0-1.347.363-2.417 1.069-3.208.706-.791 1.668-1.176 2.845-1.176.876 0 1.604.213 2.181.663.578.449.898 1.048 1.005 1.796h.064l-.042-2.673v-3.422h1.925v15.613h-1.925v-2.246h-.022c-.107.77-.427 1.369-1.005 1.796-.577.45-1.305.663-2.181.663zm.641-1.669c.791 0 1.433-.256 1.882-.748.45-.492.685-1.198.685-2.075v-3.208c0-.877-.236-1.583-.685-2.075-.449-.492-1.09-.748-1.882-.748-.813 0-1.454.235-1.925.727-.47.492-.706 1.176-.706 2.096v3.208c0 .92.236 1.604.706 2.096s1.112.727 1.925.727zM731.406 572.507c-.984.748-1.605 1.197-1.861 1.304a2.8 2.8 0 01-1.198.257c-.663 0-1.198-.214-1.625-.663-.428-.47-.642-1.048-.642-1.796 0-.471.107-.877.3-1.22.299-.47.79-.92 1.497-1.326.705-.427 1.882-.92 3.529-1.518v-.385c0-.963-.15-1.604-.471-1.968-.3-.342-.727-.534-1.305-.534-.449 0-.791.128-1.048.363-.278.235-.406.513-.406.813l.021.599c0 .32-.085.577-.235.748a.87.87 0 01-.641.257.87.87 0 01-.642-.257c-.15-.192-.235-.427-.235-.748 0-.6.299-1.155.92-1.647.598-.513 1.475-.749 2.566-.749.855 0 1.561.129 2.096.428.406.214.706.535.898 1.005.128.3.193.92.193 1.84v3.25c0 .899.02 1.455.064 1.669.021.214.085.342.17.406.065.086.172.107.279.107a.592.592 0 00.278-.064c.15-.086.428-.342.855-.77v.599c-.791 1.026-1.518 1.561-2.245 1.561-.343 0-.6-.128-.813-.364-.193-.235-.3-.641-.3-1.197zm0-.685v-3.657c-1.048.428-1.733.727-2.054.898-.534.3-.94.62-1.176.963-.235.32-.342.706-.342 1.09 0 .514.15.92.449 1.241.3.342.642.513 1.027.513.534 0 1.219-.363 2.096-1.048zM738.267 566.048c1.113-1.348 2.182-2.01 3.208-2.01.514 0 .963.128 1.348.384.364.257.663.685.898 1.284.15.427.214 1.069.214 1.924v4.085c0 .6.064 1.006.15 1.24a.95.95 0 00.363.407c.171.086.492.129.963.129v.385h-4.748v-.385h.214c.449 0 .748-.065.92-.193.192-.128.299-.342.384-.599.022-.107.043-.427.043-.984v-3.913c0-.877-.128-1.498-.342-1.904-.235-.385-.62-.577-1.155-.577-.813 0-1.647.449-2.46 1.347v5.047c0 .642.022 1.048.107 1.198.107.214.236.342.407.45.17.085.513.128 1.026.128v.385h-4.726v-.385h.213c.492 0 .813-.107.984-.364.171-.235.257-.727.257-1.412v-3.55c0-1.155-.021-1.86-.086-2.096-.042-.257-.128-.428-.235-.513a.689.689 0 00-.428-.15c-.192 0-.427.064-.705.171l-.15-.385 2.887-1.155h.45v2.01zM752.918 572.806c-.47.47-.92.834-1.369 1.048-.45.214-.92.321-1.433.321-1.048 0-1.968-.45-2.738-1.326-.79-.856-1.176-1.99-1.176-3.358 0-1.369.428-2.63 1.305-3.764.855-1.134 1.967-1.711 3.336-1.711.834 0 1.519.278 2.075.813v-1.776c0-1.09-.022-1.753-.064-2.01-.064-.257-.15-.428-.257-.513a.658.658 0 00-.406-.129 2.19 2.19 0 00-.728.15l-.15-.363 2.867-1.155h.47v11.057c0 1.112.022 1.797.064 2.053.065.235.15.407.257.513.107.086.257.15.406.15.193 0 .428-.064.749-.192l.107.363-2.823 1.198h-.492v-1.369zm0-.727v-4.94a3.573 3.573 0 00-.364-1.284 2.266 2.266 0 00-.834-.898c-.342-.193-.684-.3-1.005-.3-.62 0-1.176.279-1.647.835-.642.727-.941 1.775-.941 3.165 0 1.412.3 2.481.92 3.23.599.748 1.283 1.133 2.032 1.133.641 0 1.24-.32 1.839-.941zM767.953 574.09c-.92 0-1.732-.193-2.417-.557a3.699 3.699 0 01-1.604-1.582c-.385-.663-.577-1.455-.577-2.353v-3.208c0-.92.192-1.711.577-2.374a3.77 3.77 0 011.604-1.561c.685-.364 1.498-.556 2.417-.556.92 0 1.733.192 2.417.556.706.363 1.24.898 1.626 1.56.363.664.556 1.455.556 2.375v2.075h-7.315v1.133c0 .92.235 1.626.706 2.117.47.492 1.133.749 2.01.749.749 0 1.348-.128 1.797-.406.449-.257.727-.642.834-1.177h1.925c-.129.984-.599 1.754-1.433 2.332-.856.577-1.882.876-3.123.876zm-2.716-7.08h5.432v-.62c0-.92-.235-1.647-.684-2.139-.47-.492-1.155-.748-2.032-.748s-1.54.256-2.01.748c-.47.492-.706 1.22-.706 2.139v.62z"
                fill="#b12e1e" fill-rule="nonzero" />
        </g>
    </g>
    <g>
        <path d="M115.268 524.044L90.62 571.098" fill="none" stroke="#000" stroke-width="7.15" stroke-linecap="square"
            transform="matrix(.67711 -.04687 .17237 .5524 700.095 295.052)" />
        <path d="M115.268 524.044L90.62 571.098" fill="none" stroke="#000" stroke-width="7.15" stroke-linecap="square"
            transform="matrix(-.67726 -.04733 -.17209 .5533 1140.385 294.446)" />
        <path d="M115.268 524.044L90.62 571.098" fill="none" stroke="#000" stroke-width="7.18" stroke-linecap="square"
            transform="matrix(.65148 -.16425 .28483 .46897 652.245 353.976)" />
        <circle cx="154.775" cy="556.848" r="2.753" transform="matrix(.71292 0 0 .71292 779.913 198.305)" />
        <circle cx="154.775" cy="556.848" r="2.753" transform="matrix(.71292 0 0 .71292 807.551 198.305)" />
        <circle cx="154.775" cy="556.848" r="2.753" transform="matrix(.71292 0 0 .71292 793.732 198.305)" />
        <g>
            <path
                d="M553.062 457.389c7.647-10.384 20.819-16.661 34.96-16.661 14.142 0 27.314 6.277 34.961 16.661l33.3 45.219c8.221 11.163 8.804 25.355 1.519 37.003-7.286 11.649-21.276 18.895-36.479 18.895h-66.601c-15.203 0-29.193-7.246-36.479-18.895-7.285-11.648-6.702-25.84 1.519-37.003l33.3-45.219z"
                fill="#fff" stroke="#c1c1c1" stroke-width="3.87"
                transform="matrix(.96244 0 0 1.10253 354.251 -36.06)" />
        </g>
        <g>
            <path
                d="M894.595 548.093a3.192 3.192 0 01-1.348-1.198 3.1 3.1 0 01-.47-1.69c0-.962.363-1.775 1.07-2.459.705-.663 1.625-1.005 2.737-1.005.92 0 1.71.214 2.374.663h2.032c.3 0 .47 0 .513.021.043.022.086.043.107.086.043.064.064.17.064.342 0 .171-.021.3-.064.364 0 .042-.043.064-.107.085-.043.021-.214.043-.513.043h-1.24c.384.492.577 1.133.577 1.925 0 .877-.343 1.647-1.027 2.288-.684.62-1.604.941-2.738.941-.47 0-.962-.064-1.454-.214-.32.278-.513.492-.62.706-.107.193-.171.364-.171.492s.064.235.17.342c.13.129.343.193.685.257.193.021.685.043 1.455.064 1.433.043 2.374.086 2.78.15.663.085 1.176.32 1.561.727.385.385.578.855.578 1.433 0 .791-.364 1.518-1.112 2.224-1.07 1.005-2.503 1.519-4.235 1.519-1.348 0-2.481-.3-3.422-.92-.513-.342-.77-.706-.77-1.07 0-.17.043-.341.107-.513.128-.256.363-.62.727-1.069.064-.064.406-.45 1.07-1.133-.364-.214-.62-.407-.77-.578a.843.843 0 01-.214-.577c0-.236.085-.535.299-.856.192-.32.642-.791 1.369-1.39zm1.818-5.86c-.514 0-.941.214-1.305.62-.342.406-.513 1.027-.513 1.882 0 1.112.235 1.946.706 2.567.363.449.812.684 1.39.684.513 0 .962-.193 1.304-.599.343-.385.492-1.005.492-1.86 0-1.113-.235-1.968-.705-2.61-.364-.449-.813-.684-1.37-.684zm-1.925 9.346c-.321.364-.578.684-.749.984-.15.32-.235.599-.235.855 0 .343.193.62.599.877.684.428 1.71.642 3.016.642 1.261 0 2.181-.214 2.78-.663.599-.428.877-.92.877-1.412 0-.363-.171-.62-.514-.77-.363-.15-1.09-.235-2.16-.278-1.56-.042-2.78-.107-3.614-.235zM905.524 541.74v2.14c.813-1.433 1.625-2.14 2.46-2.14.384 0 .705.108.962.343.235.235.363.492.363.813 0 .256-.085.492-.256.684a.89.89 0 01-.663.278c-.236 0-.514-.107-.813-.363-.3-.236-.535-.364-.663-.364s-.278.086-.406.214c-.321.3-.642.77-.984 1.411v4.599c0 .513.064.92.192 1.197.107.172.257.343.492.471.235.107.556.171.984.171v.385h-4.898v-.385c.492 0 .856-.064 1.091-.214.171-.128.3-.3.364-.534.042-.129.064-.471.064-1.027v-3.7c0-1.112-.043-1.775-.086-1.99a.889.889 0 00-.235-.47.822.822 0 00-.47-.15c-.214 0-.45.065-.728.172l-.107-.385 2.91-1.155h.427zM911.448 545.612c0 1.433.342 2.545 1.048 3.336.685.813 1.519 1.22 2.46 1.22.62 0 1.155-.172 1.625-.514s.856-.94 1.155-1.775l.342.214c-.15.962-.577 1.818-1.283 2.61-.706.77-1.583 1.175-2.652 1.175-1.134 0-2.117-.449-2.951-1.347-.813-.898-1.22-2.096-1.22-3.614 0-1.626.428-2.91 1.262-3.829.834-.92 1.882-1.369 3.166-1.369 1.069 0 1.946.364 2.63 1.07.685.706 1.048 1.647 1.048 2.823h-6.63zm0-.599h4.427c-.021-.62-.107-1.048-.213-1.305a2.152 2.152 0 00-.77-.92 2.024 2.024 0 00-1.091-.32c-.578 0-1.091.214-1.54.663-.47.45-.727 1.07-.813 1.882zM924.77 550.21c-.985.749-1.605 1.198-1.862 1.305a2.8 2.8 0 01-1.197.257c-.663 0-1.198-.214-1.626-.663-.428-.471-.641-1.048-.641-1.797 0-.47.106-.877.299-1.22.3-.47.791-.919 1.497-1.325.706-.428 1.882-.92 3.53-1.519v-.385c0-.962-.15-1.604-.471-1.967-.3-.342-.728-.535-1.305-.535-.45 0-.791.128-1.048.364-.278.235-.406.513-.406.812l.02.6c0 .32-.085.577-.234.748a.87.87 0 01-.642.256.87.87 0 01-.642-.256c-.15-.193-.235-.428-.235-.749 0-.599.3-1.155.92-1.647.599-.513 1.476-.748 2.566-.748.856 0 1.562.128 2.096.428.407.213.706.534.899 1.005.128.3.192.92.192 1.84v3.25c0 .898.021 1.454.064 1.668.022.214.086.342.171.407.064.085.171.107.278.107a.592.592 0 00.278-.065c.15-.085.428-.342.856-.77v.6c-.791 1.026-1.519 1.56-2.246 1.56-.342 0-.599-.128-.813-.363-.192-.235-.299-.642-.299-1.198zm0-.684v-3.657c-1.049.427-1.733.727-2.054.898-.535.3-.941.62-1.176.962-.236.321-.343.706-.343 1.091 0 .513.15.92.45 1.24.299.343.641.514 1.026.514.535 0 1.22-.364 2.096-1.048zM931.61 538.875v3.144h2.246v.727h-2.246v6.202c0 .62.086 1.027.278 1.262.171.214.407.321.685.321.214 0 .449-.085.663-.214.214-.15.385-.363.492-.641h.406c-.235.684-.578 1.197-1.027 1.54-.449.342-.898.513-1.368.513a1.89 1.89 0 01-.942-.257c-.32-.171-.534-.428-.684-.77-.15-.32-.214-.834-.214-1.518v-6.438h-1.518v-.342c.385-.15.77-.407 1.176-.792a7.096 7.096 0 001.07-1.283c.15-.278.384-.748.662-1.454h.321zM936.376 545.612c0 1.433.342 2.545 1.048 3.336.684.813 1.519 1.22 2.46 1.22.62 0 1.155-.172 1.625-.514s.856-.94 1.155-1.775l.342.214c-.15.962-.577 1.818-1.283 2.61-.706.77-1.583 1.175-2.652 1.175-1.134 0-2.117-.449-2.952-1.347-.812-.898-1.219-2.096-1.219-3.614 0-1.626.428-2.91 1.262-3.829.834-.92 1.882-1.369 3.166-1.369 1.069 0 1.946.364 2.63 1.07.685.706 1.048 1.647 1.048 2.823h-6.63zm0-.599h4.427c-.021-.62-.107-1.048-.214-1.305a2.152 2.152 0 00-.77-.92 2.024 2.024 0 00-1.09-.32c-.578 0-1.091.214-1.54.663-.47.45-.727 1.07-.813 1.882zM947.066 541.74v2.14c.813-1.433 1.626-2.14 2.46-2.14.385 0 .706.108.962.343.236.235.364.492.364.813 0 .256-.086.492-.257.684a.89.89 0 01-.663.278c-.235 0-.513-.107-.813-.363-.299-.236-.534-.364-.663-.364-.128 0-.278.086-.406.214-.32.3-.642.77-.984 1.411v4.599c0 .513.064.92.193 1.197.107.172.256.343.492.471.235.107.556.171.984.171v.385h-4.898v-.385c.492 0 .855-.064 1.09-.214.172-.128.3-.3.364-.534.043-.129.064-.471.064-1.027v-3.7c0-1.112-.043-1.775-.085-1.99a.889.889 0 00-.236-.47.822.822 0 00-.47-.15c-.214 0-.45.065-.727.172l-.107-.385 2.909-1.155h.427zM896.987 561.171v3.144h2.245v.728h-2.245v6.202c0 .62.085 1.027.278 1.262.17.214.406.32.684.32.214 0 .45-.085.663-.213.214-.15.385-.364.492-.642h.406c-.235.684-.577 1.198-1.026 1.54-.45.342-.899.513-1.369.513a1.89 1.89 0 01-.941-.256c-.32-.171-.535-.428-.684-.77-.15-.321-.214-.834-.214-1.519v-6.437h-1.519v-.343c.385-.15.77-.406 1.176-.791a7.096 7.096 0 001.07-1.283c.15-.278.385-.749.663-1.455h.32zM902.972 559.033v6.993c.77-.855 1.368-1.39 1.839-1.646.449-.236.898-.343 1.347-.343.535 0 1.006.15 1.39.45.407.299.685.77.877 1.39.129.449.193 1.262.193 2.46v3.378c0 .6.064 1.027.15 1.24.064.172.192.3.363.407.15.086.47.129.92.129v.385h-4.705v-.385h.213c.45 0 .749-.065.942-.193.17-.128.278-.342.363-.599.022-.107.022-.449.022-.984v-3.379c0-1.048-.043-1.732-.15-2.053-.107-.342-.278-.577-.535-.749-.235-.17-.513-.235-.855-.235-.343 0-.685.086-1.048.257-.385.192-.813.556-1.326 1.112v5.047c0 .663.021 1.07.107 1.22.064.17.192.299.406.406.192.107.535.15 1.026.15v.385h-4.748v-.385c.428 0 .77-.065 1.006-.193.15-.064.256-.192.342-.385.085-.214.128-.599.128-1.198v-8.662c0-1.09-.043-1.753-.085-2.01-.065-.257-.129-.428-.236-.513-.107-.086-.256-.129-.449-.129-.128 0-.385.043-.706.15l-.15-.363 2.867-1.155h.492zM916.275 572.507c-.984.748-1.604 1.197-1.861 1.304a2.8 2.8 0 01-1.198.257c-.663 0-1.197-.214-1.625-.663-.428-.47-.642-1.048-.642-1.796 0-.471.107-.877.3-1.22.299-.47.79-.92 1.497-1.326.705-.427 1.882-.92 3.529-1.518v-.385c0-.963-.15-1.604-.47-1.968-.3-.342-.728-.534-1.306-.534-.449 0-.79.128-1.048.363-.278.235-.406.513-.406.813l.022.599c0 .32-.086.577-.236.748a.87.87 0 01-.641.257.87.87 0 01-.642-.257c-.15-.192-.235-.427-.235-.748 0-.6.3-1.155.92-1.647.598-.513 1.475-.749 2.566-.749.855 0 1.561.129 2.096.428.406.214.706.535.898 1.005.128.3.193.92.193 1.84v3.25c0 .899.021 1.455.064 1.669.021.214.085.342.17.406.065.086.172.107.279.107a.592.592 0 00.278-.064c.15-.086.428-.342.855-.77v.599c-.79 1.026-1.518 1.561-2.245 1.561-.342 0-.6-.128-.813-.364-.192-.235-.3-.641-.3-1.197zm0-.685v-3.657c-1.048.428-1.733.727-2.054.898-.534.3-.94.62-1.176.963-.235.32-.342.706-.342 1.09 0 .514.15.92.45 1.241.298.342.64.513 1.026.513.534 0 1.219-.363 2.096-1.048zM923.137 566.048c1.112-1.348 2.182-2.01 3.208-2.01.514 0 .963.128 1.348.384.363.257.663.685.898 1.284.15.427.214 1.069.214 1.924v4.085c0 .6.064 1.006.15 1.24a.95.95 0 00.363.407c.171.086.492.129.963.129v.385h-4.748v-.385h.213c.45 0 .749-.065.92-.193.193-.128.3-.342.385-.599.021-.107.043-.427.043-.984v-3.913c0-.877-.128-1.498-.342-1.904-.236-.385-.62-.577-1.155-.577-.813 0-1.647.449-2.46 1.347v5.047c0 .642.022 1.048.107 1.198.107.214.235.342.406.45.172.085.514.128 1.027.128v.385h-4.727v-.385h.214c.492 0 .813-.107.984-.364.171-.235.257-.727.257-1.412v-3.55c0-1.155-.022-1.86-.086-2.096-.043-.257-.128-.428-.235-.513a.689.689 0 00-.428-.15c-.192 0-.428.064-.706.171l-.15-.385 2.888-1.155h.45v2.01zM942.13 574.09c-.92 0-1.733-.193-2.417-.557a3.699 3.699 0 01-1.605-1.582c-.385-.663-.577-1.455-.577-2.353v-3.208c0-.92.192-1.711.577-2.374a3.77 3.77 0 011.605-1.561c.684-.364 1.497-.556 2.416-.556.92 0 1.733.192 2.417.556.706.363 1.24.898 1.626 1.56.363.664.556 1.455.556 2.375v2.075h-7.315v1.133c0 .92.235 1.626.706 2.117.47.492 1.133.749 2.01.749.749 0 1.348-.128 1.797-.406.449-.257.727-.642.834-1.177h1.925c-.128.984-.599 1.754-1.433 2.332-.856.577-1.882.876-3.123.876zm-2.717-7.08h5.433v-.62c0-.92-.236-1.647-.685-2.139-.47-.492-1.155-.748-2.032-.748s-1.54.256-2.01.748c-.47.492-.706 1.22-.706 2.139v.62z"
                fill="#b12e1e" fill-rule="nonzero" />
        </g>
    </g>
    <g>
        <path d="M115.268 524.044L90.62 571.098" fill="none" stroke="#000" stroke-width="7.15" stroke-linecap="square"
            transform="matrix(.67711 -.04687 .17237 .5524 341.076 295.052)" />
        <path d="M115.268 524.044L90.62 571.098" fill="none" stroke="#000" stroke-width="7.15" stroke-linecap="square"
            transform="matrix(-.67726 -.04733 -.17209 .5533 781.366 294.446)" />
        <path d="M115.268 524.044L90.62 571.098" fill="none" stroke="#000" stroke-width="7.18" stroke-linecap="square"
            transform="matrix(.65148 -.16425 .28483 .46897 293.226 353.975)" />
        <circle cx="154.775" cy="556.848" r="2.753" transform="matrix(.71292 0 0 .71292 420.894 198.306)" />
        <circle cx="154.775" cy="556.848" r="2.753" transform="matrix(.71292 0 0 .71292 448.532 198.306)" />
        <circle cx="154.775" cy="556.848" r="2.753" transform="matrix(.71292 0 0 .71292 434.713 198.306)" />
        <g>
            <path
                d="M553.062 457.389c7.647-10.384 20.819-16.661 34.96-16.661 14.142 0 27.314 6.277 34.961 16.661l33.3 45.219c8.221 11.163 8.804 25.355 1.519 37.003-7.286 11.649-21.276 18.895-36.479 18.895h-66.601c-15.203 0-29.193-7.246-36.479-18.895-7.285-11.648-6.702-25.84 1.519-37.003l33.3-45.219z"
                fill="#fff" stroke="#c1c1c1" stroke-width="3.87"
                transform="matrix(.96244 0 0 1.10253 -4.768 -36.059)" />
        </g>
        <g>
            <path
                d="M528.908 545.17c.92-1.283 1.924-1.924 2.994-1.924.984 0 1.84.406 2.566 1.24.728.856 1.091 1.99 1.091 3.444 0 1.71-.556 3.08-1.69 4.106-.962.898-2.031 1.347-3.229 1.347a5.213 5.213 0 01-1.69-.299 8.288 8.288 0 01-1.775-.92v-9.902c0-1.09-.021-1.754-.064-2.01-.064-.257-.15-.428-.257-.514a.658.658 0 00-.406-.128c-.214 0-.45.043-.749.15l-.128-.364 2.866-1.155h.47v6.93zm0 .664v5.731c.342.343.727.6 1.09.792.385.17.77.256 1.177.256.62 0 1.219-.342 1.775-1.048.535-.684.813-1.71.813-3.037 0-1.219-.278-2.16-.813-2.823-.556-.663-1.176-.984-1.882-.984-.364 0-.727.086-1.091.278-.278.15-.642.428-1.07.835zM538.575 547.117c0 1.433.342 2.545 1.048 3.336.684.813 1.518 1.22 2.46 1.22.62 0 1.154-.172 1.625-.514.47-.342.855-.941 1.155-1.775l.342.214c-.15.962-.578 1.818-1.283 2.61-.706.769-1.583 1.175-2.652 1.175-1.134 0-2.118-.449-2.952-1.347-.813-.898-1.219-2.096-1.219-3.615 0-1.625.428-2.908 1.262-3.828.834-.92 1.882-1.369 3.165-1.369 1.07 0 1.946.364 2.63 1.07.685.705 1.049 1.647 1.049 2.823h-6.63zm0-.599h4.427c-.021-.62-.107-1.048-.214-1.305a2.152 2.152 0 00-.77-.92 2.024 2.024 0 00-1.09-.32c-.578 0-1.091.214-1.54.663-.471.449-.728 1.07-.813 1.882zM549.244 540.38v3.144h2.246v.727h-2.246v6.202c0 .62.086 1.027.278 1.262.171.214.407.321.685.321.214 0 .449-.086.663-.214.214-.15.385-.363.492-.642h.406c-.235.685-.577 1.198-1.027 1.54-.449.343-.898.514-1.368.514a1.89 1.89 0 01-.941-.257c-.321-.171-.535-.428-.685-.77-.15-.32-.214-.834-.214-1.518v-6.438h-1.518v-.342c.385-.15.77-.407 1.176-.792a7.096 7.096 0 001.07-1.283c.15-.278.384-.748.662-1.454h.321zM551.871 543.524h4.021v.385c-.363.021-.62.085-.727.192a.613.613 0 00-.171.45c0 .213.064.47.171.79l2.053 5.497 2.053-4.47-.534-1.411c-.171-.428-.385-.706-.663-.877-.15-.086-.45-.15-.856-.171v-.385h4.556v.385c-.513.021-.856.107-1.07.256-.15.129-.213.3-.213.535 0 .15.021.3.085.428l2.182 5.496 2.01-5.282c.128-.385.214-.685.214-.899 0-.128-.086-.256-.214-.363-.128-.107-.406-.171-.791-.171v-.385h3.015v.385c-.598.085-1.048.492-1.347 1.219l-3.187 8.255h-.428l-2.395-6.116-2.78 6.116h-.385l-3.08-8.041c-.193-.514-.406-.856-.599-1.027-.192-.192-.492-.32-.92-.406v-.385zM569.456 547.117c0 1.433.342 2.545 1.048 3.336.684.813 1.518 1.22 2.46 1.22.62 0 1.154-.172 1.625-.514.47-.342.855-.941 1.154-1.775l.343.214c-.15.962-.578 1.818-1.284 2.61-.705.769-1.582 1.175-2.652 1.175-1.133 0-2.117-.449-2.951-1.347-.813-.898-1.22-2.096-1.22-3.615 0-1.625.429-2.908 1.263-3.828.834-.92 1.882-1.369 3.165-1.369 1.07 0 1.946.364 2.63 1.07.685.705 1.049 1.647 1.049 2.823h-6.63zm0-.599h4.427c-.022-.62-.107-1.048-.214-1.305a2.152 2.152 0 00-.77-.92 2.024 2.024 0 00-1.09-.32c-.578 0-1.092.214-1.54.663-.471.449-.728 1.07-.813 1.882zM578.948 547.117c0 1.433.342 2.545 1.048 3.336.684.813 1.519 1.22 2.46 1.22.62 0 1.154-.172 1.625-.514.47-.342.856-.941 1.155-1.775l.342.214c-.15.962-.577 1.818-1.283 2.61-.706.769-1.583 1.175-2.652 1.175-1.134 0-2.118-.449-2.952-1.347-.812-.898-1.219-2.096-1.219-3.615 0-1.625.428-2.908 1.262-3.828.834-.92 1.882-1.369 3.165-1.369 1.07 0 1.947.364 2.631 1.07.685.705 1.048 1.647 1.048 2.823h-6.63zm0-.599h4.427c-.021-.62-.107-1.048-.214-1.305a2.152 2.152 0 00-.77-.92 2.024 2.024 0 00-1.09-.32c-.578 0-1.091.214-1.54.663-.47.449-.727 1.07-.813 1.882zM589.639 545.256c1.112-1.347 2.181-2.01 3.208-2.01.513 0 .963.128 1.347.385.364.256.663.684.899 1.283.15.428.214 1.07.214 1.925v4.085c0 .599.064 1.005.15 1.24a.95.95 0 00.363.407c.171.085.492.128.962.128v.385h-4.748v-.385h.214c.45 0 .749-.064.92-.193.192-.128.3-.342.385-.598.021-.107.043-.428.043-.984v-3.914c0-.877-.129-1.497-.343-1.904-.235-.385-.62-.577-1.154-.577-.813 0-1.647.45-2.46 1.347v5.048c0 .641.021 1.048.107 1.198.107.213.235.342.406.449.171.085.514.128 1.027.128v.385h-4.727v-.385h.214c.492 0 .813-.107.984-.364.171-.235.257-.727.257-1.411v-3.55c0-1.155-.022-1.861-.086-2.096-.043-.257-.128-.428-.235-.514a.689.689 0 00-.428-.15c-.193 0-.428.065-.706.172l-.15-.385 2.888-1.155h.449v2.01zM534.123 575.594c-1.433 0-2.566-.406-3.4-1.197-.856-.792-1.284-1.904-1.284-3.294v-3.208c0-1.39.428-2.503 1.284-3.294.834-.791 1.967-1.198 3.4-1.198 1.348 0 2.438.364 3.273 1.091.834.727 1.261 1.711 1.304 2.973h-1.925c-.042-.748-.3-1.347-.748-1.754-.47-.385-1.112-.599-1.904-.599-.834 0-1.518.236-2.01.706-.492.492-.749 1.177-.749 2.053v3.23c0 .877.257 1.561.749 2.053s1.176.727 2.01.727c.792 0 1.433-.214 1.904-.62.449-.406.706-.984.748-1.732h1.925c-.043 1.262-.47 2.245-1.304 2.973-.835.727-1.925 1.09-3.273 1.09zM551.896 574.012c-.983.748-1.604 1.197-1.86 1.304a2.8 2.8 0 01-1.198.257c-.663 0-1.198-.214-1.626-.663-.427-.47-.641-1.048-.641-1.797 0-.47.107-.877.3-1.219.299-.47.79-.92 1.496-1.326.706-.427 1.882-.92 3.53-1.518v-.385c0-.963-.15-1.604-.471-1.968-.3-.342-.727-.535-1.305-.535-.449 0-.791.129-1.048.364-.278.235-.406.513-.406.813l.021.599c0 .32-.085.577-.235.748a.87.87 0 01-.642.257.87.87 0 01-.641-.257c-.15-.192-.236-.428-.236-.748 0-.6.3-1.155.92-1.647.599-.514 1.476-.749 2.567-.749.855 0 1.56.129 2.096.428.406.214.705.535.898 1.005.128.3.192.92.192 1.84v3.25c0 .899.022 1.455.065 1.669.02.214.085.342.17.406.065.086.172.107.279.107a.592.592 0 00.278-.064c.15-.086.427-.342.855-.77v.599c-.791 1.026-1.518 1.561-2.246 1.561-.342 0-.598-.128-.812-.364-.193-.235-.3-.641-.3-1.197zm0-.685v-3.657c-1.048.428-1.732.727-2.053.898-.535.3-.94.62-1.176.963-.235.32-.342.705-.342 1.09 0 .514.15.92.449 1.241.3.342.641.513 1.026.513.535 0 1.22-.363 2.096-1.048zM558.758 567.553c1.112-1.348 2.182-2.01 3.208-2.01.514 0 .963.128 1.348.384.363.257.663.685.898 1.283.15.428.214 1.07.214 1.925v4.085c0 .6.064 1.006.15 1.24a.95.95 0 00.363.407c.171.086.492.128.963.128v.385h-4.748v-.385h.213c.45 0 .749-.064.92-.192.193-.128.3-.342.385-.599.021-.107.043-.428.043-.984v-3.914c0-.876-.128-1.497-.342-1.903-.236-.385-.62-.578-1.155-.578-.813 0-1.647.45-2.46 1.348v5.047c0 .642.022 1.048.107 1.198.107.214.235.342.406.45.172.085.514.127 1.027.127v.385h-4.727v-.385h.214c.492 0 .813-.106.984-.363.171-.235.257-.727.257-1.412v-3.55c0-1.155-.022-1.86-.086-2.096-.043-.257-.128-.428-.235-.513a.689.689 0 00-.428-.15c-.192 0-.428.064-.706.171l-.15-.385 2.888-1.155h.45v2.01zM573.409 574.311c-.47.47-.92.834-1.37 1.048-.448.214-.919.32-1.432.32-1.048 0-1.968-.448-2.738-1.325-.791-.856-1.176-1.99-1.176-3.358 0-1.369.428-2.63 1.305-3.764.855-1.134 1.967-1.711 3.336-1.711.834 0 1.519.278 2.075.813v-1.776c0-1.09-.022-1.753-.065-2.01-.064-.257-.15-.428-.256-.513a.658.658 0 00-.407-.129 2.19 2.19 0 00-.727.15l-.15-.364 2.867-1.154h.47v11.057c0 1.112.021 1.796.064 2.053.064.235.15.406.257.513.107.086.256.15.406.15.193 0 .428-.064.749-.192l.107.363-2.823 1.198h-.492v-1.369zm0-.727v-4.94a3.573 3.573 0 00-.364-1.284 2.266 2.266 0 00-.834-.898c-.342-.193-.684-.3-1.005-.3-.62 0-1.177.278-1.647.835-.642.727-.941 1.775-.941 3.165 0 1.411.3 2.48.92 3.23.598.748 1.283 1.133 2.031 1.133.642 0 1.24-.32 1.84-.941zM587.76 575.594c-1.177 0-2.118-.385-2.823-1.176-.728-.791-1.091-1.84-1.091-3.187v-3.443c0-1.348.363-2.417 1.07-3.208.705-.792 1.667-1.177 2.844-1.177.877 0 1.604.214 2.181.663.578.45.898 1.048 1.005 1.797h.065l-.043-2.673v-3.422h1.925v15.612h-1.925v-2.245h-.022c-.107.77-.427 1.369-1.005 1.796-.577.45-1.304.663-2.181.663zm.641-1.668c.792 0 1.433-.257 1.882-.748.45-.492.685-1.198.685-2.075v-3.208c0-.877-.235-1.583-.685-2.075-.449-.492-1.09-.748-1.882-.748-.812 0-1.454.235-1.925.727-.47.492-.705 1.176-.705 2.096v3.208c0 .92.235 1.604.705 2.096.471.492 1.113.727 1.925.727z"
                fill="#b12e1e" fill-rule="nonzero" />
        </g>
    </g>
    <g>
        <path d="M115.268 524.044L90.62 571.098" fill="none" stroke="#000" stroke-width="7.15" stroke-linecap="square"
            transform="matrix(.67711 -.04687 .17237 .5524 161.567 295.052)" />
        <path d="M115.268 524.044L90.62 571.098" fill="none" stroke="#000" stroke-width="7.15" stroke-linecap="square"
            transform="matrix(-.67726 -.04733 -.17209 .5533 601.856 294.446)" />
        <path d="M115.268 524.044L90.62 571.098" fill="none" stroke="#000" stroke-width="7.18" stroke-linecap="square"
            transform="matrix(.65148 -.16425 .28483 .46897 113.716 353.975)" />
        <circle cx="154.775" cy="556.848" r="2.753" transform="matrix(.71292 0 0 .71292 241.385 198.306)" />
        <circle cx="154.775" cy="556.848" r="2.753" transform="matrix(.71292 0 0 .71292 269.023 198.306)" />
        <circle cx="154.775" cy="556.848" r="2.753" transform="matrix(.71292 0 0 .71292 255.204 198.306)" />
        <g>
            <path
                d="M553.062 457.389c7.647-10.384 20.819-16.661 34.96-16.661 14.142 0 27.314 6.277 34.961 16.661l33.3 45.219c8.221 11.163 8.804 25.355 1.519 37.003-7.286 11.649-21.276 18.895-36.479 18.895h-66.601c-15.203 0-29.193-7.246-36.479-18.895-7.285-11.648-6.702-25.84 1.519-37.003l33.3-45.219z"
                fill="#fff" stroke="#c1c1c1" stroke-width="3.87"
                transform="matrix(.96244 0 0 1.10253 -184.278 -36.059)" />
        </g>
        <g>
            <path
                d="M349.398 545.17c.92-1.283 1.925-1.924 2.994-1.924.984 0 1.84.406 2.567 1.24.727.856 1.09 1.99 1.09 3.444 0 1.71-.556 3.08-1.69 4.106-.962.898-2.03 1.347-3.229 1.347a5.213 5.213 0 01-1.69-.299 8.288 8.288 0 01-1.774-.92v-9.902c0-1.09-.022-1.754-.065-2.01-.064-.257-.15-.428-.256-.514a.658.658 0 00-.407-.128c-.213 0-.449.043-.748.15l-.128-.364 2.865-1.155h.471v6.93zm0 .664v5.731c.342.343.727.6 1.09.792.386.17.77.256 1.177.256.62 0 1.22-.342 1.775-1.048.535-.684.813-1.71.813-3.037 0-1.219-.278-2.16-.813-2.823-.556-.663-1.176-.984-1.882-.984-.363 0-.727.086-1.09.278-.279.15-.642.428-1.07.835zM359.065 547.117c0 1.433.342 2.545 1.048 3.336.685.813 1.519 1.22 2.46 1.22.62 0 1.155-.172 1.625-.514s.856-.941 1.155-1.775l.342.214c-.15.962-.577 1.818-1.283 2.61-.706.769-1.583 1.175-2.652 1.175-1.134 0-2.117-.449-2.951-1.347-.813-.898-1.22-2.096-1.22-3.615 0-1.625.428-2.908 1.262-3.828.834-.92 1.882-1.369 3.166-1.369 1.069 0 1.946.364 2.63 1.07.685.705 1.048 1.647 1.048 2.823h-6.63zm0-.599h4.427c-.021-.62-.107-1.048-.214-1.305a2.152 2.152 0 00-.77-.92 2.024 2.024 0 00-1.09-.32c-.578 0-1.091.214-1.54.663-.47.449-.727 1.07-.813 1.882zM369.735 540.38v3.144h2.245v.727h-2.245v6.202c0 .62.085 1.027.278 1.262.17.214.406.321.684.321.214 0 .45-.086.663-.214.214-.15.385-.363.492-.642h.406c-.235.685-.577 1.198-1.026 1.54-.45.343-.898.514-1.369.514a1.89 1.89 0 01-.941-.257c-.32-.171-.535-.428-.684-.77-.15-.32-.214-.834-.214-1.518v-6.438h-1.519v-.342c.385-.15.77-.407 1.176-.792a7.096 7.096 0 001.07-1.283c.15-.278.385-.748.663-1.454h.32zM372.362 543.524h4.02v.385c-.363.021-.62.085-.727.192a.613.613 0 00-.17.45c0 .213.064.47.17.79l2.054 5.497 2.053-4.47-.535-1.411c-.17-.428-.385-.706-.663-.877-.15-.086-.449-.15-.855-.171v-.385h4.555v.385c-.513.021-.855.107-1.07.256-.149.129-.213.3-.213.535 0 .15.021.3.086.428l2.181 5.496 2.01-5.282c.129-.385.214-.685.214-.899 0-.128-.085-.256-.214-.363-.128-.107-.406-.171-.79-.171v-.385h3.015v.385c-.6.085-1.048.492-1.348 1.219l-3.186 8.255h-.428l-2.396-6.116-2.78 6.116h-.385l-3.08-8.041c-.192-.514-.406-.856-.599-1.027-.192-.192-.491-.32-.92-.406v-.385zM389.946 547.117c0 1.433.342 2.545 1.048 3.336.684.813 1.518 1.22 2.46 1.22.62 0 1.154-.172 1.625-.514.47-.342.855-.941 1.155-1.775l.342.214c-.15.962-.577 1.818-1.283 2.61-.706.769-1.583 1.175-2.652 1.175-1.134 0-2.118-.449-2.952-1.347-.812-.898-1.219-2.096-1.219-3.615 0-1.625.428-2.908 1.262-3.828.834-.92 1.882-1.369 3.165-1.369 1.07 0 1.947.364 2.631 1.07.684.705 1.048 1.647 1.048 2.823h-6.63zm0-.599h4.427c-.021-.62-.107-1.048-.214-1.305a2.152 2.152 0 00-.77-.92 2.024 2.024 0 00-1.09-.32c-.578 0-1.091.214-1.54.663-.47.449-.728 1.07-.813 1.882zM399.438 547.117c0 1.433.343 2.545 1.048 3.336.685.813 1.519 1.22 2.46 1.22.62 0 1.155-.172 1.625-.514.471-.342.856-.941 1.155-1.775l.343.214c-.15.962-.578 1.818-1.284 2.61-.705.769-1.582 1.175-2.652 1.175-1.133 0-2.117-.449-2.951-1.347-.813-.898-1.22-2.096-1.22-3.615 0-1.625.428-2.908 1.263-3.828.834-.92 1.882-1.369 3.165-1.369 1.07 0 1.946.364 2.63 1.07.685.705 1.049 1.647 1.049 2.823h-6.63zm0-.599h4.428c-.022-.62-.107-1.048-.214-1.305a2.152 2.152 0 00-.77-.92 2.024 2.024 0 00-1.091-.32c-.577 0-1.09.214-1.54.663-.47.449-.727 1.07-.813 1.882zM410.13 545.256c1.111-1.347 2.18-2.01 3.207-2.01.514 0 .963.128 1.348.385.363.256.663.684.898 1.283.15.428.214 1.07.214 1.925v4.085c0 .599.064 1.005.15 1.24a.95.95 0 00.363.407c.171.085.492.128.963.128v.385h-4.748v-.385h.214c.449 0 .748-.064.92-.193.192-.128.299-.342.384-.598.022-.107.043-.428.043-.984v-3.914c0-.877-.128-1.497-.342-1.904-.235-.385-.62-.577-1.155-.577-.813 0-1.647.45-2.46 1.347v5.048c0 .641.022 1.048.107 1.198.107.213.236.342.407.449.17.085.513.128 1.026.128v.385h-4.726v-.385h.213c.492 0 .813-.107.984-.364.171-.235.257-.727.257-1.411v-3.55c0-1.155-.021-1.861-.086-2.096-.042-.257-.128-.428-.235-.514a.689.689 0 00-.428-.15c-.192 0-.427.065-.705.172l-.15-.385 2.887-1.155h.45v2.01zM355.213 575.594c-.877 0-1.605-.214-2.182-.663-.577-.427-.898-1.026-1.005-1.796h-.022v2.245h-1.924v-15.612h1.924v3.422l-.042 2.673h.064c.107-.749.428-1.347 1.005-1.797.577-.449 1.305-.663 2.182-.663 1.176 0 2.138.385 2.844 1.177.706.791 1.07 1.86 1.07 3.208v3.443c0 1.348-.364 2.396-1.07 3.187-.706.791-1.668 1.176-2.844 1.176zm-.642-1.668c.813 0 1.454-.235 1.925-.727.47-.492.706-1.176.706-2.096v-3.208c0-.92-.236-1.604-.706-2.096s-1.112-.727-1.925-.727c-.791 0-1.412.256-1.86.748-.471.492-.707 1.198-.707 2.075v3.208c0 .877.236 1.583.706 2.075.45.491 1.07.748 1.86.748zM372.387 574.012c-.984.748-1.604 1.197-1.861 1.304a2.8 2.8 0 01-1.198.257c-.663 0-1.197-.214-1.625-.663-.428-.47-.642-1.048-.642-1.797 0-.47.107-.877.3-1.219.3-.47.791-.92 1.497-1.326.706-.427 1.882-.92 3.529-1.518v-.385c0-.963-.15-1.604-.47-1.968-.3-.342-.728-.535-1.305-.535-.45 0-.792.129-1.048.364-.278.235-.407.513-.407.813l.022.599c0 .32-.086.577-.236.748a.87.87 0 01-.641.257.87.87 0 01-.642-.257c-.15-.192-.235-.428-.235-.748 0-.6.3-1.155.92-1.647.598-.514 1.475-.749 2.566-.749.855 0 1.561.129 2.096.428.406.214.706.535.898 1.005.129.3.193.92.193 1.84v3.25c0 .899.021 1.455.064 1.669.021.214.085.342.171.406.064.086.171.107.278.107a.592.592 0 00.278-.064c.15-.086.428-.342.856-.77v.599c-.792 1.026-1.519 1.561-2.246 1.561-.342 0-.599-.128-.813-.364-.192-.235-.3-.641-.3-1.197zm0-.685v-3.657c-1.048.428-1.733.727-2.053.898-.535.3-.942.62-1.177.963-.235.32-.342.705-.342 1.09 0 .514.15.92.45 1.241.299.342.64.513 1.026.513.534 0 1.219-.363 2.096-1.048zM379.249 567.553c1.112-1.348 2.181-2.01 3.208-2.01.513 0 .962.128 1.347.384.364.257.663.685.898 1.283.15.428.214 1.07.214 1.925v4.085c0 .6.064 1.006.15 1.24a.95.95 0 00.364.407c.17.086.491.128.962.128v.385h-4.748v-.385h.214c.449 0 .748-.064.92-.192.192-.128.299-.342.384-.599.022-.107.043-.428.043-.984v-3.914c0-.876-.128-1.497-.342-1.903-.235-.385-.62-.578-1.155-.578-.813 0-1.647.45-2.46 1.348v5.047c0 .642.022 1.048.108 1.198.106.214.235.342.406.45.171.085.513.127 1.026.127v.385h-4.726v-.385h.214c.492 0 .812-.106.984-.363.17-.235.256-.727.256-1.412v-3.55c0-1.155-.021-1.86-.085-2.096-.043-.257-.129-.428-.236-.513a.689.689 0 00-.427-.15c-.193 0-.428.064-.706.171l-.15-.385 2.887-1.155h.45v2.01zM393.899 574.311c-.47.47-.92.834-1.369 1.048-.449.214-.92.32-1.433.32-1.048 0-1.967-.448-2.737-1.325-.792-.856-1.177-1.99-1.177-3.358 0-1.369.428-2.63 1.305-3.764.855-1.134 1.968-1.711 3.336-1.711.835 0 1.519.278 2.075.813v-1.776c0-1.09-.021-1.753-.064-2.01-.064-.257-.15-.428-.257-.513a.658.658 0 00-.406-.129 2.19 2.19 0 00-.727.15l-.15-.364 2.866-1.154h.47v11.057c0 1.112.022 1.796.065 2.053.064.235.15.406.256.513.107.086.257.15.407.15.192 0 .427-.064.748-.192l.107.363-2.823 1.198h-.492v-1.369zm0-.727v-4.94a3.573 3.573 0 00-.364-1.284 2.266 2.266 0 00-.834-.898c-.342-.193-.684-.3-1.005-.3-.62 0-1.176.278-1.647.835-.641.727-.94 1.775-.94 3.165 0 1.411.299 2.48.919 3.23.599.748 1.283 1.133 2.032 1.133.641 0 1.24-.32 1.839-.941zM409.02 575.594c-1.433 0-2.566-.406-3.4-1.197-.856-.792-1.284-1.904-1.284-3.294v-3.208c0-1.39.428-2.503 1.283-3.294.835-.791 1.968-1.198 3.401-1.198 1.347 0 2.438.364 3.272 1.091.834.727 1.262 1.711 1.305 2.973h-1.925c-.043-.748-.3-1.347-.748-1.754-.471-.385-1.113-.599-1.904-.599-.834 0-1.518.236-2.01.706-.492.492-.749 1.177-.749 2.053v3.23c0 .877.257 1.561.749 2.053s1.176.727 2.01.727c.791 0 1.433-.214 1.904-.62.449-.406.705-.984.748-1.732h1.925c-.043 1.262-.47 2.245-1.305 2.973-.834.727-1.925 1.09-3.272 1.09z"
                fill="#b12e1e" fill-rule="nonzero" />
        </g>
    </g>
    <g transform="matrix(-.6186 0 0 .6186 1107.3 265.409)">
        <circle cx="447.581" cy="153.572" r="41.223" fill="none" />
        <clipPath id="prefix__b">
            <circle cx="447.581" cy="153.572" r="41.223" />
        </clipPath>
        <g clip-path="url(#prefix__b)">
            <path
                d="M446.89 169.368c2.383 0 4.49-.499 6.263-1.441a9.586 9.586 0 004.157-4.101c.998-1.719 1.497-3.77 1.497-6.097v-8.314c0-2.383-.5-4.434-1.497-6.152a9.769 9.769 0 00-4.157-4.046c-1.773-.943-3.88-1.442-6.263-1.442s-4.49.5-6.263 1.442c-1.829.942-3.215 2.327-4.212 4.046-.943 1.718-1.441 3.769-1.441 6.152v5.376h18.955v2.938c0 2.383-.61 4.212-1.829 5.487-1.22 1.275-2.937 1.94-5.21 1.94-1.94 0-3.492-.333-4.656-1.053-1.164-.665-1.884-1.663-2.161-3.049h-4.989c.333 2.55 1.552 4.545 3.714 6.042 2.217 1.496 4.877 2.272 8.092 2.272zm7.04-18.346H439.85v-1.607c0-2.383.61-4.268 1.774-5.543 1.219-1.274 2.993-1.94 5.265-1.94 2.273 0 3.99.666 5.21 1.94 1.22 1.275 1.83 3.16 1.83 5.543v1.607z"
                fill-rule="nonzero" />
        </g>
        <circle cx="447.581" cy="153.572" r="41.223" fill="none" stroke="#000" stroke-width="6.47" />
    </g>
    <g transform="matrix(-.6186 0 0 .6186 748.283 266.84)">
        <circle cx="447.581" cy="153.572" r="41.223" fill="none" />
        <clipPath id="prefix__c">
            <circle cx="447.581" cy="153.572" r="41.223" />
        </clipPath>
        <g clip-path="url(#prefix__c)">
            <path
                d="M446.668 169.368c3.714 0 6.651-1.053 8.813-3.104 2.217-2.05 3.326-4.933 3.326-8.535v-8.314c0-3.603-1.109-6.485-3.326-8.536-2.162-2.05-5.1-3.104-8.813-3.104-3.491 0-6.318.943-8.48 2.827-2.161 1.885-3.27 4.434-3.38 7.704h4.988c.11-1.94.776-3.491 1.94-4.545 1.219-.997 2.882-1.551 4.932-1.551 2.162 0 3.936.61 5.21 1.829 1.275 1.274 1.94 3.048 1.94 5.32v8.37c0 2.272-.665 4.046-1.94 5.32-1.274 1.275-3.048 1.885-5.21 1.885-2.05 0-3.713-.554-4.932-1.607-1.164-1.053-1.83-2.55-1.94-4.49h-4.989c.111 3.27 1.22 5.82 3.381 7.704 2.162 1.885 4.989 2.827 8.48 2.827z"
                fill-rule="nonzero" />
        </g>
        <circle cx="447.581" cy="153.572" r="41.223" fill="none" stroke="#000" stroke-width="6.47" />
    </g>
</svg>