<svg viewBox="0 0 1024 768" xmlns="http://www.w3.org/2000/svg" fill-rule="evenodd" clip-rule="evenodd"
    stroke-linecap="round" stroke-linejoin="round" stroke-miterlimit="1.5">
    <path
        d="M844.959 370.205L604.565 223.369M649.132 361.845l-94.827-125.408M374.868 358.509l85.953-122.575M179.041 360.672l249.111-129.764"
        fill="none" stroke="#000" stroke-width="4" />
    <g transform="matrix(.44233 0 0 .85517 288.965 42.58)">
        <path
            d="M731.429 185.017c0-23.045-36.172-41.755-80.726-41.755H357.747c-44.554 0-80.726 18.71-80.726 41.755s36.172 41.755 80.726 41.755h292.956c44.554 0 80.726-18.71 80.726-41.755z"
            fill="#fff" />
        <clipPath id="prefix__a">
            <path
                d="M731.429 185.017c0-23.045-36.172-41.755-80.726-41.755H357.747c-44.554 0-80.726 18.71-80.726 41.755s36.172 41.755 80.726 41.755h292.956c44.554 0 80.726-18.71 80.726-41.755z" />
        </clipPath>
        <g clip-path="url(#prefix__a)">
            <path
                d="M369.718 205.784c-6.294 0-11.286-.842-14.867-2.526-3.58-1.628-5.425-3.873-5.425-6.736 0-2.862 1.844-5.164 5.425-6.791 3.581-1.628 8.465-2.47 14.65-2.47h18.448v-3.087c0-1.852-1.086-3.312-3.256-4.378-2.279-1.067-5.317-1.572-9.224-1.572-3.472 0-6.402.393-8.79 1.179-2.387.786-3.906 1.796-4.449 3.087h-9.766c.326-1.74 1.628-3.255 3.69-4.546 2.061-1.291 4.774-2.358 8.138-3.087 3.364-.73 7.054-1.067 11.177-1.067 6.837 0 12.263.898 16.278 2.75 4.015 1.853 5.968 4.322 5.968 7.466v21.216h-9.55v-5.893h-.108c-.434 1.964-2.279 3.536-5.534 4.715-3.364 1.178-7.596 1.74-12.805 1.74zm2.387-3.986c4.666 0 8.465-.617 11.394-1.796 2.93-1.178 4.45-2.75 4.45-4.602v-4.378h-18.231c-3.256 0-5.86.449-7.705 1.403-1.844.954-2.821 2.189-2.821 3.817 0 1.74 1.194 3.087 3.472 4.097 2.17.954 5.426 1.46 9.441 1.46zM508.618 205.784c-4.45 0-8.139-.562-11.069-1.74-2.93-1.123-4.557-2.695-5.1-4.715h-.108v5.893h-9.767v-40.974h9.767v8.98l-.218 7.017h.326c.543-1.965 2.17-3.536 5.1-4.715 2.93-1.179 6.62-1.74 11.069-1.74 5.968 0 10.851 1.01 14.432 3.087 3.581 2.077 5.426 4.883 5.426 8.42v9.036c0 3.536-1.845 6.287-5.426 8.363-3.58 2.077-8.464 3.088-14.432 3.088zm-3.256-4.379c4.124 0 7.38-.617 9.767-1.908 2.387-1.29 3.58-3.087 3.58-5.5v-8.42c0-2.413-1.193-4.21-3.58-5.5-2.388-1.291-5.643-1.909-9.767-1.909-4.015 0-7.162.674-9.44 1.965-2.388 1.29-3.581 3.143-3.581 5.444v8.42c0 2.3 1.193 4.153 3.58 5.444 2.28 1.29 5.426 1.964 9.441 1.964zM635.798 205.784c-7.27 0-13.022-1.067-17.254-3.144-4.34-2.076-6.51-4.995-6.51-8.644v-8.419c0-3.648 2.17-6.567 6.51-8.644 4.232-2.076 9.983-3.143 17.254-3.143 6.836 0 12.37.954 16.603 2.863 4.232 1.908 6.402 4.49 6.62 7.802h-9.767c-.217-1.965-1.52-3.537-3.798-4.603-2.387-1.01-5.643-1.572-9.658-1.572-4.232 0-7.705.618-10.2 1.853-2.496 1.29-3.798 3.087-3.798 5.388v8.475c0 2.302 1.302 4.098 3.798 5.389 2.495 1.29 5.968 1.908 10.2 1.908 4.015 0 7.27-.561 9.658-1.628 2.279-1.066 3.58-2.581 3.798-4.546h9.766c-.217 3.312-2.387 5.894-6.62 7.802-4.231 1.908-9.766 2.863-16.602 2.863z"
                fill-rule="nonzero" />
        </g>
        <path
            d="M731.429 185.017c0-23.045-36.172-41.755-80.726-41.755H357.747c-44.554 0-80.726 18.71-80.726 41.755s36.172 41.755 80.726 41.755h292.956c44.554 0 80.726-18.71 80.726-41.755z"
            fill="none" stroke="#000" stroke-width="5.88" />
    </g>
    <path
        d="M276.71 492.204c7.54-15.85 27.356-26.413 49.553-26.413 22.197 0 42.013 10.563 49.553 26.413l65.771 138.267c5.831 12.259 3.431 25.905-6.433 36.571-9.864 10.667-25.953 17.016-43.12 17.016H260.492c-17.166 0-33.256-6.349-43.12-17.016-9.863-10.666-12.264-24.312-6.433-36.571l65.771-138.267z"
        fill="none" stroke="#bababa" stroke-width="4.51" transform="matrix(.75922 0 0 1 -106.287 -131.532)" />
    <path d="M115.268 524.044L90.62 571.098" fill="none" stroke="#000" stroke-width="5.43" stroke-linecap="square"
        transform="matrix(-.87084 -.0664 -.22127 .7761 421.7 156.04)" />
    <path d="M115.268 524.044L90.62 571.098" fill="none" stroke="#000" stroke-width="5.43" stroke-linecap="square"
        transform="matrix(.87065 -.06574 .22163 .77485 -142.96 155.118)" />
    <path d="M115.268 524.044L90.62 571.098" fill="none" stroke="#000" stroke-width="5.53" stroke-linecap="square"
        transform="matrix(.8377 -.23039 .36624 .65782 -203.159 238.575)" />
    <circle cx="154.775" cy="556.848" r="2.753" transform="matrix(.91669 0 0 1 -37.232 21.668)" />
    <circle cx="154.775" cy="556.848" r="2.753" transform="matrix(.91669 0 0 1 -1.694 21.668)" />
    <circle cx="154.775" cy="556.848" r="2.753" transform="matrix(.91669 0 0 1 -19.463 21.668)" />
    <g>
        <path
            d="M125.672 488.863v17.79c0 .84.06 1.38.18 1.68.12.27.3.48.57.6.24.15.72.21 1.41.21v.54h-6.57v-.54c.63 0 1.05-.06 1.26-.18.24-.12.39-.33.54-.63.12-.3.18-.84.18-1.68v-12.18c0-1.53-.03-2.46-.09-2.79-.09-.36-.18-.6-.33-.72-.15-.12-.36-.18-.6-.18s-.57.06-.96.21l-.24-.51 3.99-1.62h.66zM131.637 501.313c0 2.01.48 3.57 1.47 4.68.96 1.14 2.13 1.71 3.45 1.71.87 0 1.62-.24 2.28-.72.66-.48 1.2-1.32 1.62-2.49l.48.3c-.21 1.35-.81 2.55-1.8 3.66-.99 1.08-2.22 1.65-3.72 1.65-1.59 0-2.97-.63-4.14-1.89-1.14-1.26-1.71-2.94-1.71-5.07 0-2.28.6-4.08 1.77-5.37s2.64-1.92 4.44-1.92c1.5 0 2.73.51 3.69 1.5s1.47 2.31 1.47 3.96h-9.3zm0-.84h6.21c-.03-.87-.15-1.47-.3-1.83-.24-.54-.6-.96-1.08-1.29-.48-.3-.99-.45-1.53-.45-.81 0-1.53.3-2.16.93-.66.63-1.02 1.5-1.14 2.64zM151.372 495.883v4.56h-.48c-.36-1.44-.84-2.43-1.41-2.94-.6-.51-1.32-.78-2.22-.78-.69 0-1.26.18-1.68.54-.42.36-.63.78-.63 1.2 0 .57.18 1.02.48 1.41.3.42.93.84 1.86 1.29l2.13 1.02c1.98.99 2.97 2.25 2.97 3.84 0 1.23-.45 2.19-1.38 2.94-.93.75-1.95 1.14-3.09 1.14-.84 0-1.77-.15-2.82-.45-.33-.09-.6-.15-.81-.15-.21 0-.39.12-.51.39h-.48v-4.8h.48c.27 1.38.78 2.4 1.56 3.09s1.65 1.05 2.61 1.05c.66 0 1.2-.21 1.62-.6.45-.39.66-.87.66-1.44 0-.66-.24-1.23-.72-1.68-.48-.45-1.41-1.05-2.82-1.74-1.44-.72-2.37-1.35-2.79-1.92-.45-.54-.66-1.26-.66-2.1 0-1.11.36-2.04 1.14-2.76.75-.75 1.74-1.11 2.94-1.11.51 0 1.14.09 1.92.33.48.15.81.21.99.21.15 0 .27-.03.36-.09.09-.09.18-.24.3-.45h.48zM163.047 495.883v4.56h-.48c-.36-1.44-.84-2.43-1.41-2.94-.6-.51-1.32-.78-2.22-.78-.69 0-1.26.18-1.68.54-.42.36-.63.78-.63 1.2 0 .57.18 1.02.48 1.41.3.42.93.84 1.86 1.29l2.13 1.02c1.98.99 2.97 2.25 2.97 3.84 0 1.23-.45 2.19-1.38 2.94-.93.75-1.95 1.14-3.09 1.14-.84 0-1.77-.15-2.82-.45-.33-.09-.6-.15-.81-.15-.21 0-.39.12-.51.39h-.48v-4.8h.48c.27 1.38.78 2.4 1.56 3.09s1.65 1.05 2.61 1.05c.66 0 1.2-.21 1.62-.6.45-.39.66-.87.66-1.44 0-.66-.24-1.23-.72-1.68-.48-.45-1.41-1.05-2.82-1.74-1.44-.72-2.37-1.35-2.79-1.92-.45-.54-.66-1.26-.66-2.1 0-1.11.36-2.04 1.14-2.76.75-.75 1.74-1.11 2.94-1.11.51 0 1.14.09 1.92.33.48.15.81.21.99.21.15 0 .27-.03.36-.09.09-.09.18-.24.3-.45h.48zM108.877 523.138v4.41h3.15v1.02h-3.15v8.7c0 .87.12 1.44.39 1.77.24.3.57.45.96.45.3 0 .63-.12.93-.3.3-.21.54-.51.69-.9h.57c-.33.96-.81 1.68-1.44 2.16-.63.48-1.26.72-1.92.72-.45 0-.9-.12-1.32-.36-.45-.24-.75-.6-.96-1.08-.21-.45-.3-1.17-.3-2.13v-9.03h-2.13v-.48c.54-.21 1.08-.57 1.65-1.11.54-.51 1.05-1.11 1.5-1.8.21-.39.54-1.05.93-2.04h.45zM117.272 520.138v9.81c1.08-1.2 1.92-1.95 2.58-2.31a4.02 4.02 0 011.89-.48c.75 0 1.41.21 1.95.63.57.42.96 1.08 1.23 1.95.18.63.27 1.77.27 3.45v4.74c0 .84.09 1.44.21 1.74.09.24.27.42.51.57.21.12.66.18 1.29.18v.54h-6.6v-.54h.3c.63 0 1.05-.09 1.32-.27.24-.18.39-.48.51-.84.03-.15.03-.63.03-1.38v-4.74c0-1.47-.06-2.43-.21-2.88-.15-.48-.39-.81-.75-1.05-.33-.24-.72-.33-1.2-.33s-.96.12-1.47.36c-.54.27-1.14.78-1.86 1.56v7.08c0 .93.03 1.5.15 1.71.09.24.27.42.57.57.27.15.75.21 1.44.21v.54h-6.66v-.54c.6 0 1.08-.09 1.41-.27.21-.09.36-.27.48-.54.12-.3.18-.84.18-1.68v-12.15c0-1.53-.06-2.46-.12-2.82-.09-.36-.18-.6-.33-.72-.15-.12-.36-.18-.63-.18-.18 0-.54.06-.99.21l-.21-.51 4.02-1.62h.69zM135.932 539.038c-1.38 1.05-2.25 1.68-2.61 1.83-.51.24-1.08.36-1.68.36-.93 0-1.68-.3-2.28-.93-.6-.66-.9-1.47-.9-2.52 0-.66.15-1.23.42-1.71.42-.66 1.11-1.29 2.1-1.86.99-.6 2.64-1.29 4.95-2.13v-.54c0-1.35-.21-2.25-.66-2.76-.42-.48-1.02-.75-1.83-.75-.63 0-1.11.18-1.47.51-.39.33-.57.72-.57 1.14l.03.84c0 .45-.12.81-.33 1.05-.24.24-.54.36-.9.36s-.66-.12-.9-.36c-.21-.27-.33-.6-.33-1.05 0-.84.42-1.62 1.29-2.31.84-.72 2.07-1.05 3.6-1.05 1.2 0 2.19.18 2.94.6.57.3.99.75 1.26 1.41.18.42.27 1.29.27 2.58v4.56c0 1.26.03 2.04.09 2.34.03.3.12.48.24.57.09.12.24.15.39.15.15 0 .27-.03.39-.09.21-.12.6-.48 1.2-1.08v.84c-1.11 1.44-2.13 2.19-3.15 2.19-.48 0-.84-.18-1.14-.51-.27-.33-.42-.9-.42-1.68zm0-.96v-5.13c-1.47.6-2.43 1.02-2.88 1.26-.75.42-1.32.87-1.65 1.35-.33.45-.48.99-.48 1.53 0 .72.21 1.29.63 1.74.42.48.9.72 1.44.72.75 0 1.71-.51 2.94-1.47zM145.557 529.978c1.56-1.89 3.06-2.82 4.5-2.82.72 0 1.35.18 1.89.54.51.36.93.96 1.26 1.8.21.6.3 1.5.3 2.7v5.73c0 .84.09 1.41.21 1.74.12.24.27.42.51.57.24.12.69.18 1.35.18v.54h-6.66v-.54h.3c.63 0 1.05-.09 1.29-.27.27-.18.42-.48.54-.84.03-.15.06-.6.06-1.38v-5.49c0-1.23-.18-2.1-.48-2.67-.33-.54-.87-.81-1.62-.81-1.14 0-2.31.63-3.45 1.89v7.08c0 .9.03 1.47.15 1.68.15.3.33.48.57.63.24.12.72.18 1.44.18v.54h-6.63v-.54h.3c.69 0 1.14-.15 1.38-.51.24-.33.36-1.02.36-1.98v-4.98c0-1.62-.03-2.61-.12-2.94-.06-.36-.18-.6-.33-.72a.966.966 0 00-.6-.21c-.27 0-.6.09-.99.24l-.21-.54 4.05-1.62h.63v2.82zM170.757 541.258c-1.74 0-3.12-.45-4.11-1.35-.99-.87-1.5-2.07-1.5-3.6 0-1.53.51-2.76 1.5-3.63.99-.87 2.34-1.32 4.05-1.32h5.1v-1.65c0-.99-.3-1.77-.9-2.34-.63-.57-1.47-.84-2.55-.84-.96 0-1.77.21-2.43.63-.66.42-1.08.96-1.23 1.65h-2.7c.09-.93.45-1.74 1.02-2.43.57-.69 1.32-1.26 2.25-1.65.93-.39 1.95-.57 3.09-.57 1.89 0 3.39.48 4.5 1.47 1.11.99 1.65 2.31 1.65 3.99v11.34h-2.64v-3.15h-.03c-.12 1.05-.63 1.89-1.53 2.52-.93.63-2.1.93-3.54.93zm.66-2.13c1.29 0 2.34-.33 3.15-.96.81-.63 1.23-1.47 1.23-2.46v-2.34h-5.04c-.9 0-1.62.24-2.13.75-.51.51-.78 1.17-.78 2.04 0 .93.33 1.65.96 2.19.6.51 1.5.78 2.61.78z"
            fill="#b12e1e" fill-rule="nonzero" />
    </g>
    <g>
        <path
            d="M276.71 492.204c7.54-15.85 27.356-26.413 49.553-26.413 22.197 0 42.013 10.563 49.553 26.413l65.771 138.267c5.831 12.259 3.431 25.905-6.433 36.571-9.864 10.667-25.953 17.016-43.12 17.016H260.492c-17.166 0-33.256-6.349-43.12-17.016-9.863-10.666-12.264-24.312-6.433-36.571l65.771-138.267z"
            fill="none" stroke="#bababa" stroke-width="4.51" transform="matrix(.75922 0 0 1 634.874 -122)" />
        <path d="M115.268 524.044L90.62 571.098" fill="none" stroke="#000" stroke-width="5.43" stroke-linecap="square"
            transform="matrix(-.87084 -.0664 -.22127 .7761 1162.861 165.572)" />
        <path d="M115.268 524.044L90.62 571.098" fill="none" stroke="#000" stroke-width="5.43" stroke-linecap="square"
            transform="matrix(.87065 -.06574 .22163 .77485 598.201 164.65)" />
        <path d="M115.268 524.044L90.62 571.098" fill="none" stroke="#000" stroke-width="5.53" stroke-linecap="square"
            transform="matrix(.8377 -.23039 .36624 .65782 538.002 248.108)" />
        <circle cx="154.775" cy="556.848" r="2.753" transform="matrix(.91669 0 0 1 703.929 31.2)" />
        <circle cx="154.775" cy="556.848" r="2.753" transform="matrix(.91669 0 0 1 739.467 31.2)" />
        <circle cx="154.775" cy="556.848" r="2.753" transform="matrix(.91669 0 0 1 721.698 31.2)" />
        <g>
            <path
                d="M845.237 516.051c-.81-.39-1.44-.96-1.89-1.68-.45-.72-.66-1.5-.66-2.37 0-1.35.51-2.49 1.5-3.45.99-.93 2.28-1.41 3.84-1.41 1.29 0 2.4.3 3.33.93h2.85c.42 0 .66 0 .72.03.06.03.12.06.15.12.06.09.09.24.09.48s-.03.42-.09.51c0 .06-.06.09-.15.12-.06.03-.3.06-.72.06h-1.74c.54.69.81 1.59.81 2.7 0 1.23-.48 2.31-1.44 3.21-.96.87-2.25 1.32-3.84 1.32-.66 0-1.35-.09-2.04-.3-.45.39-.72.69-.87.99-.15.27-.24.51-.24.69 0 .18.09.33.24.48.18.18.48.27.96.36.27.03.96.06 2.04.09 2.01.06 3.33.12 3.9.21.93.12 1.65.45 2.19 1.02.54.54.81 1.2.81 2.01 0 1.11-.51 2.13-1.56 3.12-1.5 1.41-3.51 2.13-5.94 2.13-1.89 0-3.48-.42-4.8-1.29-.72-.48-1.08-.99-1.08-1.5 0-.24.06-.48.15-.72.18-.36.51-.87 1.02-1.5.09-.09.57-.63 1.5-1.59-.51-.3-.87-.57-1.08-.81-.21-.24-.3-.51-.3-.81 0-.33.12-.75.42-1.2.27-.45.9-1.11 1.92-1.95zm2.55-8.22c-.72 0-1.32.3-1.83.87-.48.57-.72 1.44-.72 2.64 0 1.56.33 2.73.99 3.6.51.63 1.14.96 1.95.96.72 0 1.35-.27 1.83-.84.48-.54.69-1.41.69-2.61 0-1.56-.33-2.76-.99-3.66-.51-.63-1.14-.96-1.92-.96zm-2.7 13.11c-.45.51-.81.96-1.05 1.38-.21.45-.33.84-.33 1.2 0 .48.27.87.84 1.23.96.6 2.4.9 4.23.9 1.77 0 3.06-.3 3.9-.93.84-.6 1.23-1.29 1.23-1.98 0-.51-.24-.87-.72-1.08-.51-.21-1.53-.33-3.03-.39-2.19-.06-3.9-.15-5.07-.33zM860.567 507.141v3c1.14-2.01 2.28-3 3.45-3 .54 0 .99.15 1.35.48.33.33.51.69.51 1.14 0 .36-.12.69-.36.96-.27.27-.57.39-.93.39-.33 0-.72-.15-1.14-.51-.42-.33-.75-.51-.93-.51-.18 0-.39.12-.57.3-.45.42-.9 1.08-1.38 1.98v6.45c0 .72.09 1.29.27 1.68.15.24.36.48.69.66.33.15.78.24 1.38.24v.54h-6.87v-.54c.69 0 1.2-.09 1.53-.3.24-.18.42-.42.51-.75.06-.18.09-.66.09-1.44v-5.19c0-1.56-.06-2.49-.12-2.79-.06-.3-.18-.51-.33-.66-.18-.12-.39-.21-.66-.21-.3 0-.63.09-1.02.24l-.15-.54 4.08-1.62h.6zM868.877 512.571c0 2.01.48 3.57 1.47 4.68.96 1.14 2.13 1.71 3.45 1.71.87 0 1.62-.24 2.28-.72.66-.48 1.2-1.32 1.62-2.49l.48.3c-.21 1.35-.81 2.55-1.8 3.66-.99 1.08-2.22 1.65-3.72 1.65-1.59 0-2.97-.63-4.14-1.89-1.14-1.26-1.71-2.94-1.71-5.07 0-2.28.6-4.08 1.77-5.37s2.64-1.92 4.44-1.92c1.5 0 2.73.51 3.69 1.5s1.47 2.31 1.47 3.96h-9.3zm0-.84h6.21c-.03-.87-.15-1.47-.3-1.83-.24-.54-.6-.96-1.08-1.29-.48-.3-.99-.45-1.53-.45-.81 0-1.53.3-2.16.93-.66.63-1.02 1.5-1.14 2.64zM887.563 519.021c-1.38 1.05-2.25 1.68-2.61 1.83-.51.24-1.08.36-1.68.36-.93 0-1.68-.3-2.28-.93-.6-.66-.9-1.47-.9-2.52 0-.66.15-1.23.42-1.71.42-.66 1.11-1.29 2.1-1.86.99-.6 2.64-1.29 4.95-2.13v-.54c0-1.35-.21-2.25-.66-2.76-.42-.48-1.02-.75-1.83-.75-.63 0-1.11.18-1.47.51-.39.33-.57.72-.57 1.14l.03.84c0 .45-.12.81-.33 1.05-.24.24-.54.36-.9.36s-.66-.12-.9-.36c-.21-.27-.33-.6-.33-1.05 0-.84.42-1.62 1.29-2.31.84-.72 2.07-1.05 3.6-1.05 1.2 0 2.19.18 2.94.6.57.3.99.75 1.26 1.41.18.42.27 1.29.27 2.58v4.56c0 1.26.03 2.04.09 2.34.03.3.12.48.24.57.09.12.24.15.39.15.15 0 .27-.03.39-.09.21-.12.6-.48 1.2-1.08v.84c-1.11 1.44-2.13 2.19-3.15 2.19-.48 0-.84-.18-1.14-.51-.27-.33-.42-.9-.42-1.68zm0-.96v-5.13c-1.47.6-2.43 1.02-2.88 1.26-.75.42-1.32.87-1.65 1.35-.33.45-.48.99-.48 1.53 0 .72.21 1.29.63 1.74.42.48.9.72 1.44.72.75 0 1.71-.51 2.94-1.47zM897.158 503.121v4.41h3.15v1.02h-3.15v8.7c0 .87.12 1.44.39 1.77.24.3.57.45.96.45.3 0 .63-.12.93-.3.3-.21.54-.51.69-.9h.57c-.33.96-.81 1.68-1.44 2.16-.63.48-1.26.72-1.92.72-.45 0-.9-.12-1.32-.36-.45-.24-.75-.6-.96-1.08-.21-.45-.3-1.17-.3-2.13v-9.03h-2.13v-.48c.54-.21 1.08-.57 1.65-1.11.54-.51 1.05-1.11 1.5-1.8.21-.39.54-1.05.93-2.04h.45zM903.843 512.571c0 2.01.48 3.57 1.47 4.68.96 1.14 2.13 1.71 3.45 1.71.87 0 1.62-.24 2.28-.72.66-.48 1.2-1.32 1.62-2.49l.48.3c-.21 1.35-.81 2.55-1.8 3.66-.99 1.08-2.22 1.65-3.72 1.65-1.59 0-2.97-.63-4.14-1.89-1.14-1.26-1.71-2.94-1.71-5.07 0-2.28.6-4.08 1.77-5.37s2.64-1.92 4.44-1.92c1.5 0 2.73.51 3.69 1.5s1.47 2.31 1.47 3.96h-9.3zm0-.84h6.21c-.03-.87-.15-1.47-.3-1.83-.24-.54-.6-.96-1.08-1.29-.48-.3-.99-.45-1.53-.45-.81 0-1.53.3-2.16.93-.66.63-1.02 1.5-1.14 2.64zM918.84 507.141v3c1.14-2.01 2.28-3 3.45-3 .54 0 .99.15 1.35.48.33.33.51.69.51 1.14 0 .36-.12.69-.36.96-.27.27-.57.39-.93.39-.33 0-.72-.15-1.14-.51-.42-.33-.75-.51-.93-.51-.18 0-.39.12-.57.3-.45.42-.9 1.08-1.38 1.98v6.45c0 .72.09 1.29.27 1.68.15.24.36.48.69.66.33.15.78.24 1.38.24v.54h-6.87v-.54c.69 0 1.2-.09 1.53-.3.24-.18.42-.42.51-.75.06-.18.09-.66.09-1.44v-5.19c0-1.56-.06-2.49-.12-2.79-.06-.3-.18-.51-.33-.66-.18-.12-.39-.21-.66-.21-.3 0-.63.09-1.02.24l-.15-.54 4.08-1.62h.6zM848.593 534.396v4.41h3.15v1.02h-3.15v8.7c0 .87.12 1.44.39 1.77.24.3.57.45.96.45.3 0 .63-.12.93-.3.3-.21.54-.51.69-.9h.57c-.33.96-.81 1.68-1.44 2.16-.63.48-1.26.72-1.92.72-.45 0-.9-.12-1.32-.36-.45-.24-.75-.6-.96-1.08-.21-.45-.3-1.17-.3-2.13v-9.03h-2.13v-.48c.54-.21 1.08-.57 1.65-1.11.54-.51 1.05-1.11 1.5-1.8.21-.39.54-1.05.93-2.04h.45zM856.988 531.396v9.81c1.08-1.2 1.92-1.95 2.58-2.31a4.02 4.02 0 011.89-.48c.75 0 1.41.21 1.95.63.57.42.96 1.08 1.23 1.95.18.63.27 1.77.27 3.45v4.74c0 .84.09 1.44.21 1.74.09.24.27.42.51.57.21.12.66.18 1.29.18v.54h-6.6v-.54h.3c.63 0 1.05-.09 1.32-.27.24-.18.39-.48.51-.84.03-.15.03-.63.03-1.38v-4.74c0-1.47-.06-2.43-.21-2.88-.15-.48-.39-.81-.75-1.05-.33-.24-.72-.33-1.2-.33s-.96.12-1.47.36c-.54.27-1.14.78-1.86 1.56v7.08c0 .93.03 1.5.15 1.71.09.24.27.42.57.57.27.15.75.21 1.44.21v.54h-6.66v-.54c.6 0 1.08-.09 1.41-.27.21-.09.36-.27.48-.54.12-.3.18-.84.18-1.68v-12.15c0-1.53-.06-2.46-.12-2.82-.09-.36-.18-.6-.33-.72-.15-.12-.36-.18-.63-.18-.18 0-.54.06-.99.21l-.21-.51 4.02-1.62h.69zM875.648 550.296c-1.38 1.05-2.25 1.68-2.61 1.83-.51.24-1.08.36-1.68.36-.93 0-1.68-.3-2.28-.93-.6-.66-.9-1.47-.9-2.52 0-.66.15-1.23.42-1.71.42-.66 1.11-1.29 2.1-1.86.99-.6 2.64-1.29 4.95-2.13v-.54c0-1.35-.21-2.25-.66-2.76-.42-.48-1.02-.75-1.83-.75-.63 0-1.11.18-1.47.51-.39.33-.57.72-.57 1.14l.03.84c0 .45-.12.81-.33 1.05-.24.24-.54.36-.9.36s-.66-.12-.9-.36c-.21-.27-.33-.6-.33-1.05 0-.84.42-1.62 1.29-2.31.84-.72 2.07-1.05 3.6-1.05 1.2 0 2.19.18 2.94.6.57.3.99.75 1.26 1.41.18.42.27 1.29.27 2.58v4.56c0 1.26.03 2.04.09 2.34.03.3.12.48.24.57.09.12.24.15.39.15.15 0 .27-.03.39-.09.21-.12.6-.48 1.2-1.08v.84c-1.11 1.44-2.13 2.19-3.15 2.19-.48 0-.84-.18-1.14-.51-.27-.33-.42-.9-.42-1.68zm0-.96v-5.13c-1.47.6-2.43 1.02-2.88 1.26-.75.42-1.32.87-1.65 1.35-.33.45-.48.99-.48 1.53 0 .72.21 1.29.63 1.74.42.48.9.72 1.44.72.75 0 1.71-.51 2.94-1.47zM885.273 541.236c1.56-1.89 3.06-2.82 4.5-2.82.72 0 1.35.18 1.89.54.51.36.93.96 1.26 1.8.21.6.3 1.5.3 2.7v5.73c0 .84.09 1.41.21 1.74.12.24.27.42.51.57.24.12.69.18 1.35.18v.54h-6.66v-.54h.3c.63 0 1.05-.09 1.29-.27.27-.18.42-.48.54-.84.03-.15.06-.6.06-1.38v-5.49c0-1.23-.18-2.1-.48-2.67-.33-.54-.87-.81-1.62-.81-1.14 0-2.31.63-3.45 1.89v7.08c0 .9.03 1.47.15 1.68.15.3.33.48.57.63.24.12.72.18 1.44.18v.54h-6.63v-.54h.3c.69 0 1.14-.15 1.38-.51.24-.33.36-1.02.36-1.98v-4.98c0-1.62-.03-2.61-.12-2.94-.06-.36-.18-.6-.33-.72a.966.966 0 00-.6-.21c-.27 0-.6.09-.99.24l-.21-.54 4.05-1.62h.63v2.82zM912.033 552.516c-2.01 0-3.6-.57-4.77-1.68-1.2-1.11-1.8-2.67-1.8-4.62v-4.5c0-1.95.6-3.51 1.8-4.62 1.17-1.11 2.76-1.68 4.77-1.68 1.89 0 3.42.51 4.59 1.53s1.77 2.4 1.83 4.17h-2.7c-.06-1.05-.42-1.89-1.05-2.46-.66-.54-1.56-.84-2.67-.84-1.17 0-2.13.33-2.82.99-.69.69-1.05 1.65-1.05 2.88v4.53c0 1.23.36 2.19 1.05 2.88.69.69 1.65 1.02 2.82 1.02 1.11 0 2.01-.3 2.67-.87.63-.57.99-1.38 1.05-2.43h2.7c-.06 1.77-.66 3.15-1.83 4.17s-2.7 1.53-4.59 1.53z"
                fill="#b12e1e" fill-rule="nonzero" />
        </g>
    </g>
    <g>
        <path
            d="M563.099 443.761c5.452-7.403 14.842-11.878 24.923-11.878 10.082 0 19.472 4.475 24.924 11.878l55.155 74.894c5.861 7.959 6.276 18.076 1.083 26.381-5.194 8.304-15.168 13.47-26.007 13.47H532.868c-10.839 0-20.813-5.166-26.007-13.47-5.193-8.305-4.778-18.422 1.083-26.381l55.155-74.894z"
            fill="#fff" stroke="#c1c1c1" stroke-width="2.76" transform="matrix(1.35 0 0 1.54651 -418.963 -309.403)" />
        <path d="M115.268 524.044L90.62 571.098" fill="none" stroke="#000" stroke-width="5.1" stroke-linecap="square"
            transform="matrix(.94978 -.06574 .24178 .77485 66.148 157.772)" />
        <path d="M115.268 524.044L90.62 571.098" fill="none" stroke="#000" stroke-width="5.1" stroke-linecap="square"
            transform="matrix(-.94998 -.0664 -.24138 .7761 683.736 156.921)" />
        <path d="M115.268 524.044L90.62 571.098" fill="none" stroke="#000" stroke-width="5.12" stroke-linecap="square"
            transform="matrix(.91382 -.23039 .39952 .65782 -.971 240.423)" />
        <circle cx="154.775" cy="556.848" r="2.753" transform="translate(178.108 22.067)" />
        <circle cx="154.775" cy="556.848" r="2.753" transform="translate(216.875 22.067)" />
        <circle cx="154.775" cy="556.848" r="2.753" transform="translate(197.492 22.067)" />
        <g>
            <path
                d="M329.616 503.769c1.29-1.8 2.7-2.7 4.2-2.7 1.38 0 2.58.57 3.6 1.74 1.02 1.2 1.53 2.79 1.53 4.83 0 2.4-.78 4.32-2.37 5.76-1.35 1.26-2.85 1.89-4.53 1.89-.78 0-1.59-.15-2.37-.42-.81-.3-1.65-.72-2.49-1.29v-13.89c0-1.53-.03-2.46-.09-2.82-.09-.36-.21-.6-.36-.72a.923.923 0 00-.57-.18c-.3 0-.63.06-1.05.21l-.18-.51 4.02-1.62h.66v9.72zm0 .93v8.04c.48.48 1.02.84 1.53 1.11.54.24 1.08.36 1.65.36.87 0 1.71-.48 2.49-1.47.75-.96 1.14-2.4 1.14-4.26 0-1.71-.39-3.03-1.14-3.96-.78-.93-1.65-1.38-2.64-1.38-.51 0-1.02.12-1.53.39-.39.21-.9.6-1.5 1.17zM343.176 506.499c0 2.01.48 3.57 1.47 4.68.96 1.14 2.13 1.71 3.45 1.71.87 0 1.62-.24 2.28-.72.66-.48 1.2-1.32 1.62-2.49l.48.3c-.21 1.35-.81 2.55-1.8 3.66-.99 1.08-2.22 1.65-3.72 1.65-1.59 0-2.97-.63-4.14-1.89-1.14-1.26-1.71-2.94-1.71-5.07 0-2.28.6-4.08 1.77-5.37s2.64-1.92 4.44-1.92c1.5 0 2.73.51 3.69 1.5s1.47 2.31 1.47 3.96h-9.3zm0-.84h6.21c-.03-.87-.15-1.47-.3-1.83-.24-.54-.6-.96-1.08-1.29-.48-.3-.99-.45-1.53-.45-.81 0-1.53.3-2.16.93-.66.63-1.02 1.5-1.14 2.64zM358.142 497.049v4.41h3.15v1.02h-3.15v8.7c0 .87.12 1.44.39 1.77.24.3.57.45.96.45.3 0 .63-.12.93-.3.3-.21.54-.51.69-.9h.57c-.33.96-.81 1.68-1.44 2.16-.63.48-1.26.72-1.92.72-.45 0-.9-.12-1.32-.36-.45-.24-.75-.6-.96-1.08-.21-.45-.3-1.17-.3-2.13v-9.03h-2.13v-.48c.54-.21 1.08-.57 1.65-1.11.54-.51 1.05-1.11 1.5-1.8.21-.39.54-1.05.93-2.04h.45zM361.827 501.459h5.64v.54c-.51.03-.87.12-1.02.27a.86.86 0 00-.24.63c0 .3.09.66.24 1.11l2.88 7.71 2.88-6.27-.75-1.98c-.24-.6-.54-.99-.93-1.23-.21-.12-.63-.21-1.2-.24v-.54h6.39v.54c-.72.03-1.2.15-1.5.36-.21.18-.3.42-.3.75 0 .21.03.42.12.6l3.06 7.71 2.82-7.41c.18-.54.3-.96.3-1.26 0-.18-.12-.36-.3-.51-.18-.15-.57-.24-1.11-.24v-.54h4.23v.54c-.84.12-1.47.69-1.89 1.71l-4.47 11.58h-.6l-3.36-8.58-3.9 8.58h-.54l-4.32-11.28c-.27-.72-.57-1.2-.84-1.44-.27-.27-.69-.45-1.29-.57v-.54zM386.492 506.499c0 2.01.48 3.57 1.47 4.68.96 1.14 2.13 1.71 3.45 1.71.87 0 1.62-.24 2.28-.72.66-.48 1.2-1.32 1.62-2.49l.48.3c-.21 1.35-.81 2.55-1.8 3.66-.99 1.08-2.22 1.65-3.72 1.65-1.59 0-2.97-.63-4.14-1.89-1.14-1.26-1.71-2.94-1.71-5.07 0-2.28.6-4.08 1.77-5.37s2.64-1.92 4.44-1.92c1.5 0 2.73.51 3.69 1.5s1.47 2.31 1.47 3.96h-9.3zm0-.84h6.21c-.03-.87-.15-1.47-.3-1.83-.24-.54-.6-.96-1.08-1.29-.48-.3-.99-.45-1.53-.45-.81 0-1.53.3-2.16.93-.66.63-1.02 1.5-1.14 2.64zM399.807 506.499c0 2.01.48 3.57 1.47 4.68.96 1.14 2.13 1.71 3.45 1.71.87 0 1.62-.24 2.28-.72.66-.48 1.2-1.32 1.62-2.49l.48.3c-.21 1.35-.81 2.55-1.8 3.66-.99 1.08-2.22 1.65-3.72 1.65-1.59 0-2.97-.63-4.14-1.89-1.14-1.26-1.71-2.94-1.71-5.07 0-2.28.6-4.08 1.77-5.37s2.64-1.92 4.44-1.92c1.5 0 2.73.51 3.69 1.5s1.47 2.31 1.47 3.96h-9.3zm0-.84h6.21c-.03-.87-.15-1.47-.3-1.83-.24-.54-.6-.96-1.08-1.29-.48-.3-.99-.45-1.53-.45-.81 0-1.53.3-2.16.93-.66.63-1.02 1.5-1.14 2.64zM414.803 503.889c1.56-1.89 3.06-2.82 4.5-2.82.72 0 1.35.18 1.89.54.51.36.93.96 1.26 1.8.21.6.3 1.5.3 2.7v5.73c0 .84.09 1.41.21 1.74.12.24.27.42.51.57.24.12.69.18 1.35.18v.54h-6.66v-.54h.3c.63 0 1.05-.09 1.29-.27.27-.18.42-.48.54-.84.03-.15.06-.6.06-1.38v-5.49c0-1.23-.18-2.1-.48-2.67-.33-.54-.87-.81-1.62-.81-1.14 0-2.31.63-3.45 1.89v7.08c0 .9.03 1.47.15 1.68.15.3.33.48.57.63.24.12.72.18 1.44.18v.54h-6.63v-.54h.3c.69 0 1.14-.15 1.38-.51.24-.33.36-1.02.36-1.98v-4.98c0-1.62-.03-2.61-.12-2.94-.06-.36-.18-.6-.33-.72a.966.966 0 00-.6-.21c-.27 0-.6.09-.99.24l-.21-.54 4.05-1.62h.63v2.82zM335.372 546.444c-1.74 0-3.12-.45-4.11-1.35-.99-.87-1.5-2.07-1.5-3.6 0-1.53.51-2.76 1.5-3.63.99-.87 2.34-1.32 4.05-1.32h5.1v-1.65c0-.99-.3-1.77-.9-2.34-.63-.57-1.47-.84-2.55-.84-.96 0-1.77.21-2.43.63-.66.42-1.08.96-1.23 1.65h-2.7c.09-.93.45-1.74 1.02-2.43.57-.69 1.32-1.26 2.25-1.65.93-.39 1.95-.57 3.09-.57 1.89 0 3.39.48 4.5 1.47 1.11.99 1.65 2.31 1.65 3.99v11.34h-2.64v-3.15h-.03c-.12 1.05-.63 1.89-1.53 2.52-.93.63-2.1.93-3.54.93zm.66-2.13c1.29 0 2.34-.33 3.15-.96.81-.63 1.23-1.47 1.23-2.46v-2.34h-5.04c-.9 0-1.62.24-2.13.75-.51.51-.78 1.17-.78 2.04 0 .93.33 1.65.96 2.19.6.51 1.5.78 2.61.78zM361.862 544.224c-1.38 1.05-2.25 1.68-2.61 1.83-.51.24-1.08.36-1.68.36-.93 0-1.68-.3-2.28-.93-.6-.66-.9-1.47-.9-2.52 0-.66.15-1.23.42-1.71.42-.66 1.11-1.29 2.1-1.86.99-.6 2.64-1.29 4.95-2.13v-.54c0-1.35-.21-2.25-.66-2.76-.42-.48-1.02-.75-1.83-.75-.63 0-1.11.18-1.47.51-.39.33-.57.72-.57 1.14l.03.84c0 .45-.12.81-.33 1.05-.24.24-.54.36-.9.36s-.66-.12-.9-.36c-.21-.27-.33-.6-.33-1.05 0-.84.42-1.62 1.29-2.31.84-.72 2.07-1.05 3.6-1.05 1.2 0 2.19.18 2.94.6.57.3.99.75 1.26 1.41.18.42.27 1.29.27 2.58v4.56c0 1.26.03 2.04.09 2.34.03.3.12.48.24.57.09.12.24.15.39.15.15 0 .27-.03.39-.09.21-.12.6-.48 1.2-1.08v.84c-1.11 1.44-2.13 2.19-3.15 2.19-.48 0-.84-.18-1.14-.51-.27-.33-.42-.9-.42-1.68zm0-.96v-5.13c-1.47.6-2.43 1.02-2.88 1.26-.75.42-1.32.87-1.65 1.35-.33.45-.48.99-.48 1.53 0 .72.21 1.29.63 1.74.42.48.9.72 1.44.72.75 0 1.71-.51 2.94-1.47zM371.487 535.164c1.56-1.89 3.06-2.82 4.5-2.82.72 0 1.35.18 1.89.54.51.36.93.96 1.26 1.8.21.6.3 1.5.3 2.7v5.73c0 .84.09 1.41.21 1.74.12.24.27.42.51.57.24.12.69.18 1.35.18v.54h-6.66v-.54h.3c.63 0 1.05-.09 1.29-.27.27-.18.42-.48.54-.84.03-.15.06-.6.06-1.38v-5.49c0-1.23-.18-2.1-.48-2.67-.33-.54-.87-.81-1.62-.81-1.14 0-2.31.63-3.45 1.89v7.08c0 .9.03 1.47.15 1.68.15.3.33.48.57.63.24.12.72.18 1.44.18v.54h-6.63v-.54h.3c.69 0 1.14-.15 1.38-.51.24-.33.36-1.02.36-1.98v-4.98c0-1.62-.03-2.61-.12-2.94-.06-.36-.18-.6-.33-.72a.966.966 0 00-.6-.21c-.27 0-.6.09-.99.24l-.21-.54 4.05-1.62h.63v2.82zM392.037 544.644c-.66.66-1.29 1.17-1.92 1.47-.63.3-1.29.45-2.01.45-1.47 0-2.76-.63-3.84-1.86-1.11-1.2-1.65-2.79-1.65-4.71s.6-3.69 1.83-5.28c1.2-1.59 2.76-2.4 4.68-2.4 1.17 0 2.13.39 2.91 1.14v-2.49c0-1.53-.03-2.46-.09-2.82-.09-.36-.21-.6-.36-.72a.923.923 0 00-.57-.18c-.27 0-.6.06-1.02.21l-.21-.51 4.02-1.62h.66v15.51c0 1.56.03 2.52.09 2.88.09.33.21.57.36.72.15.12.36.21.57.21.27 0 .6-.09 1.05-.27l.15.51-3.96 1.68h-.69v-1.92zm0-1.02v-6.93c-.06-.66-.24-1.26-.51-1.8-.3-.57-.69-.96-1.17-1.26-.48-.27-.96-.42-1.41-.42-.87 0-1.65.39-2.31 1.17-.9 1.02-1.32 2.49-1.32 4.44 0 1.98.42 3.48 1.29 4.53.84 1.05 1.8 1.59 2.85 1.59.9 0 1.74-.45 2.58-1.32zM414.087 546.444c-1.23 0-2.25-.3-3.06-.93-.81-.6-1.26-1.44-1.41-2.52h-.03v3.15h-2.7v-21.9h2.7v4.8l-.06 3.75h.09c.15-1.05.6-1.89 1.41-2.52.81-.63 1.83-.93 3.06-.93 1.65 0 3 .54 3.99 1.65.99 1.11 1.5 2.61 1.5 4.5v4.83c0 1.89-.51 3.36-1.5 4.47-.99 1.11-2.34 1.65-3.99 1.65zm-.9-2.34c1.14 0 2.04-.33 2.7-1.02.66-.69.99-1.65.99-2.94v-4.5c0-1.29-.33-2.25-.99-2.94-.66-.69-1.56-1.02-2.7-1.02-1.11 0-1.98.36-2.61 1.05-.66.69-.99 1.68-.99 2.91v4.5c0 1.23.33 2.22.99 2.91.63.69 1.5 1.05 2.61 1.05z"
                fill="#b12e1e" fill-rule="nonzero" />
        </g>
    </g>
    <g>
        <path
            d="M563.099 443.761c5.452-7.403 14.842-11.878 24.923-11.878 10.082 0 19.472 4.475 24.924 11.878l55.155 74.894c5.861 7.959 6.276 18.076 1.083 26.381-5.194 8.304-15.168 13.47-26.007 13.47H532.868c-10.839 0-20.813-5.166-26.007-13.47-5.193-8.305-4.778-18.422 1.083-26.381l55.155-74.894z"
            fill="#fff" stroke="#c1c1c1" stroke-width="2.76" transform="matrix(1.35 0 0 1.54651 -144.698 -306.066)" />
        <path d="M115.268 524.044L90.62 571.098" fill="none" stroke="#000" stroke-width="5.1" stroke-linecap="square"
            transform="matrix(.94978 -.06574 .24178 .77485 340.413 161.109)" />
        <path d="M115.268 524.044L90.62 571.098" fill="none" stroke="#000" stroke-width="5.1" stroke-linecap="square"
            transform="matrix(-.94998 -.0664 -.24138 .7761 958.001 160.258)" />
        <path d="M115.268 524.044L90.62 571.098" fill="none" stroke="#000" stroke-width="5.12" stroke-linecap="square"
            transform="matrix(.91382 -.23039 .39952 .65782 273.294 243.76)" />
        <circle cx="154.775" cy="556.848" r="2.753" transform="translate(452.373 25.403)" />
        <circle cx="154.775" cy="556.848" r="2.753" transform="translate(491.14 25.403)" />
        <circle cx="154.775" cy="556.848" r="2.753" transform="translate(471.757 25.403)" />
        <g>
            <path
                d="M603.881 509.216c1.29-1.8 2.7-2.7 4.2-2.7 1.38 0 2.58.57 3.6 1.74 1.02 1.2 1.53 2.79 1.53 4.83 0 2.4-.78 4.32-2.37 5.76-1.35 1.26-2.85 1.89-4.53 1.89-.78 0-1.59-.15-2.37-.42-.81-.3-1.65-.72-2.49-1.29v-13.89c0-1.53-.03-2.46-.09-2.82-.09-.36-.21-.6-.36-.72a.923.923 0 00-.57-.18c-.3 0-.63.06-1.05.21l-.18-.51 4.02-1.62h.66v9.72zm0 .93v8.04c.48.48 1.02.84 1.53 1.11.54.24 1.08.36 1.65.36.87 0 1.71-.48 2.49-1.47.75-.96 1.14-2.4 1.14-4.26 0-1.71-.39-3.03-1.14-3.96-.78-.93-1.65-1.38-2.64-1.38-.51 0-1.02.12-1.53.39-.39.21-.9.6-1.5 1.17zM617.441 511.946c0 2.01.48 3.57 1.47 4.68.96 1.14 2.13 1.71 3.45 1.71.87 0 1.62-.24 2.28-.72.66-.48 1.2-1.32 1.62-2.49l.48.3c-.21 1.35-.81 2.55-1.8 3.66-.99 1.08-2.22 1.65-3.72 1.65-1.59 0-2.97-.63-4.14-1.89-1.14-1.26-1.71-2.94-1.71-5.07 0-2.28.6-4.08 1.77-5.37s2.64-1.92 4.44-1.92c1.5 0 2.73.51 3.69 1.5s1.47 2.31 1.47 3.96h-9.3zm0-.84h6.21c-.03-.87-.15-1.47-.3-1.83-.24-.54-.6-.96-1.08-1.29-.48-.3-.99-.45-1.53-.45-.81 0-1.53.3-2.16.93-.66.63-1.02 1.5-1.14 2.64zM632.407 502.496v4.41h3.15v1.02h-3.15v8.7c0 .87.12 1.44.39 1.77.24.3.57.45.96.45.3 0 .63-.12.93-.3.3-.21.54-.51.69-.9h.57c-.33.96-.81 1.68-1.44 2.16-.63.48-1.26.72-1.92.72-.45 0-.9-.12-1.32-.36-.45-.24-.75-.6-.96-1.08-.21-.45-.3-1.17-.3-2.13v-9.03h-2.13v-.48c.54-.21 1.08-.57 1.65-1.11.54-.51 1.05-1.11 1.5-1.8.21-.39.54-1.05.93-2.04h.45zM636.092 506.906h5.64v.54c-.51.03-.87.12-1.02.27a.86.86 0 00-.24.63c0 .3.09.66.24 1.11l2.88 7.71 2.88-6.27-.75-1.98c-.24-.6-.54-.99-.93-1.23-.21-.12-.63-.21-1.2-.24v-.54h6.39v.54c-.72.03-1.2.15-1.5.36-.21.18-.3.42-.3.75 0 .21.03.42.12.6l3.06 7.71 2.82-7.41c.18-.54.3-.96.3-1.26 0-.18-.12-.36-.3-.51-.18-.15-.57-.24-1.11-.24v-.54h4.23v.54c-.84.12-1.47.69-1.89 1.71l-4.47 11.58h-.6l-3.36-8.58-3.9 8.58h-.54l-4.32-11.28c-.27-.72-.57-1.2-.84-1.44-.27-.27-.69-.45-1.29-.57v-.54zM660.757 511.946c0 2.01.48 3.57 1.47 4.68.96 1.14 2.13 1.71 3.45 1.71.87 0 1.62-.24 2.28-.72.66-.48 1.2-1.32 1.62-2.49l.48.3c-.21 1.35-.81 2.55-1.8 3.66-.99 1.08-2.22 1.65-3.72 1.65-1.59 0-2.97-.63-4.14-1.89-1.14-1.26-1.71-2.94-1.71-5.07 0-2.28.6-4.08 1.77-5.37s2.64-1.92 4.44-1.92c1.5 0 2.73.51 3.69 1.5s1.47 2.31 1.47 3.96h-9.3zm0-.84h6.21c-.03-.87-.15-1.47-.3-1.83-.24-.54-.6-.96-1.08-1.29-.48-.3-.99-.45-1.53-.45-.81 0-1.53.3-2.16.93-.66.63-1.02 1.5-1.14 2.64zM674.072 511.946c0 2.01.48 3.57 1.47 4.68.96 1.14 2.13 1.71 3.45 1.71.87 0 1.62-.24 2.28-.72.66-.48 1.2-1.32 1.62-2.49l.48.3c-.21 1.35-.81 2.55-1.8 3.66-.99 1.08-2.22 1.65-3.72 1.65-1.59 0-2.97-.63-4.14-1.89-1.14-1.26-1.71-2.94-1.71-5.07 0-2.28.6-4.08 1.77-5.37s2.64-1.92 4.44-1.92c1.5 0 2.73.51 3.69 1.5s1.47 2.31 1.47 3.96h-9.3zm0-.84h6.21c-.03-.87-.15-1.47-.3-1.83-.24-.54-.6-.96-1.08-1.29-.48-.3-.99-.45-1.53-.45-.81 0-1.53.3-2.16.93-.66.63-1.02 1.5-1.14 2.64zM689.068 509.336c1.56-1.89 3.06-2.82 4.5-2.82.72 0 1.35.18 1.89.54.51.36.93.96 1.26 1.8.21.6.3 1.5.3 2.7v5.73c0 .84.09 1.41.21 1.74.12.24.27.42.51.57.24.12.69.18 1.35.18v.54h-6.66v-.54h.3c.63 0 1.05-.09 1.29-.27.27-.18.42-.48.54-.84.03-.15.06-.6.06-1.38v-5.49c0-1.23-.18-2.1-.48-2.67-.33-.54-.87-.81-1.62-.81-1.14 0-2.31.63-3.45 1.89v7.08c0 .9.03 1.47.15 1.68.15.3.33.48.57.63.24.12.72.18 1.44.18v.54h-6.63v-.54h.3c.69 0 1.14-.15 1.38-.51.24-.33.36-1.02.36-1.98v-4.98c0-1.62-.03-2.61-.12-2.94-.06-.36-.18-.6-.33-.72a.966.966 0 00-.6-.21c-.27 0-.6.09-.99.24l-.21-.54 4.05-1.62h.63v2.82zM612.037 551.891c-1.23 0-2.25-.3-3.06-.93-.81-.6-1.26-1.44-1.41-2.52h-.03v3.15h-2.7v-21.9h2.7v4.8l-.06 3.75h.09c.15-1.05.6-1.89 1.41-2.52.81-.63 1.83-.93 3.06-.93 1.65 0 3 .54 3.99 1.65.99 1.11 1.5 2.61 1.5 4.5v4.83c0 1.89-.51 3.36-1.5 4.47-.99 1.11-2.34 1.65-3.99 1.65zm-.9-2.34c1.14 0 2.04-.33 2.7-1.02.66-.69.99-1.65.99-2.94v-4.5c0-1.29-.33-2.25-.99-2.94-.66-.69-1.56-1.02-2.7-1.02-1.11 0-1.98.36-2.61 1.05-.66.69-.99 1.68-.99 2.91v4.5c0 1.23.33 2.22.99 2.91.63.69 1.5 1.05 2.61 1.05zM636.127 549.671c-1.38 1.05-2.25 1.68-2.61 1.83-.51.24-1.08.36-1.68.36-.93 0-1.68-.3-2.28-.93-.6-.66-.9-1.47-.9-2.52 0-.66.15-1.23.42-1.71.42-.66 1.11-1.29 2.1-1.86.99-.6 2.64-1.29 4.95-2.13v-.54c0-1.35-.21-2.25-.66-2.76-.42-.48-1.02-.75-1.83-.75-.63 0-1.11.18-1.47.51-.39.33-.57.72-.57 1.14l.03.84c0 .45-.12.81-.33 1.05-.24.24-.54.36-.9.36s-.66-.12-.9-.36c-.21-.27-.33-.6-.33-1.05 0-.84.42-1.62 1.29-2.31.84-.72 2.07-1.05 3.6-1.05 1.2 0 2.19.18 2.94.6.57.3.99.75 1.26 1.41.18.42.27 1.29.27 2.58v4.56c0 1.26.03 2.04.09 2.34.03.3.12.48.24.57.09.12.24.15.39.15.15 0 .27-.03.39-.09.21-.12.6-.48 1.2-1.08v.84c-1.11 1.44-2.13 2.19-3.15 2.19-.48 0-.84-.18-1.14-.51-.27-.33-.42-.9-.42-1.68zm0-.96v-5.13c-1.47.6-2.43 1.02-2.88 1.26-.75.42-1.32.87-1.65 1.35-.33.45-.48.99-.48 1.53 0 .72.21 1.29.63 1.74.42.48.9.72 1.44.72.75 0 1.71-.51 2.94-1.47zM645.752 540.611c1.56-1.89 3.06-2.82 4.5-2.82.72 0 1.35.18 1.89.54.51.36.93.96 1.26 1.8.21.6.3 1.5.3 2.7v5.73c0 .84.09 1.41.21 1.74.12.24.27.42.51.57.24.12.69.18 1.35.18v.54h-6.66v-.54h.3c.63 0 1.05-.09 1.29-.27.27-.18.42-.48.54-.84.03-.15.06-.6.06-1.38v-5.49c0-1.23-.18-2.1-.48-2.67-.33-.54-.87-.81-1.62-.81-1.14 0-2.31.63-3.45 1.89v7.08c0 .9.03 1.47.15 1.68.15.3.33.48.57.63.24.12.72.18 1.44.18v.54h-6.63v-.54h.3c.69 0 1.14-.15 1.38-.51.24-.33.36-1.02.36-1.98v-4.98c0-1.62-.03-2.61-.12-2.94-.06-.36-.18-.6-.33-.72a.966.966 0 00-.6-.21c-.27 0-.6.09-.99.24l-.21-.54 4.05-1.62h.63v2.82zM666.302 550.091c-.66.66-1.29 1.17-1.92 1.47-.63.3-1.29.45-2.01.45-1.47 0-2.76-.63-3.84-1.86-1.11-1.2-1.65-2.79-1.65-4.71s.6-3.69 1.83-5.28c1.2-1.59 2.76-2.4 4.68-2.4 1.17 0 2.13.39 2.91 1.14v-2.49c0-1.53-.03-2.46-.09-2.82-.09-.36-.21-.6-.36-.72a.923.923 0 00-.57-.18c-.27 0-.6.06-1.02.21l-.21-.51 4.02-1.62h.66v15.51c0 1.56.03 2.52.09 2.88.09.33.21.57.36.72.15.12.36.21.57.21.27 0 .6-.09 1.05-.27l.15.51-3.96 1.68h-.69v-1.92zm0-1.02v-6.93c-.06-.66-.24-1.26-.51-1.8-.3-.57-.69-.96-1.17-1.26-.48-.27-.96-.42-1.41-.42-.87 0-1.65.39-2.31 1.17-.9 1.02-1.32 2.49-1.32 4.44 0 1.98.42 3.48 1.29 4.53.84 1.05 1.8 1.59 2.85 1.59.9 0 1.74-.45 2.58-1.32zM687.512 551.891c-2.01 0-3.6-.57-4.77-1.68-1.2-1.11-1.8-2.67-1.8-4.62v-4.5c0-1.95.6-3.51 1.8-4.62 1.17-1.11 2.76-1.68 4.77-1.68 1.89 0 3.42.51 4.59 1.53s1.77 2.4 1.83 4.17h-2.7c-.06-1.05-.42-1.89-1.05-2.46-.66-.54-1.56-.84-2.67-.84-1.17 0-2.13.33-2.82.99-.69.69-1.05 1.65-1.05 2.88v4.53c0 1.23.36 2.19 1.05 2.88.69.69 1.65 1.02 2.82 1.02 1.11 0 2.01-.3 2.67-.87.63-.57.99-1.38 1.05-2.43h2.7c-.06 1.77-.66 3.15-1.83 4.17s-2.7 1.53-4.59 1.53z"
                fill="#b12e1e" fill-rule="nonzero" />
        </g>
    </g>
</svg>